<svg xmlns="http://www.w3.org/2000/svg" width="150" height="150" viewBox="0 0 150 98" xmlns:v="https://vecta.io/nano"><path d="M0 0h36.375v97.925781H0zm112.5 0H150v97.925781h-37.5zm0 0" fill="rgb(0%,60.000002%,100%)"/><path d="M36.375 0H112.5v97.925781H36.375V0m20.429688 24.003906c-1.148438 1.125-1.988282 2.527344-3.183594 3.601563.476562-1.582031 1.871094-2.664063 2.46875-4.179688-1.117188.519531-1.5625 1.738281-2.457032 2.503907.214844-.804688.835938-1.410157 1.121094-2.179688-.519531.226562-1.007812.578125-1.222656 1.121094-.515625 1.234375-.949219 2.511718-1.203125 3.828125-.160156.777343-.753906 1.359375-1.109375 2.050781-.511719.792969-.742188 1.777344-1.46875 2.425781.316406-1.714843.652344-3.453125 1.351562-5.0625l-.3125-.164062c-.578124.871093-.90625 1.859375-1.128906 2.867187l-.257812-.457031c.175781-.824219.734375-1.621094.53125-2.488281-.496094.488281-.765625 1.148437-.796875 1.835937-.492188 1.71875-.210938 3.53125-.496094 5.285157l-.691406.199218c0-.390625-.023438-.785156-.121094-1.167968-.566406 1.269531-.445313 2.710937-.390625 4.066406-.765625-.78125-.207031-1.980469-.816406-2.800782-.484375 2.058594.785156 3.890626 1.625 5.664063L47.90625 45.375c-.050781 0-.152344-.003906-.203125-.003906-.085937-1.816406-.113281-3.695313-.835937-5.398438-.183594.238282-.480469.453125-.429688.792969.066406 1.589844.605469 3.117187.71875 4.699219-.636719-.71875-.699219-1.71875-1.050781-2.578125-.324219-.808594-.34375-1.78125-.957031-2.445313-.289063 1.246094.613281 2.347656.574218 3.582032-.867187-.796876-.625-2.160157-1.390625-2.976563-.207031 1.308594.457031 2.515625 1.085938 3.613281.273437.507813.660156.96875.789062 1.542969.5 2.234375 1.582031 4.292969 2.125 6.511719-.457031-.386719-.714843-.925782-.988281-1.445313-.644531-1.082031-1.207031-2.21875-1.984375-3.222656-.152344-.214844-.398437-.328125-.609375-.46875-.179688.933594.570312 1.621094.953125 2.386719.535156 1.039062 1.390625 1.886718 1.828125 2.972656-1.636719-1.113281-2.597656-2.941406-4.109375-4.203125.125 1.292969 1.363281 2.046875 1.863281 3.167969-1.023437-.46875-1.496094-1.554688-2.359375-2.222656.0625.488281.207031.984374.566407 1.34375 1.109374 1.226562 2.523437 2.140624 3.933593 2.984374l-.449219-.023437.117188.144531c-.226562-.183594-.511719-.273437-.78125-.367187.300781.824219.996094 1.402343 1.476562 2.117187.730469 1.035156 1.667969 1.929688 2.21875 3.078125-1.632812-1.015625-2.773437-2.6875-4.527343-3.527343-.011719.253906.054687.484374.1875.691406 1.007812 1.1875 2.503906 1.855468 3.464843 3.089844-.757812-.335938-1.472656-.757813-2.203124-1.152344-.796876-.425782-1.496094-1.03125-2.371094-1.300782.578125 1.265626 2.046875 1.632813 2.992187 2.542969-1.203125-.324219-2.125-1.238281-3.320312-1.5625.277343.449219.628906.867188 1.101562 1.121094 1.402344.785156 3.015625 1.046875 4.5625 1.417969.523438.101562.785157.605468 1.109375.96875.589844.792968 1.371094 1.476562 1.695313 2.433594-1.566407-.957032-2.632813-2.636719-4.410157-3.257813.089844.261719.117188.574219.359376.757813 1.015624 1 2.324218 1.660156 3.304687 2.695312-1.699219-.339844-2.964844-1.667969-4.566406-2.246094.089843.183594.203125.355469.335937.507813l-.179687.566406-.308594-.167969c.0625.753906.828125 1.078125 1.421875 1.378906 1.65625.738282 3.464844 1.042969 5.230469 1.410157.546875.273437.980469.714843 1.460937 1.089843.59375.5 1.28125.921876 1.71875 1.578126-1.757812-.578126-3.21875-1.859376-5.046875-2.253907.058594.246094.121094.523438.375.644531.980469.628907 2.058594 1.097657 3.148438 1.523438.308593.105469.554687.316406.773437.550781-1.714844-.152343-3.269531-1.007812-4.972656-1.222656.828125.976563 2.183594 1.054687 3.28125 1.554687-1.121094.1875-2.121094-.464843-3.207031-.570312.175781.273438.386719.546875.714843.652344 1.71875.691406 3.605469.40625 5.402344.546875 1.34375.675781 2.417969 1.753906 3.730469 2.480469.214844.117187.375.304687.535156.488281-1.652343-.214844-2.828125-1.640625-4.433593-1.960938.074218-.480469-.730469-.0625-.273438.125.679688.511719 1.476562.863281 2.105469 1.449219l-1.691407-.265625c.183594.25.378907.527344.683594.636719 1.289063.632812 2.753906.707031 4.164063.710937.644531.851563 1.777343.851563 2.71875 1.132813.851562.242187 1.800781.160156 2.566406.648437-1.769531.265625-3.527344-.296875-5.304687-.128906.148437.160156.277343.371094.523437.378906l3.753906.632813c-1.28125.332031-2.578125-.230469-3.855469.035156 1.976563.957031 4.179688.09375 6.195313-.265625 1.023437-.0625 2.078125-.136719 3.082031.113281-1.242187.320313-2.539062.355469-3.765625.746094-.332031.132812-.902343.128906-.964843.570312.550781.101563 1.105468-.011718 1.648437-.121093L72.550781 76c-.71875 1.046875-2.136719.917969-3.050781 1.675781.660156.144531 1.320312-.042969 1.96875-.164062l.105469.429687c1.3125.105469 2.257812-1.039062 2.996093-1.964844.484376.355469 1.046876.554688 1.65625.488282.078126-.324219.207032-.648438.183594-.984375-.296875-.699219-1.15625-.488281-1.757812-.503907-.429688-1.535156-1.132813-3.125-2.507813-4.046874.589844 1.066406 1.632813 1.9375 1.726563 3.226562-1.210938-.800781-1.699219-2.34375-2.980469-3.074219.445313 1.011719 1.289063 1.769531 1.828125 2.726563-.832031-.386719-1.375-1.148438-2.074219-1.714844-.265625-.238281-.574219-.429688-.8125-.695312-.273437-.5-.457031-1.039063-.703125-1.550782l-.253906.15625c.269531.714844.535156 1.4375.6875 2.1875l-.527344-.035156c-.523437-.890625-.796875-1.902344-1.378906-2.757812-.140625 1.078124.699219 1.984374.777344 3.046874-.863282-.835937-1.167969-2.097656-2.132813-2.84375.183594 1.449219 1.582031 2.34375 1.96875 3.730469-.933593-.792969-1.296875-2.023437-2.144531-2.886719-.191406-.277343-.546875-.179687-.832031-.207031l-.105469-.140625c.058594-.574218.023438-1.152344.011719-1.726562h-.265625c.007812.964844.21875 2.179687-.691406 2.835937-.3125-1.171875.011718-2.359375-.082032-3.539062l-.300781.207031c-.359375.988281-.140625 2.066406-.304687 3.085938-.210938-.984376-.3125-1.984376-.46875-2.976563-.03125-.332031-.277344-.578125-.46875-.828125l.003906.214844-.40625.597656c-.027344-.359375-.359375-.566406-.582032-.808594-.101562.980469.339844 1.910156.367188 2.882813l-2.167969-3.066407c-.078125-.9375.320313-1.921874-.117187-2.820312-.164063 1.183594.03125 2.5-.6875 3.539062l-.214844-.0625c-.230469-1.300781.058594-2.609374.023438-3.917968l-.402344.039062c-.039063 1.042969.015625 2.097656-.140625 3.136719-.265625-1.011719-.289063-2.0625-.523438-3.074219-.03125-.269531-.1875-.488281-.4375-.601562l-.34375.898437-.210937-.753906-.492188.015625c.164063.9375.480469 1.847656.636719 2.789062C56.316406 65.507812 55.914062 64.703125 55.375 64c.433594-1.023438.914062-2.066406.988281-3.1875-.34375.34375-.382812.839844-.535156 1.277344-.15625.574218-.519531 1.070312-.945313 1.484375l-.191406-.070313c-.054687-1.234375.902344-2.335937.667969-3.566406-.242187.382812-.457031.789062-.558594 1.230469-.089843-.550781-.265625-1.082031-.445312-1.605469l-.035157-.417969c-.167968.175781-.351562.355469-.355468.613281-.140625.863282-.214844 1.738282-.21875 2.617188.011718.234375-.089844.453125-.195313.660156-.101562-1.089844.019531-2.183594.003907-3.269531.011718-.316406-.097657-.589844-.324219-.820313-.390625.929688-.152344 1.949219-.277344 2.921876-.300781-.6875-.625-1.378907-.761719-2.121094.640625-1.222656 1.347656-2.550782 1.246094-3.964844-.335938.78125-.550781 1.609375-.878906 2.398438-.246094-.203126-.683594.171874-.515625.445312l-.234375.027344c.097656-1.246094.695312-2.382813.855468-3.613282-.210937.125-.46875.234376-.5.507813l-.335937-.027344-.285156-.613281-.054688-.628906c-.144531.121094-.25.265625-.3125.4375l-.46875.171875c.035157-.351563-.152343-.78125.152344-1.054688.828125-.894531 1.695313-1.847656 2.023437-3.050781-1.011718.964844-1.621093 2.421875-3.054687 2.878906.421875-1.632812 2.058594-2.582031 2.527344-4.183594-.902344.589844-1.3125 1.625-2.039063 2.382813-.019531-1.269531 1.167969-2.203125 1.039063-3.492187-.917969 1.101562-1.371094 2.488281-1.816407 3.820312l-.378906.128906c.449219-1.476562 1.390625-2.847656 1.34375-4.4375-1.085937.660156-.675781 2.183594-1.472656 3.0625-.082031-1.09375-.011719-2.191406-.0625-3.289062 1.316406-.472656 2.753906-.980469 3.605469-2.15625-1.140625.480468-2.121094 1.429687-3.429688 1.421875l.269531-.566407c.914063-.273437 1.667969-.867187 2.464844-1.363281.296875-.164062.515625-.425781.683594-.714843-.980469.070312-1.609375 1.035156-2.585938 1.054687.691407-.796875 1.699219-1.332031 2.140626-2.324219-1.546876.394532-2.089844 2.0625-3.375 2.828125.09375-.414062.359374-.753906.691406-1.011719.839844-.6875 1.738281-1.398437 2.132812-2.445312-.171875-.011719-.339844-.015625-.511718-.007812-.566407.492187-.992188 1.128906-1.582032 1.601562.261719-.890625.550782-1.796875.996094-2.609375 1.113281-.414063 2.480469-.613281 3.175781-1.695313-.824219.253907-1.535156.78125-2.367187 1-.375.101563-.75.023438-1.058594-.199218l2.949219-1.453125c.242187-.125.410156-.335938.53125-.574219-.660157.1875-1.277344.511719-1.953125.625.363281-.800781 1.308594-1.074219 1.738281-1.824219-1.328125.332031-2.210937 1.457031-3.296875 2.207031.757812-1.21875 2.304688-1.714843 2.910156-3.0625-1.042968.121094-1.578125 1.164063-2.449218 1.628907.253906-.734375.6875-1.382813 1.101562-2.035157.804688.15625 1.628906.246094 2.4375.0625l-.324219-.324218c-.933593 0-1.878906.039062-2.800781-.144532l-.332031-.441406c1.425781-.140625 2.859375.042969 4.285156-.0625-.195313-.085937-.386719-.195312-.601563-.214844-.601562-.269531-1.277343-.257812-1.921874-.25.25-.09375.511718-.167968.746093-.296874l.15625-.035157c.199219.191407.730469.113281.738281-.199219.386719.03125.746094-.121093 1.050782-.34375l-.222656-.003906-.316407-.273437.183594-.355469.363281-.359375c-.949218-.203125-1.828125.316406-2.761718.347656.59375-.613281 1.40625-.949219 2.054687-1.5.792969-.71875 1.871094.339844 2.753906-.191406-.976562-.328125-2.023437-.472656-2.921875-1.003906-.226562-.132813-.332031-.382813-.472656-.585938 1.421875.140625 2.746094.902344 4.207031.730469-1.0625-.683594-2.464843-.492188-3.492187-1.21875 1.3125.097656 2.632812.257812 3.953125.152344l.0625-.230469c-1.238281-.496094-2.609375-.070313-3.871094-.464844 1.132813-.050781 2.277344.03125 3.402344-.144531.292969-.007812.503906-.21875.722656-.386719-.886719-.203125-1.785156.003907-2.671875-.046875-.214844-.183594-.410156-.386718-.613281-.582031.609375-.503906 1.125-1.140625 1.839843-1.503906.222657.066406.574219.113281.496094.425781-.71875.375-1.472656.722656-2.023437 1.335938.957031-.035157 1.800781-.539063 2.671875-.882813.71875.179687 1.414062.453125 2.15625.550781-.285156-.511718-.875-.671875-1.398438-.832031-.539062-.339844-1.148437-.640625-1.390625-1.269531 1.234375.480468 2.359375 1.246094 3.65625 1.550781-.128906-.1875-.234375-.414063-.46875-.492187-.769531-.371094-1.597656-.625-2.328125-1.074219 1.210938.050781 2.324219.671875 3.550782.601562-.476563-.347656-1.03125-.582031-1.613282-.679687-.585937-.15625-1.261718-.074219-1.746094-.496094 1.167969.140625 2.320313.605469 3.511719.351562-.566406-.621093-1.488281-.410156-2.164062-.816406.980469-.246094 2.011719-.320312 2.933593-.761718l-.410156-.242188c-.820312.058594-1.59375.464844-2.425781.363281 1.015625-.785156 2.375-1.089843 3.203125-2.121093-1.886719.359374-3.308594 1.890624-5.140625 2.402343 1.027344-1.34375 2.726563-2.035156 3.628906-3.496093l-.503906.085937c-1.320313.664063-2.140625 1.992187-3.414063 2.722656.628907-1.441406 1.917969-2.414062 2.789063-3.683593-.894531.203124-1.378906 1.035156-2.121094 1.488281.304688-.714844.949219-1.21875 1.21875-1.949219-1.917969.898438-2.234375 3.191406-3.246093 4.816406m36.140624-4.84375c.367188 1.027344 1.417969 1.628906 1.742188 2.675782-.949219-.699219-1.457031-1.96875-2.671875-2.304688.78125 1.332031 2.195313 2.257812 2.714844 3.738281-.699219-.554687-1.3125-1.207031-2.003907-1.769531-.554687-.445312-1.09375-1.039062-1.867187-1.03125.441406.691406 1.082031 1.21875 1.710937 1.738281.6875.570313 1.53125 1.007813 1.992188 1.800781-1.8125-.664062-3.332031-1.976562-5.191406-2.519531.136718.222657.257812.472657.492187.613281.945313.644532 2.03125 1.046876 2.980469 1.683594-1.054688 0-2.027344-.503906-3.085938-.488281l.230469.394531c.976563.339844 2.019531.449219 3.023438.6875l-2.078125.320313-.457032.222656.601563.769531-.390625.316406c1.207031-.015624 2.3125-.648437 3.527344-.632812-.839844.476562-1.777344.730469-2.636719 1.15625l-.089844.402344c1.046875-.316406 1.960938-.953125 3-1.28125l.367188.171875c-.796875.554687-1.636719 1.035156-2.480469 1.511719.78125.085937 1.46875-.683594 2.226562-.34375.773438.300781 1.605469.519531 2.273438 1.039062-.882812.058594-1.765625-.0625-2.648438.046875.140626.5625.773438.492187 1.226563.527344.90625.011719 1.816406.074219 2.714844.199219-1.136719.285156-2.332031.023437-3.484375.242187-.160156.066406-.300782.15625-.429688.269531.859375.097656 1.757813.136719 2.589844-.136718l1.667969.03125c-1.066407.804687-2.632813.414062-3.699219 1.242187 1.484375.085937 2.898438-.453125 4.308594-.828125l-.09375.417969c-.933594.789062-2.246094.757812-3.289063 1.328125.785157.132812 1.554688-.085938 2.324219-.222656.792969.472656 1.464844 1.171874 2.335938 1.550781l.066406.375c-.871094-.210938-1.726563-.613281-2.644532-.523438.597657 1.152344 2.125.78125 3.164063 1.167969-1.070313.347656-2.113281-.613281-3.171875-.097656 1.050781.632812 2.339844.484375 3.484375.851562-.933594.207032-1.878906.070313-2.816406.105469l-.328125.449219c1.425781.207031 2.90625-.378906 4.285156.144531-.59375.285156-1.234375.460937-1.875.582031-.566406-.09375-1.246094-.265625-1.703125.191406l1.273437.109376c.015626.601562.421876 1.066406.859376 1.441406l2.089843 1.8125c-1.289062-.582032-2.105469-1.933594-3.53125-2.25.6875 1.011718 1.921875 1.460937 2.675781 2.414062-.992187-.3125-1.84375-1.027344-2.90625-1.109375.945313.992188 2.386719 1.28125 3.496094 2.050781-.265625.355469-.699218.140626-1.050781.082032-.792969-.191406-1.472656-.675782-2.265625-.859375.769531 1.058593 2.160156 1.160156 3.257812 1.679687l1.09375 2.667969c-.726562-.546875-1.246093-1.296875-1.90625-1.90625l-.242187.378906.085937.15625-.210937.460938-.179687-.175781-.304688.105468c.601562.96875 1.621094 1.5625 2.265625 2.496094-.960937-.351562-1.746094-1.042969-2.714844-1.367188.21875.53125.796875.71875 1.234375 1.027344.765625.527344 1.679688.894532 2.253906 1.652344-1.3125-.027344-2.300781-.96875-3.484374-1.371094.773437.941406 1.914062 1.488282 3.050781 1.878906.234375.097657.625.183594.585937.519532l.019532 3.03125c-.90625-.839844-.515626-2.460938-1.582032-3.152344-.101562 1.667969 1.109375 3.039062 1.285156 4.667969-.25-.269531-.457031-.578125-.539062-.9375-.308594-1.175781-.863281-2.292969-1.613281-3.253907.003906.429688.015625.875.226562 1.265626.480469 1.007812 1.046875 1.980468 1.390625 3.050781-.960937-1.007813-1.472656-2.40625-2.652344-3.203125.589844 1.550781 1.957032 2.660156 2.632813 4.175781-1.457031-.402344-2.191406-1.851563-3.117187-2.910156.300781 1.398437 1.351562 2.433593 2.332031 3.40625-.351563 1.390625.054687 2.808593.015625 4.214843l-.175782.015626c-.191406-1.3125-.09375-2.65625-.421874-3.945313l-.363282-.058594c-.070312 1.265625.285156 2.507813.21875 3.773438-.503906-1.003907-.402344-2.320313-1.28125-3.105469.109375 1.402344.914063 2.660156.917969 4.078125-1.195313-.722656-1.195313-2.210937-1.765625-3.332031-.097656 1.394531.660156 2.625 1.175781 3.863281.109375.761719-.300781 1.488281-.554687 2.1875-.160156-.933594.078125-2.019531-.476563-2.828125l-.183593.570312-.410157.351563-.15625-.8125c-.25.316406-.421875.703125-.328125 1.113281l-.476562.664063c-.058594-.386719-.324219-.671875-.632813-.886719.230469 1.203125.769531 2.324219.910157 3.546875-1.183594-.460937-1.125-1.859375-1.71875-2.773437-.003907 1.152343.523437 2.21875.996093 3.242187l-1.347656 2.074219c-.023437-.976563.449219-1.898438.355469-2.875-.234375.226562-.484375.460937-.578125.785156-.371094 1.105469-.292969 2.296875-.65625 3.40625-.25-1.429688.582031-2.785156.265625-4.210938-.144532.183594-.300782.359376-.40625.574219-.28125 1.0625-.207032 2.179688-.410156 3.257813-.191407-.921875-.199219-1.859375-.253907-2.792969.007813-.265625-.183593-.464844-.320312-.667969-.175781 1.414063.160156 2.835938-.050781 4.246094-1.023438-.921875-.691407-2.449219-.925782-3.664062-.40625.910156-.066406 1.898437-.121094 2.84375-.164062.355468-.433593.644531-.65625.964843-.507812.667969-.839843 1.445313-1.386718 2.085938l.296875-2.726563c-.199219.136719-.535157.1875-.566407.476563-.195312.863281-.210937 1.761719-.5 2.605469-.214843-1.023438.355469-2.042969.035157-3.070313l-.394531.410156-.371094 1.226563-.300782-.28125c-.046874-.34375-.148437-.675782-.25-1.007813l-.210937.417969c-.078125 1.082031.242187 2.164062.0625 3.246094-1.09375-.648438-.714844-2.070313-.863281-3.113282-.484375 1-.058594 2.136719-.132813 3.195313l-1.640625 1.21875c.324219-.898437 1.261719-1.503906 1.304688-2.5-.425782.253906-.832032.542969-1.234375.828125.203125-.386719.4375-.785156.367187-1.242188-.980468.765626-1.242187 2.0625-2.125 2.914063.230469-.945313.601563-1.847656.886719-2.777344l-.238281-.234375c-.390625.90625-.699219 1.855469-1.230469 2.691406l-.546875.003907c.179688-.824219.566406-1.59375.726562-2.425781-.707031.5-.660156 1.550781-1.40625 2.007812-.792968.578125-1.414062 1.339844-2.164062 1.960938.3125-1.039063 1.28125-1.738282 1.535156-2.792969-1.199218.902343-1.75 2.390625-2.941406 3.292969.066406-1.3125 1.171875-2.164063 1.636719-3.3125-.292969.203124-.589844.417968-.800781.714843-.730469 1.007813-1.339844 2.128907-1.59375 3.355469-.558594-.023438-1.128907-.035156-1.671876.128906-.019531.464844.03125.925782.152344 1.375.617188.0625 1.167969-.1875 1.683594-.492187.589844.75 1.203125 1.605469 2.191406 1.851562l.925782.304688.179687-.457031c.59375.066406 1.253906.28125 1.785156-.105469l-.222656-.003907c-.71875-.550781-1.675781-.597656-2.449219-1.054687-.085937-.164063-.164062-.335937-.226562-.507813 1.664062.351563 3.300781.957032 5.023437.945313-.347656-.597656-1.109375-.617187-1.707031-.785156-.980469-.257813-2.03125-.226563-2.972656-.632813 1.5625-.175781 3.136718-.089844 4.675781.222656l-.167969.015626c1.445313.429687 3.035156.480468 4.496094.09375l.195312.019531c-.46875-.421875-1.152343-.417969-1.703124-.171875-.683594.003906-1.371094.042968-2.054688-.039063 1.1875-.316406 2.425781-.355469 3.625-.613281.269531-.011719.433594-.21875.601562-.398438l-2.660156.078126c-.914062.039062-1.824218.269531-2.742187.109374.222656-.136718.445312-.296874.71875-.332031l3.597656-.785156c.484375-.117187.75-.640625 1.246094-.707031 1.015625-.15625 2.074219-.042969 3.054687-.402344.628906-.238281 1.347656-.457031 1.683594-1.085938l-1.816406.472657c.53125-.820313 1.632812-.988281 2.160156-1.804688-1.515625.234375-2.65625 1.375-4.050781 1.921875-.28125.167969-.503907-.113281-.730469-.238281l-.128906.015625c.496094-.054688.878906-.394531 1.253906-.691406.207031-.011719.4375.015625.605469-.140625.824219-.585938 1.550781-1.347657 2.503906-1.722657 1.109375-.109374 2.222656.019532 3.328125-.144531 1.003906-.136719 2.15625-.234375 2.859375-1.058593-1.195313.035156-2.269531.703124-3.476563.660156 1.125-.628906 2.539063-.679688 3.480469-1.636719-1.710937.070313-3.246093 1.113281-4.984375 1.113281.925782-.589844 1.976563-.941406 2.949219-1.433594.554687-.292968 1.285156-.539062 1.386719-1.25-1.867188.375-3.34375 1.675782-5.09375 2.347657.667968-.964844 1.722656-1.5625 2.59375-2.328125.714844-.710938 1.792968-.5 2.671875-.851563 1.234375-.199219 2.457031-.558593 3.5625-1.144531.492187-.25.847656-.675781 1.152343-1.121094l-1.199218-.039062c.394531-.238282.679687-.609375.894531-1.011719-1.566406.550781-2.789063 1.835937-4.414063 2.234375.882813-1.078125 2.226563-1.65625 3.136719-2.710938.210938-.1875.222657-.480468.292969-.734374l-.261719-.402344c1.386719-.328125 2.824219-.707032 3.929688-1.648438.1875-.160156.207031-.433594.304687-.644531-1.105468.496094-2.085937 1.238281-3.234375 1.636719.945313-.945313 2.414063-1.335938 3.027344-2.601563-1.632813.582031-2.90625 1.894531-4.5625 2.425781.96875-1.160156 2.367187-1.882812 3.367187-3.015624.152344-.210938.167969-.476563.238282-.71875-.972656.394531-1.6875 1.175781-2.5 1.804687-.675782.511719-1.148438 1.292969-1.960938 1.617187.992188-1.695312 2.359375-3.128906 3.527344-4.703124l.140625.128906-.492187-.707032c1.464843-1.023437 3.28125-1.945312 3.886718-3.738281-.957031.207031-1.121094 1.441407-2.042968 1.710938l.0625-.316407c.546874-.796874 1.230468-1.554687 1.445312-2.519531-.578125.332031-.988281.871094-1.402344 1.378907-.675781.363281-1.105468 1.011718-1.597656 1.570312l-.285156-.28125c.679687-.867188 1.265625-1.804688 1.773437-2.777344.210938-.34375.089844-.75.027344-1.117187-.863281 1.023437-1.65625 2.117187-2.226563 3.328125l-.570312.453125-.09375-.476563c.585938-1.628906 1.328125-3.226562 1.609375-4.949218.757813-1.511719 2.039063-2.988282 1.738281-4.792969-.171875.199219-.347656.40625-.398437.671875-.261719.972656-.527344 1.984375-1.171875 2.789062.160156-1.414062 1.03125-2.757812.679687-4.207031-.375.484375-.457031 1.097656-.605469 1.667969-.265624 1.117187-.679687 2.191406-1.027343 3.285156L106 45.222656c.253906-1.480468.667969-2.941406.640625-4.453125.0625-.359375-.15625-.660156-.328125-.949219-1 1.664063-.394531 3.683594-.9375 5.457032-.375-1.109375-.160156-2.289063-.34375-3.429688-.078125-.496094-.15625-1.035156.113281-1.492187.75-1.636719 1.890625-3.375 1.296875-5.246094-.332031.632813-.191406 1.367187-.335937 2.046875-.324219-.613281-.371094-1.316406-.480469-1.988281-.078125-.421875-.109375-.910157-.488281-1.183594-.070313 1.078125.007812 2.164063-.039063 3.242187-.03125.605469-.015625 1.25-.355468 1.777344-.179688-1.140625-.171876-2.296875-.222657-3.445312-.019531-.753906-.316406-1.472656-.316406-2.226563-.003906-1.511719 0-3.058593-.480469-4.511719-.125-.425781-.398437-.785156-.675781-1.128906-.144531.582032.167969 1.113282.3125 1.660156.226563.691407.308594 1.421876.3125 2.148438l-1.003906-2.941406c-.128907-.324219-.410157-.546875-.667969-.765625.316406 1.757812 1.058594 3.429687 1.265625 5.210937-.660156-.644531-.949219-1.542968-1.433594-2.308594-.398437-.726562-.976562-1.375-1.175781-2.191406l-1.039062-3.429687c-.265626-.609375-.699219-1.25-1.40625-1.378907.371093.75 1.023437 1.367188 1.175781 2.214844-.855469-.871094-1.363281-2.089844-2.523438-2.648437.59375 1.507812 1.921875 2.601562 2.484375 4.132812-1.136718-.859375-1.832031-2.144531-2.863281-3.113281-.496094-.417969-.683594-1.050781-.933594-1.621094-.601562-1.3125-1.171875-2.882812-2.605469-3.5m-.816406 14.242188c-.675781.277344-1.195312.851562-1.457031 1.523437-.417969 1.28125-1.066406 2.46875-1.492187 3.75-.628907 1.417969-.84375 2.964844-1.289063 4.4375-.09375.5-.660156.609375-1.078125.707031-1.496094-.164062-3-.386718-4.503906-.222656-1.683594.007813-3.289063.566406-4.933594.855469-1.023438.234375-2.011719-.285156-2.898438-.730469-1.050781-.589844-2.273437-.78125-3.332031-1.351562-.859375-1.4375-1.644531-2.917969-2.6875-4.234375.066407-.355469.289063-.699219.238281-1.0625-.320312-.496094-.964843-.371094-1.472656-.453125-.1875-.441406-.589844-1.046875-1.152344-.804688-1.101562.695313-2.503906.265625-3.671874.789063-.488282.175781-.847657.5625-1.257813.863281-.566406.246094-1.191406.292969-1.785156.445312l.058593 1.261719-.964843-.027343c-.179688.289062-.433594.507812-.703125.707031l.65625-.203125-.035156.503906c.457031.191406.925781.15625 1.339843-.117188l.390625.679688c-.699218.191406-1.375.597656-1.746094 1.242188-1.019531 1.628906-.925781 3.664062-1.839843 5.339843.382812.582031 1.082031 1.046875 1.191406 1.753907-.707031.179687-1.671875.304687-1.945313 1.097656l-.425781 2.089844.605469-.085938.011719.507812c1.015625-.605468 2.230469-.667968 3.308593-1.121093l.480469.066406-.023437-.160156.253906-.320313.382812.242188 1.476563-.214844 1 .007812.089844 1.257813-.488281.265625-1.25.136719c-1.429688.273437-2.890626.039062-4.328126.140625-.753906.132812-1.160156.824218-1.339843 1.503906l1.054687-.191406c-.167968.65625-.464844 1.289062-.460937 1.980468.414062-.324218.816406-.667968 1.308593-.878906L57.40625 56.6875c.367188-.230469.625-.6875 1.097656-.703125.972656-.0625 1.746094-.699219 2.582032-1.101563l2.757812.039063c.042969.589844.097656 1.199219.414062 1.71875.234376.742187.558594 1.578125 1.332032 1.90625 1.097656-1.503906.550781-3.4375.710937-5.152344.125.390625.007813.882813.261719 1.214844l3.148438-.167969c.410156.03125.671874-.320312.964843-.539062.730469.234375 1.5.277344 2.261719.304687 2.226562-.042969 4.460938-.429687 6.542969-1.21875-.148438.570313-.5625 1.121094-.398438 1.730469.273438.878906 1.421875 1.460938 1.054688 2.496094-.894531.332031-1.753907-.269532-2.644531-.171875-.734376.347656-1.789063.429687-1.992188 1.371093.386719-.046874.863281-.519531 1.183594-.128906-.117188.761719-.539063 1.429688-.75 2.167969.824218-.394531 1.761718-1.136719 2.667968-.476563l-.242187 1.039063c.765625-.4375 1.648437-.558594 2.519531-.59375.582032-.644531 1.304688-1.183594 2.140625-1.453125.683594-.25 1.445313-.164062 2.089844-.523438-.222656-.957031-1.121094-1.527343-1.429687-2.445312.847656-.089844 1.792968.164062 2.546874-.355469.394532-.199219.441407-.675781.609376-1.035156 1.214843.714844 2.597656 1.054687 3.976562 1.269531-.402344.71875-1.3125.789063-1.910156 1.289063-.609375.570312-1.722656.53125-1.953125 1.464843.628906-.085937 1.246093-.308593 1.886719-.210937.054687.71875-.113282 1.429687-.136719 2.144531.691406-.652344 1.566406-1.035156 2.464843-1.320312.535157.625 1.109376 1.234375 1.820313 1.667968.222656-1.347656.597656-2.710937 1.4375-3.8125.066406-.5625.035156-1.136718-.042969-1.695312-.421875-.539062-1.171875-.671875-1.652344-1.144531-.441406-.441407-.96875-.859375-1.15625-1.476563-.675781-1.757812-.195312-3.722656-.839843-5.480468-.132813-.429688-.589844-.808594-.410157-1.289063.496094-.414063 1.132813-.644531 1.570313-1.136719.769531-.703125 1.261719-1.644531 1.734375-2.558594.761719-1.574218.316406-3.371093.605469-5.039062.160156-1.519531.601562-2.988281 1.148437-4.410156-1.109375-.109375-2.230468.097656-3.25.53125zm0 0" fill="rgb(100%,100%,100%)"/><path d="M56.804688 24.003906c1.011718-1.625 1.328124-3.917968 3.246093-4.816406-.269531.730469-.914062 1.234375-1.21875 1.949219.742188-.453125 1.226563-1.285157 2.121094-1.488281-.871094 1.269531-2.160156 2.242187-2.789063 3.683593 1.273438-.730469 2.09375-2.058593 3.414063-2.722656l.503906-.085937c-.902343 1.460937-2.601562 2.152343-3.628906 3.496093 1.832031-.511719 3.253906-2.042969 5.140625-2.402343-.828125 1.03125-2.1875 1.335937-3.203125 2.121093.832031.101563 1.605469-.304687 2.425781-.363281l.410156.242188c-.921874.441406-1.953124.515624-2.933593.761718.675781.40625 1.597656.195313 2.164062.816406-1.191406.253907-2.34375-.210937-3.511719-.351562.484376.421875 1.160157.339844 1.746094.496094.582032.097656 1.136719.332031 1.613282.679687-1.226563.070313-2.339844-.550781-3.550782-.601562.730469.449219 1.558594.703125 2.328125 1.074219.234375.078124.339844.304687.46875.492187-1.296875-.304687-2.421875-1.070313-3.65625-1.550781.242188.628906.851563.929687 1.390625 1.269531l-.757812.28125c-.871094.34375-1.714844.847656-2.671875.882813.550781-.613282 1.304687-.960938 2.023437-1.335938.078125-.3125-.273437-.359375-.496094-.425781-.714843.363281-1.230468 1-1.839843 1.503906l.613281.582031c.886719.050782 1.785156-.15625 2.671875.046875-.21875.167969-.429687.378907-.722656.386719-1.125.175781-2.269531.09375-3.402344.144531 1.261719.394531 2.632813-.03125 3.871094.464844-1.386719.230469-2.78125-.132813-4.171875-.027344l.15625.105469c1.027344.726562 2.429687.535156 3.492187 1.21875-1.460937.171875-2.785156-.589844-4.207031-.730469.140625.203125.246094.453125.472656.585938.898438.53125 1.945313.675781 2.921875 1.003906-.882812.53125-1.960937-.527344-2.753906.191406-.648437.550781-1.460937.886719-2.054687 1.5.933593-.03125 1.8125-.550781 2.761718-.347656l-.363281.359375c-1.199219.433594-2.558594.332031-3.675781 1 .429687.269531.839844.613281 1.351562.699219.632813.105469 1.273438.054687 1.910156.058593.214844.019532.40625.128907.601563.214844-1.425781.105469-2.859375-.078125-4.285156.0625l.332031.441406c.921875.183594 1.867188.144532 2.800781.144532l.324219.324218c-.808594.183594-1.632812.09375-2.4375-.0625-.414062.652344-.847656 1.300782-1.101562 2.035157.871093-.464844 1.40625-1.507813 2.449218-1.628907-.605468 1.347657-2.152344 1.84375-2.910156 3.0625 1.085938-.75 1.96875-1.875 3.296875-2.207031-.429687.75-1.375 1.023438-1.738281 1.824219.675781-.113281 1.292968-.4375 1.953125-.625-.121094.238281-.289063.449219-.53125.574219-.941407.5625-1.949219 1-2.949219 1.453125.308594.222656.683594.300781 1.058594.199218.832031-.21875 1.542968-.746093 2.367187-1-.695312 1.082032-2.0625 1.28125-3.175781 1.695313-.445312.8125-.734375 1.71875-.996094 2.609375.589844-.472656 1.015625-1.109375 1.582032-1.601562.171874-.007813.339843-.003907.511718.007812-.394531 1.046875-1.292968 1.757812-2.132812 2.445312-.332032.257813-.597656.597657-.691406 1.011719 1.285156-.765625 1.828124-2.433593 3.375-2.828125-.441407.992188-1.449219 1.527344-2.140626 2.324219-.242187.308594-.402343.667969-.5625 1.023437l-.269531.566407c1.308594.007812 2.289063-.941407 3.429688-1.421875-.851563 1.175781-2.289063 1.683594-3.605469 2.15625l.0625 3.289062c.796875-.878906.386719-2.402344 1.472656-3.0625.046875 1.589844-.894531 2.960938-1.34375 4.4375l.378906-.128906c.445313-1.332031.898438-2.71875 1.816407-3.820312.128906 1.289062-1.058594 2.222656-1.039063 3.492187.726563-.757813 1.136719-1.792969 2.039063-2.382813-.46875 1.601563-2.105469 2.550782-2.527344 4.183594 1.433594-.457031 2.042969-1.914062 3.054687-2.878906-.328124 1.203125-1.195312 2.15625-2.023437 3.050781-.304687.273438-.117187.703125-.152344 1.054688.078125 1.21875-.363281 2.480469.074219 3.660156.277344-1.261719.109375-2.570313.394531-3.832031.0625-.171875.167969-.316406.3125-.4375l.054688.628906c-.011719.675781-.132813 1.34375-.238281 2.011719-.0625.488281-.210938 1.03125.054687 1.492187.195313.304688.480469.535156.746094.78125l.085937.554688c.136719.742187.460938 1.433594.761719 2.121094.125-.972657-.113281-1.992188.277344-2.921876.226562.230469.335937.503907.324219.820313l-.003907 3.269531c.105469-.207031.207031-.425781.195313-.660156.003906-.878906.078125-1.753906.21875-2.617188.003906-.257812.1875-.4375.355468-.613281l.035157.417969c.042969 1.101562-.195313 2.195312-.105469 3.296875.242188-.542969.414062-1.113281.550781-1.691406.101563-.441407.316407-.847657.558594-1.230469.234375 1.230469-.722656 2.332031-.667969 3.566406l.191406.070313c.425782-.414063.789063-.910157.945313-1.484375.152344-.4375.191406-.933594.535156-1.277344-.074219 1.121094-.554687 2.164062-.988281 3.1875.539062.703125.941406 1.507812 1.546875 2.164062-.15625-.941406-.472656-1.851562-.636719-2.789062l.492188-.015625.210937.753906.667969 3.421875c.332031-1.445312-.367188-2.863281-.324219-4.320312.25.113281.40625.332031.4375.601562.234375 1.011719.257813 2.0625.523438 3.074219.15625-1.039063.101562-2.09375.140625-3.136719l.402344-.039062c.035156 1.308594-.253907 2.617187-.023438 3.917968l.214844.0625c.71875-1.039062.523437-2.355468.6875-3.539062.4375.898438.039062 1.882812.117187 2.820312L62 70.042969c-.027344-.972657-.46875-1.902344-.367188-2.882813.222657.242188.554688.449219.582032.808594.226562 1.125.320312 2.289062.777344 3.355469.191406-1.335938-.476563-2.609375-.371094-3.953125l-.003906-.214844c.191406.25.4375.496094.46875.828125l.46875 2.976563c.164062-1.019532-.054688-2.097657.304687-3.085938l.300781-.207031c.09375 1.179687-.230468 2.367187.082032 3.539062.910156-.65625.699218-1.871093.691406-2.835937h.265625l-.011719 1.726562-.191406 1.1875 1.945312 1.320313c-.472656-.835938-1.085937-1.585938-1.648437-2.367188.285156.027344.640625-.070312.832031.207031.847656.863282 1.210938 2.09375 2.144531 2.886719-.386719-1.386719-1.785156-2.28125-1.96875-3.730469.964844.746094 1.269531 2.007813 2.132813 2.84375-.078125-1.0625-.917969-1.96875-.777344-3.046874.582031.855468.855469 1.867187 1.378906 2.757812l.527344.035156c-.152344-.75-.417969-1.472656-.6875-2.1875l.253906-.15625.703125 1.550782c.238281.265624.546875.457031.8125.695312.699219.566406 1.242188 1.328125 2.074219 1.714844-.539062-.957032-1.382812-1.714844-1.828125-2.726563 1.28125.730469 1.769531 2.273438 2.980469 3.074219-.09375-1.289062-1.136719-2.160156-1.726563-3.226562 1.375.921874 2.078125 2.511718 2.507813 4.046874.601562.015626 1.460937-.195312 1.757812.503907.023438.335937-.105468.660156-.183594.984375-.609374.066406-1.171874-.132813-1.65625-.488282-.738281.925782-1.683593 2.070313-2.996093 1.964844l-.105469-.429687c-.648438.121093-1.308594.308593-1.96875.164062.914062-.757812 2.332031-.628906 3.050781-1.675781l-3.597656.824219c-.542969.109375-1.097656.222656-1.648437.121093.0625-.441406.632812-.4375.964843-.570312 1.226563-.390625 2.523438-.425781 3.765625-.746094-1.003906-.25-2.058594-.175781-3.082031-.113281-2.015625.359375-4.21875 1.222656-6.195313.265625 1.277344-.265625 2.574219.296875 3.855469-.035156-1.234375-.296875-2.503906-.410156-3.753906-.632813-.246094-.007812-.375-.21875-.523437-.378906 1.777343-.167969 3.535156.394531 5.304687.128906-.765625-.488281-1.714844-.40625-2.566406-.648437-.941407-.28125-2.074219-.28125-2.71875-1.132813-1.410157-.003906-2.875-.078125-4.164063-.710937-.304687-.109375-.5-.386719-.683594-.636719.570313.050781 1.125.203125 1.691407.265625-.628907-.585938-1.425781-.9375-2.105469-1.449219l.273438-.125c1.605468.320313 2.78125 1.746094 4.433593 1.960938-.160156-.183594-.320312-.371094-.535156-.488281-1.3125-.726563-2.386719-1.804688-3.730469-2.480469-1.796875-.140625-3.683594.144531-5.402344-.546875-.328124-.105469-.539062-.378906-.714843-.652344 1.085937.105469 2.085937.757812 3.207031.570312-1.097656-.5-2.453125-.578124-3.28125-1.554687 1.703125.214844 3.257812 1.070313 4.972656 1.222656-.21875-.234375-.464844-.445312-.773437-.550781-1.089844-.425781-2.167969-.894531-3.148438-1.523438-.253906-.121093-.316406-.398437-.375-.644531 1.828125.394531 3.289063 1.675781 5.046875 2.253907-.4375-.65625-1.125-1.078126-1.71875-1.578126-.480468-.375-.914062-.816406-1.460937-1.089843-1.765625-.367188-3.574219-.671875-5.230469-1.410157-.59375-.300781-1.359375-.625-1.421875-1.378906l.308594.167969c.925781.542969 1.839843 1.144531 2.902343 1.386719-.894531-.667969-1.90625-1.179688-2.722656-1.953125-.132812-.152344-.246094-.324219-.335937-.507813 1.601562.578125 2.867187 1.90625 4.566406 2.246094-.980469-1.035156-2.289063-1.695312-3.304687-2.695312-.242188-.183594-.269532-.496094-.359376-.757813 1.777344.621094 2.84375 2.300781 4.410157 3.257813-.324219-.957032-1.105469-1.640626-1.695313-2.433594-.324218-.363282-.585937-.867188-1.109375-.96875-1.546875-.371094-3.160156-.632813-4.5625-1.417969-.472656-.253906-.824219-.671875-1.101562-1.121094 1.195312.324219 2.117187 1.238281 3.320312 1.5625-.945312-.910156-2.414062-1.277343-2.992187-2.542969.875.269532 1.574218.875 2.371094 1.300782l2.203124 1.152344c-.960937-1.234376-2.457031-1.902344-3.464843-3.089844-.132813-.207032-.199219-.4375-.1875-.691406 1.753906.839843 2.894531 2.511718 4.527343 3.527343-.550781-1.148437-1.488281-2.042969-2.21875-3.078125-.480468-.714844-1.175781-1.292968-1.476562-2.117187.269531.09375.554688.183593.78125.367187.859375.980469 1.5625 2.078125 2.417969 3.058594-.203125-.773438-.425781-1.546875-.777344-2.265625-.234375-.519531-.835937-.675781-1.308594-.914063-1.410156-.84375-2.824219-1.757812-3.933593-2.984374-.359376-.359376-.503907-.855469-.566407-1.34375.863281.667968 1.335938 1.753906 2.359375 2.222656-.5-1.121094-1.738281-1.875-1.863281-3.167969 1.511719 1.261719 2.472656 3.089844 4.109375 4.203125-.4375-1.085938-1.292969-1.933594-1.828125-2.972656-.382813-.765625-1.132813-1.453125-.953125-2.386719.210938.140625.457031.253906.609375.46875.777344 1.003906 1.339844 2.140625 1.984375 3.222656.273438.519531.53125 1.058594.988281 1.445313-.542969-2.21875-1.625-4.277344-2.125-6.511719-.128906-.574219-.515625-1.035156-.789062-1.542969-.628907-1.097656-1.292969-2.304687-1.085938-3.613281.765625.816406.523438 2.179687 1.390625 2.976563.039063-1.234376-.863281-2.335938-.574218-3.582032.613281.664063.632812 1.636719.957031 2.445313.351562.859375.414062 1.859375 1.050781 2.578125-.113281-1.582032-.652344-3.109375-.71875-4.699219-.050781-.339844.246094-.554687.429688-.792969.722656 1.703125.75 3.582032.835937 5.398438l.203125.003906.339844-4.421875c-.839844-1.773437-2.109375-3.605469-1.625-5.664063.609375.820313.050781 2.019532.816406 2.800782-.054688-1.355469-.175781-2.796875.390625-4.066406.097656.382812.121094.777343.121094 1.167968l.128906 2.769532c-.003906.445312.15625.863281.347656 1.253906.164063-1.402344.109375-2.820313.214844-4.222656.285156-1.753907.003906-3.566407.496094-5.285157l.230469 2 .292968-.890625c.222656-1.007812.550782-1.996094 1.128906-2.867187l.3125.164062c-.699218 1.609375-1.035156 3.347657-1.351562 5.0625.726562-.648437.957031-1.632812 1.46875-2.425781.355469-.691406.949219-1.273438 1.109375-2.050781.253906-1.316407.6875-2.59375 1.203125-3.828125.214844-.542969.703125-.894532 1.222656-1.121094-.285156.769531-.90625 1.375-1.121094 2.179688.894532-.765626 1.339844-1.984376 2.457032-2.503907-.597656 1.515625-1.992188 2.597657-2.46875 4.179688 1.195312-1.074219 2.035156-2.476563 3.183594-3.601563m-.140626 1.199219c-.667968.433594-1.09375 1.125-1.679687 1.648437-.414063.367188-.808594.761719-1.082031 1.246094 1.121094-.636718 2.023437-1.570312 3.066406-2.316406-.074219-.207031-.03125-.519531-.304688-.578125m-4.082031 4.660156c-.425781.53125-.703125 1.160157-1.09375 1.71875-.347656.507813-.726562 1.007813-.882812 1.613281.578125-.3125.90625-.894531 1.257812-1.417968.375-.589844.824219-1.121094 1.234375-1.6875-.171875-.082032-.328125-.1875-.515625-.226563m.773438.761719c-.449219.417969-.765625.957031-.941407 1.539062.769532-.21875 1.371094-.777343 1.824219-1.40625-.289062-.050781-.589843-.226562-.882812-.132812m-4.058594 4.542969c.03125 1.292969-.375 2.554687-.265625 3.847656.539062-.890625.480469-2 .746094-2.984375.1875-.414062-.214844-.636719-.480469-.863281m1.113281.535156l-.121094.597656c-.285156.480469-.394531 1.027344-.414062 1.578125.179688-.175781.570312-.269531.472656-.582031.253906-.363281.554688-.726563.621094-1.175781-.070312-.238282-.382812-.277344-.558594-.417969M48.710938 41.25l-.101563 3.082031c.417969-.917969.671875-1.898437.988281-2.855469-.207031-.289062-.578125-.222656-.886718-.226562m-1.632813 6.105469l.917969 2.902343c.066406.296876.203125.566407.425781.777344.066406-1.09375.03125-2.191406-.082031-3.28125l-1.261719-.398437m2.21875 7.285156c.15625.636719.382813 1.25.636719 1.855469l-.066406.402344.371093.046874c.027344-.695312.007813-1.386718-.042969-2.074218l.035157-.289063-.933594.058594m1.75 5.824219l1.285156 1.691406c.015625-.726562-.371093-1.375-.648437-2.023438l-.636719.332032m3.617187 4.613281c.472657.59375 1.085938 1.074219 1.738282 1.46875-.359375-.679687-.800782-1.304687-1.191406-1.964844-.21875.128907-.796876.132813-.546876.496094m4.976563 2.644531l-.339844.796875c.699219.773438 1.546875 1.40625 2.339844 2.089844-.484375-1.074219-1.222656-2.007813-2-2.886719M58.136719 69.375c1.277343 1.015625 2.644531 1.996094 4.1875 2.574219-.742188-.875-1.730469-1.484375-2.601563-2.226563-.277344-.226562-.546875-.46875-.867187-.632812-.253907.0625-.484375.179687-.71875.285156m6.5625 2.519531l-.242188.699219 2.507813.695312c-.671875-.589843-1.464844-1.015624-2.265625-1.394531m5.230469.328125c.128906.34375.320312.664063.617187.890625.65625.550781 1.234375 1.238281 2.058594 1.554688-.292969-.632813-.886719-1.023438-1.390625-1.472657-.402344-.355468-.808594-.71875-1.285156-.972656m-6.816407.839844c.542969.351562 1.191407.4375 1.804688.601562.921875.226563 1.847656.472657 2.804687.542969-1.007812-.609375-2.167968-.863281-3.296875-1.140625-.429687-.117187-.878906-.058594-1.3125-.003906m6.167969-.042969c-.210938.222657.152344.632813.398438.429688.214843-.226563-.152344-.636719-.398438-.429688m.855469 1.175781l.96875-.011718c-.261719-.289063-.539063-.5625-.832031-.808594l-.136719.820312m.023437.300782l-.230468.464844 1.363281-.003907-1.132813-.460937zm0 0" fill="rgb(20.784314%,58.039218%,20.784314%)"/><path d="M92.945312 19.160156c1.433594.617188 2.003907 2.1875 2.605469 3.5.25.570313.4375 1.203125.933594 1.621094 1.03125.96875 1.726563 2.253906 2.863281 3.113281-.5625-1.53125-1.890625-2.625-2.484375-4.132812 1.160157.558593 1.667969 1.777343 2.523438 2.648437-.152344-.847656-.804688-1.464844-1.175781-2.214844.707031.128907 1.140624.769532 1.40625 1.378907.453124 1.109375.742187 2.273437 1.039062 3.429687.199219.816406.777344 1.464844 1.175781 2.191406.484375.765626.773438 1.664063 1.433594 2.308594-.207031-1.78125-.949219-3.453125-1.265625-5.210937.257812.21875.539062.441406.667969.765625.40625.953125.679687 1.957031 1.003906 2.941406-.003906-.726562-.085937-1.457031-.3125-2.148438-.144531-.546874-.457031-1.078124-.3125-1.660156.277344.34375.550781.703125.675781 1.128906.480469 1.453126.476563 3 .480469 4.511719 0 .753907.296875 1.472657.316406 2.226563l.222657 3.445312c.339843-.527344.324218-1.171875.355468-1.777344l.039063-3.242187c.378906.273437.410156.761719.488281 1.183594.097656 1.015625.015625 2.035156.0625 3.054687.160156-.347656.316406-.699218.417969-1.066406.144531-.679688.003906-1.414062.335937-2.046875.59375 1.871094-.546875 3.609375-1.296875 5.246094-.269531.457031-.191406.996093-.113281 1.492187.183594 1.140625-.03125 2.320313.34375 3.429688.542969-1.773438-.0625-3.792969.9375-5.457032.171875.289063.390625.589844.328125.949219.027344 1.511719-.386719 2.972657-.640625 4.453125l.324219-.128906 1.027343-3.285156c.148438-.570313.230469-1.183594.605469-1.667969.351563 1.449219-.519531 2.792969-.679687 4.207031.644531-.804687.910156-1.816406 1.171875-2.789062.050781-.265625.226562-.472656.398437-.671875.300782 1.804687-.980468 3.28125-1.738281 4.792969C106.828125 47.402344 106.085938 49 105.5 50.628906c-.265625.617188-.457031 1.261719-.542969 1.925782.535157-.539063.898438-1.210938 1.207031-1.902344.570313-1.210938 1.363282-2.304688 2.226563-3.328125.0625.367187.183594.773437-.027344 1.117187-.507812.972656-1.09375 1.910156-1.773437 2.777344-.355469.464844-.640625.980469-.84375 1.53125 1.097656-.738281 1.945312-1.773438 2.726562-2.820312.414063-.507813.824219-1.046876 1.402344-1.378907-.214844.964844-.898438 1.722657-1.445312 2.519531-.453126-.507812-.644532.589844-.0625.316407.921874-.269531 1.085937-1.503907 2.042968-1.710938-.605468 1.792969-2.421875 2.714844-3.886718 3.738281-.597657.421876-1.316407.675782-1.859376 1.171876-.421874.691406-.613281 1.5-.789062 2.285156.949219-1.011719 1.660156-2.214844 2.621094-3.21875l.378906.339844c-1.167969 1.574218-2.535156 3.007812-3.527344 4.703124.8125-.324218 1.285156-1.105468 1.960938-1.617187.8125-.628906 1.527344-1.410156 2.5-1.804687-.070313.242187-.085938.507812-.238282.71875-1 1.132812-2.398437 1.855468-3.367187 3.015624 1.65625-.53125 2.929687-1.84375 4.5625-2.425781-.613281 1.265625-2.082031 1.65625-3.027344 2.601563 1.148438-.398438 2.128907-1.140625 3.234375-1.636719-.097656.210937-.117187.484375-.304687.644531-1.105469.941406-2.542969 1.320313-3.929688 1.648438-.699219.1875-1.523437.21875-2.023437.808594-.78125.898437-1.523438 1.84375-2.117188 2.878906 1.597656-.925782 2.6875-2.535156 4.402344-3.285156-.070312.253906-.082031.546874-.292969.734374-.910156 1.054688-2.253906 1.632813-3.136719 2.710938 1.625-.398438 2.847657-1.683594 4.414063-2.234375-.214844.402344-.5.773437-.894531 1.011719-.769532.402344-1.617188.757812-2.121094 1.5-.3125.476562-.875.648437-1.394531.804687-.878907.351563-1.957031.140625-2.671875.851563-.871094.765625-1.925782 1.363281-2.59375 2.328125 1.75-.671875 3.226562-1.972657 5.09375-2.347657-.101563.710938-.832032.957032-1.386719 1.25-.972656.492188-2.023437.84375-2.949219 1.433594 1.738282 0 3.273438-1.042968 4.984375-1.113281-.941406.957031-2.355469 1.007813-3.480469 1.636719 1.207032.042968 2.28125-.625 3.476563-.660156-.703125.824218-1.855469.921874-2.859375 1.058593-1.105469.164063-2.21875.035157-3.328125.144531-.953125.375-1.679687 1.136719-2.503906 1.722657-.167969.15625-.398438.128906-.605469.140625l2.335938-1.765625-.203126-.4375c-.046874-.3125-.429687-.21875-.515624.011719l-.433594.394531-.957032.765625c-.6875.550781-1.382812 1.105468-1.960937 1.777344l.480469-.054688.128906-.015625c.226562.125.449219.40625.730469.238281 1.394531-.546875 2.535156-1.6875 4.050781-1.921875-.527344.816407-1.628906.984375-2.160156 1.804688l1.816406-.472657c-.335938.628907-1.054688.847657-1.683594 1.085938-.980468.359375-2.039062.246094-3.054687.402344-.496094.066406-.761719.589844-1.246094.707031-1.183594.335937-2.390625.574219-3.597656.785156-.273438.035157-.496094.195313-.71875.332031.917969.160157 1.828125-.070312 2.742187-.109374l2.660156-.078126c-.167968.179688-.332031.386719-.601562.398438l-3.625.613281-.765625.082031c-1.539063-.3125-3.113281-.398437-4.675781-.222656.941406.40625 1.992187.375 2.972656.632813.597656.167969 1.359375.1875 1.707031.785156-1.722656.011719-3.359375-.59375-5.023437-.945313.0625.171876.140625.34375.226562.507813.773438.457031 1.730469.503906 2.449219 1.054687-.890625.03125-1.761719-.164062-2.617187-.386718l.269531.742187-.320313-.09375c-.988281-.246093-1.601562-1.101562-2.191406-1.851562-.515625.304687-1.066406.554687-1.683594.492187-.121094-.449218-.171875-.910156-.152344-1.375.542969-.164062 1.113282-.152344 1.671876-.128906.253906-1.226562.863281-2.347656 1.59375-3.355469.210937-.296875.507812-.511719.800781-.714843-.464844 1.148437-1.570313 2-1.636719 3.3125 1.191406-.902344 1.742188-2.390626 2.941406-3.292969-.253906 1.054687-1.222656 1.753906-1.535156 2.792969.75-.621094 1.371094-1.382813 2.164062-1.960938.746094-.457031.699219-1.507812 1.40625-2.007812-.160156.832031-.546874 1.601562-.726562 2.425781l.546875-.003907c.53125-.835937.839844-1.785156 1.230469-2.691406l.238281.234375-.886719 2.777344c.882813-.851563 1.144532-2.148437 2.125-2.914063.070313.457032-.164062.855469-.367187 1.242188l1.234375-.828125c-.042969.996094-.980469 1.601563-1.304688 2.5.578125-.363281 1.097656-.808594 1.640625-1.21875.074219-1.058594-.351562-2.195313.132813-3.195313.148437 1.042969-.230469 2.464844.863281 3.113282.179687-1.082032-.140625-2.164063-.0625-3.246094l.210937-.417969c.101563.332031.203126.664063.25 1.007813.058594.664062.09375 1.335937.289063 1.976562.242187-.957031.265625-1.945312.382813-2.921875l.394531-.410156c.320312 1.027344-.25 2.046875-.035157 3.070313.289063-.84375.304688-1.742188.5-2.605469.03125-.289063.367188-.339844.566407-.476563l-.296875 2.726563c.546875-.640625.878906-1.417969 1.386718-2.085938.222657-.320312.492188-.609375.65625-.964843.054688-.945313-.285156-1.933594.121094-2.84375.234375 1.214843-.097656 2.742187.925782 3.664062.210937-1.410156-.125-2.832031.050781-4.246094.136719.203125.328125.402344.320312.667969.054688.933594.0625 1.871094.253907 2.792969.203124-1.078125.128906-2.195313.410156-3.257813.105468-.214843.261718-.390625.40625-.574219.316406 1.425782-.515625 2.78125-.265625 4.210938.363281-1.109375.285156-2.300781.65625-3.40625.09375-.324219.34375-.558594.578125-.785156.09375.976562-.378906 1.898437-.355469 2.875.488281-.667969.902344-1.378906 1.347656-2.074219-.472656-1.023437-1-2.089844-.996093-3.242187.59375.914062.535156 2.3125 1.71875 2.773437-.140626-1.222656-.679688-2.34375-.910157-3.546875.308594.214844.574219.5.632813.886719l.734375 2.382812.203125-.976562.558594.835937-.125-3.558594.183593-.570312c.554688.808594.316407 1.894531.476563 2.828125.253906-.699219.664062-1.425781.554687-2.1875-.515625-1.238281-1.273437-2.46875-1.175781-3.863281.570312 1.121094.570312 2.609375 1.765625 3.332031-.003906-1.417969-.808594-2.675781-.917969-4.078125.878906.785156.777344 2.101562 1.28125 3.105469.066406-1.265625-.289062-2.507813-.21875-3.773438l.363282.058594c.328124 1.289063.230468 2.632813.421874 3.945313l.175782-.015626c.039062-1.40625-.367188-2.824218-.015625-4.214843-.980469-.972657-2.03125-2.007813-2.332031-3.40625.925781 1.058593 1.660156 2.507812 3.117187 2.910156-.675781-1.515625-2.042969-2.625-2.632813-4.175781 1.179688.796875 1.691407 2.195312 2.652344 3.203125-.34375-1.070313-.910156-2.042969-1.390625-3.050781-.210937-.390626-.222656-.835938-.226562-1.265626.75.960938 1.304687 2.078126 1.613281 3.253907.082031.359375.289062.667969.539062.9375-.175781-1.628907-1.386718-3-1.285156-4.667969 1.066406.691406.675782 2.3125 1.582032 3.152344l-.019532-3.03125c.039063-.335938-.351562-.421875-.585937-.519532-1.136719-.390624-2.277344-.9375-3.050781-1.878906 1.183593.402344 2.171874 1.34375 3.484374 1.371094-.574218-.757812-1.488281-1.125-2.253906-1.652344-.4375-.308594-1.015625-.496094-1.234375-1.027344.96875.324219 1.753907 1.015626 2.714844 1.367188-.644531-.933594-1.664063-1.527344-2.265625-2.496094l.304688-.105468.179687.175781c.960937.859375 1.742187 1.9375 2.894531 2.566406-.628906-1.234375-2.03125-1.808594-2.683594-3.027344l-.085937-.15625.242187-.378906c.660157.609375 1.179688 1.359375 1.90625 1.90625l-1.09375-2.667969c-1.097656-.519531-2.488281-.621094-3.257812-1.679687.792969.183593 1.472656.667969 2.265625.859375.351563.058594.785156.273437 1.050781-.082032-1.109375-.769531-2.550781-1.058593-3.496094-2.050781 1.0625.082031 1.914063.796875 2.90625 1.109375-.753906-.953125-1.988281-1.402344-2.675781-2.414062 1.425781.316406 2.242188 1.667968 3.53125 2.25-.644531-.660156-1.378906-1.222656-2.089843-1.8125-.4375-.375-.84375-.839844-.859376-1.441406l-1.273437-.109376c.570313-.03125 1.140625-.078124 1.703125-.191406.640625-.121094 1.28125-.296875 1.875-.582031-1.378906-.523437-2.859375.0625-4.285156-.144531l.328125-.449219c.9375-.035156 1.882812.101563 2.816406-.105469-1.144531-.367187-2.433594-.21875-3.484375-.851562 1.058594-.515625 2.101562.445312 3.171875.097656-1.039063-.386719-2.566406-.015625-3.164063-1.167969.917969-.089843 1.773438.3125 2.644532.523438l-.066406-.375c-.871094-.378907-1.542969-1.078125-2.335938-1.550781-.769531.136718-1.539062.355468-2.324219.222656 1.042969-.570313 2.355469-.539063 3.289063-1.328125l.09375-.417969c-1.410156.375-2.824219.914062-4.308594.828125 1.066406-.828125 2.632812-.4375 3.699219-1.242187-.554688-.054688-1.113281-.023438-1.667969-.03125l-2.160156-.132813c1.152344-.21875 2.347656.042969 3.484375-.242187-.898438-.125-1.808594-.1875-2.714844-.199219-.453125-.035157-1.085937.035156-1.226563-.527344.882813-.109375 1.765626.011719 2.648438-.046875-.667969-.519531-1.5-.738281-2.273438-1.039062-.757812-.339844-1.445312.429687-2.226562.34375l2.480469-1.511719-.367188-.171875c-1.039062.328125-1.953125.964844-3 1.28125l.089844-.402344c.859375-.425781 1.796875-.679688 2.636719-1.15625-1.214844-.015625-2.320313.617188-3.527344.632812l.390625-.316406c1.089844-.359375 2.257813-.4375 3.328125-.867187-.324219-.085938-.664062-.15625-1-.074219l-2.644531.46875.171875-.519531c.703125-.039063 1.390625-.179688 2.078125-.320313-1.003907-.238281-2.046875-.347656-3.023438-.6875l-.230469-.394531c1.058594-.015625 2.03125.488281 3.085938.488281-.949219-.636718-2.035156-1.039062-2.980469-1.683594-.234375-.140624-.355469-.390624-.492187-.613281 1.859375.542969 3.378906 1.855469 5.191406 2.519531-.460938-.792968-1.304688-1.230468-1.992188-1.800781-.628906-.519531-1.269531-1.046875-1.710937-1.738281.773437-.007812 1.3125.585938 1.867187 1.03125l2.003907 1.769531c-.519531-1.480469-1.933594-2.40625-2.714844-3.738281 1.214844.335938 1.722656 1.605469 2.671875 2.304688-.324219-1.046876-1.375-1.648438-1.742188-2.675782m3.136719 6.0625c-.027343.214844-.035156.453125.175781.582032.855469.789062 1.714844 1.617187 2.777344 2.132812-.585937-.902344-1.464844-1.558594-2.179687-2.351562-.226563-.179688-.441407-.574219-.773438-.363282m-1.066406 1.082032c.761719.539062 1.5625 1.066406 2.484375 1.292968-.578125-.601562-1.226562-1.125-1.859375-1.664062l-.625.371094m4.925781 3.71875c.898438.996093 1.492188 2.242187 2.480469 3.15625-.097656-.394532-.21875-.789063-.472656-1.109376-.601563-.769531-1.074219-1.617187-1.597657-2.4375l-.410156.390626m-1.015625.960937c.742188.566406 1.511719 1.113281 2.320313 1.589844l-1.707032-2.242188c-.199218.207031-.726562.292969-.613281.652344m4.402344 4.25c-.148437.535156.144531 1.058594.21875 1.585937.199219.726563.078125 1.582032.617187 2.175782.011719-1.238282-.183593-2.476563-.410156-3.6875l-.425781-.074219m-1.3125.703125l1.269531 1.859375c-.148437-.757813-.375-1.496094-.671875-2.207031l-.597656.347656m-1.738281.125l2.304687 2.066406c-.289062-.769531-.589843-1.585937-1.199219-2.160156-.371093-.027344-.742187.039062-1.105468.09375m3.214844 5.121094l.9375 2.789062.289062.128906c-.234375-1.003906-.246094-2.039062-.273438-3.0625l-.953124.144532m1.4375 6.398437c-.15625 1.101563-.210938 2.226563-.125 3.335938.449218-.5.53125-1.183594.71875-1.804688.167968-.617187.417968-1.207031.613281-1.8125-.40625.070313-.820313.128907-1.207031.28125m-1.84375 6.730469c-.105469.890625.054687 1.777344.128906 2.664062.226562-.785156.488281-1.5625.816406-2.3125l-.945312-.351562m-1.417969 5.609375c-.28125.609375-.519531 1.246094-.609375 1.914063.402344-.40625.820312-.824219 1.058594-1.347657.023437-.289062-.28125-.398437-.449219-.566406m-4.695313 6.53125c.671875-.46875 1.363282-.941406 1.878906-1.585937l-.449218-.417969c-.625.554687-1.027344 1.285156-1.429688 2.003906m-3.378906 1.351563c-.492188.46875-.796875 1.089843-1.230469 1.609374-.214843.316407-.402343.648438-.558593 1 .316406-.121093.613281-.292968.863281-.523437l.621093-.761719c.273438.253906.832032-.164062.617188-.484375l.175781-.050781c-.132812-.277344-.007812-.9375-.488281-.789062M85.125 73.207031c.90625-.453125 1.34375-1.453125 1.691406-2.34375-.84375.527344-1.304687 1.464844-1.691406 2.34375m3.046875-1.066406c-.191406-.269531-.710937.035156-.546875.328125-.265625.101562-.46875.316406-.6875.488281.746094.011719 1.480469-.175781 2.140625-.519531l-.585937-.605469-.320313.308594m-6.699219 1.6875c-.265625.207031-.417968.511719-.546875.820313.597657-.339844 1.105469-.804688 1.632813-1.238282.375-.335937.9375-.640625.78125-1.226562l-1.867188 1.644531m2.269532-.835937c-.242188.210937.105468.652343.351562.402343.25-.214843-.101562-.652343-.351562-.402343m2.042968 1.175781c1.480469-.28125 2.972656-.550781 4.394532-1.0625-.265626-.203125-.59375-.265625-.910157-.152344-1.191406.300781-2.410156.59375-3.484375 1.214844m-2.824218-.570313c-.339844.070313-.3125.695313.085937.527344.347656-.070312.3125-.703125-.085937-.527344m-1.054688 1.378906l1.507812-.023437-.046874-.472656-1.460938.496093zm0 0" fill="rgb(20.784314%,57.647061%,21.176471%)"/><path d="M93.40625 24.75c.335938-.082031.675781-.011719 1 .074219-1.070312.429687-2.238281.507812-3.328125.867187l-.601563-.769531.457032-.222656-.171875.519531L93.40625 24.75zm0 0" fill="rgb(62.352943%,83.92157%,57.254905%)"/><path d="M56.664062 25.203125c.273438.058594.230469.371094.304688.578125-1.042969.746094-1.945312 1.679688-3.066406 2.316406.273437-.484375.667968-.878906 1.082031-1.246094.585937-.523437 1.011719-1.214843 1.679687-1.648437zm0 0" fill="rgb(85.882354%,99.607843%,91.764706%)"/><path d="M96.082031 25.222656c.332031-.210937.546875.183594.773438.363282.714843.792968 1.59375 1.449218 2.179687 2.351562-1.0625-.515625-1.921875-1.34375-2.777344-2.132812-.210937-.128907-.203124-.367188-.175781-.582032zm0 0" fill="rgb(87.058824%,99.607843%,89.019608%)"/><path d="M95.015625 26.304688l.625-.371094L97.5 27.597656c-.921875-.226562-1.722656-.753906-2.484375-1.292968zm0 0" fill="rgb(90.196079%,100%,97.254902%)"/><path d="M58.527344 26.984375l.757812-.28125c.523438.160156 1.113282.320313 1.398438.832031-.742188-.097656-1.4375-.371094-2.15625-.550781zm0 0" fill="rgb(52.549022%,69.01961%,65.882355%)"/><path d="M49.136719 29.707031c.03125-.6875.300781-1.347656.796875-1.835937.203125.867187-.355469 1.664062-.53125 2.488281l.257812.457031-.292968.890625-.230469-2zm45.117187-.390625c.128906-.113281.269532-.203125.429688-.269531l2.160156.132813c-.832031.273437-1.730469.234374-2.589844.136718zM52.164062 55.546875c.03125-.273437.289063-.382813.5-.507813-.160156 1.230469-.757812 2.367188-.855468 3.613282l.234375-.027344c.269531.023438.460937-.207031.515625-.445312l.878906-2.398438c.101562 1.414062-.605469 2.742188-1.246094 3.964844l-.085937-.554688c-.265625-.246094-.550781-.476562-.746094-.78125-.265625-.460937-.117187-1.003906-.054687-1.492187l.078124.945312c.367188-.738281.53125-1.542969.78125-2.316406zm46.714844 4.519531c-.09375-.410156.078125-.796875.328125-1.113281l.15625.8125c.125.765625.246094 1.574219-.070312 2.3125-.210938-.65625-.335938-1.332031-.414063-2.011719zM86.171875 75.757812l.765625-.082031c.683594.082031 1.371094.042969 2.054688.039063L90.5 75.867188c-1.460938.386718-3.050781.335937-4.496094-.09375zm0 0" fill="rgb(30.588236%,50.588238%,31.764707%)"/><path d="M54.402344 29.207031c1.390625-.105469 2.785156.257813 4.171875.027344l-.0625.230469c-1.320313.105468-2.640625-.054688-3.953125-.152344zm0 0" fill="rgb(47.058824%,61.56863%,60.784316%)"/><g fill="rgb(81.960785%,100%,76.47059%)"><path d="M52.582031 29.863281c.1875.039063.34375.144531.515625.226563l-1.234375 1.6875c-.351562.523437-.679687 1.105468-1.257812 1.417968.15625-.605468.535156-1.105468.882812-1.613281.390625-.558593.667969-1.1875 1.09375-1.71875zm-1.875 25.023438l.46875-.171875c-.285156 1.261718-.117187 2.570312-.394531 3.832031-.4375-1.179687.003906-2.441406-.074219-3.660156zm19.222657 17.335937c.476562.253906.882812.617188 1.285156.972656.503906.449219 1.097656.839844 1.390625 1.472657-.824219-.316407-1.402344-1.003907-2.058594-1.554688-.296875-.226562-.488281-.546875-.617187-.890625zm11.542968 1.605469l1.867188-1.644531c.15625.585937-.40625.890625-.78125 1.226562-.527344.433594-1.035156.898438-1.632813 1.238282.128907-.308594.28125-.613282.546875-.820313zm0 0"/><path d="M70.136719 74.195312l.136719-.820312c.292968.246094.570312.519531.832031.808594l-.96875.011718zm.023437.300782l1.132813.460937-1.363281.003907.230468-.464844zm11.746094.480468l1.460938-.496093.046874.472656-1.507812.023437zm0 0"/></g><path d="M99.941406 30.023438l.410156-.390626 1.597657 2.4375c.253906.320313.375.714844.472656 1.109376-.988281-.914063-1.582031-2.160157-2.480469-3.15625zm5.683594 5.144531c.109375.671875.15625 1.375.480469 1.988281-.101563.367188-.257813.71875-.417969 1.066406l-.0625-3.054687zM63.113281 73.0625c.433594-.054688.882813-.113281 1.3125.003906 1.128907.277344 2.289063.53125 3.296875 1.140625-.957031-.070312-1.882812-.316406-2.804687-.542969-.613281-.164062-1.261719-.25-1.804688-.601562zm0 0" fill="rgb(82.745099%,99.215686%,83.529413%)"/><path d="M98.925781 30.984375c-.113281-.359375.414063-.445313.613281-.652344l1.707032 2.242188c-.808594-.476563-1.578125-1.023438-2.320313-1.589844zm0 0" fill="rgb(96.470588%,99.607843%,94.901961%)"/><path d="M53.355469 30.625c.292969-.09375.59375.082031.882812.132812-.453125.628907-1.054687 1.1875-1.824219 1.40625.175782-.582031.492188-1.121093.941407-1.539062zm0 0" fill="rgb(93.333334%,99.607843%,96.862745%)"/><g fill="rgb(6.666667%,3.921569%,4.313726%)"><path d="M92.128906 33.402344c1.019532-.433594 2.140625-.640625 3.25-.53125-.546875 1.421875-.988281 2.890625-1.148437 4.410156-.289063 1.667969.15625 3.464844-.605469 5.039062-.472656.914063-.964844 1.855469-1.734375 2.558594-.4375.492188-1.074219.722656-1.570313 1.136719-.179687.480469.277344.859375.410157 1.289063.644531 1.757812.164062 3.722656.839843 5.480468.1875.617188.714844 1.035156 1.15625 1.476563.480469.472656 1.230469.605469 1.652344 1.144531.078125.558594.109375 1.132812.042969 1.695312-.839844 1.101563-1.214844 2.464844-1.4375 3.8125-.710937-.433593-1.285156-1.042968-1.820313-1.667968-.898437.285156-1.773437.667968-2.464843 1.320312.023437-.714844.191406-1.425781.136719-2.144531-.640626-.097656-1.257813.125-1.886719.210937.230469-.933593 1.34375-.894531 1.953125-1.464843.597656-.5 1.507812-.570313 1.910156-1.289063-1.378906-.214844-2.761719-.554687-3.976562-1.269531-.167969.359375-.214844.835937-.609376 1.035156-.753906.519531-1.699218.265625-2.546874.355469.308593.917969 1.207031 1.488281 1.429687 2.445312-.644531.359376-1.40625.273438-2.089844.523438-.835937.269531-1.558593.808594-2.140625 1.453125-.871094.035156-1.753906.15625-2.519531.59375l.242187-1.039063c-.90625-.660156-1.84375.082032-2.667968.476563.210937-.738281.632812-1.40625.75-2.167969-.320313-.390625-.796875.082032-1.183594.128906.203125-.941406 1.257812-1.023437 1.992188-1.371093.890624-.097657 1.75.503906 2.644531.171875.367187-1.035156-.78125-1.617188-1.054688-2.496094-.164062-.609375.25-1.160156.398438-1.730469-2.082031.789063-4.316407 1.175781-6.542969 1.21875-.761719-.027343-1.53125-.070312-2.261719-.304687-.292969.21875-.554687.570312-.964843.539062l-3.148438.167969c-.253906-.332031-.136719-.824219-.261719-1.214844-.019531-.40625-.015625-.8125.042969-1.210937.640625-.519532.285156-1.34375.113281-1.992188-.289062-.867187-.246093-1.796875-.523437-2.660156-.316406-.722656-.917969-1.316406-1.042969-2.121094-.183594-1-.53125-1.976562-1.113281-2.8125-.398438-.621094-1.09375-1.140625-1.027344-1.953125l.996094-.175781-.980469-.429688.730469-.335937-1.292969-.050781.605469-.558594c-.5625.074219-1.117188.207031-1.667969.347656.058594.375.152344.757813.433594 1.042969l-1.476563.234375-.390625-.679688c-.414062.273438-.882812.308594-1.339843.117188l.035156-.503906-.65625.203125c.269531-.199219.523437-.417969.703125-.707031l.964843.027343-.058593-1.261719c.59375-.152343 1.21875-.199218 1.785156-.445312.410156-.300781.769531-.6875 1.257813-.863281 1.167968-.523438 2.570312-.09375 3.671874-.789063.5625-.242187.964844.363282 1.152344.804688.507813.082031 1.152344-.042969 1.472656.453125.050782.363281-.171874.707031-.238281 1.0625 1.042969 1.316406 1.828125 2.796875 2.6875 4.234375 1.058594.570312 2.28125.761718 3.332031 1.351562.886719.445313 1.875.964844 2.898438.730469 1.644531-.289063 3.25-.847656 4.933594-.855469 1.503906-.164062 3.007812.058594 4.503906.222656.417969-.097656.984375-.207031 1.078125-.707031.445313-1.472656.660156-3.019531 1.289063-4.4375.425781-1.28125 1.074218-2.46875 1.492187-3.75.261719-.671875.78125-1.246093 1.457031-1.523437m-.183594.703125c-.253906.4375-.8125.640625-.917968 1.167969-.242188.894531-.570313 1.785156-1.144532 2.53125l.8125.125-.050781-.503907.414063.476563-.464844.4375.613281.4375c.109375-.226563.242188-.445313.382813-.65625l-.164063-.15625c.269531-.449219.570313-.875.890625-1.289063l-.445312-.460937c.226562-.066406.464844-.027344.699218-.046875l-.207031-.183594c.246094-.28125.46875-.585937.652344-.910156l-.179687.058593-.199219-.285156.167969-.804687-.617188.261719-.242188-.199219M62.53125 37.519531l-.046875.636719.421875-.050781.027344-.621094-.402344.035156m26.816406 1.738281l.511719.414063c-.253906.214844-.503906.433594-.710937.691406l1.109374-.386719c-.113281.488282-.679687.550782-1.054687.765626l-.101563.386718 1.515626-.675781c.136718-.425781.34375-.828125.578124-1.207031-.257812-.390625-.460937-.882813-.945312-1.039063l-.902344 1.050781m-20.332031 6.1875l.027344.472657 1.367187-.386719.03125-.417969-1.425781.332031m-.519531 1.316407c.644531-.238281 1.320312-.417969 1.90625-.78125-.679688.09375-1.449219.21875-1.90625.78125m-.015625.5625c.507812-.078125 1.003906-.285157 1.371093-.65625-.539062-.027344-.984374.324219-1.371093.65625m.367187.332031l-.164062.214844c.164062.570312.796875-.347656.164062-.214844m15.84375.113281c.242188.488281.617188.890625 1.046875 1.21875-.191406-.507812-.511719-1.019531-1.046875-1.21875m-.21875.542969c.105469.480469.78125.734375.683594 1.246094-.5-.011719-.671875-.667969-1.121094-.855469.3125.449219.722656.820313 1.074219 1.238281-.597656.390625-.796875-.578125-1.300781-.730468l1.292968 1.734374.167969-.175781-.199219-.375c.226563-.300781.253907-.699219.476563-1-.351563-.367187-.671875-.765625-1.074219-1.082031zm0 0"/><path d="M91.574219 35.054688c.601562-.132813-.109375.679687-.386719.410156-.164062-.234375.203125-.386719.386719-.410156zm-1.785157 4.210937l.742188-.457031.292969.558594-.476563-.132813-.125.488281c-.191406-.121094-.335937-.269531-.433594-.457031zM63.75 52.402344l.152344-.058594c-.097656.785156-.078125 1.585938.019531 2.371094l-2.835937.167968c-.835938.402344-1.609376 1.039063-2.582032 1.101563-.472656.015625-.730468.472656-1.097656.703125l.007812-1.308594c-.492187.210938-.894531.554688-1.308593.878906-.003907-.691406.292969-1.324218.460937-1.980468l-1.054687.191406c.179687-.679688.585937-1.371094 1.339843-1.503906 1.4375-.101563 2.898438.132812 4.328126-.140625.414062-.066407.835937-.085938 1.25-.136719.445312-.0625.894531-.144531 1.320312-.285156zm0 0"/></g><path d="M51.152344 34.09375c1.117187-.667969 2.476562-.566406 3.675781-1l-.183594.355469.316407.273437c-1-.03125-1.996094.15625-2.925782.523438l1.203125.058594c-.234375.128906-.496093.203124-.746093.296874.644531-.007812 1.320312-.019531 1.921874.25-.636718-.003906-1.277343.046876-1.910156-.058593-.511718-.085938-.921875-.429688-1.351562-.699219zm0 0" fill="rgb(61.176473%,83.137256%,56.470591%)"/><path d="M52.035156 34.246094c.929688-.367188 1.925782-.554688 2.925782-.523438l.222656.003906c-.304688.222657-.664063.375-1.050782.34375-.265624-.023437-.515624.0625-.738281.199219l-.15625.035157-1.203125-.058594zm0 0" fill="rgb(29.803923%,54.509807%,31.764707%)"/><path d="M53.394531 34.269531c.222657-.136719.472657-.222656.738281-.199219-.007812.3125-.539062.390626-.738281.199219zm0 0" fill="rgb(44.705883%,68.235296%,74.117649%)"/><path d="M91.945312 34.105469l.242188.199219.164062.144531-.386718.640625.671875-.242188.199219.285156c-.515626.171876-1.007813.40625-1.472657.679688l1 .171875.207031.183594c-.234374.019531-.472656-.019531-.699218.046875l-.453125.140625.351562.597656-.722656.636719.378906.375.164063.15625c-.140625.210937-.273438.429687-.382813.65625l-.613281-.4375.464844-.4375c-.128906-.167969-.277344-.320313-.414063-.476563l.050781.503907-.8125-.125c.574219-.746094.902344-1.636719 1.144532-2.53125.105468-.527344.664062-.730469.917968-1.167969m-.371093.949219c-.183594.023437-.550781.175781-.386719.410156.277344.269531.988281-.542969.386719-.410156m-.414063.90625c.117188.117187.117188.117187 0 0m-.007812.605468c-.289063.554688.644531.027344 0 0m-.539063.339844c.046875.636719.554688-.300781 0 0zm-28.082031.613281l.402344-.035156-.027344.621094-.421875.050781.046875-.636719zm5.949219 9.804688c.386719-.332031.832031-.683594 1.371093-.65625-.367187.371093-.863281.578125-1.371093.65625zm16.210937.445312c.535156.199219.855469.710938 1.046875 1.21875-.429687-.328125-.804687-.730469-1.046875-1.21875zm-.21875.542969c.402344.316406.722656.714844 1.074219 1.082031-.222656.300781-.25.699219-.476563 1l.199219.375-.167969.175781-1.292968-1.734374c.503906.152343.703125 1.121093 1.300781.730468-.351563-.417968-.761719-.789062-1.074219-1.238281.449219.1875.621094.84375 1.121094.855469.097656-.511719-.578125-.765625-.683594-1.246094zm0 0" fill="rgb(98.431373%,97.647059%,98.039216%)"/><path d="M92.1875 34.304688l.617188-.261719-.167969.804687-.671875.242188.386718-.640625-.164062-.144531zm0 0" fill="rgb(52.549022%,50.588238%,53.333336%)"/><path d="M47.949219 35.191406l.691406-.199218-.214844 4.222656c-.191406-.390625-.351562-.808594-.347656-1.253906l-.128906-2.769532zm0 0" fill="rgb(96.862745%,100%,94.509804%)"/><path d="M49.296875 35.167969c.265625.226562.667969.449219.480469.863281-.265625.984375-.207032 2.09375-.746094 2.984375-.109375-1.292969.296875-2.554687.265625-3.847656zm0 0" fill="rgb(92.156863%,99.215686%,93.333334%)"/><path d="M91.363281 35.8125c.464844-.273438.957031-.507812 1.472657-.679688l.179687-.058593c-.183594.324219-.40625.628906-.652344.910156-.332031-.078125-.667969-.117187-1-.171875zm0 0" fill="rgb(50.980395%,49.411765%,49.803922%)"/><path d="M103.328125 35.234375l.425781.074219c.226563 1.210937.421875 2.449218.410156 3.6875-.539062-.59375-.417968-1.449219-.617187-2.175782-.074219-.527343-.367187-1.050781-.21875-1.585937zm0 0" fill="rgb(83.92157%,100%,89.411765%)"/><path d="M50.410156 35.703125c.175782.140625.488282.179687.558594.417969-.066406.449218-.367188.8125-.621094 1.175781l-.058594-.996094.121094-.597656zM63.375 51.433594l.441406-.535156L63.75 52.402344l-.453125-.15625-.089844-.238282.167969-.574218zm0 0" fill="rgb(98.431373%,98.823529%,95.686275%)"/><path d="M98.859375 35.945312c.457031-.457031 1.136719-.285156 1.703125-.191406-.5625.113282-1.132812.160156-1.703125.191406zm0 0" fill="rgb(56.078434%,74.117649%,21.960784%)"/><path d="M102.015625 35.9375l.597656-.347656c.296875.710937.523438 1.449218.671875 2.207031-.464844-.59375-.871094-1.222656-1.269531-1.859375zm0 0" fill="rgb(93.333334%,100%,96.862745%)"/><path d="M91.160156 35.960938c.117188.117187.117188.117187 0 0zm0 0" fill="rgb(16.078432%,14.901961%,15.294118%)"/><path d="M100.277344 36.0625c.363281-.054688.734375-.121094 1.105468-.09375.609376.574219.910157 1.390625 1.199219 2.160156-.722656-.738281-1.511719-1.40625-2.304687-2.066406zm0 0" fill="rgb(92.54902%,99.215686%,97.647059%)"/><path d="M49.875 37.878906c.019531-.550781.128906-1.097656.414062-1.578125l.058594.996094c.097656.3125-.292968.40625-.472656.582031zm0 0" fill="rgb(58.431375%,78.823531%,46.666667%)"/><path d="M91.417969 36.355469l.453125-.140625.445312.460937c-.320312.414063-.621094.839844-.890625 1.289063l-.378906-.375.722656-.636719-.351562-.597656zm0 0" fill="rgb(47.450981%,46.27451%,45.882353%)"/><path d="M91.152344 36.566406c.644531.027344-.289063.554688 0 0zm0 0" fill="rgb(26.666668%,25.098041%,25.490198%)"/><path d="M90.613281 36.90625c.554688-.300781.046875.636719 0 0zm0 0" fill="rgb(19.215687%,16.862746%,17.647059%)"/><path d="M89.347656 39.257812L90.25 38.207031c.484375.15625.6875.648438.945312 1.039063-.234374.378906-.441406.78125-.578124 1.207031-.515626.199219-1.011719.449219-1.515626.675781l.101563-.386718c.375-.214844.941406-.277344 1.054687-.765626l-1.109374.386719c.207031-.257812.457031-.476562.710937-.691406l-.511719-.414063m.441406.007813c.097657.1875.242188.335937.433594.457031l.125-.488281.476563.132813-.292969-.558594-.742188.457031zM61.085938 54.882812l2.835937-.167968.335937 1.925781c-.316406-.519531-.371093-1.128906-.414062-1.71875-.917969-.070313-1.835938-.070313-2.757812-.039063zm0 0" fill="rgb(78.823531%,76.862746%,76.078433%)"/><path d="M61.140625 39.441406l1.667969-.347656-.605469.558594 1.292969.050781-.730469.335937.980469.429688-.996094.175781-.757812.175781-.417969-.335937c-.28125-.285156-.375-.667969-.433594-1.042969zm7.875 6.003906c.464844-.144531.949219-.230468 1.425781-.332031l-.03125.417969-1.367187.386719-.027344-.472657zm0 0" fill="rgb(98.823529%,98.823529%,99.215686%)"/><path d="M61.574219 40.484375l.417969.335937 1.847656 2.667969c.5625.984375.53125 2.183594 1.140625 3.148438.359375.574219.65625 1.191406.738281 1.871093.171875 1.230469.644531 2.417969.625 3.675782-.058594.398437-.0625.804687-.042969 1.210937-.160156 1.714844.386719 3.648438-.710937 5.152344-.773438-.328125-1.097656-1.164063-1.332032-1.90625l-.335937-1.925781c-.097656-.785156-.117187-1.585938-.019531-2.371094l.238281-1.121094c.128906-1.332031.117187-2.675781.066406-4.011718h-.386719l-.273437.007812c-.320313 1.390625.121094 2.816406-.171875 4.214844l-.167969.574218-.347656-1.042968-.5-2.347656c-.023437-.632813.089844-1.257813.113281-1.886719-.238281-.804688-.976562-1.414063-1.042968-2.28125-.03125-.691407.058593-1.378907.046874-2.066407-.347656.125-.792968.160157-.996093.511719-.191407 1.019531.082031 2.03125.394531 3 .292969.71875-.054688 1.453125-.339844 2.113281-.546875.953126-.492187 2.066407-.566406 3.121094l-.253906.320313c-.1875-.878907-.191406-1.777344-.105469-2.664063.058594-.625.089844-1.277344-.167969-1.867187-.3125.085937-.324218.429687-.421875.6875-.09375.332031-.203125.667969-.375.972656-.425781.597656-.648437 1.300781-.488281 2.039063l-.53125.21875.078125-1.78125c-.109375-.707032-.808594-1.171876-1.191406-1.753907.914062-1.675781.820312-3.710937 1.839843-5.339843.371094-.644532 1.046876-1.050782 1.746094-1.242188l1.476563-.234375zm0 0" fill="rgb(98.823529%,3.137255%,7.058824%)"/><path d="M61.992188 40.820312l.757812-.175781c-.066406.8125.628906 1.332031 1.027344 1.953125.582031.835938.929687 1.8125 1.113281 2.8125.125.804688.726563 1.398438 1.042969 2.121094.277344.863281.234375 1.792969.523437 2.660156.171875.648438.527344 1.472656-.113281 1.992188.019531-1.257813-.453125-2.445313-.625-3.675782-.082031-.679687-.378906-1.296874-.738281-1.871093-.609375-.964844-.578125-2.164063-1.140625-3.148438-.527344-.945312-1.199219-1.804687-1.847656-2.667969zm0 0" fill="rgb(83.92157%,40.784314%,37.254903%)"/><path d="M103.492188 41.183594l.953124-.144532c.027344 1.023438.039063 2.058594.273438 3.0625l-.289062-.128906c-.238282-.953125-.648438-1.851562-.9375-2.789062zm0 0" fill="rgb(92.941177%,99.215686%,93.333334%)"/><path d="M48.710938 41.25c.308593.003906.679687-.0625.886718.226562l-.988281 2.855469.101563-3.082031zm0 0" fill="rgb(97.647059%,99.607843%,95.294118%)"/><path d="M60.480469 42.894531c.203125-.351562.648437-.386719.996093-.511719l-.046874 2.066407c.066406.867187.804687 1.476562 1.042968 2.28125l-.113281 1.886719-1.84375.210937.019531-.820313c.285156-.660156.632813-1.394531.339844-2.113281-.3125-.96875-.585938-1.980469-.394531-3zm0 0" fill="rgb(98.823529%,99.215686%,98.431373%)"/><path d="M101.789062 42.613281c.652344 1.21875 2.054688 1.792969 2.683594 3.027344-1.152344-.628906-1.933594-1.707031-2.894531-2.566406l.210937-.460938zM51.542969 54.90625l.285156.613281.335937.027344c-.25.773437-.414062 1.578125-.78125 2.316406l-.078124-.945312c.105468-.667969.226562-1.335938.238281-2.011719zm-3.820313 7.230469c.816406.773437 1.828125 1.285156 2.722656 1.953125-1.0625-.242188-1.976562-.84375-2.902343-1.386719l.179687-.566406zm38.0625 12.03125c1.074219-.621094 2.292969-.914063 3.484375-1.214844.316407-.113281.644531-.050781.910157.152344-1.421876.511719-2.914063.78125-4.394532 1.0625zm0 0" fill="rgb(89.019608%,100%,84.705883%)"/><path d="M49.976562 45.328125c.976563-.019531 1.605469-.984375 2.585938-1.054687-.167969.289062-.386719.550781-.683594.714843-.796875.496094-1.550781 1.089844-2.464844 1.363281.160157-.355468.320313-.714843.5625-1.023437zm52.992188 18.636719c.503906-.742188 1.351562-1.097656 2.121094-1.5.398437-.007813.800781.015625 1.199218.039062-.304687.445313-.660156.871094-1.152343 1.121094-1.105469.585938-2.328125.945312-3.5625 1.144531.519531-.15625 1.082031-.328125 1.394531-.804687zm0 0" fill="rgb(46.27451%,67.058825%,48.627451%)"/><path d="M68.496094 46.761719c.457031-.5625 1.226562-.6875 1.90625-.78125-.585938.363281-1.261719.542969-1.90625.78125zm34.21875 13.886719c.5-.589844 1.324218-.621094 2.023437-.808594L105 60.242188c-1.714844.75-2.804688 2.359374-4.402344 3.285156.59375-1.035156 1.335938-1.980469 2.117188-2.878906zm0 0" fill="rgb(97.254902%,99.215686%,95.686275%)"/><path d="M59.019531 47.605469c.097657-.257813.109375-.601563.421875-.6875.257813.589843.226563 1.242187.167969 1.867187l-.179687.046875-.03125-1.503906-.378907.277344zm0 0" fill="rgb(91.764706%,50.588238%,42.352942%)"/><path d="M63.546875 47.21875l.273437-.007812c-.183593 1.226562.066407 2.457031-.003906 3.6875l-.441406.535156c.292969-1.398438-.148438-2.824219.171875-4.214844zm0 0" fill="rgb(90.196079%,45.490196%,40.000001%)"/><path d="M63.820312 47.210938h.386719c.050781 1.335937.0625 2.679687-.066406 4.011718l-.324219-.324218c.070313-1.230469-.179687-2.460938.003906-3.6875zm0 0" fill="rgb(24.313726%,0.784314%,0%)"/><path d="M47.078125 47.355469l1.261719.398437c.113281 1.089844.148437 2.1875.082031 3.28125-.222656-.210937-.359375-.480468-.425781-.777344-.25-.984374-.628906-1.929687-.917969-2.902343zm0 0" fill="rgb(97.647059%,99.215686%,97.254902%)"/><path d="M59.019531 47.605469l.378907-.277344.03125 1.503906-.59375.105469-.191407-.359375c.171875-.304687.28125-.640625.375-.972656zm0 0" fill="rgb(100%,90.196079%,97.254902%)"/><path d="M104.929688 47.582031c.386718-.152343.800781-.210937 1.207031-.28125l-.613281 1.8125c-.1875.621094-.269532 1.304688-.71875 1.804688-.085938-1.109375-.03125-2.234375.125-3.335938zm0 0" fill="rgb(98.823529%,99.607843%,96.470588%)"/><path d="M68.847656 47.65625c.632813-.132812 0 .785156-.164062.214844l.164062-.214844zm0 0" fill="rgb(52.549022%,50.196081%,51.372552%)"/><path d="M59.96875 51.128906c.074219-1.054687.019531-2.167968.566406-3.121094l-.019531.820313c.011719.847656-.046875 1.699219-.164063 2.542969l-.382812-.242188zm0 0" fill="rgb(87.450981%,44.313726%,40.392157%)"/><path d="M58.15625 50.617188c-.160156-.738282.0625-1.441407.488281-2.039063l.191407.359375.050781.074219c-.273438.523437-.449219 1.085937-.730469 1.605469zm0 0" fill="rgb(84.313726%,43.137255%,38.82353%)"/><path d="M60.515625 48.828125l1.84375-.210937.5 2.347656-1.03125.191406c-.488281.097656-.984375.144531-1.476563.214844.117188-.84375.175782-1.695313.164063-2.542969zm-4.757813 1.324219c.273438-.792969 1.238282-.917969 1.945313-1.097656l-.078125 1.78125.53125-.21875c.28125-.519532.457031-1.082032.730469-1.605469l.40625.363281c.027343.722656.003906 1.445312-.035157 2.167969-1.078124.453125-2.292968.515625-3.308593 1.121093l-.011719-.507812-.605469.085938c.207031-.683594.277344-1.394532.425781-2.089844zm0 0" fill="rgb(7.058824%,3.921569%,4.313726%)"/><path d="M58.835938 48.9375l.59375-.105469.179687-.046875c-.085937.886719-.082031 1.785156.105469 2.664063l.023437.160156-.480469-.066406.035157-2.167969-.40625-.363281zm0 0" fill="rgb(52.941179%,7.843138%,9.803922%)"/><path d="M106.875 51.5c.492188-.558594.921875-1.207031 1.597656-1.570312-.78125 1.046874-1.628906 2.082031-2.726562 2.820312.203125-.550781.488281-1.066406.84375-1.53125L106.875 51.5zm-54.832031 7.125c-.167969-.273438.269531-.648438.515625-.445312-.054688.238281-.246094.46875-.515625.445312zm2.3125.9375c.179687.523438.355469 1.054688.445312 1.605469-.136719.578125-.308593 1.148437-.550781 1.691406-.089844-1.101563.148438-2.195313.105469-3.296875zm33.816406 12.578125l.320313-.308594.585937.605469c-.660156.34375-1.394531.53125-2.140625.519531.21875-.171875.421875-.386719.6875-.488281.207031-.0625.40625-.160156.546875-.328125zm0 0" fill="rgb(94.117647%,100%,81.960785%)"/><path d="M104.957031 52.554688c.085938-.664063.277344-1.308594.542969-1.925782l.09375.476563.570312-.453125c-.308593.691406-.671874 1.363281-1.207031 1.902344zM89.964844 68.808594l.371094-1.226563c-.117188.976563-.140626 1.964844-.382813 2.921875-.195313-.640625-.230469-1.3125-.289063-1.976562l.300782.28125zm0 0" fill="rgb(87.058824%,99.607843%,78.039217%)"/><path d="M108.367188 51.386719c-.582032.273437-.390626-.824219.0625-.316407l-.0625.316407zm0 0" fill="rgb(48.235294%,65.098041%,78.039217%)"/><path d="M61.828125 51.15625l1.03125-.191406.347656 1.042968.089844.238282.453125.15625c-.425781.140625-.875.222656-1.320312.285156l.488281-.265625-.089844-1.257813-1-.007812zm0 0" fill="rgb(67.843139%,49.411765%,47.843137%)"/><path d="M63.816406 50.898438l.324219.324218-.238281 1.121094-.152344.058594.066406-1.503906zm0 0" fill="rgb(98.431373%,50.588238%,54.509807%)"/><path d="M104.664062 54.585938c.542969-.496094 1.261719-.75 1.859376-1.171876l.492187.707032-.140625-.128906-.378906-.339844c-.960938 1.003906-1.671875 2.207031-2.621094 3.21875.175781-.785156.367188-1.59375.789062-2.285156zm0 0" fill="rgb(93.725491%,99.607843%,93.725491%)"/><path d="M46.976562 53.984375l.449219.023437c.472657.238282 1.074219.394532 1.308594.914063.351563.71875.574219 1.492187.777344 2.265625l-2.417969-3.058594zm0 0" fill="rgb(94.901961%,99.607843%,94.509804%)"/><path d="M103.085938 54.3125l.945312.351562c-.328125.75-.589844 1.527344-.816406 2.3125-.074219-.886718-.234375-1.773437-.128906-2.664062zm0 0" fill="rgb(88.235295%,100%,93.333334%)"/><path d="M49.296875 54.640625l.933594-.058594-.035157.289063-.261718 1.625c-.253906-.605469-.480469-1.21875-.636719-1.855469zm0 0" fill="rgb(95.686275%,99.215686%,97.254902%)"/><path d="M49.933594 56.496094l.261718-1.625c.050782.6875.070313 1.378906.042969 2.074218l-.371093-.046874.066406-.402344zm0 0" fill="rgb(74.901962%,83.529413%,60.392159%)"/><path d="M99.363281 59.765625l.410157-.351563c-.042969 1.1875.109374 2.371094.125 3.558594l-.558594-.835937-.203125.976562-.734375-2.382812.476562-.664063c.078125.679688.203125 1.355469.414063 2.011719.316406-.738281.195312-1.546875.070312-2.3125zm-42.375 4.347656c.09375-.308593.222657-.601562.34375-.898437-.042969 1.457031.65625 2.875.324219 4.320312-.308594-1.125-.449219-2.28125-.667969-3.421875zm5.226563 3.855469l.40625-.597656c-.105469 1.34375.5625 2.617187.371094 3.953125-.457032-1.066407-.550782-2.230469-.777344-3.355469zM85.125 73.207031c.386719-.878906.847656-1.816406 1.691406-2.34375-.347656.890625-.785156 1.890625-1.691406 2.34375zm0 0" fill="rgb(76.078433%,99.607843%,78.431374%)"/><path d="M101.667969 59.921875c.167969.167969.472656.277344.449219.566406-.238282.523438-.65625.941407-1.058594 1.347657.089844-.667969.328125-1.304688.609375-1.914063zm-4.695313 6.53125c.402344-.71875.804688-1.449219 1.429688-2.003906l.449218.417969c-.515624.644531-1.207031 1.117187-1.878906 1.585937zm0 0" fill="rgb(92.941177%,99.607843%,89.411765%)"/><path d="M51.046875 60.464844l.636719-.332032c.277344.648438.664062 1.296876.648437 2.023438l-1.285156-1.691406zm3.617187 4.613281c-.25-.363281.328126-.367187.546876-.496094l1.191406 1.964844c-.652344-.394531-1.265625-.875-1.738282-1.46875zm0 0" fill="rgb(88.627452%,99.607843%,87.450981%)"/><path d="M59.640625 67.722656c.777344.878906 1.515625 1.8125 2 2.886719-.792969-.683594-1.640625-1.316406-2.339844-2.089844.09375-.273437.222657-.535156.339844-.796875zm0 0" fill="rgb(96.862745%,99.215686%,96.078432%)"/><path d="M93.59375 67.804688c.480469-.148438.355469.511718.488281.789062l-.175781.050781c-.285156.035157-.464844.269531-.617188.484375l-.621093.761719-.304688-.476563c.433594-.519531.738281-1.140624 1.230469-1.609374zm0 0" fill="rgb(96.078432%,99.215686%,98.039216%)"/><path d="M93.289062 69.128906c.152344-.214844.332032-.449218.617188-.484375.214844.320313-.34375.738281-.617188.484375zm0 0" fill="rgb(58.431375%,73.333335%,21.568628%)"/><path d="M94.367188 69.023438c.085937-.230469.46875-.324219.515624-.011719l-.515624.011719zm0 0" fill="rgb(39.215687%,67.450982%,65.490198%)"/><path d="M58.136719 69.375c.234375-.105469.464843-.222656.71875-.285156.320312.164062.589843.40625.867187.632812.871094.742188 1.859375 1.351563 2.601563 2.226563-1.542969-.578125-2.910157-1.558594-4.1875-2.574219zm0 0" fill="rgb(95.294118%,99.607843%,94.509804%)"/><path d="M94.367188 69.023438l.515624-.011719.203126.4375C94.339844 70.078125 93.5 70.589844 92.75 71.214844c-.375.296875-.757812.636718-1.253906.691406l-.480469.054688c.578125-.671876 1.273437-1.226563 1.960937-1.777344l.957032-.765625.433594-.394531zm0 0" fill="rgb(80.000001%,92.941177%,80.392158%)"/><path d="M91.804688 70.414062c.15625-.351562.34375-.683593.558593-1l.304688.476563c-.25.230469-.546875.402344-.863281.523437zm0 0" fill="rgb(60.784316%,86.274511%,53.725493%)"/><path d="M92.976562 70.183594l.957032-.765625-.957032.765625zm0 0" fill="rgb(43.529412%,63.137257%,64.313728%)"/><path d="M57.09375 70.550781c-.457031-.1875.347656-.605469.273438-.125l-.273438.125zm0 0" fill="rgb(82.745099%,85.490197%,47.058824%)"/><path d="M65.1875 70.097656l.105469.140625 1.648437 2.367188c-.679687-.386719-1.3125-.855469-1.945312-1.320313l.191406-1.1875zm0 0" fill="rgb(91.37255%,99.607843%,92.941177%)"/><path d="M64.699219 71.894531c.800781.378907 1.59375.804688 2.265625 1.394531-.851563-.175781-1.683594-.425781-2.507813-.695312l.242188-.699219zm0 0" fill="rgb(89.803922%,100%,92.941177%)"/><path d="M87.625 72.46875c-.164062-.292969.355469-.597656.546875-.328125-.140625.167969-.339844.265625-.546875.328125zm0 0" fill="rgb(37.254903%,70.980394%,64.313728%)"/><path d="M69.28125 73.019531c.246094-.207031.613281.203125.398438.429688-.246094.203125-.609376-.207031-.398438-.429688zm0 0" fill="rgb(48.627451%,86.666667%,45.09804%)"/><path d="M83.742188 72.992188c.25-.25.601562.1875.351562.402343-.246094.25-.59375-.191406-.351562-.402343zm0 0" fill="rgb(46.27451%,83.92157%,43.529412%)"/><path d="M82.960938 73.597656c.398437-.175781.433593.457032.085937.527344-.398437.167969-.425781-.457031-.085937-.527344zm0 0" fill="rgb(73.725492%,94.901961%,64.705884%)"/><path d="M88.992188 75.714844c.550781-.246094 1.234374-.25 1.703124.171875L90.5 75.867188l-1.507812-.152344zm0 0" fill="rgb(69.411767%,78.823531%,35.294119%)"/><path d="M81.210938 77.183594c.855468.222656 1.726562.417968 2.617187.386718l.222656.003907c-.53125.386719-1.191406.171875-1.785156.105469l-.179687.457031-.925782-.304688.320313.09375-.269531-.742187zm0 0" fill="rgb(57.254905%,78.431374%,67.450982%)"/></svg>