<?xml version="1.0" encoding="UTF-8"?>
<svg version="1.1" xmlns="http://www.w3.org/2000/svg" width="150" height="150">
<path d="M0 0 C5 1 5 1 8 3 C8.53625 2.484375 9.0725 1.96875 9.625 1.4375 C12 0 12 0 15.0625 0.1875 C18 1 18 1 21 3 C21.53625 2.484375 22.0725 1.96875 22.625 1.4375 C25 0 25 0 28.0625 0.1875 C31 1 31 1 34 3 C34.53625 2.484375 35.0725 1.96875 35.625 1.4375 C38 0 38 0 41.0625 0.1875 C44 1 44 1 47 3 C47.53625 2.484375 48.0725 1.96875 48.625 1.4375 C51 0 51 0 54.0625 0.1875 C57 1 57 1 60 3 C60.53625 2.484375 61.0725 1.96875 61.625 1.4375 C64 0 64 0 67.0625 0.1875 C70 1 70 1 73 3 C73.53625 2.484375 74.0725 1.96875 74.625 1.4375 C77 0 77 0 80.0625 0.1875 C83 1 83 1 86 3 C86.721875 2.484375 87.44375 1.96875 88.1875 1.4375 C91 0 91 0 93.5625 0.1875 C95.8495712 0.94985707 97.89451994 1.83028886 100 3 C100.556875 2.484375 101.11375 1.96875 101.6875 1.4375 C104 0 104 0 106.5 0.1875 C108.81972976 0.94141217 110.87047416 1.81693009 113 3 C113.556875 2.484375 114.11375 1.96875 114.6875 1.4375 C117 0 117 0 119.5 0.1875 C121.81972976 0.94141217 123.87047416 1.81693009 126 3 C126.350625 2.484375 126.70125 1.96875 127.0625 1.4375 C129 0 129 0 132.16308594 0.11328125 C139.47673449 1.80348051 144.46801461 5.82454409 148.64819336 12.05224609 C153.39495976 22.40306016 152.03703963 35.76843992 151.82519531 46.90332031 C151.74536008 51.15026974 151.79262931 55.38495794 151.87342072 59.63148499 C152.33501301 88.21797291 152.33501301 88.21797291 145.20758057 96.47875977 C140.23301487 101.16689981 136.04457727 103.75017702 129 104 C126.5625 102.5625 126.5625 102.5625 125 101 C124.443125 101.495 123.88625 101.99 123.3125 102.5 C120.51773663 104.31281949 119.27531826 104.47931487 116 104 C113.1875 102.5 113.1875 102.5 111 101 C110.608125 101.495 110.21625 101.99 109.8125 102.5 C108 104 108 104 105.625 104.375 C102.4985308 103.92836154 100.58469018 102.77235898 98 101 C97.649375 101.515625 97.29875 102.03125 96.9375 102.5625 C95 104 95 104 91.5 103.8125 C88 103 88 103 85 101 C84.649375 101.515625 84.29875 102.03125 83.9375 102.5625 C82 104 82 104 78.5 103.8125 C75 103 75 103 72 101 C71.46375 101.515625 70.9275 102.03125 70.375 102.5625 C68 104 68 104 64.9375 103.8125 C62 103 62 103 59 101 C58.46375 101.515625 57.9275 102.03125 57.375 102.5625 C55 104 55 104 51.9375 103.8125 C49 103 49 103 46 101 C45.46375 101.515625 44.9275 102.03125 44.375 102.5625 C42 104 42 104 38.9375 103.8125 C36 103 36 103 33 101 C32.46375 101.515625 31.9275 102.03125 31.375 102.5625 C29 104 29 104 25.9375 103.8125 C23 103 23 103 20 101 C19.46375 101.515625 18.9275 102.03125 18.375 102.5625 C16 104 16 104 12.9375 103.8125 C10 103 10 103 7 101 C6.401875 101.495 5.80375 101.99 5.1875 102.5 C3 104 3 104 0 104 C0 69.68 0 35.36 0 0 Z " fill="#066D34" transform="translate(0,23)"/>
<path d="M0 0 C5 1 5 1 8 3 C8.53625 2.484375 9.0725 1.96875 9.625 1.4375 C12 0 12 0 15.0625 0.1875 C18 1 18 1 21 3 C21.53625 2.484375 22.0725 1.96875 22.625 1.4375 C25 0 25 0 28.0625 0.1875 C31 1 31 1 34 3 C34.53625 2.484375 35.0725 1.96875 35.625 1.4375 C38 0 38 0 41.0625 0.1875 C44 1 44 1 47 3 C47.53625 2.484375 48.0725 1.96875 48.625 1.4375 C51 0 51 0 54.0625 0.1875 C57 1 57 1 60 3 C60.53625 2.484375 61.0725 1.96875 61.625 1.4375 C64 0 64 0 67.0625 0.1875 C70 1 70 1 73 3 C73.53625 2.484375 74.0725 1.96875 74.625 1.4375 C77 0 77 0 80.0625 0.1875 C83 1 83 1 86 3 C86.721875 2.484375 87.44375 1.96875 88.1875 1.4375 C91 0 91 0 93.5625 0.1875 C95.8495712 0.94985707 97.89451994 1.83028886 100 3 C100.556875 2.484375 101.11375 1.96875 101.6875 1.4375 C104 0 104 0 106.5 0.1875 C108.81972976 0.94141217 110.87047416 1.81693009 113 3 C113.556875 2.484375 114.11375 1.96875 114.6875 1.4375 C117 0 117 0 119.5 0.1875 C121.81972976 0.94141217 123.87047416 1.81693009 126 3 C126.350625 2.484375 126.70125 1.96875 127.0625 1.4375 C129 0 129 0 132.16308594 0.11328125 C139.47673449 1.80348051 144.46801461 5.82454409 148.64819336 12.05224609 C153.39495976 22.40306016 152.03703963 35.76843992 151.82519531 46.90332031 C151.74536008 51.15026974 151.79262931 55.38495794 151.87342072 59.63148499 C152.33501301 88.21797291 152.33501301 88.21797291 145.20758057 96.47875977 C140.23301487 101.16689981 136.04457727 103.75017702 129 104 C126.5625 102.5625 126.5625 102.5625 125 101 C124.443125 101.495 123.88625 101.99 123.3125 102.5 C120.51773663 104.31281949 119.27531826 104.47931487 116 104 C113.1875 102.5 113.1875 102.5 111 101 C110.608125 101.495 110.21625 101.99 109.8125 102.5 C108 104 108 104 105.625 104.375 C102.4985308 103.92836154 100.58469018 102.77235898 98 101 C97.649375 101.515625 97.29875 102.03125 96.9375 102.5625 C95 104 95 104 91.5 103.8125 C88 103 88 103 85 101 C84.649375 101.515625 84.29875 102.03125 83.9375 102.5625 C82 104 82 104 78.5 103.8125 C75 103 75 103 72 101 C71.46375 101.515625 70.9275 102.03125 70.375 102.5625 C68 104 68 104 64.9375 103.8125 C62 103 62 103 59 101 C58.46375 101.515625 57.9275 102.03125 57.375 102.5625 C55 104 55 104 51.9375 103.8125 C49 103 49 103 46 101 C45.46375 101.515625 44.9275 102.03125 44.375 102.5625 C42 104 42 104 38.9375 103.8125 C36 103 36 103 33 101 C32.46375 101.515625 31.9275 102.03125 31.375 102.5625 C29 104 29 104 25.9375 103.8125 C23 103 23 103 20 101 C19.46375 101.515625 18.9275 102.03125 18.375 102.5625 C16 104 16 104 12.9375 103.8125 C10 103 10 103 7 101 C6.401875 101.495 5.80375 101.99 5.1875 102.5 C3 104 3 104 0 104 C0 69.68 0 35.36 0 0 Z M66 4 C64.35 5.65 62.7 7.3 61 9 C58.53199953 7.84826645 56.95216435 6.95216435 55 5 C51.51135721 5.36089408 48.90967307 7.1410422 46 9 C43.525 7.02 43.525 7.02 41 5 C38.0280615 6.12451727 35.66559313 7.22293791 33 9 C32.2575 8.319375 31.515 7.63875 30.75 6.9375 C28.27077187 4.77944525 28.27077187 4.77944525 25.875 5.0625 C23.80438407 6.09780797 22.51304041 7.26000353 21 9 C18.53199953 7.84826645 16.95216435 6.95216435 15 5 C11.70720291 5.31865778 10.13464912 6.54515351 8 9 C5.50638429 7.79618552 3.31856917 6.54571278 1 5 C1 36.02 1 67.04 1 99 C2.65 97.68 4.3 96.36 6 95 C8.95409701 96.37154504 11.44008376 97.98863724 14 100 C15.98 98.35 17.96 96.7 20 95 C22.31 96.65 24.62 98.3 27 100 C29.31 98.35 31.62 96.7 34 95 C34.556875 95.680625 35.11375 96.36125 35.6875 97.0625 C37.81682712 99.28024162 37.81682712 99.28024162 40.5 98.9375 C43.09729612 97.96351395 44.89633786 96.79200849 47 95 C48.98 96.65 50.96 98.3 53 100 C55.31 98.35 57.62 96.7 60 95 C62.31 96.65 64.62 98.3 67 100 C68.65 98.35 70.3 96.7 72 95 C74.95409701 96.37154504 77.44008376 97.98863724 80 100 C81.65 98.35 83.3 96.7 85 95 C87.95409701 96.37154504 90.44008376 97.98863724 93 100 C94.65 98.35 96.3 96.7 98 95 C100.95409701 96.37154504 103.44008376 97.98863724 106 100 C107.65 98.35 109.3 96.7 111 95 C113.95409701 96.37154504 116.44008376 97.98863724 119 100 C120.65 98.35 122.3 96.7 124 95 C127.06775511 96.42431487 129.21040099 97.90780074 132 100 C137.28 94.72 142.56 89.44 148 84 C147.34 82.68 146.68 81.36 146 80 C145.33333333 78.66666667 144.66666667 77.33333333 144 76 C145.98 74.02 145.98 74.02 148 72 C146.84826645 69.53199953 145.95216435 67.95216435 144 66 C144.31865778 62.70720291 145.54515351 61.13464912 148 59 C147.566875 58.13375 147.566875 58.13375 147.125 57.25 C146.08333333 55.16666667 145.04166667 53.08333333 144 51 C145.32 49.68 146.64 48.36 148 47 C146.84826645 44.53199953 145.95216435 42.95216435 144 41 C144.31865778 37.70720291 145.54515351 36.13464912 148 34 C147.566875 33.13375 147.566875 33.13375 147.125 32.25 C146.08333333 30.16666667 145.04166667 28.08333333 144 26 C145.32 24.68 146.64 23.36 148 22 C146.6415798 18.95667235 145.11536976 16.87690849 142.7421875 14.546875 C142.11699219 13.928125 141.49179688 13.309375 140.84765625 12.671875 C139.87119141 11.72054687 139.87119141 11.72054687 138.875 10.75 C138.21628906 10.1003125 137.55757812 9.450625 136.87890625 8.78125 C135.25703357 7.18288273 133.6306719 5.58938103 132 4 C130.02 5.65 128.04 7.3 126 9 C123.04590299 7.62845496 120.55991624 6.01136276 118 4 C116.35 5.65 114.7 7.3 113 9 C110.04590299 7.62845496 107.55991624 6.01136276 105 4 C103.35 5.65 101.7 7.3 100 9 C97.04590299 7.62845496 94.55991624 6.01136276 92 4 C90.35 5.65 88.7 7.3 87 9 C84.04590299 7.62845496 81.55991624 6.01136276 79 4 C77.35 5.65 75.7 7.3 74 9 C71.04590299 7.62845496 68.55991624 6.01136276 66 4 Z " fill="#050505" transform="translate(0,23)"/>
<path d="M0 0 C1.98 1.65 3.96 3.3 6 5 C8.95409701 3.62845496 11.44008376 2.01136276 14 0 C15.65 1.65 17.3 3.3 19 5 C21.95409701 3.62845496 24.44008376 2.01136276 27 0 C28.65 1.65 30.3 3.3 32 5 C34.95409701 3.62845496 37.44008376 2.01136276 40 0 C41.65 1.65 43.3 3.3 45 5 C47.95409701 3.62845496 50.44008376 2.01136276 53 0 C54.65 1.65 56.3 3.3 58 5 C61.06775511 3.57568513 63.21040099 2.09219926 66 0 C71.28 5.28 76.56 10.56 82 16 C80.66666667 18.66666667 79.33333333 21.33333333 78 24 C79.98 25.98 79.98 25.98 82 28 C80.84826645 30.46800047 79.95216435 32.04783565 78 34 C78.31865778 37.29279709 79.54515351 38.86535088 82 41 C80.66666667 43.66666667 79.33333333 46.33333333 78 49 C79.98 50.98 79.98 50.98 82 53 C80.84826645 55.46800047 79.95216435 57.04783565 78 59 C78.31865778 62.29279709 79.54515351 63.86535088 82 66 C80.66666667 68.66666667 79.33333333 71.33333333 78 74 C79.32 75.32 80.64 76.64 82 78 C80.28418916 82.63268926 78.34849752 83.37625207 74 87 C74 61.59 74 36.18 74 10 C28.46 10 -17.08 10 -64 10 C-64 7.36 -64 4.72 -64 2 C-62.68 2.99 -61.36 3.98 -60 5 C-57.53199953 3.84826645 -55.95216435 2.95216435 -54 1 C-50.70720291 1.31865778 -49.13464912 2.54515351 -47 5 C-44.53199953 3.84826645 -42.95216435 2.95216435 -41 1 C-37.51135721 1.36089408 -34.90967307 3.1410422 -32 5 C-30.35 3.68 -28.7 2.36 -27 1 C-24.0280615 2.12451727 -21.66559313 3.22293791 -19 5 C-18.2575 4.319375 -17.515 3.63875 -16.75 2.9375 C-14 1 -14 1 -11.875 1.0625 C-9.80438407 2.09780797 -8.51304041 3.26000353 -7 5 C-4.11562221 3.70700306 -2.12780579 2.34058637 0 0 Z " fill="#F7F7F7" transform="translate(66,27)"/>
<path d="M0 0 C45.54 0 91.08 0 138 0 C132 7 132 7 129 9 C127.35 7.35 125.7 5.7 124 4 C121.04590299 5.37154504 118.55991624 6.98863724 116 9 C114.35 7.35 112.7 5.7 111 4 C108.04590299 5.37154504 105.55991624 6.98863724 103 9 C101.35 7.35 99.7 5.7 98 4 C95.04590299 5.37154504 92.55991624 6.98863724 90 9 C88.35 7.35 86.7 5.7 85 4 C82.04590299 5.37154504 79.55991624 6.98863724 77 9 C75.35 7.35 73.7 5.7 72 4 C69.04590299 5.37154504 66.55991624 6.98863724 64 9 C62.02 7.35 60.04 5.7 58 4 C54.535 6.475 54.535 6.475 51 9 C48.69 7.35 46.38 5.7 44 4 C43.443125 4.680625 42.88625 5.36125 42.3125 6.0625 C40 8 40 8 37.5 7.9375 C34.90270388 6.96351395 33.10366214 5.79200849 31 4 C28.69 5.65 26.38 7.3 24 9 C22.02 7.35 20.04 5.7 18 4 C15.69 5.65 13.38 7.3 11 9 C9.35 7.35 7.7 5.7 6 4 C5.071875 4.4640625 5.071875 4.4640625 4.125 4.9375 C2.75 5.625 1.375 6.3125 0 7 C0 4.69 0 2.38 0 0 Z " fill="#F5F5F5" transform="translate(2,114)"/>
<path d="M0 0 C0.70177226 1.31519501 1.37823789 2.64514425 2 4 C0.68 5.32 -0.64 6.64 -2 8 C-1.71125 8.5775 -1.4225 9.155 -1.125 9.75 C-0.08333333 11.83333333 0.95833333 13.91666667 2 16 C1.319375 16.5775 0.63875 17.155 -0.0625 17.75 C-2.23939709 19.76595576 -2.23939709 19.76595576 -1.9375 22.0625 C-0.91177008 24.18234182 0.23114862 25.46186836 2 27 C0.66666667 29.66666667 -0.66666667 32.33333333 -2 35 C-0.02 36.98 -0.02 36.98 2 39 C0.84826645 41.46800047 -0.04783565 43.04783565 -2 45 C-1.68134222 48.29279709 -0.45484649 49.86535088 2 52 C0.66666667 54.66666667 -0.66666667 57.33333333 -2 60 C-0.68 61.32 0.64 62.64 2 64 C0.28418916 68.63268926 -1.65150248 69.37625207 -6 73 C-6 47.59 -6 22.18 -6 -4 C-51.54 -4 -97.08 -4 -144 -4 C-144 -4.33 -144 -4.66 -144 -5 C-126.25868134 -5.27094707 -108.51725538 -5.50710496 -90.77493954 -5.70202446 C-82.5365779 -5.79334053 -74.29864947 -5.89597229 -66.06079102 -6.02539062 C-58.87940247 -6.13818274 -51.69811182 -6.22959359 -44.51613432 -6.29549801 C-40.71430642 -6.33112738 -36.91328224 -6.3773454 -33.11195183 -6.44918442 C-29.53080777 -6.51652408 -25.95047699 -6.55517567 -22.36875153 -6.57224464 C-20.43393261 -6.5888152 -18.4994434 -6.63543325 -16.56513977 -6.68305969 C-9.32259483 -6.68409507 -4.50867426 -6.03697339 0 0 Z " fill="#E9ECEA" transform="translate(146,41)"/>
<path d="M0 0 C0.33 0 0.66 0 1 0 C2.26319272 8.74618907 2.12677311 17.47166118 2.09765625 26.28515625 C2.09578821 27.95381121 2.09436613 29.62246673 2.09336853 31.29112244 C2.08957374 35.65580799 2.07976982 40.02045958 2.06866455 44.38513184 C2.05838469 48.84984885 2.0538569 53.31457141 2.04882812 57.77929688 C2.03814447 66.51954673 2.02110508 75.25976912 2 84 C3.17087158 83.96447021 4.34174316 83.92894043 5.5480957 83.89233398 C36.98677843 82.97622728 68.36763446 83.01174747 99.8125 83.4375 C101.23319479 83.45672075 101.23319479 83.45672075 102.68259048 83.4763298 C114.45530422 83.63689414 126.22759675 83.81654131 138 84 C138 59.25 138 34.5 138 9 C138.33 9 138.66 9 139 9 C139 34.41 139 59.82 139 86 C93.46 86 47.92 86 1 86 C1 88.64 1 91.28 1 94 C0.67 94 0.34 94 0 94 C0 62.98 0 31.96 0 0 Z " fill="#1E6332" transform="translate(1,28)"/>
<path d="M0 0 C1.07636719 0.00322266 2.15273438 0.00644531 3.26171875 0.00976562 C4.38964844 0.01814453 5.51757812 0.02652344 6.6796875 0.03515625 C7.81535156 0.03966797 8.95101562 0.04417969 10.12109375 0.04882812 C12.93234388 0.0606401 15.7434898 0.07711118 18.5546875 0.09765625 C18.5546875 0.75765625 18.5546875 1.41765625 18.5546875 2.09765625 C17.5646875 2.59265625 17.5646875 2.59265625 16.5546875 3.09765625 C15.45962258 6.382851 15.45508142 8.8342904 15.4921875 12.28515625 C15.50121094 13.37183594 15.51023437 14.45851563 15.51953125 15.578125 C15.53113281 16.40957031 15.54273437 17.24101563 15.5546875 18.09765625 C15.2246875 17.43765625 14.8946875 16.77765625 14.5546875 16.09765625 C13.8946875 16.09765625 13.2346875 16.09765625 12.5546875 16.09765625 C12.49410156 15.24300781 12.43351562 14.38835938 12.37109375 13.5078125 C12.24541016 11.85072266 12.24541016 11.85072266 12.1171875 10.16015625 C12.03597656 9.05800781 11.95476562 7.95585938 11.87109375 6.8203125 C11.85050666 4.18655722 11.85050666 4.18655722 10.5546875 3.09765625 C10.50570312 3.92910156 10.45671875 4.76054688 10.40625 5.6171875 C10.33148438 6.70386719 10.25671875 7.79054688 10.1796875 8.91015625 C10.11007813 9.98910156 10.04046875 11.06804688 9.96875 12.1796875 C9.5546875 15.09765625 9.5546875 15.09765625 7.5546875 18.09765625 C7.42191406 17.24300781 7.28914063 16.38835938 7.15234375 15.5078125 C6.97574219 14.40308594 6.79914062 13.29835938 6.6171875 12.16015625 C6.44316406 11.05800781 6.26914062 9.95585938 6.08984375 8.8203125 C5.83623614 6.19338696 5.83623614 6.19338696 4.5546875 5.09765625 C4.57789063 5.9896875 4.60109375 6.88171875 4.625 7.80078125 C4.65207031 9.55648437 4.65207031 9.55648437 4.6796875 11.34765625 C4.70289063 12.5078125 4.72609375 13.66796875 4.75 14.86328125 C4.56415468 17.94087983 4.32647035 19.60758305 2.5546875 22.09765625 C-0.0703125 22.84765625 -0.0703125 22.84765625 -2.4453125 23.09765625 C-4.82024422 19.53525867 -4.81083425 16.78547447 -4.9453125 12.66015625 C-5.09601121 6.57284252 -5.09601121 6.57284252 -7.4453125 1.09765625 C-4.83580014 -0.20709993 -2.91829965 -0.01535947 0 0 Z " fill="#0A6D32" transform="translate(56.4453125,37.90234375)"/>
<path d="M0 0 C1.65 0 3.3 0 5 0 C5.66 4.29 6.32 8.58 7 13 C7.99 13 8.98 13 10 13 C9.67 14.65 9.34 16.3 9 18 C11.31 17.34 13.62 16.68 16 16 C15.505 14.515 15.505 14.515 15 13 C17.475 13.495 17.475 13.495 20 14 C19.66411682 16.51912388 19.42645046 17.67196119 17.375 19.25 C14.13409355 20.27344414 11.37745573 20.24563314 8 20 C7.01 19.34 6.02 18.68 5 18 C4.34 18 3.68 18 3 18 C2.67 16.02 2.34 14.04 2 12 C1.443125 12.825 0.88625 13.65 0.3125 14.5 C-2 17 -2 17 -4.5625 17.375 C-7 17 -7 17 -10 16 C-11.47974337 16.00545025 -12.95963659 16.05023457 -14.4375 16.125 C-17.6159249 16.17676588 -18.75057229 16.14600646 -21.5625 14.5 C-22.036875 14.005 -22.51125 13.51 -23 13 C-22.67 11.68 -22.34 10.36 -22 9 C-20.02 9 -18.04 9 -16 9 C-16.33 10.65 -16.66 12.3 -17 14 C-15.02 13.34 -13.04 12.68 -11 12 C-11 8.37 -11 4.74 -11 1 C-10.34 1 -9.68 1 -9 1 C-8.01 5.62 -7.02 10.24 -6 15 C-2 13.5 -2 13.5 -1 11 C-0.7724985 9.12943209 -0.59037189 7.25314042 -0.4375 5.375 C-0.35371094 4.37210937 -0.26992188 3.36921875 -0.18359375 2.3359375 C-0.09271484 1.17964844 -0.09271484 1.17964844 0 0 Z " fill="#E0E6E2" transform="translate(40,91)"/>
<path d="M0 0 C0.33 0 0.66 0 1 0 C1.6046925 13.84073942 1.6046925 13.84073942 -3.625 19.875 C-7.29396567 21.61293111 -11.01022341 21.5408676 -15 21 C-17.28125 19.98046875 -17.28125 19.98046875 -19 19 C-19.37125 19.495 -19.7425 19.99 -20.125 20.5 C-22.74694393 22.59755514 -24.73842472 22.21743835 -28 22 C-27.77960279 18.14304875 -26.98453876 16.98383598 -24.25 14.125 C-21 12 -21 12 -18.25 11.9375 C-15.50364904 13.23438795 -15.18642864 14.2881631 -14 17 C-13.01 17.33 -12.02 17.66 -11 18 C-11 12.39 -11 6.78 -11 1 C-10.01 1 -9.02 1 -8 1 C-7.90311779 6.44693314 -7.87137825 11.63904667 -9 17 C-5.34683329 15.75023244 -4.21934164 15.32901247 -2 12 C-1.55570562 9.95130926 -1.18705805 7.88545707 -0.875 5.8125 C-0.70742188 4.72582031 -0.53984375 3.63914063 -0.3671875 2.51953125 C-0.24601562 1.68808594 -0.12484375 0.85664062 0 0 Z " fill="#DFE6E2" transform="translate(41,39)"/>
<path d="M0 0 C2.125 0.375 2.125 0.375 4 1 C4 2.32 4 3.64 4 5 C4.66 5 5.32 5 6 5 C6 4.34 6 3.68 6 3 C9.34252724 2.92572162 11.8035914 2.93453047 15 4 C15 4.66 15 5.32 15 6 C15.99 6 16.98 6 18 6 C18 4.35 18 2.7 18 1 C19.32 0.67 20.64 0.34 22 0 C22.46666667 8.08888889 22.46666667 8.08888889 20.6875 11.5625 C19 13 19 13 16 13 C16 11 16 11 18 9 C17.02160156 9.16048828 17.02160156 9.16048828 16.0234375 9.32421875 C10.36186016 10.10080679 6.9984697 10.20414724 2 7 C1.67 7 1.34 7 1 7 C0.67 8.65 0.34 10.3 0 12 C-5.49152542 11.38983051 -5.49152542 11.38983051 -7.875 9.5625 C-9 8 -9 8 -9 6 C-8.1028125 6.4640625 -8.1028125 6.4640625 -7.1875 6.9375 C-4.91043228 8.10209704 -4.91043228 8.10209704 -2 9 C-2.04125 7.88625 -2.0825 6.7725 -2.125 5.625 C-2 2 -2 2 0 0 Z " fill="#BFCEC3" transform="translate(84,94)"/>
<path d="M0 0 C2.64 0 5.28 0 8 0 C8.33 1.98 8.66 3.96 9 6 C9.66 5.34 10.32 4.68 11 4 C13.625 4.375 13.625 4.375 16 5 C16.75 7.125 16.75 7.125 17 10 C15.51209453 12.57903614 14.11387131 14.88612869 12 17 C10.33382885 17.04063832 8.66611905 17.042721 7 17 C6.34 15.68 5.68 14.36 5 13 C7.31 13 9.62 13 12 13 C12.33 12.34 12.66 11.68 13 11 C10.69 11 8.38 11 6 11 C5.67 10.34 5.34 9.68 5 9 C4.01 10.485 4.01 10.485 3 12 C2.01 11.67 1.02 11.34 0 11 C0 7.37 0 3.74 0 0 Z " fill="#CAD7CD" transform="translate(113,90)"/>
<path d="M0 0 C0.78375 0.04125 1.5675 0.0825 2.375 0.125 C2.705 1.445 3.035 2.765 3.375 4.125 C0.66620665 5.47939668 -1.63433268 5.19001451 -4.625 5.125 C-4.295 5.785 -3.965 6.445 -3.625 7.125 C-1.60036745 7.77713292 -1.60036745 7.77713292 0.375 8.125 C-0.625 11.125 -0.625 11.125 -2.5 12.3125 C-4.625 13.125 -4.625 13.125 -7.625 13.125 C-7.955 14.115 -8.285 15.105 -8.625 16.125 C-8.625 15.465 -8.625 14.805 -8.625 14.125 C-9.945 14.125 -11.265 14.125 -12.625 14.125 C-12.955 14.785 -13.285 15.445 -13.625 16.125 C-13.625 15.135 -13.625 14.145 -13.625 13.125 C-18.575 13.455 -23.525 13.785 -28.625 14.125 C-28.625 13.465 -28.625 12.805 -28.625 12.125 C-27.51125 11.8775 -26.3975 11.63 -25.25 11.375 C-21.57884802 10.51494661 -21.57884802 10.51494661 -20.1875 8 C-20.001875 7.38125 -19.81625 6.7625 -19.625 6.125 C-18.965 6.125 -18.305 6.125 -17.625 6.125 C-16.965 7.445 -16.305 8.765 -15.625 10.125 C-12.325 10.125 -9.025 10.125 -5.625 10.125 C-6.45 9.67125 -7.275 9.2175 -8.125 8.75 C-8.95 8.21375 -9.775 7.6775 -10.625 7.125 C-10.625 6.465 -10.625 5.805 -10.625 5.125 C-9.67625 4.67125 -8.7275 4.2175 -7.75 3.75 C-0.59274194 0.02822581 -0.59274194 0.02822581 0 0 Z " fill="#E5EBE7" transform="translate(123.625,65.875)"/>
<path d="M0 0 C0.99 0.66 1.98 1.32 3 2 C3.3984375 4.64453125 3.3984375 4.64453125 3.375 7.8125 C3.38273437 8.85019531 3.39046875 9.88789062 3.3984375 10.95703125 C2.94496115 14.42034574 2.13009639 16.24564717 0 19 C-4.61541688 22.06815331 -9.44680722 23.56955823 -15 23 C-15 22.34 -15 21.68 -15 21 C-14.43410156 20.89042969 -13.86820313 20.78085937 -13.28515625 20.66796875 C-12.55167969 20.50941406 -11.81820312 20.35085937 -11.0625 20.1875 C-10.33160156 20.03667969 -9.60070313 19.88585937 -8.84765625 19.73046875 C-8.23792969 19.48941406 -7.62820312 19.24835937 -7 19 C-5.81318274 15.43954823 -5.90310168 12.56191663 -5.9375 8.8125 C-5.94652344 7.54019531 -5.95554687 6.26789062 -5.96484375 4.95703125 C-5.97644531 3.98121094 -5.98804688 3.00539062 -6 2 C-3 4 -3 4 -2.26953125 6.1640625 C-1.84635417 8.44270833 -1.42317708 10.72135417 -1 13 C-0.67 8.71 -0.34 4.42 0 0 Z " fill="#E2E8E3" transform="translate(66,40)"/>
<path d="M0 0 C1.134375 0.020625 2.26875 0.04125 3.4375 0.0625 C3.37708131 2.1257984 3.28818362 4.18827414 3.1875 6.25 C3.11789063 7.97283203 3.11789063 7.97283203 3.046875 9.73046875 C2.33104069 13.64461404 1.32002668 15.34397915 -1.5625 18.0625 C-4.3125 18.875 -4.3125 18.875 -6.5625 19.0625 C-6.25527348 16.08270106 -5.94198528 13.10376241 -5.625 10.125 C-5.53798828 9.27486328 -5.45097656 8.42472656 -5.36132812 7.54882812 C-5.27431641 6.73994141 -5.18730469 5.93105469 -5.09765625 5.09765625 C-5.019104 4.3487915 -4.94055176 3.59992676 -4.85961914 2.82836914 C-4.30078621 -0.49294441 -3.55761838 0.06241436 0 0 Z " fill="#076B2F" transform="translate(37.5625,37.9375)"/>
<path d="M0 0 C1.41377341 2.63904371 2.37240135 5.07120629 3 8 C5.41585574 7.96906827 5.41585574 7.96906827 8 7 C9.85916824 4.03292954 9.85916824 4.03292954 11 1 C11.33 1 11.66 1 12 1 C12.1953125 7.0546875 12.1953125 7.0546875 12 9 C10 11 10 11 6.0625 11.125 C4.70815609 11.08955922 3.35394774 11.04825952 2 11 C1.01 11 0.02 11 -1 11 C-1.5775 11.680625 -2.155 12.36125 -2.75 13.0625 C-5 15 -5 15 -8.5625 14.9375 C-13.45783133 13.60240964 -13.45783133 13.60240964 -15 11 C-14.6875 8.8125 -14.6875 8.8125 -14 7 C-13.01 7.33 -12.02 7.66 -11 8 C-11.66 8 -12.32 8 -13 8 C-13 8.99 -13 9.98 -13 11 C-9.57363451 11.31148777 -7.66469271 11.47478051 -4.8125 9.4375 C-2.56337014 6.41280812 -1.35224598 3.51583956 0 0 Z " fill="#D7E0DA" transform="translate(33,71)"/>
<path d="M0 0 C0.66 0 1.32 0 2 0 C2.66 1.32 3.32 2.64 4 4 C4.33 3.67 4.66 3.34 5 3 C7.5 2.875 7.5 2.875 10 3 C11 4 11 4 11.1875 7.375 C11 11 11 11 9 14 C5.875 14.1875 5.875 14.1875 3 14 C2.67 13.01 2.34 12.02 2 11 C2.804375 11.020625 3.60875 11.04125 4.4375 11.0625 C6.93354885 11.29633621 6.93354885 11.29633621 8 10 C4.04 10 0.08 10 -4 10 C-4.66 8.68 -5.32 7.36 -6 6 C-4.68 6 -3.36 6 -2 6 C-2 6.66 -2 7.32 -2 8 C-1.01 8 -0.02 8 1 8 C0.67 5.36 0.34 2.72 0 0 Z " fill="#D0DCD3" transform="translate(62,93)"/>
<path d="M0 0 C1.65 0 3.3 0 5 0 C5.66 4.29 6.32 8.58 7 13 C7.99 13 8.98 13 10 13 C9.67 14.65 9.34 16.3 9 18 C11.31 17.34 13.62 16.68 16 16 C15.67 15.01 15.34 14.02 15 13 C17.475 13.495 17.475 13.495 20 14 C19.66411682 16.51912388 19.42645046 17.67196119 17.375 19.25 C14.13409355 20.27344414 11.37745573 20.24563314 8 20 C7.01 19.34 6.02 18.68 5 18 C4.34 18 3.68 18 3 18 C2.67 12.39 2.34 6.78 2 1 C1.34 0.67 0.68 0.34 0 0 Z " fill="#B6C8BC" transform="translate(40,91)"/>
<path d="M0 0 C1.32 0.66 2.64 1.32 4 2 C4.10853491 3.74861792 4.18583428 5.49919241 4.25 7.25 C4.29640625 8.22453125 4.3428125 9.1990625 4.390625 10.203125 C4 13 4 13 2.40625 15.34375 C-0.80271111 17.55251544 -2.89248471 17.40430061 -6.75 17.25 C-7.92046875 17.21390625 -9.0909375 17.1778125 -10.296875 17.140625 C-11.18890625 17.09421875 -12.0809375 17.0478125 -13 17 C-12.01 16.34 -11.02 15.68 -10 15 C-11.65 15 -13.3 15 -15 15 C-14.67 14.01 -14.34 13.02 -14 12 C-12.35 12 -10.7 12 -9 12 C-8.67 10.68 -8.34 9.36 -8 8 C-7.34 8 -6.68 8 -6 8 C-5.34 9.98 -4.68 11.96 -4 14 C-2.68 13.67 -1.36 13.34 0 13 C0 8.71 0 4.42 0 0 Z " fill="#E3E9E5" transform="translate(95,41)"/>
<path d="M0 0 C0.66 0 1.32 0 2 0 C2.34005528 5.30864082 2.56983333 9.67798667 0.4375 14.625 C-2.6475861 17.63098132 -4.76765896 17.83721765 -9 18 C-9 17.34 -9 16.68 -9 16 C-7.68 15.67 -6.36 15.34 -5 15 C-4.68831714 10.42865137 -5.10189056 8.50188224 -8 5 C-8 4.01 -8 3.02 -8 2 C-5.37812506 3.04874998 -4.20628639 3.64931313 -2.75 6.125 C-2.5025 6.74375 -2.255 7.3625 -2 8 C-1.34 5.36 -0.68 2.72 0 0 Z " fill="#DFE6E1" transform="translate(121,41)"/>
<path d="M0 0 C2.125 0.375 2.125 0.375 4 1 C4 2.32 4 3.64 4 5 C4.66 5 5.32 5 6 5 C6 4.34 6 3.68 6 3 C7.32 3 8.64 3 10 3 C9.67 3.66 9.34 4.32 9 5 C8.34 4.67 7.68 4.34 7 4 C7 4.66 7 5.32 7 6 C2.125 7 2.125 7 1 7 C0.67 8.65 0.34 10.3 0 12 C-5.49152542 11.38983051 -5.49152542 11.38983051 -7.875 9.5625 C-9 8 -9 8 -9 6 C-8.1028125 6.4640625 -8.1028125 6.4640625 -7.1875 6.9375 C-4.91043228 8.10209704 -4.91043228 8.10209704 -2 9 C-2.04125 7.88625 -2.0825 6.7725 -2.125 5.625 C-2 2 -2 2 0 0 Z " fill="#D4DED7" transform="translate(84,94)"/>
<path d="M0 0 C0 1.65 0 3.3 0 5 C0.99 5 1.98 5 3 5 C3 4.34 3 3.68 3 3 C5.64 2.67 8.28 2.34 11 2 C10.67 3.32 10.34 4.64 10 6 C8.78763672 6.05607422 8.78763672 6.05607422 7.55078125 6.11328125 C6.48214844 6.17902344 5.41351563 6.24476562 4.3125 6.3125 C3.25675781 6.37050781 2.20101562 6.42851563 1.11328125 6.48828125 C-2.24145062 7.03968636 -4.13253995 8.25607626 -7 10 C-7.99 9.67 -8.98 9.34 -10 9 C-8.8553125 8.38125 -8.8553125 8.38125 -7.6875 7.75 C-5.0633358 6.04124191 -3.69678024 4.58982247 -2 2 C-2.99 1.67 -3.98 1.34 -5 1 C-5 1.66 -5 2.32 -5 3 C-5.66 3 -6.32 3 -7 3 C-7 2.01 -7 1.02 -7 0 C-4.3333581 -1.33332095 -2.83319697 -0.67102033 0 0 Z " fill="#D5DED8" transform="translate(78,72)"/>
<path d="M0 0 C2.5 2.25 2.5 2.25 5 5 C5 9 5 9 3.5 10.75 C2.7575 11.36875 2.7575 11.36875 2 12 C2.28875 12.5775 2.5775 13.155 2.875 13.75 C3.91666667 15.83333333 4.95833333 17.91666667 6 20 C0.125 15.375 0.125 15.375 -1 12 C-1.09287771 10.31454276 -1.12997204 8.625507 -1.125 6.9375 C-1.12757813 6.05964844 -1.13015625 5.18179688 -1.1328125 4.27734375 C-1 2 -1 2 0 0 Z " fill="#E9E9E9" transform="translate(142,62)"/>
<path d="M0 0 C0.66 0.33 1.32 0.66 2 1 C2.47618812 3.87182587 2.84167597 6.67120147 3.125 9.5625 C3.21136719 10.36880859 3.29773437 11.17511719 3.38671875 12.00585938 C3.59943628 14.00304064 3.80077855 16.00142737 4 18 C-0.68949602 20.12449225 -3.73066908 21.3855608 -9 21 C-9 20.34 -9 19.68 -9 19 C-8.43410156 18.89042969 -7.86820313 18.78085937 -7.28515625 18.66796875 C-6.55167969 18.50941406 -5.81820312 18.35085937 -5.0625 18.1875 C-4.33160156 18.03667969 -3.60070313 17.88585937 -2.84765625 17.73046875 C-2.23792969 17.48941406 -1.62820312 17.24835937 -1 17 C0.18681726 13.43954823 0.09689832 10.56191663 0.0625 6.8125 C0.05347656 5.54019531 0.04445313 4.26789062 0.03515625 2.95703125 C0.02355469 1.98121094 0.01195312 1.00539062 0 0 Z " fill="#E1E8E4" transform="translate(60,42)"/>
<path d="M0 0 C3.3 0 6.6 0 10 0 C10 0.66 10 1.32 10 2 C9.01 2.495 9.01 2.495 8 3 C6.90493508 6.28519475 6.90039392 8.73663415 6.9375 12.1875 C6.94652344 13.27417969 6.95554687 14.36085938 6.96484375 15.48046875 C6.97644531 16.31191406 6.98804687 17.14335938 7 18 C6.67 17.34 6.34 16.68 6 16 C5.34 16 4.68 16 4 16 C3.96261719 15.15695313 3.92523438 14.31390625 3.88671875 13.4453125 C3.82097656 12.34960938 3.75523438 11.25390625 3.6875 10.125 C3.62949219 9.03445312 3.57148437 7.94390625 3.51171875 6.8203125 C3.34285156 5.88960937 3.17398438 4.95890625 3 4 C2.01 3.34 1.02 2.68 0 2 C0 1.34 0 0.68 0 0 Z " fill="#036824" transform="translate(65,38)"/>
<path d="M0 0 C0.33 0 0.66 0 1 0 C1.56921066 13.02859944 1.56921066 13.02859944 -2 18 C-4.52098427 20.60791476 -5.58001368 20.97577002 -9.25 21.1875 C-10.61125 21.0946875 -10.61125 21.0946875 -12 21 C-12 20.34 -12 19.68 -12 19 C-10.27473958 18.34895833 -8.54947917 17.69791667 -6.82421875 17.046875 C-4.42778824 15.67162151 -3.40462356 14.38459349 -2 12 C-1.21371974 8.96731113 -1.21371974 8.96731113 -0.8125 5.75 C-0.65394531 4.67234375 -0.49539062 3.5946875 -0.33203125 2.484375 C-0.22246094 1.66453125 -0.11289062 0.8446875 0 0 Z " fill="#E6EBE8" transform="translate(41,39)"/>
<path d="M0 0 C3 3 3 3 3.29296875 6.79296875 C3.2730801 8.25809933 3.23737968 9.72308367 3.1875 11.1875 C3.16719727 12.31188477 3.16719727 12.31188477 3.14648438 13.45898438 C3.11118539 15.30629767 3.05737917 17.15324066 3 19 C2.01 19 1.02 19 0 19 C0 12.73 0 6.46 0 0 Z " fill="#D5DFD8" transform="translate(49,40)"/>
<path d="M0 0 C0.66 0 1.32 0 2 0 C2.165 0.639375 2.33 1.27875 2.5 1.9375 C3.781786 4.16119241 3.781786 4.16119241 5.9140625 4.48828125 C7.93575155 4.7275978 9.96841939 4.86893028 12 5 C12 5.33 12 5.66 12 6 C9.81347261 6.33965474 7.62571975 6.67142477 5.4375 7 C3.61025391 7.2784375 3.61025391 7.2784375 1.74609375 7.5625 C-1.87627848 7.98555077 -5.35712046 8.07501425 -9 8 C-9 7.34 -9 6.68 -9 6 C-7.88625 5.7525 -6.7725 5.505 -5.625 5.25 C-1.95384802 4.38994661 -1.95384802 4.38994661 -0.5625 1.875 C-0.376875 1.25625 -0.19125 0.6375 0 0 Z " fill="#C9D6CD" transform="translate(104,72)"/>
<path d="M0 0 C0.99 0.33 1.98 0.66 3 1 C3.3690205 10.41002278 3.3690205 10.41002278 1 15 C0.34 15 -0.32 15 -1 15 C-1.02685412 12.68756208 -1.04632841 10.3750373 -1.0625 8.0625 C-1.07410156 6.77472656 -1.08570312 5.48695312 -1.09765625 4.16015625 C-1 1 -1 1 0 0 Z " fill="#DEE5E0" transform="translate(104,42)"/>
<path d="M0 0 C0.99 0 1.98 0 3 0 C2.67 1.65 2.34 3.3 2 5 C4.31 4.34 6.62 3.68 9 3 C8.67 2.01 8.34 1.02 8 0 C9.65 0.33 11.3 0.66 13 1 C12.66411682 3.51912388 12.42645046 4.67196119 10.375 6.25 C7.17325225 7.26107824 4.33423048 7.18873003 1 7 C0 6 0 6 -0.0625 2.9375 C-0.041875 1.968125 -0.02125 0.99875 0 0 Z " fill="#DEE5E1" transform="translate(47,104)"/>
<path d="M0 0 C0 0.66 0 1.32 0 2 C0.66 2 1.32 2 2 2 C2 2.66 2 3.32 2 4 C2.99 4.33 3.98 4.66 5 5 C3.68 5 2.36 5 1 5 C1 5.66 1 6.32 1 7 C-2.85645121 7.22036864 -5.49223216 6.60355101 -9 5 C-9 4.34 -9 3.68 -9 3 C-7.68 3 -6.36 3 -5 3 C-5 2.34 -5 1.68 -5 1 C-2 0 -2 0 0 0 Z " fill="#DBE3DE" transform="translate(96,97)"/>
<path d="M0 0 C0.66 0 1.32 0 2 0 C1.67 5.94 1.34 11.88 1 18 C-1.91993499 15.08006501 -2.1541016 12.5235504 -2.1875 8.5625 C-2.20167969 7.80066406 -2.21585937 7.03882813 -2.23046875 6.25390625 C-1.97612666 3.76652685 -1.24017196 2.15191894 0 0 Z " fill="#D9E2DC" transform="translate(73,40)"/>
<path d="M0 0 C0.66 0 1.32 0 2 0 C0.69690265 8.02433628 0.69690265 8.02433628 -1.875 11.625 C-4 13 -4 13 -6.1875 12.9375 C-8 12 -8 12 -9 9 C-7.35 9 -5.7 9 -4 9 C-2.68 6.03 -1.36 3.06 0 0 Z " fill="#D2DCD5" transform="translate(65,70)"/>
<path d="M0 0 C4.5 5.625 4.5 5.625 6 9 C4.35830472 11.02054804 2.69088222 13.02043058 1 15 C0.67 15 0.34 15 0 15 C0 10.05 0 5.1 0 0 Z " fill="#FAFAFA" transform="translate(141,74)"/>
<path d="M0 0 C4.5 5.625 4.5 5.625 6 9 C4.71034824 10.37562854 3.37310707 11.70766393 2 13 C1.34 13 0.68 13 0 13 C0 8.71 0 4.42 0 0 Z " fill="#FAFAFA" transform="translate(141,99)"/>
<path d="M0 0 C0.99 0 1.98 0 3 0 C3.09688221 5.44693314 3.12862175 10.63904667 2 16 C1.34 16 0.68 16 0 16 C0 10.72 0 5.44 0 0 Z " fill="#E1E7E3" transform="translate(30,40)"/>
<path d="M0 0 C0.33 1.32 0.66 2.64 1 4 C-1.70879335 5.35439668 -4.00933268 5.06501451 -7 5 C-7.33 5.66 -7.66 6.32 -8 7 C-8 6.34 -8 5.68 -8 5 C-8.66 4.67 -9.32 4.34 -10 4 C-6.58908673 0.88145073 -4.68377325 -0.53528837 0 0 Z " fill="#BBCDBF" transform="translate(126,66)"/>
<path d="M0 0 C0.52078125 0.32742187 1.0415625 0.65484375 1.578125 0.9921875 C4.74712009 2.31089836 7.3298619 2.19340276 10.75 2.125 C11.92046875 2.10695313 13.0909375 2.08890625 14.296875 2.0703125 C15.18890625 2.04710938 16.0809375 2.02390625 17 2 C16.01 3.485 16.01 3.485 15 5 C12.37302936 5.22137393 9.99106036 5.28162025 7.375 5.1875 C6.66859375 5.17396484 5.9621875 5.16042969 5.234375 5.14648438 C3.48925872 5.1111104 1.74453392 5.05730221 0 5 C-0.5625 3.0625 -0.5625 3.0625 -1 1 C-0.67 0.67 -0.34 0.34 0 0 Z " fill="#75A17F" transform="translate(54,100)"/>
<path d="M0 0 C0.66 0 1.32 0 2 0 C2.36421725 5.46325879 2.36421725 5.46325879 0.8125 7.75 C-2.3987342 9.96464427 -5.09233814 11 -9 11 C-9 10.34 -9 9.68 -9 9 C-8.05125 8.54625 -7.1025 8.0925 -6.125 7.625 C-2.99686321 6.19761746 -2.99686321 6.19761746 -1 4 C-0.3574765 1.93125966 -0.3574765 1.93125966 0 0 Z " fill="#CCD8D0" transform="translate(91,73)"/>
<path d="M0 0 C0.66 0 1.32 0 2 0 C2.08142927 1.7492214 2.13938541 3.49954542 2.1875 5.25 C2.22230469 6.22453125 2.25710937 7.1990625 2.29296875 8.203125 C1.96075202 11.37468742 1.11327721 12.67040307 -1 15 C-2.32 14.67 -3.64 14.34 -5 14 C-4.360625 13.54625 -3.72125 13.0925 -3.0625 12.625 C-0.01774843 8.74986164 -0.18350135 4.8077353 0 0 Z " fill="#E7ECE9" transform="translate(40,92)"/>
<path d="M0 0 C0.66 0 1.32 0 2 0 C2.05391993 1.79133978 2.09275571 3.58313899 2.125 5.375 C2.14820312 6.37273438 2.17140625 7.37046875 2.1953125 8.3984375 C2 11 2 11 0 13 C-0.99 12.67 -1.98 12.34 -3 12 C-2 8 -1 4 0 0 Z " fill="#B5C6BA" transform="translate(121,41)"/>
<path d="M0 0 C0.33 0 0.66 0 1 0 C1.1953125 6.0546875 1.1953125 6.0546875 1 8 C-1 10 -1 10 -4.125 10.125 C-5.548125 10.063125 -5.548125 10.063125 -7 10 C-7 9.34 -7 8.68 -7 8 C-6.401875 7.79375 -5.80375 7.5875 -5.1875 7.375 C-2.18981233 5.49073918 -1.38638224 3.18867916 0 0 Z " fill="#E4EAE6" transform="translate(44,72)"/>
<path d="M0 0 C0.66 0 1.32 0 2 0 C2.66 3.96 3.32 7.92 4 12 C3.01 12.33 2.02 12.66 1 13 C0.67 8.71 0.34 4.42 0 0 Z " fill="#E3E9E5" transform="translate(29,92)"/>
<path d="M0 0 C0.66 0 1.32 0 2 0 C1.67 1.32 1.34 2.64 1 4 C0.34 4 -0.32 4 -1 4 C-0.67 2.68 -0.34 1.36 0 0 Z M-6 4 C-4.35 4 -2.7 4 -1 4 C-0.34 5.32 0.32 6.64 1 8 C-0.98 8.33 -2.96 8.66 -5 9 C-4.01 8.34 -3.02 7.68 -2 7 C-3.65 7 -5.3 7 -7 7 C-6.67 6.01 -6.34 5.02 -6 4 Z " fill="#CAD7CE" transform="translate(87,49)"/>
<path d="M0 0 C0.66 0 1.32 0 2 0 C2 2.64 2 5.28 2 8 C2.66 8 3.32 8 4 8 C3.67 9.32 3.34 10.64 3 12 C2.01 11.67 1.02 11.34 0 11 C0 7.37 0 3.74 0 0 Z " fill="#E1E8E3" transform="translate(113,90)"/>
<path d="M0 0 C0.33 0.99 0.66 1.98 1 3 C-0.73956658 4.73956658 -3.1936622 4.37190386 -5.5625 4.5625 C-7.08037109 4.68818359 -7.08037109 4.68818359 -8.62890625 4.81640625 C-9.41136719 4.87699219 -10.19382812 4.93757813 -11 5 C-10.67 4.34 -10.34 3.68 -10 3 C-9.01 3 -8.02 3 -7 3 C-7 2.34 -7 1.68 -7 1 C-3.535 0.505 -3.535 0.505 0 0 Z " fill="#CDD8D1" transform="translate(88,74)"/>
<path d="M0 0 C1.32 0.33 2.64 0.66 4 1 C4 2.32 4 3.64 4 5 C4.66 5 5.32 5 6 5 C6 4.34 6 3.68 6 3 C7.32 3 8.64 3 10 3 C9.67 3.66 9.34 4.32 9 5 C8.34 4.67 7.68 4.34 7 4 C7 4.66 7 5.32 7 6 C5.35 6.33 3.7 6.66 2 7 C0 1.125 0 1.125 0 0 Z " fill="#B1C3B7" transform="translate(84,94)"/>
<path d="M0 0 C1.65 0 3.3 0 5 0 C4 3 3 6 2 9 C1.34 8.67 0.68 8.34 0 8 C0 5.36 0 2.72 0 0 Z " fill="#C3D1C8" transform="translate(116,90)"/>
<path d="M0 0 C2.14148733 3.212231 2.44114645 5.2476976 3 9 C3.83333333 11.16666667 3.83333333 11.16666667 6 12 C5.01 13.485 5.01 13.485 4 15 C3.34 15 2.68 15 2 15 C0.58365167 12.16730334 0.6536995 9.52533562 0.4375 6.375 C0.35371094 5.18648437 0.26992188 3.99796875 0.18359375 2.7734375 C0.12300781 1.85820313 0.06242187 0.94296875 0 0 Z " fill="#BECDC2" transform="translate(62,44)"/>
<path d="M0 0 C0.99 0.33 1.98 0.66 3 1 C2.34 1 1.68 1 1 1 C1 1.99 1 2.98 1 4 C3.31 4.33 5.62 4.66 8 5 C7.67 5.66 7.34 6.32 7 7 C4.69 6.67 2.38 6.34 0 6 C-0.38218767 4.34385343 -0.71395102 2.67542976 -1 1 C-0.67 0.67 -0.34 0.34 0 0 Z " fill="#E3E9E5" transform="translate(19,78)"/>
<path d="M0 0 C0.66 0 1.32 0 2 0 C2 1.98 2 3.96 2 6 C1.34 5.67 0.68 5.34 0 5 C-0.33 7.64 -0.66 10.28 -1 13 C-1.33 13 -1.66 13 -2 13 C-2.05447047 11.58376784 -2.09300508 10.16691809 -2.125 8.75 C-2.14820312 7.96109375 -2.17140625 7.1721875 -2.1953125 6.359375 C-1.9828378 3.79268059 -1.28654105 2.2083933 0 0 Z " fill="#AEC2B4" transform="translate(73,40)"/>
<path d="M0 0 C0.99 0.33 1.98 0.66 3 1 C2.01 2.485 2.01 2.485 1 4 C-2.125 4.1875 -2.125 4.1875 -5 4 C-5.33 3.01 -5.66 2.02 -6 1 C-4.7934375 1.0309375 -4.7934375 1.0309375 -3.5625 1.0625 C-1.06645115 1.29633621 -1.06645115 1.29633621 0 0 Z " fill="#D8E1DB" transform="translate(70,103)"/>
<path d="M0 0 C0.33 0 0.66 0 1 0 C1.36521739 7.30434783 1.36521739 7.30434783 -0.3125 10.5 C-2 12 -2 12 -5 12 C-5 11.34 -5 10.68 -5 10 C-4.360625 9.4225 -3.72125 8.845 -3.0625 8.25 C-0.55649582 5.51617726 -0.33019491 3.63214398 0 0 Z " fill="#E4EAE6" transform="translate(105,95)"/>
<path d="M0 0 C0.66 0 1.32 0 2 0 C1.34 2.97 0.68 5.94 0 9 C-0.66 9 -1.32 9 -2 9 C-1.125 1.125 -1.125 1.125 0 0 Z " fill="#C9D6CD" transform="translate(65,70)"/>
<path d="M0 0 C1.32 0 2.64 0 4 0 C3.3125 1.9375 3.3125 1.9375 2 4 C-0.625 4.75 -0.625 4.75 -3 5 C-1.125 1.125 -1.125 1.125 0 0 Z " fill="#247438" transform="translate(18,54)"/>
<path d="M0 0 C0.33 0.66 0.66 1.32 1 2 C2.32 1.67 3.64 1.34 5 1 C5.33 1.66 5.66 2.32 6 3 C6.99 3.66 7.98 4.32 9 5 C5.50765756 5.09978121 2.40562852 4.77842938 -1 4 C-0.67 2.68 -0.34 1.36 0 0 Z " fill="#C3D1C7" transform="translate(29,103)"/>
<path d="M0 0 C0.66 0 1.32 0 2 0 C2 2.31 2 4.62 2 7 C0.35 7.33 -1.3 7.66 -3 8 C-3 7.34 -3 6.68 -3 6 C-2.01 6 -1.02 6 0 6 C0 4.02 0 2.04 0 0 Z " fill="#E1E8E3" transform="translate(110,95)"/>
<path d="M0 0 C2.76223278 2.76223278 2.57856291 5.20706617 3 9 C2.01 9.33 1.02 9.66 0 10 C0 6.7 0 3.4 0 0 Z " fill="#E2E8E4" transform="translate(119,91)"/>
<path d="M0 0 C2.475 0.495 2.475 0.495 5 1 C4.6875 2.9375 4.6875 2.9375 4 5 C3.01 5.33 2.02 5.66 1 6 C1 5.01 1 4.02 1 3 C0.67 2.01 0.34 1.02 0 0 Z " fill="#D3DDD6" transform="translate(55,104)"/>
<path d="M0 0 C1.98 0.495 1.98 0.495 4 1 C3.67 2.32 3.34 3.64 3 5 C1.68 4.67 0.36 4.34 -1 4 C-0.67 2.68 -0.34 1.36 0 0 Z " fill="#CEDBD1" transform="translate(18,100)"/>
</svg>
