<svg xmlns="http://www.w3.org/2000/svg" width="60" height="42" fill-rule="evenodd" xmlns:v="https://vecta.io/nano"><path d="M20.347656 1.308594c0 .027344.035156.109375.082032.179687l2.160156 3.296875c.421875.609375 5.828125 8.890625 5.84375 8.949219.023437.085937 4.160156.117187 4.160156.035156 0-.035156-1.625-2.507812-6.578125-9.992187l-1.589844-2.445313c-.027343-.09375-4.078125-.117187-4.078125-.023437M36.71875 1.3125c0 .027344-.757812 1.203125-1.6875 2.609375l-1.6875 2.621094c0 .085937 1.949219 3.070312 2.007812 3.066406.042969 0 5.390626-8.128906 5.449219-8.28125.023438-.0625-.144531-.070313-2.027343-.070313-1.617188 0-2.054688.011719-2.054688.054688" fill="rgb(92.156863%,89.803922%,83.529413%)"/><path d="M24.414062 1.308594c0 .027344.828126 1.296875 1.835938 2.820312l4.089844 6.1875 2.253906 3.453125c0 .023438.804688.039063 2.101562.039063 2.199219 0 2.21875 0 2.21875-.175782 0-.03125.035157-.085937.082032-.117187s.082031-.085937.082031-.121094.035156-.089843.074219-.125c.5-.464843.027344-.972656-.90625-.972656h-.441406l-.242188-.378906-.285156-.433594c-.023438-.023437-.070313-.097656-.105469-.164063s-.074219-.113281-.09375-.113281-.03125-.035156-.03125-.078125c0-.128906 2.9375-.191406 3.335937-.070312.210938.066406.316407.027344.316407-.113282 0-.03125.035156-.082031.082031-.117187s.082031-.089844.082031-.125.039063-.09375.085938-.125.082031-.089844.082031-.128906.039062-.089844.082031-.125.082031-.089844.082031-.125.039063-.09375.085938-.125.082031-.089844.082031-.125.039063-.09375.082031-.128907.085938-.089843.085938-.125.035156-.09375.082031-.125.082031-.085937.082031-.113281.015626-.054687.035157-.054687.0625-.050782.09375-.117188.089843-.152344.128906-.195312.074219-.105469.074219-.136719.015625-.054687.035156-.054687.070312-.074219.109375-.167969.09375-.167969.109375-.167969.035156-.035156.035156-.074219.039063-.101562.085938-.136719.082031-.089843.082031-.125.039063-.09375.082031-.125.085938-.089843.085938-.125.035156-.09375.082031-.128906.082031-.082031.082031-.113281.015625-.054687.035156-.054687.058594-.050782.09375-.113282.089844-.148437.128907-.183594.074219-.09375.074219-.128906.039062-.085937.082031-.117187.085937-.089844.085937-.128907.035156-.089843.082032-.125.082031-.089843.082031-.125.039062-.09375.082031-.125.085938-.085937.085938-.117187.035156-.097656.082031-.144531.082031-.117188.082031-.144532.019531-.058593.042969-.058593.039062-.023438.039062-.054688.03125-.082031.0625-.109375.0625-.085937.0625-.125.039063-.09375.085938-.128906.082031-.089844.082031-.125.035156-.09375.082031-.125.082031-.089844.082031-.128906.039063-.089844.085938-.125.082031-.089844.082031-.125.035157-.09375.082031-.125.082032-.089844.082032-.128906.039062-.089844.085937-.125.082031-.089844.082031-.125.035157-.09375.082032-.125.082031-.082032.082031-.109376.039063-.082031.085937-.121093.082032-.101563.082032-.132813.015625-.058594.035156-.058594.058594-.050781.09375-.113281.089844-.152343.128906-.199219.074219-.105468.074219-.136718.015625-.054688.035156-.054688.070313-.074218.109375-.167968.089844-.167969.109375-.167969.035157-.03125.035157-.074219.039062-.101562.085937-.132812.082031-.089844.082031-.128907.035156-.089843.082032-.125.082031-.082031.082031-.105469.039062-.082031.085937-.125.082032-.097656.082032-.121093.039062-.078125.082031-.109375.082031-.089844.082031-.125.039062-.09375.085938-.128906.082031-.089844.082031-.125.039062-.089844.082031-.125.085938-.089844.085938-.125.035156-.09375.082031-.125c.046875-.039063.082031-.109376.082031-.179688v-.117188h-2.070312l-2.097657.070313c-.058593.152344-5.40625 8.28125-5.449219 8.28125-.027343.003906-.492187-.675781-1.035156-1.507813l-1.019531-1.511718c-.019531 0-.167969.199218-.328125.441406s-.308594.433594-.332031.421875-.195313-.273437-.394531-.582031l-.390626-.574219c-.011718-.011719-.050781-.074219-.082031-.136719s-.074219-.117187-.09375-.117187-.035156-.023438-.035156-.054688-.035156-.089843-.074219-.136719C31.445312 5.71875 30.625 4.4375 30.5625 4.292969c-.027344-.078125-.070312-.136719-.089844-.136719s-.035156-.035156-.035156-.074219-.039062-.101562-.085938-.136719-.082031-.089843-.082031-.125-.035156-.09375-.082031-.125-.082031-.085937-.082031-.117187S30.085938 3.5 30.0625 3.472656c-.0625-.074218-.21875-.328125-.289062-.460937-.03125-.0625-.074219-.117188-.09375-.117188s-.03125-.027343-.03125-.0625-.015626-.0625-.035157-.0625-.0625-.050781-.09375-.113281-.089843-.148438-.132812-.183594-.070313-.097656-.070313-.128906-.039062-.085938-.085937-.121094-.082031-.089844-.082031-.125-.035157-.089844-.082032-.125-.082031-.089844-.082031-.125-.039063-.09375-.085937-.125-.082032-.089844-.082032-.128906-.035156-.089844-.082031-.125-.082031-.09375-.082031-.136719c0-.070312-.117188-.074219-2.121094-.074219l-2.117188.050782" fill="rgb(26.666668%,54.509807%,76.078433%)"/><path d="M16.195312 1.386719c0 .066406.015626.125.035157.125s.066406.074219.109375.167969.089844.167968.109375.167968.035156.023438.035156.054688.03125.089844.074219.136718.097656.132813.128906.195313.074219.117187.09375.117187.035156.023438.035156.054688.039063.089844.082032.132812.085937.097657.085937.125.035156.074219.082031.105469.082032.089844.082032.125.039062.09375.082031.128907.085937.089843.085937.125.035156.09375.082032.125.082031.089843.082031.125.039062.09375.082031.128906.085938.089844.085938.125.035156.09375.082031.125.082031.089844.082031.125.039062.09375.082031.125.085938.09375.085938.132812.027343.09375.0625.121094.0625.074219.0625.101562.035156.074219.082031.109376.082031.089843.082031.125.039063.09375.082031.125.085938.089843.085938.125.035156.09375.082031.128906.082031.089844.082031.125.039063.09375.082032.125.085937.089844.085937.125.035157.09375.082031.128906.082032.089844.082032.125.039062.09375.082031.125.085937.089844.085937.125.035157.09375.082032.128906.082031.082032.082031.113282.019531.050781.042969.050781.039062.035156.039062.078125.039063.101562.085938.132812.082031.089844.082031.125.039063.09375.082031.128906.085938.09375.085938.132813.015625.074219.035156.074219.066406.078125.109375.167968.089844.167969.109375.167969.035156.027344.035156.054688.03125.09375.074219.136719.097656.136718.128906.199218.074219.113282.09375.113282.035157.027343.035157.054687.039062.082031.082031.113281.082031.089844.082031.128906.039062.089844.085938.125.082031.089844.082031.125.039062.09375.082031.125.085938.089844.085938.125.035156.09375.082031.128907.082031.089843.082031.125.039062.09375.082031.125.085938.089843.085938.125.035156.09375.082031.128906.082031.085937.082031.117187.035157.089844.078125.128907.089844.109375.105469.160156.046875.097656.070313.097656.035156.023438.035156.054688.039062.09375.085937.144531.082031.113281.082031.144531.039063.082031.082032.117188.085937.089843.085937.125.035157.09375.082031.125.082032.089843.082032.125.039062.09375.082031.128906.085937.089844.085937.125.035157.09375.082032.125.082031.085937.082031.117187c0 .078126.105469.175782.179687.175782.097657 0 1.109376 1.566406 1.109376 1.714844 0 .066406.035156.152343.082031.195312s.082031.097656.082031.125.039062.074219.082031.105469.085938.089843.085938.128906.035156.089844.082031.125.082031.085937.082031.117187c0 .175782.023438.175782 2.175781.175782l2.058594-.042969c0-.027344-.277344-.464844-.613281-.976563l-1.402344-2.128906-1.597656-2.433594-4.480469-6.90625c0-.054687-.277344-.0625-2.078125-.0625h-2.074219v.128907m16.289063-.054688c-.015625.039063-.0625.105469-.105469.140625s-.074218.097656-.074218.128906-.039063.085938-.082032.121094-.085937.09375-.085937.132813-.015625.074219-.03125.074219-.0625.054687-.09375.117187l-.09375.15625c-.085938.117187-.234375.363281-.234375.394531 0 .019532-.039063.066406-.085938.109375s-.082031.097657-.082031.125-.039063.074219-.082031.105469-.085938.089844-.085938.125-.035156.09375-.082031.128906-.082031.089844-.082031.125-.039063.09375-.082032.125-.085937.089844-.085937.125-.035156.09375-.082031.128906-.082032.089844-.082032.125-.039062.089844-.082031.125-.085937.085938-.085937.117188-.027344.085938-.0625.121094-.054688.097656-.035156.152344c.03125.097656.867187 1.390624.980468 1.515624.039063.046876.074219.105469.074219.136719s.015625.054688.035156.054688.058594.054687.09375.117187.070313.125.082031.136719.191407.269531.390626.574219l.394531.582031c.035156.019531.558593-.714844.703125-.984375.03125-.058594.796875-1.21875 1.695312-2.578125l1.660156-2.550781c.03125-.121094-4.167968-.128906-4.210937-.007813" fill="rgb(90.588236%,31.37255%,32.549021%)"/><path d="M36.414062 11.140625c0 .035156.015626.066406.035157.066406s.0625.050781.09375.113281.09375.152344.132812.199219.070313.105469.070313.136719.019531.054688.042968.054688.042969.027343.042969.0625.015625.0625.039063.0625.042968.027343.042968.0625.019532.0625.039063.0625.042969.03125.042969.0625.019531.066406.042968.066406.039063.027344.039063.0625.019531.0625.042969.0625.042968.019531.042968.042968.035157.085938.082032.132813.082031.117187.082031.144531.019531.054688.042969.054688c.070312 0 .042968.269531-.042969.410156-.042969.074219-.0625.136719-.039063.136719.054688 0 .054688 2.546875 0 2.582031-.023437.015625-.042968.101562-.042968.191406s-.019532.164063-.042969.164063-.035156.015625-.023437.039062c.023437.039063-.167969.222657-.277344.265625-.039063.015625-.078125.011719-.09375-.007812s-.128906-.089844-.257813-.15625-.246093-.128906-.253906-.148438-.050781-.03125-.09375-.03125-.078125-.019531-.078125-.042968-.023438-.042969-.054688-.042969c-.074218 0-.277343-.097657-.277343-.136719 0-.015625-.058594-.03125-.125-.03125s-.125-.019531-.125-.042969-.035157-.039062-.082031-.039062-.089844-.019531-.105469-.042969-.070313-.042969-.125-.042969-.101563-.019531-.101563-.046875-.027344-.035156-.058594-.023437-.082031-.003907-.109374-.035157-.09375-.0625-.148438-.0625-.105469-.019531-.121094-.042968-.070312-.039063-.125-.039063-.101562-.019531-.101562-.042969-.066406-.042968-.148438-.042968-.144531-.019532-.144531-.042969-.054687-.039063-.125-.039063-.121094-.019531-.121094-.042968-.078125-.042969-.167969-.042969-.167968-.015625-.167968-.03125-.066406-.03125-.152344-.03125-.183594-.015625-.210938-.035156-.132812-.046875-.230468-.054688-.277344-.035156-.402344-.058593-.476562-.054688-.78125-.066407c-.339844-.015625-.535156-.039062-.5-.0625s-.265625-.035156-.722656-.035156l-.777344.035156c0 .019531-.238281.046875-.527344.0625l-.78125.070313-.402344.050781c-.085937.003906-.15625.023437-.15625.039063s-.082031.035156-.179687.035156-.195313.015625-.21875.039062-.097656.046875-.171875.058594-.15625.035156-.1875.054688-.097656.027343-.152344.019531c-.0625-.007813-.085937.003906-.070312.03125s-.027344.046875-.136719.046875c-.089844 0-.171875.019531-.175781.042968s-.066406.046876-.125.050782-.105469.023437-.09375.042968-.046875.03125-.125.03125-.148438.019532-.148438.042969-.039062.042969-.085937.042969-.082031.015625-.082031.039062-.042969.042969-.101563.042969-.113281.019531-.125.042969-.0625.042969-.105469.042969-.082031.015625-.082031.039062-.027344.042969-.0625.042969-.109375.03125-.164063.066406-.121093.054688-.144531.039063-.042969-.007813-.042969.019531-.039062.042969-.085937.042969-.082031.019531-.082031.042969-.027344.042968-.0625.042968-.0625.015625-.0625.039063-.035156.042969-.082032.042969-.082031.019531-.082031.042968-.039062.042969-.085937.042969-.082032.015625-.082032.039063-.035156.042968-.082031.042968-.082031.019532-.082031.042969c0 .121094-.320312.039063-.480469-.125-.085937-.09375-.144531-.167969-.121093-.167969s.011718-.023437-.015626-.050781c-.035156-.039063-.046874-.453125-.046874-1.605469v-1.550781l-.558594-.851563c-.433594-.65625-.578125-.847656-.640625-.84375-.046875.003907-.074219.019532-.066407.035157s-.003906.058593-.035156.089843c-.15625.171876-.152344.15625-.152344 3.394532 0 3.359375.003907 3.269531-.195312 3.269531-.066406 0-.066406.007813-.015625.042969s.054687.039062-.007813.039062c-.074218.003906-.363281.28125-.363281.355469 0 .019531-.011719.027344-.027343.011719-.027344-.027344-.160157.089844-.160157.144531 0 .019531-.019531.039063-.042969.046875-.070312.019531-.394531.386719-.394531.449219s-.003906.058593-.039062 0c-.035157-.046875-.042969-.039063-.042969.042969s-.007812.09375-.042969.042968-.039062-.050781-.039062.011719c0 .042969-.089844.167969-.199219.273437s-.203125.226563-.210938.257813-.046874.089844-.089843.128906-.082031.09375-.082031.121094-.023438.039063-.046876.019531c-.03125-.015625-.039062-.011718-.019531.019532.015625.023437-.039062.109374-.117187.1875s-.136719.15625-.128906.164062-.027344.070312-.082032.132812-.113281.15625-.125.199219-.042968.078125-.066406.078125-.035156.039063-.035156.085938-.019532.082031-.042969.082031-.042969.035156-.042969.074219-.035156.101562-.082031.136718-.082031.09375-.082031.136719-.019532.074219-.042969.074219-.042969.035156-.042969.082031-.015625.085938-.039062.085938-.042969.03125-.042969.074219-.035156.101562-.082031.132812-.082032.09375-.082032.136719-.019531.074219-.046874.074219-.03125.019531-.019532.039062-.003906.066406-.039062.101562-.0625.089844-.0625.121094c0 .078125-.097656.285156-.132813.285156-.019531 0-.03125.035157-.03125.082032s-.019531.085937-.042969.085937-.042968.058594-.042968.136719c0 .101562-.007813.121094-.039063.070312s-.042969-.027343-.042969.074219c0 .074219-.019531.136719-.039062.136719s-.042969.058594-.042969.125-.015625.128906-.039062.128906-.03125.03125-.023438.070313c.007813.066406-.085937.292969-.148437.347656-.011719.011719-.023438.070313-.023438.125s-.023437.148437-.050781.199219-.046875.128906-.046875.175781-.019531.089844-.042969.089844-.035156.015625-.023437.035156-.003906.125-.035156.226563-.054688.222656-.046876.273437 0 .101563-.019531.113281-.039062.109375-.039062.210938-.019531.1875-.042969.1875-.042969.121094-.042969.273437-.015625.273438-.039062.273438-.042969.136719-.042969.332031c0 .183594-.019531.34375-.039062.359375-.058594.035156-.058594 2.414063 0 2.414063.023437 0 .039062.140624.039062.335937s.019531.335937.042969.335937.042969.128907.042969.304688c0 .191406.011718.28125.035156.246094s.046875.027344.058594.207031c.035156.390625.03125.375.117187.644531.042969.136719.078125.300782.078125.367188s.019531.117187.039062.117187.042969.058594.042969.125.019531.128907.046875.136719.046875.066406.046875.128906.015625.113282.035157.113282.039062.046874.039062.105468.015625.113282.039062.125.042969.074219.042969.128906.019531.105469.042969.105469.039062.035157.039062.078125.019532.085938.042969.09375.042969.066406.050781.128906.023438.117188.039063.117188.035156.039062.035156.082031.015625.085938.039063.085938.042968.039062.042968.082031.019532.085938.042969.085938.039063.039062.039063.082031.015625.085937.03125.085937c.039062 0 .136718.203125.136718.28125 0 .03125.011719.054688.03125.054688s.074219.101562.132813.226562.117187.21875.132813.207032.035156.015624.035156.058593.035156.121094.082031.167969.082031.113281.082031.140625.042969.085937.089844.128906.078125.078125.058594.078125c-.035156 0 .105468.257813.164062.304688.027344.015625.027344.027344 0 .03125-.019531 0 .003906.027344.054688.0625s.089844.097656.089844.140625.039062.097656.082031.132812.085937.082031.085937.109375.074219.117188.164063.199219.167969.160156.167969.171875c0 .03125.125.179688.320312.382812.097656.101563.175781.195313.179688.214844 0 .046875.371093.445313.375.402344 0-.019531.019531.007812.039062.0625s.074219.109375.121094.125.082031.050781.085937.074219.023438.035156.042969.03125.035156.011719.027344.039062.015625.050781.042968.042969.046876.007812.042969.027344.003907.039062.023438.039062.070312.042969.113281.09375.078125.082032.078125.0625.09375.066406.207031.183594.230469.214844.253906.214844.097657.054687.164063.125.136719.125.164063.125.105468.058594.167968.125.140625.128906.171875.128906.085938.035156.117188.082031.09375.085938.136719.085938.070312.015625.070312.03125.101562.101562.21875.179687.234375.160156.25.183594S24 39 24 38.980469c0-.03125.339844.144531.445312.230469.027344.023437.070313.027343.097657.007812s.039062-.011719.023437.011719c-.023437.042969.140625.140625.242188.140625.03125 0 .0625.019531.070312.042968s.054688.046876.105469.050782.082031.015625.074219.023437c-.027344.03125.1875.132813.273437.132813.042969 0 .078125.019531.078125.042968s.039063.042969.082032.042969.09375.015625.105468.039063.074219.042968.128906.042968.101563.019532.101563.042969.035156.042969.082031.042969.082032.015625.082032.039062.058593.042969.125.042969.125.019531.125.042969.054687.042969.125.042969.125.015625.125.039062.054687.042969.125.042969.125.019531.125.042969.042968.042969.101562.042969.109375.015624.125.039062.089844.042969.167969.042969.144531.019531.144531.042969.074219.042968.164062.042968.171876.015625.1875.039063.109376.042969.207032.042969.195312.019531.207031.042968.121094.042969.234375.042969.199219.011719.1875.03125.113281.039063.277344.042969.328125.03125.367187.054687c.09375.046875 2.859375.046875 2.917969-.003906.023438-.019531.175781-.046875.335938-.058594.546874-.042969.769531-.074219.769531-.109375s.101562-.054687.527343-.109375c.097657-.015625.175782-.042969.175782-.0625s.046875-.039062.101562-.039062.113282-.019531.128906-.046875.039063-.027344.066407.011718.035156.042969.035156.003907c0-.027344.046875-.050781.101563-.050781s.113281-.019532.128906-.042969.082031-.042969.148437-.042969c.074219 0 .113281-.015625.101563-.042969s.035156-.039062.121094-.039062.140624-.019531.125-.042969.027343-.042969.105468-.042969.117188-.015625.101563-.042969.023437-.039062.082031-.039062.105469-.019531.105469-.042969.058593-.042969.125-.042969.125-.019531.125-.042968.039062-.039063.082031-.039063.085938-.019531.085938-.042969.035156-.042968.082031-.042968c.089843 0 .21875-.0625.347656-.167969.042969-.035156.078125-.058594.082031-.054687.015625.027343.191406-.042969.191406-.078126 0-.023437.019532-.027343.039063-.015624s.066406-.003907.105469-.042969.082031-.054688.101562-.042969.058594-.003906.085938-.035156c.054687-.066406.375-.246094.375-.207032 0 .011719.03125-.007812.066406-.042968s.078125-.058594.09375-.050782.058594-.015624.089844-.0625.09375-.078124.136718-.078124.0625-.019532.050782-.042969-.007813-.042969.019531-.042969.074219-.027344.109375-.0625.082031-.050781.109375-.035156.03125.007812.011719-.023438c-.015625-.023437-.007813-.046875.019531-.046875s.074219-.027343.109375-.0625.082031-.050781.105469-.035156.035156.007813.015625-.023437c-.015625-.023438-.007813-.046876.015625-.046876s.09375-.046874.148437-.101562.140625-.113281.1875-.128906.078125-.039063.066406-.050782c-.027343-.027343.078126-.136718.136719-.136718.023438 0 .0625-.039063.085938-.085938s.0625-.082031.082031-.082031c.035156 0 .195312-.132813.421875-.347656.042969-.039063.078125-.0625.078125-.050781s.058594-.035157.132812-.105469.148438-.125.167969-.125.03125-.03125.03125-.066407.011719-.058593.03125-.046874.074219-.027344.125-.082032.085938-.101562.070313-.101562.042968-.0625.125-.140625.144531-.160157.148437-.179688.101563-.148437.226563-.285156.226562-.265625.226562-.285156c0-.058594.113282-.15625.140625-.128907.015625.015626.027344-.003906.027344-.046874s.015625-.058594.035156-.046876.058594-.035156.082031-.101562.058594-.128906.082032-.128906.0625-.050782.09375-.113282.09375-.152343.132812-.195312.070313-.113281.074219-.148438c0-.058593.003906-.058593.042969-.003906s.039062.046875.023437-.03125c-.011719-.0625 0-.09375.039063-.09375.03125 0 .058594-.027344.058594-.066406s.035156-.105469.082031-.152344.082031-.117187.082031-.144531.019531-.054687.046875-.054687.03125-.019532.019531-.039063.007813-.050781.042969-.0625.050781-.042969.039063-.066406 0-.054688.035156-.070313.058594-.039062.046875-.058594.003906-.058593.035156-.089843c.058594-.0625.132813-.242188.117187-.296875-.003906-.015625.011719-.03125.035157-.03125s.039062-.039063.039062-.085938.019531-.082031.042969-.082031.042969-.039063.042969-.085937.015625-.082032.039062-.082032.042969-.039062.042969-.085937.019531-.082031.039062-.082031.042969-.035157.042969-.082032.019531-.09375.042969-.105468.039062-.066407.039062-.113282.019532-.070312.042969-.054687.042969-.027344.042969-.105469c0-.070312.015625-.125.039062-.125s.042969-.039062.042969-.085938.019531-.082031.042969-.082031.039062-.046875.039062-.105469.019532-.113281.042969-.128906.039063-.070312.039063-.125.019531-.105468.042968-.105468.042969-.054688.042969-.125.015625-.125.039063-.125.042968-.054688.042968-.125.019532-.132813.042969-.148438.039063-.070312.039063-.128906.023437-.101563.050781-.101563c.035156 0 .03125-.015625-.007813-.042969s-.046874-.039062-.011718-.039062.050781-.054688.050781-.128906c0-.066406.019531-.125.042969-.125s.042968-.074219.042968-.167969.015626-.167969.03125-.167969.039063-.078125.042969-.175781.027344-.199219.042969-.222656.039062-.15625.042969-.292969.027343-.261719.042969-.273438c.03125-.023437.03125-.050781.042968-.515624 0-.164063.015625-.238282.039063-.203126s.035156-.460937.039062-1.152343l-.035156-1.234375c-.019531-.011719-.042969-.179688-.046875-.371094s-.027344-.359375-.042969-.371094-.035156-.121094-.035156-.246094-.019531-.230468-.039063-.230468-.042968-.09375-.042968-.210938-.019532-.207031-.042969-.207031-.039063-.074219-.039063-.164063-.019531-.171874-.039062-.179687-.046875-.085937-.050781-.171875-.027344-.15625-.042969-.15625-.035156-.058594-.035156-.125-.019532-.128906-.039063-.128906-.042969-.066406-.042969-.144532-.019531-.148437-.042968-.148437-.039063-.058594-.039063-.128906-.019531-.117188-.042969-.101563-.042968-.011718-.042968-.058594-.015625-.09375-.039063-.109374-.042969-.078126-.042969-.144532-.019531-.128906-.042968-.136718-.046875-.0625-.050782-.117188-.015624-.113281-.027343-.125c-.050781-.046875-.128907-.214844-.128907-.277344 0-.035156-.015624-.054687-.039062-.039062s-.042969-.019532-.042969-.082032-.019531-.105468-.042969-.105468-.039062-.050782-.039062-.109375-.019531-.09375-.042969-.082031-.039062-.019532-.039062-.078126-.019531-.109374-.042969-.109374-.042969-.035157-.042969-.082032-.035156-.105468-.074219-.136718-.074218-.085938-.066406-.128907-.007812-.070312-.027344-.070312-.039062-.039063-.039062-.085938-.019531-.082031-.039062-.082031-.042969-.039062-.042969-.085938-.019531-.078124-.042969-.0625-.039062 0-.039062-.035156-.03125-.074218-.070313-.085937-.054687-.039063-.042969-.054688-.015625-.085937-.074218-.160156-.089844-.148437-.074219-.164063.003906-.023437-.023438-.023437-.046875-.027344-.046875-.054687-.039062-.097657-.085937-.144532-.082031-.105468-.082031-.117187-.054688-.082031-.125-.144531-.125-.140626-.125-.167969-.054688-.105469-.125-.167969-.121094-.140625-.121094-.167969-.070313-.121093-.15625-.203125-.222656-.238281-.304688-.34375c-.191406-.25-1.109375-1.175781-1.164062-1.175781-.164063 0-.164063.011719-.164063-3.3125l-.039062-3.191406c-.023438 0-.042969-.019531-.042969-.046875 0-.074219-.183594-.226563-.289062-.242188-.4375-.058594-2.078126-.046875-2.078126.011719m-4.882812 4.835937c.289062.039063.230469.085938-.152344.113282l-.589844.070312-.46875.066406c-.121093.015626-.226562.042969-.242187.0625s-.09375.039063-.183594.039063-.171875.019531-.183593.039063-.089844.042968-.167969.042968-.152344.019532-.164063.042969-.082031.042969-.148437.042969-.128907.019531-.144531.039062-.078126.042969-.144532.042969-.132812.019531-.144531.042969-.070313.042968-.125.042968-.109375.019532-.125.039063-.0625.042969-.105469.042969-.113281.015625-.15625.039062l-.175781.078125-1.078125.480469-.84375.445312-.304688.175782c-.023437 0-.777343.507812-.804687.542968-.011719.015626-.085937.074219-.164063.128907s-.15625.109375-.167968.125-.058594.054687-.109375.089843c-.320313.21875-1.605469 1.472657-1.914063 1.863282-.59375.757812-1.132812 1.519531-1.132812 1.613281 0 .023437-.011719.042969-.027344.042969s-.054688.042968-.078125.09375l-.269531.492187c-.101563.09375-.710938 1.53125-.847656 1.996094l-.105469.292969c-.015625.023437-.039063.089844-.050781.148437l-.074219.269531c-.628907 2.246094-.628907 4.828126 0 7.09375.136719.488282.15625.609376.089843.609376-.019531 0-.089843-.117188-.160156-.261719l-.324218-.734375-.105469-.230469c-.019531-.039063-.039063-.109375-.039063-.15625s-.019531-.09375-.039062-.105469-.042969-.070312-.042969-.125-.019531-.113281-.042969-.128906-.039062-.070312-.039062-.125-.019532-.109375-.039063-.121094-.046875-.085937-.054687-.160156-.050782-.242188-.082032-.371094l-.113281-.480468-.085937-.441407c-.195313-.996093-.195313-2.898437 0-3.945312.109375-.59375.175781-.875.375-1.585938l.070312-.25c.011719-.054687.039063-.105469.058594-.117187s.035156-.0625.035156-.105469.015625-.117187.039063-.15625c.035156-.074219.101562-.230469.164062-.398437.253907-.675782 1.109375-2.164063 1.609375-2.796876.613282-.773437 1.519532-1.695312 1.980469-2.015624.050781-.03125.101563-.070313.109375-.085938.109375-.121094.882812-.652344 1.347656-.921875s1.46875-.757813 1.5625-.757813c.023438 0 .074219-.015624.113282-.039062.128906-.0625.277343-.121094.445312-.175781l.25-.082031.269531-.082032.289063-.082031c.058594-.019531.21875-.054687.355468-.082031l.394532-.085938c.59375-.152344 2.429687-.261718 3.003906-.183594m-.8125 2.628907l.265625.847656.203125.621094c.019531.039062.039062.101562.039062.136719s.015626.09375.035157.136718.078125.214844.128906.386719l.128906.386719c.019531.039062.039063.101562.039063.136718s.015625.097657.035156.136719.078125.214844.128906.390625l.128906.398438.082032.25.082031.253906.246094.773438.316406 1.003906c.054687.171875.085937.328125.074219.347656s1.480468.035156 3.355468.035156c3.753907 0 3.640626-.007812 3.21875.261719l-.277343.195313-.539063.382812c-.019531 0-.042968.011719-.050781.03125-.015625.035156-.445313.359375-1.195313.902344l-.3125.230468c-.023437.019532-.105468.078126-.1875.136719l-.164062.125c-.011719.015625-.089844.070313-.167969.125l-.164062.128907c-.011719.011718-.117188.089843-.230469.167968l-.269531.195313c-.054688.046875-.453125.335937-1.164063.851562l-.375.292969-.117187.105469.230469.714843.269531.785157c.019531.042969.035156.101562.035156.136719s.015625.097656.039063.136718.097656.273438.171874.515625l.171876.480469c.015624.023438.03125.082031.03125.132812s.019531.105469.042968.121094.042969.070313.042969.125.015625.113282.039063.125.042968.074219.042968.128906.019532.109376.039063.125.042969.0625.042969.109376.015624.113281.039062.152343c.066406.128907.835938 2.546875.832031 2.625 0 .101563-.011719.097657-.367187-.167969l-.523438-.390624-.519531-.382813-.707031-.519531-1.390625-1.027344-.996094-.734375-.777344-.574219c-.203125-.160156-.273437-.132812-.84375.332032-.019531.019531-.132812.101562-.246093.179687l-.269532.195313-.894531.664062-1.359375 1.007812c-.042969.035157-.09375.0625-.117188.0625s-.039062.015626-.039062.035157-.050781.0625-.113281.101562-.160157.105469-.21875.152344l-.769531.570313-.738282.550781c-.136718.113281-.207031.027343-.113281-.140625.042969-.074219.128906-.335938.5-1.519532l.25-.777343.207031-.652344.25-.796875.351563-1.113281.355469-1.128907.082031-.292968c0-.027344.074219-.082032.167969-.121094s.164062-.085938.152343-.097656-.082031.007812-.152343.046875-.152344.050781-.179688.035156-.378906-.277344-.777344-.574219L24.375 26.886719l-.664062-.5L23.5 26.234375l-1.605469-1.191406c-.097656-.074219-.175781-.148438-.175781-.164063s1.519531-.03125 3.378906-.03125h3.382813l.179687.234375.753906.949219c.09375.0625-.140624.074219-1.761718.085938l-1.679688.011718.144532.089844c.082031.050781.203124.140625.273437.199219s.140625.109375.164063.109375.070312.035156.101562.082031.082031.085937.105469.085937.097656.046876.164062.109376.175781.136718.242188.175781.113281.082031.113281.101562.023438.03125.054688.03125.089843.035157.132812.074219.269531.207031.496094.367188l.464844.339843c.03125.027344.117187.09375.199218.140625.183594.117188.183594.117188-.042968.21875-.105469.046875-.183594.09375-.171876.105469s.058594 0 .105469-.023437.101563-.046876.121094-.046876-.210937.757813-.515625 1.6875l-.535156 1.707032c.027344.023437.4375-.257813 1.609375-1.113282l.898437-.65625.433594-.3125.316406.226563.558594.40625.417969.300781.375.269532.230469.167968c.074218.089844 1.046874.761719 1.070312.738282.015625-.011719-.230469-.800782-.542969-1.746094l-.542969-1.777344c.011719-.03125.191407-.175781.402344-.320312l.402344-.292969c.011719-.015625.140625-.109375.289062-.207031l.292969-.210938c.011719-.015625.332031-.25.71875-.527344l.699219-.5-1.769531-.011718-1.765625-.054688c0-.019531.015625-.039062.039062-.039062s.027344-.027344 0-.074219c-.027344-.039063-.292968-.816407-.59375-1.730469-.5-1.511719-.652344-1.878906-.652344-1.582031 0 .058593-.019531.117187-.039062.132812s-.042969.070313-.042969.125-.019531.113281-.042969.128907-.039062.070312-.039062.125-.019531.109374-.042969.125-.042969.070312-.042969.125-.015624.113281-.039062.128906-.042969.070312-.042969.125-.019531.109375-.039062.125-.042969.070312-.042969.125-.019531.113281-.042969.125-.039062.074218-.039062.128906-.019531.109375-.042969.125-.042969.070312-.042969.125-.015625.113281-.039062.125-.042969.070312-.042969.121094-.011719.109375-.027344.125-.101562.265625-.195312.558594-.191406.539062-.214844.546874c-.039062.007813-.875-1.066406-.863281-1.113281.019531-.082031.441406-1.425781.46875-1.496093.019531-.046876.070312-.207032.117187-.355469l.714844-2.269531.3125-.984376.414062-1.3125c.039063-.109374.089844-.042968.179688.253907m9.34375 2.234375c.414062.558594.875 1.367187 1.171875 2.054687l.144531.335938.105469.296875.082031.207031c.011719.023437.050782.128906.078125.230469l.109375.359375c.082032.269531.238282.945312.304688 1.339843.8125 4.753907-1.433594 9.652344-5.589844 12.179688-.625.378906-1.71875.9375-1.835938.9375-.027343 0-.078124.019531-.117187.042969-.289063.160156-1.320313.445312-2.128906.585937-.78125.136719-.785157.085938-.019531-.175781.71875-.246094 2.089843-.878906 2.429687-1.125.0625-.042969.128906-.082031.140625-.082031.148438 0 1.621094-1.121094 2.273438-1.730469 1.238281-1.160156 2.578124-3.117187 3.113281-4.554687.0625-.164063.128906-.324219.164062-.398438.019531-.039062.039063-.109375.039063-.148438s.015625-.09375.03125-.117187.058594-.125.089844-.230469.066406-.226562.085937-.269531.054687-.171875.082031-.273437.0625-.246094.082032-.316407c.125-.457031.226562-1.035156.332031-1.847656.054687-.429687.054687-2.367187 0-2.761719-.121094-.851562-.164063-1.09375-.289063-1.664062-.171875-.773438-.539062-1.792969-.957031-2.664063-.136719-.285156-.246094-.527343-.246094-.542969 0-.078124.089844.015626.324219.332032m-12.492188 7.871094c-.078124.042968-.125.078124-.097656.082031.050782 0 .304688-.121094.304688-.148438 0-.035156-.0625-.015625-.207032.066407" fill="rgb(98.431373%,76.47059%,2.745098%)"/><path d="M39.738281 20.507812c0 .015626.109375.257813.246094.542969.417969.871094.785156 1.890625.957031 2.664063l.289063 1.664062c.054687.394532.054687 2.332032 0 2.761719l-.332031 1.847656-.082032.316407-.082031.273437c-.019531.042969-.058594.167969-.085937.269531s-.070313.207032-.089844.230469-.03125.074219-.03125.117187-.019532.109376-.039063.148438c-.035156.074219-.101562.234375-.164062.398438-.535157 1.4375-1.875 3.394531-3.113281 4.554687-.652344.609375-2.125 1.730469-2.273438 1.730469-.011719 0-.078125.039062-.140625.082031-.339844.246094-1.710937.878906-2.429687 1.125-.765626.261719-.761719.3125.019531.175781.808593-.140625 1.839843-.425781 2.128906-.585937.039063-.023438.089844-.042969.117187-.042969.117188 0 1.210938-.558594 1.835938-.9375 2.773438-1.6875 4.789062-4.507812 5.464844-7.644531.214844-.996094.269531-1.507813.269531-2.582031 0-.871094-.03125-1.289063-.144531-1.953126-.066406-.394531-.222656-1.070312-.304688-1.339843l-.109375-.359375c-.027343-.101563-.066406-.207032-.078125-.230469s-.050781-.117187-.082031-.207031-.078125-.226563-.105469-.296875l-.144531-.335938c-.417969-.964843-1.496094-2.6875-1.496094-2.386719M21.71875 24.878906c0 .015625.078125.089844.175781.164063L23.5 26.234375l.210938.152344c.03125.027343.332031.253906.664062.5l1.910156 1.429687.773438.574219c.039062.023437.460937-.144531.988281-.390625l.40625-.1875c.375-.167969.363281-.15625.175781-.277344-.082031-.046875-.167968-.113281-.199218-.140625s-.234376-.179687-.464844-.339843l-.496094-.367188c-.042969-.039062-.105469-.074219-.132812-.074219s-.054688-.015625-.054688-.03125-.050781-.066406-.113281-.101562-.171875-.117188-.242188-.175781-.140625-.109376-.164062-.109376-.070313-.039062-.105469-.085937-.078125-.082031-.101562-.082031-.097657-.050782-.164063-.109375-.191406-.148438-.273437-.199219l-.144532-.089844 1.679688-.011718 1.761718-.085938c-.039062-.027344-.394531-.472656-.753906-.949219l-.179687-.234375h-3.382813l-3.378906.03125m10.691406.246094l-.667968.867188c-.035157.039062-.058594.082031-.058594.09375 0 .0625 3.636718-.007813 3.839844-.074219l3.773437-1.082031c.035156 0 .074219-.015626.085937-.039063.019532-.027344-1.117187-.042969-3.371093-.042969l-3.394531.003906-.207032.273438" fill="rgb(98.431373%,84.313726%,38.431373%)"/><path d="M35.65625 11.027344c-.578125.011718-.609375.019531-.609375.097656 0 .042969.015625.082031.03125.082031s.0625.050781.09375.113281.082031.140626.105469.164063.152344.222656.285156.433594l.242188.378906h.441406c.671875 0 1 .152344 1.082031.503906l.035156.148438.003907-.144531c.003906-.117188-.09375-.289063-.515626-.933594l-.519531-.816406c0-.011719.457031-.015626 1.015625-.007813l.945313-.015625c-.070313-.027344-1.386719-.027344-2.636719-.003906m-12.464844.957031c.1875.308594.519532.792969.519532.757813s-.484376-.773438-.554688-.84375c-.023438-.023438-.007812.015624.035156.085937m7.140625 4.03125c-.046875.007813-.335937.035156-.644531.058594l-.789062.082031-1.160157.25-.292969.082031c-.738281.199219-1.738281.632813-2.648437 1.148438-1.132813.640625-2.578125 1.9375-3.390625 3.039062l-.324219.4375c-.027343.035157-.078125.113281-.109375.175781s-.074218.117188-.09375.117188-.035156.019531-.035156.039062-.074219.160157-.164062.300782c-.308594.480468-.804688 1.519531-.996094 2.09375l-.085938.230468-.125.398438-.125.421875c-.015625.054687-.054687.21875-.078125.355469l-.085937.398437c-.03125.140625-.074219.429688-.164063 1.144531-.054687.425782-.054687 1.882813 0 2.339844.09375.789063.136719 1.035156.296875 1.71875.144532.617188.503906 1.652344.699219 2.011719l.082031.152344-.015625-.148438-.0625-.3125c-.480469-2.015625-.546875-3.746093-.207031-5.710937.050781-.308594.277344-1.269532.324219-1.382813.019531-.046875.082031-.234375.136719-.421875 1.101562-3.542968 4.121093-6.789062 7.546874-8.117187l.4375-.171875c.40625-.179688 1.476563-.460938 2.21875-.585938.878907-.148437.90625-.160156.394532-.15625-.25 0-.492188.003906-.539063.011719m.230469 4.398437v1.945313l.289062.898437c.160157.492188.308594.929688.332032.96875s.042968.109376.042968.15625.015626.09375.039063.109376.042969.070312.042969.125.019531.109374.039062.125.042969.070312.042969.125.019531.113281.042969.128906.039062.070312.039062.125.019532.109375.042969.125.042969.070312.042969.125.015625.113281.039062.128906.042969.070312.042969.125.019531.109375.042969.125.039062.066406.039062.117188c.003906.089843.003906.089843.089844-.011719.046875-.058594.125-.152344.175781-.210938s.136719-.171875.191407-.25.109374-.15625.125-.167969c.265624-.238281.320312-.429687.210937-.753906-.042969-.128906-.136719-.433594-.210937-.675781s-.148438-.472656-.167969-.511719-.039063-.101562-.039063-.136718-.015625-.097657-.039062-.136719-.089844-.253907-.160156-.472657l-.402344-1.28125-.523438-1.65625-.296875-.957031c-.101562-.347656-.113281-.15625-.113281 1.769531m8.53125 4.558594c-.046875.019532-.15625.054688-.25.082032-2.296875.644531-3.535156 1.027343-3.667969 1.132812-.085937.066406-.230469.171875-.324219.238281-.15625.109375-.703124.507813-1.960937 1.417969l-.449219.335938c-.023437.023437.316406 1.121093.367188 1.175781.019531.023437.035156.085937.035156.136719s.019531.105468.042969.121093.039062.070313.039062.125.019531.109375.042969.125.042969.070313.042969.125.015625.113281.039062.125.042969.074219.042969.128907.019531.109374.042969.125.039062.070312.039062.125.019531.113281.042969.125.039062.074218.039062.128906.019532.109375.042969.125.042969.070312.042969.125.015625.113281.039062.125.042969.070312.042969.121094.015625.113281.035157.132812.058593.125.089843.230469c.046875.148437.632813 1.066406 1.160157 1.816406l.648437.960937c.324219.480469.597656.863282.609375.851563.019531-.023437-.113281-.484375-.179688-.617187-.023437-.039063-.039062-.109376-.039062-.15625s-.019531-.09375-.039062-.105469-.042969-.070313-.042969-.128907-.019531-.109374-.042969-.125-.039062-.070312-.039062-.125-.019532-.113281-.042969-.125-.042969-.070312-.042969-.125-.015625-.113281-.039062-.128906-.042969-.066406-.042969-.117187-.015625-.113281-.035157-.136719-.058593-.125-.089843-.226562-.339844-1.066407-.691407-2.136719l-.636718-2.003907c0-.050781.117187-.140624.871094-.6875.21875-.15625 2.402343-1.765624 2.617187-1.929687.199219-.152344.65625-.484375 1.257813-.925781.332031-.242188.605468-.453125.609374-.46875.003907-.042969-.121093-.039063-.226562.007812m-8.824219 4.871094c-.125.09375-.359375.261719-.519531.375l-1.246094.902344c-.222656.164062-.535156.382812-.691406.492187-.3125.214844-.355469.269531-1.894531 2.574219l-.65625.972656c-.222657.300782-.078125.234375.648437-.3125l.253906-.195312c.035157-.03125.175782-.132813.308594-.226563.246094-.171875 1.558594-1.140625 1.679688-1.238281.035156-.027344.257812-.191406.5-.363281l.496094-.367188c.0625-.050781.269531-.203125 1.011718-.746093l.402344-.292969v-.871094c0-.480469-.015625-.871094-.03125-.871094s-.136719.078125-.261719.167969" fill="rgb(88.235295%,54.901963%,1.960784%)"/><path d="M36.332031 11.078125c0 .023437.019531.050781.042969.066406s.039062.003907.039062-.019531.320313-.046875.925782-.054688l.921875-.011718-.964844-.011719c-.582031-.003906-.964844.007813-.964844.03125m-13.488281.433594c.234375.359375.390625.566406.304688.410156-.078126-.144531-.523438-.800781-.542969-.800781-.011719 0 .09375.175781.238281.390625m13.636719-.199219c.039062.058594.078125.097656.089843.089844.023438-.027344-.085937-.195313-.125-.195313-.015624 0 0 .046875.035157.105469m.167969.253906c.039062.058594.078124.097656.085937.085938.023437-.023438-.082031-.195313-.121094-.195313-.019531 0-.003906.050781.035157.109375m.613281.933594c.054687.089844.109375.21875.121093.285156.015626.105469.015626.101563.023438-.035156.003906-.085938-.007812-.160156-.027344-.160156s-.054687-.054688-.085937-.125-.070313-.125-.09375-.125.007812.074218.0625.160156m-7.71875 3.511719l-1.015625.148437-.394532.085938-.355468.082031-.289063.082031-.269531.082032c-.046875.019531-.160156.054687-.25.082031-.167969.054687-.316406.113281-.445312.175781-.039063.023438-.089844.039062-.113282.039062-.09375 0-1.101562.488282-1.5625.757813s-1.238281.800781-1.347656.921875c-.007812.015625-.058594.054688-.109375.085938-.460937.320312-1.367187 1.242187-1.980469 2.015624-.5.632813-1.355468 2.121094-1.609375 2.796876l-.164062.398437c-.023438.039063-.039063.109375-.039063.15625s-.015625.089844-.035156.105469-.046875.0625-.058594.117187l-.070312.25-.375 1.585938c-.195313 1.046875-.195313 2.949219 0 3.945312l.085937.441407.113281.480468.082032.371094c.007812.074219.035156.144531.054687.160156s.039063.066406.039063.121094.019531.113281.039062.125.042969.070312.042969.128906.019531.109375.042969.125.039062.0625.039062.105469.019532.117187.039063.15625l.105469.230469.324218.734375c.070313.144531.140625.261719.160156.261719.066407 0 .046876-.121094-.089843-.609376-.628907-2.265624-.628907-4.847656 0-7.09375l.074219-.269531c.011718-.058593.035156-.125.050781-.148437s.0625-.15625.105469-.292969c.136718-.464844.746093-1.902344.847656-1.996094.023437-.019531.175781-.300781.269531-.492187.023437-.050782.058594-.09375.078125-.09375s.027344-.019532.027344-.042969c0-.09375.539062-.855469 1.132812-1.613281.308594-.390625 1.59375-1.644532 1.914063-1.863282.050781-.035156.097656-.074218.109375-.089843s.085937-.070313.167968-.125.152344-.113281.164063-.128907c.027344-.035156.78125-.542968.804687-.542968.011719 0 .148438-.078125.304688-.175782s.535156-.296874.84375-.445312l1.078125-.480469.175781-.078125c.042969-.023437.109375-.039062.15625-.039062s.089844-.019532.105469-.042969.070313-.039063.125-.039063.109375-.019531.125-.042968.078125-.042969.144531-.042969.132813-.019531.144532-.042969.078124-.039062.144531-.039062.132812-.019532.148437-.042969.085938-.042969.164063-.042969.152343-.019531.167969-.042968.097656-.039063.183593-.039063.171875-.015625.183594-.039063.121094-.046874.242187-.0625l.46875-.066406c.136719-.023437.402344-.054687.589844-.070312s.34375-.039063.34375-.054688c0-.097656-1.402344-.109375-2.179687-.023437m1.621093.023437l-.6875.125c-.742187.125-1.8125.40625-2.21875.585938l-.4375.171875c-3.425781 1.328125-6.445312 4.574219-7.546874 8.117187-.054688.1875-.117188.375-.136719.421875-.046875.113281-.273438 1.074219-.324219 1.382813-.183594 1.058594-.226562 1.652344-.199219 2.644531.035157 1.203125.125 1.894531.40625 3.066406.023438.089844.050781.234375.0625.3125l.015625.148438-.082031-.152344c-.195313-.359375-.554687-1.394531-.699219-2.011719-.160156-.683594-.203125-.929687-.296875-1.71875-.054687-.457031-.054687-1.914062 0-2.339844.089844-.714843.132813-1.003906.164063-1.144531.019531-.082031.058594-.257812.085937-.398437s.0625-.300782.078125-.355469.074219-.246094.125-.421875.109375-.351562.125-.398438.054688-.148437.085938-.230468c.191406-.574219.6875-1.613282.996094-2.09375.089843-.140625.164062-.277344.164062-.300782s.015625-.039062.035156-.039062.0625-.050781.09375-.117188.082032-.140624.109375-.175781.171875-.230469.324219-.4375c.8125-1.101562 2.257812-2.398437 3.390625-3.039062.910156-.515625 1.910156-.949219 2.648437-1.148438l.292969-.082031c.230469-.070312.714844-.171875 1.160157-.25.125-.019531.480468-.058594.789062-.082031l.644531-.058594c.203125-.03125.996094-.015625.832031.019531m-.625 2.316406l-.414062 1.3125-.3125.984376-.714844 2.269531-.117187.355469c-.027344.070312-.449219 1.414062-.46875 1.496093-.011719.046875.824219 1.121094.863281 1.113281.023438-.007812.117188-.253906.214844-.546874s.183594-.546876.195312-.558594.027344-.070313.027344-.125.019531-.105469.042969-.121094.039062-.070312.039062-.125.019531-.109375.042969-.125.042969-.070312.042969-.125.015625-.113281.039062-.128906.042969-.070313.042969-.125.019531-.109375.042969-.125.039062-.070313.039062-.125.019531-.113282.042969-.125.039062-.074219.039062-.128906.019532-.109376.042969-.125.042969-.070313.042969-.125.019531-.113282.039062-.125.042969-.074219.042969-.128907.019531-.109375.042969-.125.039062-.074219.039062-.132812c0-.21875.109376-.058594.246094.363281.078125.238281.152344.417969.15625.394531s-.058594-.261719-.152344-.53125l-.164062-.492187v-1.953125c0-1.929688.011719-2.121094.113281-1.773438l.296875.957031.523438 1.65625.402344 1.28125c.070312.21875.140624.429688.160156.472657s.039062.101562.039062.136719.015625.097656.039063.136718.09375.269532.167969.511719l.210937.675781c.042969.128906.078125.269532.078125.3125 0 .050782.015625.066406.042969.039063s.007812-.148438-.058594-.355469l-.316406-1.007812-.246094-.773438c-.019531-.046875-.054687-.160156-.082031-.253906s-.066406-.207032-.082032-.25-.078124-.226563-.128906-.398438-.109375-.347656-.128906-.390625-.035156-.101562-.035156-.136719-.019532-.097656-.039063-.136718-.078125-.214844-.128906-.386719-.109375-.347656-.128906-.386719-.035157-.101562-.035157-.136718-.019531-.097657-.039062-.136719-.113281-.320313-.203125-.621094c-.375-1.214844-.390625-1.253906-.445313-1.101563m.605469 5.894532c.007813.109375.074219.203125.078125.109375 0-.050781-.015625-.101563-.039062-.117188s-.039063-.011719-.039063.007813m.082031.253906c.011719.109375.074219.199219.078126.109375.003906-.050781-.015626-.105469-.039063-.117187s-.039063-.011719-.039063.007812m.085938.25c.007812.109375.074219.203125.074219.109375.003906-.050781-.015625-.101563-.039063-.117187s-.039062-.011719-.035156.007812m8.003906.214844c-.007812.019531-.21875.179687-.464844.363281s-.4375.335937-.429687.347656c.019531.015625.222656-.128906.527344-.371093.054687-.046876.183593-.132813.277343-.195313.167969-.109375.222657-.179687.140626-.179687-.019532 0-.042969.015624-.050782.035156m-7.925781.027344c0 .050781.300781.929687.328125.957031.019531.019531.058594 0 .089844-.039063.054687-.070312.054687-.070312-.011719-.019531s-.074219.046875-.074219-.027344c0-.046875-.019531-.097656-.039062-.113281s-.042969-.070312-.042969-.125-.019531-.113281-.042969-.125-.039062-.074219-.039062-.128906-.019532-.109375-.042969-.125-.042969-.070313-.042969-.125-.015625-.113282-.039062-.125-.042969-.015625-.042969-.003906m6.867187.773437l-.410156.300781c-.175781.125-.34375.25-.367187.273438s-.175781.132812-.328125.242187-.28125.210938-.28125.222657c0 .027343.0625-.011719.332031-.210938l.449219-.328125.453125-.335937.257812-.1875c.007813-.007813.007813-.019532 0-.03125s-.058593.015624-.105469.054687m-3.128906.429687c-.144531.128907-.144531.128907-.011718.039063.074218-.050781.144531-.109375.15625-.128906.042968-.066407.007812-.046875-.144532.089843m-.683594.480469c-.324218.246094-.398437.328125-.105468.125.21875-.15625.414062-.320312.371094-.3125-.011719 0-.128907.085938-.265626.1875m1.492188.800781l-1.109375.816407c-.128906.089843-.25.1875-.265625.210937-.039062.066406.792969-.519531 1.105469-.773437.035156-.03125.15625-.117188.269531-.195313s.21875-.15625.230469-.167968.085937-.070313.164062-.128907.167969-.125.199219-.152343.109375-.085938.175781-.125.125-.089844.125-.109376c0-.046874.058594-.085937-.894531.625m-2.011719-.421874c-.082031.054687-.125.101562-.105469.101562s.097657-.046875.164063-.105469c.160156-.132812.125-.128906-.058594.003907m-1.246093.902343c-.269532.199219-.316407.246094-.148438.148438.128906-.078125.433594-.316407.394531-.316407-.011719 0-.121093.074219-.246093.167969m-.269532.34375c.097656.332031.15625.492188.171875.476563.023438-.023438-.148437-.570313-.179687-.570313-.011719 0-.007813.039063.007812.09375m-3.925781.042969c-.058594.023438-.207031.089844-.332031.148438l-.4375.195312-.421875.195312c-.121094.054688-.21875.121094-.21875.144532s-.039063.15625-.082031.292968l-.355469 1.128907-.351563 1.113281c-.042968.128906-.15625.488281-.25.796875l-.207031.652344c-.019531.046875-.132813.394531-.25.777343l-.5 1.519532c-.09375.167968-.023437.253906.113281.140625.042969-.035157.375-.28125.738282-.550781l.769531-.570313c.058593-.046875.15625-.117187.21875-.152344s.113281-.085937.113281-.101562.019531-.035157.039062-.035157.074219-.027343.117188-.0625c.101562-.082031.8125-.613281 1.359375-1.007812l.894531-.664062c.035156-.03125.15625-.117188.269532-.195313s.226562-.160156.246093-.179687c.570313-.464844.640625-.492188.84375-.332032.085938.066406.433594.324219.777344.574219l.996094.734375 1.390625 1.027344.707031.519531.519531.382813.523438.390624c.355468.265626.367187.269532.367187.167969.003907-.078125-.765625-2.496093-.832031-2.625-.023438-.039062-.039062-.109375-.039062-.152343s-.019532-.09375-.042969-.109376-.039063-.070312-.039063-.125-.019531-.113281-.042968-.128906-.039063-.070312-.039063-.125-.019531-.109375-.042969-.125-.042968-.070312-.042968-.121094-.015626-.109374-.03125-.132812-.097657-.238281-.171876-.480469-.152343-.472656-.171874-.515625-.039063-.101562-.039063-.136718-.015625-.09375-.035156-.136719-.144531-.394531-.269531-.785157l-.234376-.714843.152344-.125c.324219-.273438.355469-.3125.101563-.140625-.355469.242187-.382813.054687.335937 2.25l.695313 2.152344c.03125.101562.074219.207031.089843.226562s.035157.082031.035157.136719.019531.105469.042969.117187.039062.070313.039062.128906.019531.109376.042969.125.042969.070313.042969.125.015624.113282.039062.125.042969.070313.042969.125.019531.113282.042969.128907.039062.0625.039062.105469.015625.117187.039062.15625c.066407.132812.199219.59375.179688.617187-.011719.011719-.285156-.371094-.609375-.851563l-.648437-.960937c-.527344-.75-1.113282-1.667969-1.160157-1.816406-.03125-.105469-.070312-.207031-.089843-.230469s-.035157-.082031-.035157-.132812-.019531-.105469-.046875-.121094c-.046875-.03125-.042968-.015625.078125.371094.035157.109374.050781.210937.039063.222656-.019532.019531-1-.660156-1.066406-.742188-.011719-.011718-.113282-.085937-.230469-.167968s-.28125-.199219-.375-.269532-.28125-.207031-.417969-.300781l-.558594-.40625-.316406-.226563-.433594.3125-.898437.65625c-1.171875.855469-1.582031 1.136719-1.609375 1.113282-.007813-.011719.230468-.78125.535156-1.707032s.53125-1.6875.507812-1.683593-.089843.023437-.148437.050781m4.113281.53125c0 .035156.015625.09375.039063.128906.035156.054688.039062.054688.039062 0 0-.035156-.015625-.09375-.039062-.128906-.035157-.054688-.039063-.054688-.039063 0m.167969.492188c.007813.109374.074219.203124.074219.109374.003906-.050781-.015625-.101562-.035156-.117187s-.042969-.011719-.039063.007813m.082031.253906c.007813.105468.074219.199218.078125.109375 0-.050781-.015625-.105469-.039062-.117188s-.042969-.011719-.039063.007813m-2.285156.925781v.871094l-.402344.292969-1.011718.746093c-.035157.027344-.257813.191407-.496094.367188l-.5.363281c-.121094.097656-1.433594 1.066406-1.679688 1.238281-.132812.09375-.273437.195313-.308594.226563s-.152343.117187-.253906.195312c-.726562.546875-.871094.613282-.648437.3125l.65625-.972656C27.457031 31.882812 27.5 31.828125 27.8125 31.613281l.691406-.492187L29.75 30.21875l.519531-.375c.125-.089844.242188-.167969.261719-.167969s.03125.390625.03125.871094m2.367188-.675781c.011718.109375.074218.203125.078124.109375 0-.050781-.015624-.101563-.039062-.117188s-.039062-.011719-.039062.007813m.082031.253906c.011719.105469.074219.199219.078125.109375.003906-.050781-.015625-.105469-.039063-.121094s-.039062-.007812-.039062.011719m.085937.25c.007813.109375.074219.203125.074219.109375.003906-.050781-.015625-.101563-.035156-.117187s-.042969-.011719-.039063.007812m.082032.25c.007812.109375.074218.203125.078124.113281 0-.050781-.015624-.105469-.039062-.121093s-.039062-.007813-.039062.007812m.082031.253906c.011719.109375.074219.199219.078125.109375 0-.050781-.015625-.101562-.039063-.117187s-.039062-.011719-.039062.007812" fill="rgb(94.901961%,69.803923%,0%)"/></svg>