<?xml version="1.0" encoding="UTF-8"?>
<svg version="1.1" xmlns="http://www.w3.org/2000/svg" width="150" height="150">
<path d="M0 0 C1.11059784 -0.00281982 2.22119568 -0.00563965 3.365448 -0.00854492 C5.20914474 -0.00550858 5.20914474 -0.00550858 7.09008789 -0.00241089 C8.37609894 -0.00416321 9.66210999 -0.00591553 10.98709106 -0.00772095 C14.52418578 -0.01229489 18.06125146 -0.01050589 21.59834671 -0.00734186 C25.2921278 -0.00481806 28.98590632 -0.00715586 32.6796875 -0.00872803 C38.88387501 -0.01054966 45.08805063 -0.00814357 51.29223633 -0.00338745 C58.47507778 0.00205516 65.65789086 0.0002925 72.84073162 -0.00521386 C78.99698219 -0.00974516 85.1532242 -0.01039545 91.3094759 -0.00777519 C94.99106118 -0.00621251 98.6726331 -0.0060184 102.35421753 -0.00931168 C106.45629571 -0.01272448 110.55832461 -0.00800038 114.66040039 -0.00241089 C115.88953156 -0.00443512 117.11866272 -0.00645935 118.38504028 -0.00854492 C120.05093704 -0.00431519 120.05093704 -0.00431519 121.75048828 0 C123.20727745 0.00056554 123.20727745 0.00056554 124.6934967 0.0011425 C126.87524414 0.12698364 126.87524414 0.12698364 127.87524414 1.12698364 C127.97562145 3.67749838 128.01141902 6.20095543 128.00463867 8.75198364 C128.00726715 9.94948242 128.00726715 9.94948242 128.00994873 11.1711731 C128.01436781 13.82313174 128.01142907 16.47502426 128.00805664 19.12698364 C128.00872966 20.96161919 128.00969968 22.79625465 128.01095581 24.63088989 C128.01243286 28.48115892 128.010278 32.3314048 128.00561523 36.18167114 C127.99991794 41.12854861 128.00319691 46.07537184 128.0091877 51.02224731 C128.01279312 54.81220919 128.01165481 58.60215811 128.00905991 62.39212036 C128.00839058 64.2166647 128.00921924 66.04121019 128.01153946 67.86575317 C128.01406568 70.41119525 128.01022584 72.95654824 128.00463867 75.50198364 C128.0066629 76.26357788 128.00868713 77.02517212 128.01077271 77.80984497 C127.98950672 83.01272107 127.98950672 83.01272107 126.87524414 84.12698364 C125.16930323 84.22538071 123.45926444 84.25330392 121.75048828 84.25396729 C120.63989044 84.25678711 119.5292926 84.25960693 118.38504028 84.26251221 C117.15590912 84.26048798 115.92677795 84.25846375 114.66040039 84.25637817 C113.37438934 84.25813049 112.0883783 84.25988281 110.76339722 84.26168823 C107.2263025 84.26626217 103.68923682 84.26447317 100.15214157 84.26130915 C96.45836048 84.25878534 92.76458196 84.26112314 89.07080078 84.26269531 C82.86661328 84.26451695 76.66243766 84.26211086 70.45825195 84.25735474 C63.2754105 84.25191213 56.09259743 84.25367479 48.90975666 84.25918114 C42.75350609 84.26371244 36.59726408 84.26436274 30.44101238 84.26174247 C26.7594271 84.26017979 23.07785518 84.25998569 19.39627075 84.26327896 C15.29419257 84.26669176 11.19216367 84.26196766 7.09008789 84.25637817 C5.24639114 84.25941452 5.24639114 84.25941452 3.365448 84.26251221 C1.69955124 84.25828247 1.69955124 84.25828247 0 84.25396729 C-0.97119278 84.25359026 -1.94238556 84.25321323 -2.94300842 84.25282478 C-5.12475586 84.12698364 -5.12475586 84.12698364 -6.12475586 83.12698364 C-6.22513317 80.5764689 -6.26093073 78.05301186 -6.25415039 75.50198364 C-6.25590271 74.70365112 -6.25765503 73.9053186 -6.25946045 73.08279419 C-6.26387953 70.43083555 -6.26094078 67.77894302 -6.25756836 65.12698364 C-6.25824138 63.29234809 -6.25921139 61.45771263 -6.26046753 59.62307739 C-6.26194458 55.77280836 -6.25978972 51.92256249 -6.25512695 48.07229614 C-6.24942966 43.12541867 -6.25270863 38.17859545 -6.25869942 33.23171997 C-6.26230484 29.4417581 -6.26116653 25.65180918 -6.25857162 21.86184692 C-6.2579023 20.03730259 -6.25873096 18.21275709 -6.26105118 16.38821411 C-6.2635774 13.84277203 -6.25973756 11.29741905 -6.25415039 8.75198364 C-6.25718674 7.60959229 -6.25718674 7.60959229 -6.26028442 6.44412231 C-6.23541048 0.35853462 -6.00720367 0.00233205 0 0 Z " fill="#1B1E92" transform="translate(14.124755859375,32.873016357421875)"/>
<path d="M0 0 C20.79 0 41.58 0 63 0 C63 16.83 63 33.66 63 51 C49.8 51 36.6 51 23 51 C23 54.96 23 58.92 23 63 C36.2 63 49.4 63 63 63 C63 67.29 63 71.58 63 76 C42.21 76 21.42 76 0 76 C0 72.04 0 68.08 0 64 C3.63 63.67 7.26 63.34 11 63 C11 59.04 11 55.08 11 51 C7.37 51 3.74 51 0 51 C0 42.42 0 33.84 0 25 C-4.228125 25.103125 -8.45625 25.20625 -12.8125 25.3125 C-14.1425708 25.33739502 -15.4726416 25.36229004 -16.84301758 25.38793945 C-18.41539185 25.43760864 -18.41539185 25.43760864 -20.01953125 25.48828125 C-21.62985229 25.52755737 -21.62985229 25.52755737 -23.27270508 25.56762695 C-26.34038664 26.05396336 -27.03507766 26.71488472 -29 29 C-31.5 29.375 -31.5 29.375 -34 29 C-34.42321533 28.50781982 -34.84643066 28.01563965 -35.2824707 27.50854492 C-37.77026088 25.32346241 -39.7090785 25.56807126 -42.98046875 25.48828125 C-44.72553711 25.43510742 -44.72553711 25.43510742 -46.50585938 25.38085938 C-47.72080078 25.35830078 -48.93574219 25.33574219 -50.1875 25.3125 C-51.41404297 25.27833984 -52.64058594 25.24417969 -53.90429688 25.20898438 C-56.93587377 25.12641224 -59.96792309 25.0615327 -63 25 C-63 20.71 -63 16.42 -63 12 C-55.08 12 -47.16 12 -39 12 C-39 10.35 -39 8.7 -39 7 C-35.08613057 6.19715499 -32.38539595 6.05516665 -28.4375 6.5 C-27.61121094 6.5928125 -26.78492188 6.685625 -25.93359375 6.78125 C-25.29550781 6.8534375 -24.65742187 6.925625 -24 7 C-24.33 8.32 -24.66 9.64 -25 11 C-16.75 11.33 -8.5 11.66 0 12 C0 8.04 0 4.08 0 0 Z " fill="#F12406" transform="translate(75,37)"/>
<path d="M0 0 C1.11059784 -0.00281982 2.22119568 -0.00563965 3.365448 -0.00854492 C5.20914474 -0.00550858 5.20914474 -0.00550858 7.09008789 -0.00241089 C8.37609894 -0.00416321 9.66210999 -0.00591553 10.98709106 -0.00772095 C14.52418578 -0.01229489 18.06125146 -0.01050589 21.59834671 -0.00734186 C25.2921278 -0.00481806 28.98590632 -0.00715586 32.6796875 -0.00872803 C38.88387501 -0.01054966 45.08805063 -0.00814357 51.29223633 -0.00338745 C58.47507778 0.00205516 65.65789086 0.0002925 72.84073162 -0.00521386 C78.99698219 -0.00974516 85.1532242 -0.01039545 91.3094759 -0.00777519 C94.99106118 -0.00621251 98.6726331 -0.0060184 102.35421753 -0.00931168 C106.45629571 -0.01272448 110.55832461 -0.00800038 114.66040039 -0.00241089 C115.88953156 -0.00443512 117.11866272 -0.00645935 118.38504028 -0.00854492 C120.05093704 -0.00431519 120.05093704 -0.00431519 121.75048828 0 C123.20727745 0.00056554 123.20727745 0.00056554 124.6934967 0.0011425 C126.87524414 0.12698364 126.87524414 0.12698364 127.87524414 1.12698364 C127.97562145 3.67749838 128.01141902 6.20095543 128.00463867 8.75198364 C128.00726715 9.94948242 128.00726715 9.94948242 128.00994873 11.1711731 C128.01436781 13.82313174 128.01142907 16.47502426 128.00805664 19.12698364 C128.00872966 20.96161919 128.00969968 22.79625465 128.01095581 24.63088989 C128.01243286 28.48115892 128.010278 32.3314048 128.00561523 36.18167114 C127.99991794 41.12854861 128.00319691 46.07537184 128.0091877 51.02224731 C128.01279312 54.81220919 128.01165481 58.60215811 128.00905991 62.39212036 C128.00839058 64.2166647 128.00921924 66.04121019 128.01153946 67.86575317 C128.01406568 70.41119525 128.01022584 72.95654824 128.00463867 75.50198364 C128.0066629 76.26357788 128.00868713 77.02517212 128.01077271 77.80984497 C127.98950672 83.01272107 127.98950672 83.01272107 126.87524414 84.12698364 C125.16930323 84.22538071 123.45926444 84.25330392 121.75048828 84.25396729 C120.63989044 84.25678711 119.5292926 84.25960693 118.38504028 84.26251221 C117.15590912 84.26048798 115.92677795 84.25846375 114.66040039 84.25637817 C113.37438934 84.25813049 112.0883783 84.25988281 110.76339722 84.26168823 C107.2263025 84.26626217 103.68923682 84.26447317 100.15214157 84.26130915 C96.45836048 84.25878534 92.76458196 84.26112314 89.07080078 84.26269531 C82.86661328 84.26451695 76.66243766 84.26211086 70.45825195 84.25735474 C63.2754105 84.25191213 56.09259743 84.25367479 48.90975666 84.25918114 C42.75350609 84.26371244 36.59726408 84.26436274 30.44101238 84.26174247 C26.7594271 84.26017979 23.07785518 84.25998569 19.39627075 84.26327896 C15.29419257 84.26669176 11.19216367 84.26196766 7.09008789 84.25637817 C5.24639114 84.25941452 5.24639114 84.25941452 3.365448 84.26251221 C1.69955124 84.25828247 1.69955124 84.25828247 0 84.25396729 C-0.97119278 84.25359026 -1.94238556 84.25321323 -2.94300842 84.25282478 C-5.12475586 84.12698364 -5.12475586 84.12698364 -6.12475586 83.12698364 C-6.22513317 80.5764689 -6.26093073 78.05301186 -6.25415039 75.50198364 C-6.25590271 74.70365112 -6.25765503 73.9053186 -6.25946045 73.08279419 C-6.26387953 70.43083555 -6.26094078 67.77894302 -6.25756836 65.12698364 C-6.25824138 63.29234809 -6.25921139 61.45771263 -6.26046753 59.62307739 C-6.26194458 55.77280836 -6.25978972 51.92256249 -6.25512695 48.07229614 C-6.24942966 43.12541867 -6.25270863 38.17859545 -6.25869942 33.23171997 C-6.26230484 29.4417581 -6.26116653 25.65180918 -6.25857162 21.86184692 C-6.2579023 20.03730259 -6.25873096 18.21275709 -6.26105118 16.38821411 C-6.2635774 13.84277203 -6.25973756 11.29741905 -6.25415039 8.75198364 C-6.25718674 7.60959229 -6.25718674 7.60959229 -6.26028442 6.44412231 C-6.23541048 0.35853462 -6.00720367 0.00233205 0 0 Z M60.87524414 4.12698364 C60.87524414 8.08698364 60.87524414 12.04698364 60.87524414 16.12698364 C52.62524414 15.79698364 44.37524414 15.46698364 35.87524414 15.12698364 C36.20524414 13.80698364 36.53524414 12.48698364 36.87524414 11.12698364 C35.39693193 10.93286184 33.91755098 10.74686233 32.43774414 10.56448364 C31.6140332 10.46006958 30.79032227 10.35565552 29.94165039 10.24807739 C28.9187793 10.18813599 28.9187793 10.18813599 27.87524414 10.12698364 C27.54524414 10.45698364 27.21524414 10.78698364 26.87524414 11.12698364 C26.21524414 10.79698364 25.55524414 10.46698364 24.87524414 10.12698364 C23.88524414 10.45698364 22.89524414 10.78698364 21.87524414 11.12698364 C21.87524414 12.77698364 21.87524414 14.42698364 21.87524414 16.12698364 C13.95524414 16.12698364 6.03524414 16.12698364 -2.12475586 16.12698364 C-2.12475586 37.24698364 -2.12475586 58.36698364 -2.12475586 80.12698364 C39.45524414 80.12698364 81.03524414 80.12698364 123.87524414 80.12698364 C123.87524414 75.83698364 123.87524414 71.54698364 123.87524414 67.12698364 C110.67524414 67.12698364 97.47524414 67.12698364 83.87524414 67.12698364 C83.87524414 63.16698364 83.87524414 59.20698364 83.87524414 55.12698364 C97.07524414 55.12698364 110.27524414 55.12698364 123.87524414 55.12698364 C123.87524414 38.29698364 123.87524414 21.46698364 123.87524414 4.12698364 C103.08524414 4.12698364 82.29524414 4.12698364 60.87524414 4.12698364 Z " fill="#181818" transform="translate(14.124755859375,32.873016357421875)"/>
<path d="M0 0 C19.47 0 38.94 0 59 0 C59 11.22 59 22.44 59 34 C39.53 34 20.06 34 0 34 C0 22.78 0 11.56 0 0 Z " fill="#C4050C" transform="translate(77,39)"/>
<path d="M0 0 C4.2712088 -0.08070164 8.5409033 -0.14036204 12.8125 -0.1875 C14.63491211 -0.22520508 14.63491211 -0.22520508 16.49414062 -0.26367188 C18.23920898 -0.27817383 18.23920898 -0.27817383 20.01953125 -0.29296875 C21.09307861 -0.3086792 22.16662598 -0.32438965 23.27270508 -0.34057617 C26.38559644 0.04815209 27.02784449 0.68544856 29 3 C31.5 3.5 31.5 3.5 34 3 C34.42321533 2.50330811 34.84643066 2.00661621 35.2824707 1.49487305 C37.79443942 -0.69145026 39.69627366 -0.34103014 42.98046875 -0.29296875 C44.02871826 -0.28547607 45.07696777 -0.2779834 46.15698242 -0.27026367 C48.15208862 -0.22929565 48.15208862 -0.22929565 50.1875 -0.1875 C54.415625 -0.125625 58.64375 -0.06375 63 0 C63 8.58 63 17.16 63 26 C66.63 26 70.26 26 74 26 C74.495 32.435 74.495 32.435 75 39 C71.04 39 67.08 39 63 39 C63 42.96 63 46.92 63 51 C58.38 51 53.76 51 49 51 C48.67 38.13 48.34 25.26 48 12 C36.45 12 24.9 12 13 12 C13 12.99 13 13.98 13 15 C11.68 15.33 10.36 15.66 9 16 C9 15.34 9 14.68 9 14 C6.03 14 3.06 14 0 14 C0 9.38 0 4.76 0 0 Z " fill="#0940BE" transform="translate(12,62)"/>
<path d="M0 0 C20.79 0 41.58 0 63 0 C63 12.87 63 25.74 63 39 C42.21 39 21.42 39 0 39 C0 34.38 0 29.76 0 25 C-4.27185249 25.0866926 -8.54152959 25.19355022 -12.8125 25.3125 C-14.02744141 25.33505859 -15.24238281 25.35761719 -16.49414062 25.38085938 C-17.65751953 25.41630859 -18.82089844 25.45175781 -20.01953125 25.48828125 C-21.62985229 25.52755737 -21.62985229 25.52755737 -23.27270508 25.56762695 C-26.34038664 26.05396336 -27.03507766 26.71488472 -29 29 C-31.5 29.375 -31.5 29.375 -34 29 C-34.42321533 28.50781982 -34.84643066 28.01563965 -35.2824707 27.50854492 C-37.77026088 25.32346241 -39.7090785 25.56807126 -42.98046875 25.48828125 C-44.72553711 25.43510742 -44.72553711 25.43510742 -46.50585938 25.38085938 C-47.72080078 25.35830078 -48.93574219 25.33574219 -50.1875 25.3125 C-51.41404297 25.27833984 -52.64058594 25.24417969 -53.90429688 25.20898438 C-56.93587377 25.12641224 -59.96792309 25.0615327 -63 25 C-63 20.71 -63 16.42 -63 12 C-55.08 12 -47.16 12 -39 12 C-39 10.35 -39 8.7 -39 7 C-35.08613057 6.19715499 -32.38539595 6.05516665 -28.4375 6.5 C-27.61121094 6.5928125 -26.78492188 6.685625 -25.93359375 6.78125 C-25.29550781 6.8534375 -24.65742187 6.925625 -24 7 C-24.33 8.32 -24.66 9.64 -25 11 C-16.75 11.33 -8.5 11.66 0 12 C0 8.04 0 4.08 0 0 Z M2 2 C2 13.22 2 24.44 2 36 C21.47 36 40.94 36 61 36 C61 24.78 61 13.56 61 2 C41.53 2 22.06 2 2 2 Z " fill="#DA8C2E" transform="translate(75,37)"/>
<path d="M0 0 C0.88218201 0.00565979 1.76436401 0.01131958 2.67327881 0.01715088 C5.48586713 0.03950909 8.29717295 0.08970368 11.109375 0.140625 C13.01821074 0.16069075 14.92706649 0.17894139 16.8359375 0.1953125 C21.51090945 0.239372 26.18492492 0.30839516 30.859375 0.390625 C30.859375 4.680625 30.859375 8.970625 30.859375 13.390625 C10.069375 13.390625 -10.720625 13.390625 -32.140625 13.390625 C-32.140625 9.430625 -32.140625 5.470625 -32.140625 1.390625 C-22.9609375 1.09765625 -22.9609375 1.09765625 -20.140625 1.390625 C-19.480625 2.380625 -18.820625 3.370625 -18.140625 4.390625 C-15.72644628 4.97464633 -15.72644628 4.97464633 -13.140625 4.390625 C-12.61500977 3.7296582 -12.08939453 3.06869141 -11.54785156 2.38769531 C-7.91247506 -0.62826612 -4.58038022 -0.11068937 0 0 Z " fill="#F5F8F8" transform="translate(107.140625,99.609375)"/>
<path d="M0 0 C20.79 0 41.58 0 63 0 C63 3.96 63 7.92 63 12 C54.75 12 46.5 12 38 12 C37.505 11.01 37.505 11.01 37 10 C37.66 10 38.32 10 39 10 C39 9.01 39 8.02 39 7 C36.03 6.67 33.06 6.34 30 6 C30 6.66 30 7.32 30 8 C27.03 7.505 27.03 7.505 24 7 C24 8.65 24 10.3 24 12 C16.08 12 8.16 12 0 12 C0 8.04 0 4.08 0 0 Z " fill="#E11818" transform="translate(12,37)"/>
<path d="M0 0 C4.62 0 9.24 0 14 0 C14 3.96 14 7.92 14 12 C17.63 12 21.26 12 25 12 C25.33 16.29 25.66 20.58 26 25 C22.04 25 18.08 25 14 25 C14 28.96 14 32.92 14 37 C9.38 37 4.76 37 0 37 C0 24.79 0 12.58 0 0 Z " fill="#151794" transform="translate(61,76)"/>
<path d="M0 0 C9.9 0 19.8 0 30 0 C30 11.88 30 23.76 30 36 C22.57608277 28.57608277 15.74440661 20.78876391 9.15234375 12.62109375 C6.59966017 9.51247182 3.93277088 6.52304488 1.21484375 3.55859375 C0 2 0 2 0 0 Z " fill="#F0D017" transform="translate(30,76)"/>
<path d="M0 0 C13.2 0 26.4 0 40 0 C40 3.96 40 7.92 40 12 C26.8 12 13.6 12 0 12 C0 8.04 0 4.08 0 0 Z " fill="#0F378B" transform="translate(98,88)"/>
<path d="M0 0 C8.25 0 16.5 0 25 0 C25 3.96 25 7.92 25 12 C15.76 12 6.52 12 -3 12 C-3 11.01 -3 10.02 -3 9 C-2.01 9 -1.02 9 0 9 C0 8.01 0 7.02 0 6 C-0.99 6 -1.98 6 -3 6 C-3 5.01 -3 4.02 -3 3 C-2.01 3 -1.02 3 0 3 C0 2.01 0 1.02 0 0 Z " fill="#FBFCFA" transform="translate(50,50)"/>
<path d="M0 0 C8.25 0 16.5 0 25 0 C25 0.99 25 1.98 25 3 C25.99 3 26.98 3 28 3 C28 3.99 28 4.98 28 6 C27.01 6 26.02 6 25 6 C25 6.99 25 7.98 25 9 C25.99 9 26.98 9 28 9 C28 9.99 28 10.98 28 12 C18.76 12 9.52 12 0 12 C0 8.04 0 4.08 0 0 Z " fill="#FBFDFB" transform="translate(12,50)"/>
<path d="M0 0 C0.66 0.33 1.32 0.66 2 1 C2.33 0.67 2.66 0.34 3 0 C4.52519276 0.08937803 6.04681929 0.24537146 7.5625 0.4375 C8.38878906 0.53933594 9.21507812 0.64117187 10.06640625 0.74609375 C10.70449219 0.82988281 11.34257813 0.91367187 12 1 C11.67 2.32 11.34 3.64 11 5 C19.25 5.33 27.5 5.66 36 6 C36 6.33 36 6.66 36 7 C27.75 7 19.5 7 11 7 C11 7.99 11 8.98 11 10 C10.01 10 9.02 10 8 10 C8 10.99 8 11.98 8 13 C8.99 13 9.98 13 11 13 C11 13.99 11 14.98 11 16 C10.01 16 9.02 16 8 16 C8 16.99 8 17.98 8 19 C8.66 19.33 9.32 19.66 10 20 C8.23470379 22.22984785 7.34766278 22.93915901 4.5 23.4375 C2 23 2 23 0.1875 21 C-0.204375 20.34 -0.59625 19.68 -1 19 C-0.34 19 0.32 19 1 19 C1 18.01 1 17.02 1 16 C0.01 16 -0.98 16 -2 16 C-2 15.01 -2 14.02 -2 13 C-1.01 13 -0.02 13 1 13 C1 12.01 1 11.02 1 10 C0.01 10 -0.98 10 -2 10 C-2 9.01 -2 8.02 -2 7 C-10.25 7 -18.5 7 -27 7 C-27 6.67 -27 6.34 -27 6 C-19.08 6 -11.16 6 -3 6 C-3 4.35 -3 2.7 -3 1 C-2.01 0.67 -1.02 0.34 0 0 Z " fill="#ED7F7E" transform="translate(39,43)"/>
<path d="M0 0 C3 2 3 2 3.6875 5.125 C3.790625 6.07375 3.89375 7.0225 4 8 C5.32 6.35 6.64 4.7 8 3 C9.61050328 11.03501094 9.61050328 11.03501094 7.0625 15.0625 C6.381875 15.701875 5.70125 16.34125 5 17 C5.99 16.67 6.98 16.34 8 16 C8 17.32 8 18.64 8 20 C6.35 19.67 4.7 19.34 3 19 C2.67 20.32 2.34 21.64 2 23 C1.01 23 0.02 23 -1 23 C-1.33 21.68 -1.66 20.36 -2 19 C-3.98 19.99 -3.98 19.99 -6 21 C-6.33 19.68 -6.66 18.36 -7 17 C-6.01 17 -5.02 17 -4 17 C-4.680625 16.34 -5.36125 15.68 -6.0625 15 C-8.76202257 10.82009408 -7.9719853 8.77892774 -7 4 C-5.68 5.32 -4.36 6.64 -3 8 C-2.814375 6.576875 -2.814375 6.576875 -2.625 5.125 C-2 2 -2 2 0 0 Z " fill="#BF792F" transform="translate(106,44)"/>
<path d="M0 0 C2.33944736 0.28730055 4.6739143 0.61936779 7 1 C6.835 1.804375 6.67 2.60875 6.5 3.4375 C5.96808161 5.7284443 5.96808161 5.7284443 6 7 C6.99 6.67 7.98 6.34 9 6 C9.10832169 8.08218362 9.18573541 10.16599129 9.25 12.25 C9.29640625 13.41015625 9.3428125 14.5703125 9.390625 15.765625 C9 19 9 19 7.14453125 21.38671875 C5 23 5 23 2.4375 23.5625 C0 23 0 23 -1.640625 20.859375 C-3.22099544 17.53514752 -3.30807444 15.34492465 -3.1875 11.6875 C-3.16042969 10.61886719 -3.13335937 9.55023438 -3.10546875 8.44921875 C-3.07066406 7.64097656 -3.03585938 6.83273438 -3 6 C-2.34 6 -1.68 6 -1 6 C-1.0309375 4.7934375 -1.0309375 4.7934375 -1.0625 3.5625 C-1 1 -1 1 0 0 Z " fill="#DF5429" transform="translate(89,82)"/>
<path d="M0 0 C20.79 0 41.58 0 63 0 C62.67 11.88 62.34 23.76 62 36 C61.67 36 61.34 36 61 36 C61 24.78 61 13.56 61 2 C41.53 2 22.06 2 2 2 C2 13.22 2 24.44 2 36 C1.67 36 1.34 36 1 36 C0.67 24.12 0.34 12.24 0 0 Z " fill="#D1A237" transform="translate(75,37)"/>
<path d="M0 0 C3.63 0 7.26 0 11 0 C11.33 4.29 11.66 8.58 12 13 C8.04 13 4.08 13 0 13 C0 8.71 0 4.42 0 0 Z " fill="#194090" transform="translate(75,88)"/>
<path d="M0 0 C0.33 0 0.66 0 1 0 C1 12.21 1 24.42 1 37 C-1.97 37 -4.94 37 -8 37 C-8.495 35.515 -8.495 35.515 -9 34 C-9.66 34 -10.32 34 -11 34 C-13.12169591 31.52468811 -14.63055898 28.94956528 -16 26 C-15.34 26 -14.68 26 -14 26 C-13.67 25.34 -13.34 24.68 -13 24 C-13 24.66 -13 25.32 -13 26 C-11.35 26.33 -9.7 26.66 -8 27 C-5.69 29.64 -3.38 32.28 -1 35 C-0.67 23.45 -0.34 11.9 0 0 Z " fill="#6A6592" transform="translate(60,76)"/>
<path d="M0 0 C11.55 0.33 23.1 0.66 35 1 C35 1.33 35 1.66 35 2 C26.75 2 18.5 2 10 2 C10 2.99 10 3.98 10 5 C9.01 5 8.02 5 7 5 C7 5.99 7 6.98 7 8 C7.99 8 8.98 8 10 8 C10 8.99 10 9.98 10 11 C9.01 11 8.02 11 7 11 C7 11.99 7 12.98 7 14 C6.34 14 5.68 14 5 14 C5 13.01 5 12.02 5 11 C4.01 11 3.02 11 2 11 C2 10.01 2 9.02 2 8 C2.99 8 3.98 8 5 8 C5 7.01 5 6.02 5 5 C4.01 5 3.02 5 2 5 C2 3.68 2 2.36 2 1 C1.34 0.67 0.68 0.34 0 0 Z " fill="#E85B5B" transform="translate(40,48)"/>
<path d="M0 0 C3 1 3 1 4 3 C4.66 2.01 5.32 1.02 6 0 C7 1 7 1 7.09765625 3.06640625 C7.08605469 3.89011719 7.07445313 4.71382813 7.0625 5.5625 C7.05347656 6.38878906 7.04445313 7.21507813 7.03515625 8.06640625 C7.02355469 8.70449219 7.01195313 9.34257813 7 10 C5.68 10 4.36 10 3 10 C3 11.65 3 13.3 3 15 C2.01 15 1.02 15 0 15 C0 13.68 0 12.36 0 11 C-0.99 10.67 -1.98 10.34 -3 10 C-3 7.03 -3 4.06 -3 1 C-2.34 1.66 -1.68 2.32 -1 3 C-0.67 2.01 -0.34 1.02 0 0 Z " fill="#EDAEA3" transform="translate(90,89)"/>
<path d="M0 0 C2.30142435 1.78174788 3.80034391 3.16304165 4.48828125 6.046875 C4.72323102 8.0246611 4.86751458 10.01271872 5 12 C6.32 12.33 7.64 12.66 9 13 C9.33 14.65 9.66 16.3 10 18 C9.01 18.66 8.02 19.32 7 20 C6.34 19.34 5.68 18.68 5 18 C5 17.01 5 16.02 5 15 C3.02 15.99 3.02 15.99 1 17 C0.67 15.68 0.34 14.36 0 13 C0.99 13 1.98 13 3 13 C2.319375 12.34 1.63875 11.68 0.9375 11 C-1.76202257 6.82009408 -0.9719853 4.77892774 0 0 Z " fill="#C67C2B" transform="translate(99,48)"/>
<path d="M0 0 C0.66 0.33 1.32 0.66 2 1 C2.33 0.67 2.66 0.34 3 0 C4.52519276 0.08937803 6.04681929 0.24537146 7.5625 0.4375 C8.38878906 0.53933594 9.21507812 0.64117187 10.06640625 0.74609375 C10.70449219 0.82988281 11.34257813 0.91367187 12 1 C11.67 2.65 11.34 4.3 11 6 C6.71 6 2.42 6 -2 6 C-2.33 4.35 -2.66 2.7 -3 1 C-2.01 0.67 -1.02 0.34 0 0 Z " fill="#6E6D99" transform="translate(39,43)"/>
<path d="M0 0 C0.99 0.66 1.98 1.32 3 2 C3.99 2.33 4.98 2.66 6 3 C5.67 3.66 5.34 4.32 5 5 C5.67518454 7.60470331 5.67518454 7.60470331 7 10 C7.99 10.33 8.98 10.66 10 11 C9.67 11.99 9.34 12.98 9 14 C8.01 14.33 7.02 14.66 6 15 C5.67 13.35 5.34 11.7 5 10 C4.01 10 3.02 10 2 10 C1.67 8.35 1.34 6.7 1 5 C0.01 5.33 -0.98 5.66 -2 6 C-2.33 4.68 -2.66 3.36 -3 2 C-2.01 1.34 -1.02 0.68 0 0 Z " fill="#7576BD" transform="translate(35,86)"/>
<path d="M0 0 C4.35535069 1.16142685 6.64619703 2.07699505 9 6 C8.01 6.99 7.02 7.98 6 9 C4.68 8.34 3.36 7.68 2 7 C2 6.34 2 5.68 2 5 C1.01 5 0.02 5 -1 5 C-0.67 3.35 -0.34 1.7 0 0 Z " fill="#8182C0" transform="translate(26,77)"/>
<path d="M0 0 C0.66 0.33 1.32 0.66 2 1 C2 3.97 2 6.94 2 10 C0.68 10 -0.64 10 -2 10 C-2 11.65 -2 13.3 -2 15 C-2.99 15 -3.98 15 -5 15 C-5 13.02 -5 11.04 -5 9 C-4.0409375 8.7215625 -4.0409375 8.7215625 -3.0625 8.4375 C-0.57873787 7.05753944 -0.57873787 7.05753944 -0.25 3.375 C-0.1675 2.26125 -0.085 1.1475 0 0 Z " fill="#EFAEA3" transform="translate(95,89)"/>
<path d="M0 0 C1.98362069 2.91708924 1.9876191 4.12380904 1.625 7.75 C1.41875 8.8225 1.2125 9.895 1 11 C-0.65 11.33 -2.3 11.66 -4 12 C-3.5317879 7.22423661 -2.75668002 3.95523655 0 0 Z " fill="#CB7F2D" transform="translate(113,47)"/>
<path d="M0 0 C3.66786393 1.50349377 5.68910393 3.63728792 8.25 6.625 C8.95640625 7.44226563 9.6628125 8.25953125 10.390625 9.1015625 C10.92171875 9.72804688 11.4528125 10.35453125 12 11 C11.34 11.66 10.68 12.32 10 13 C9.34 12.67 8.68 12.34 8 12 C8 11.34 8 10.68 8 10 C6.68 10.33 5.36 10.66 4 11 C4.66 9.68 5.32 8.36 6 7 C4.68 7 3.36 7 2 7 C1.34 4.69 0.68 2.38 0 0 Z " fill="#2B2C94" transform="translate(39,90)"/>
<path d="M0 0 C0.33 0.66 0.66 1.32 1 2 C2.175625 2.185625 2.175625 2.185625 3.375 2.375 C6 3 6 3 7.8125 5.0625 C8.204375 5.701875 8.59625 6.34125 9 7 C8.01 7.66 7.02 8.32 6 9 C6 8.34 6 7.68 6 7 C5.071875 7.309375 5.071875 7.309375 4.125 7.625 C3.42375 7.74875 2.7225 7.8725 2 8 C0.04783565 6.04783565 -0.84826645 4.46800047 -2 2 C-1.34 2 -0.68 2 0 2 C0 1.34 0 0.68 0 0 Z " fill="#6465B4" transform="translate(46,100)"/>
<path d="M0 0 C3 2 3 2 3.75 3.9375 C4 6 4 6 3 9 C1.35 9 -0.3 9 -2 9 C-2.6875 7.3125 -2.6875 7.3125 -3 5 C-1.5625 2.25 -1.5625 2.25 0 0 Z " fill="#C76D27" transform="translate(106,44)"/>
<path d="M0 0 C2.33944736 0.28730055 4.6739143 0.61936779 7 1 C7 1.66 7 2.32 7 3 C6.34 3 5.68 3 5 3 C5 3.66 5 4.32 5 5 C3.02 5.33 1.04 5.66 -1 6 C-1.042721 4.33388095 -1.04063832 2.66617115 -1 1 C-0.67 0.67 -0.34 0.34 0 0 Z " fill="#DE7C0B" transform="translate(89,82)"/>
<path d="M0 0 C3.67230705 3.07999946 4.56802365 5.2482602 5 10 C3.68 10.33 2.36 10.66 1 11 C-1.78637633 6.8204355 -0.79562512 4.85331323 0 0 Z " fill="#CD9934" transform="translate(99,48)"/>
<path d="M0 0 C0.66 0.33 1.32 0.66 2 1 C1.34 2.32 0.68 3.64 0 5 C-0.99 5 -1.98 5 -3 5 C-3.99 6.485 -3.99 6.485 -5 8 C-5.33 7.67 -5.66 7.34 -6 7 C-6.33 9.64 -6.66 12.28 -7 15 C-7.33 15 -7.66 15 -8 15 C-8 11.04 -8 7.08 -8 3 C-5.36 2.67 -2.72 2.34 0 2 C0 1.34 0 0.68 0 0 Z " fill="#D75230" transform="translate(94,85)"/>
<path d="M0 0 C3 1 3 1 5 4 C5.66 4.33 6.32 4.66 7 5 C6.67 5.99 6.34 6.98 6 8 C5.01 8.33 4.02 8.66 3 9 C2.67 7.35 2.34 5.7 2 4 C1.01 4 0.02 4 -1 4 C-0.67 2.68 -0.34 1.36 0 0 Z " fill="#C4C6E3" transform="translate(38,92)"/>
<path d="M0 0 C0.33 0.99 0.66 1.98 1 3 C1.99 3 2.98 3 4 3 C4 3.99 4 4.98 4 6 C3.01 6 2.02 6 1 6 C1 6.99 1 7.98 1 9 C1.99 9 2.98 9 4 9 C4 9.99 4 10.98 4 12 C3.01 12 2.02 12 1 12 C-0.26237731 9.47524538 -0.09856404 7.68799534 -0.0625 4.875 C-0.05347656 3.96492188 -0.04445312 3.05484375 -0.03515625 2.1171875 C-0.02355469 1.41851562 -0.01195312 0.71984375 0 0 Z " fill="#F9EBE9" transform="translate(36,50)"/>
<path d="M0 0 C0.99 0 1.98 0 3 0 C3.33 1.65 3.66 3.3 4 5 C3.01 5.66 2.02 6.32 1 7 C-0.0625 5.1875 -0.0625 5.1875 -1 3 C-0.67 2.01 -0.34 1.02 0 0 Z " fill="#CC9833" transform="translate(105,61)"/>
<path d="M0 0 C1.32 0 2.64 0 4 0 C4 0.99 4 1.98 4 3 C4.99 3 5.98 3 7 3 C7 2.01 7 1.02 7 0 C8.32 0.33 9.64 0.66 11 1 C9.23470379 3.22984785 8.34766278 3.93915901 5.5 4.4375 C3 4 3 4 1.1875 2 C0.5996875 1.01 0.5996875 1.01 0 0 Z " fill="#D09AAC" transform="translate(38,62)"/>
<path d="M0 0 C0.66 0.33 1.32 0.66 2 1 C2 3.97 2 6.94 2 10 C1.01 9.01 0.02 8.02 -1 7 C-0.6875 3.3125 -0.6875 3.3125 0 0 Z " fill="#F0E4E2" transform="translate(95,89)"/>
<path d="M0 0 C0.99 0.33 1.98 0.66 3 1 C2.67 2.65 2.34 4.3 2 6 C0.68 6 -0.64 6 -2 6 C-2 5.01 -2 4.02 -2 3 C-1.34 3 -0.68 3 0 3 C0 2.01 0 1.02 0 0 Z " fill="#CD9F35" transform="translate(111,53)"/>
<path d="M0 0 C0.66 0 1.32 0 2 0 C3.625 2.5 3.625 2.5 5 5 C2.16032769 5 -0.23735711 4.59732819 -3 4 C-1.625 2 -1.625 2 0 0 Z " fill="#2D2D96" transform="translate(34,83)"/>
<path d="M0 0 C1.32 0 2.64 0 4 0 C4.33 1.32 4.66 2.64 5 4 C3.02 4.33 1.04 4.66 -1 5 C-0.67 3.35 -0.34 1.7 0 0 Z " fill="#2230A5" transform="translate(25,74)"/>
<path d="M0 0 C1.65 0 3.3 0 5 0 C5 0.99 5 1.98 5 3 C4.01 3 3.02 3 2 3 C2 3.99 2 4.98 2 6 C1.34 5.67 0.68 5.34 0 5 C0 3.35 0 1.7 0 0 Z " fill="#737760" transform="translate(104,53)"/>
<path d="M0 0 C0.33 0 0.66 0 1 0 C1 2.97 1 5.94 1 9 C0.67 8.01 0.34 7.02 0 6 C-0.99 6 -1.98 6 -3 6 C-3 5.01 -3 4.02 -3 3 C-2.01 3 -1.02 3 0 3 C0 2.01 0 1.02 0 0 Z " fill="#F9EFED" transform="translate(50,50)"/>
<path d="M0 0 C2.31 0.33 4.62 0.66 7 1 C7 1.66 7 2.32 7 3 C6.236875 2.814375 5.47375 2.62875 4.6875 2.4375 C1.91032625 1.77180827 1.91032625 1.77180827 -1 3 C-0.67 2.01 -0.34 1.02 0 0 Z " fill="#E3975C" transform="translate(89,82)"/>
<path d="M0 0 C0.99 0.33 1.98 0.66 3 1 C3 2.32 3 3.64 3 5 C2.01 5.33 1.02 5.66 0 6 C-0.66 5.67 -1.32 5.34 -2 5 C-1.67 4.34 -1.34 3.68 -1 3 C-0.67 2.01 -0.34 1.02 0 0 Z " fill="#968D3E" transform="translate(106,55)"/>
</svg>
