<svg xmlns="http://www.w3.org/2000/svg" width="834" height="834" shape-rendering="geometricPrecision" image-rendering="optimizeQuality" fill-rule="evenodd" xmlns:v="https://vecta.io/nano"><path d="M-.5 397.5v-5l136-239.5c1.667-.667 3.333-.667 5 0 20.752 12.458 41.252 25.291 61.5 38.5.638 1.109 1.138 2.275 1.5 3.5l-135 240.5c-3.0617 2.497-6.0617 2.33-9-.5l-60-37.5zm834-5v5c-21.238 14.207-43.071 27.541-65.5 40-1.285-.45-2.452-1.117-3.5-2L629.5 195c.583-2.499 1.916-4.499 4-6l59-36c1.667-.667 3.333-.667 5 0l136 239.5z" fill="#278f06"/><path d="M432.5 217.5c22.065-.582 44.065.251 66 2.5l85 17c5.667.667 11.333.667 17 0 9.847-1.549 19.514-3.549 29-6L734 417.5c-10.863 11.197-22.029 22.03-33.5 32.5-7.415 5.46-15.248 10.293-23.5 14.5-79.554-66.724-165.721-123.891-258.5-171.5-4.198-2.514-8.698-4.347-13.5-5.5-14.009 3.961-27.842 8.461-41.5 13.5-13.712 20.712-31.045 37.712-52 51-13.542 7.51-28.042 11.677-43.5 12.5-3.583-.558-7.083-1.391-10.5-2.5-2.082-2.409-3.082-5.243-3-8.5.561-6.244 2.061-12.244 4.5-18 21.319-34.477 44.486-67.644 69.5-99.5 11.022-5.673 22.688-9.34 35-11 23.037-3.569 46.037-6.069 69-7.5zm-231 15c10.445 5.724 21.112 11.224 32 16.5 18.501 4.528 37.168 8.195 56 11-17.45 23.055-33.283 47.222-47.5 72.5-11.16 34.914 1.34 50.747 37.5 47.5 17.364-2.453 33.364-8.453 48-18 18.377-12.71 33.71-28.376 46-47 10.749-4.255 21.749-7.255 33-9 66.843 32.897 129.843 71.564 189 116 24.877 18.276 49.21 37.276 73 57 17.316 16.374 17.316 32.708 0 49-10.221 5.794-20.888 6.794-32 3L502 451.5c-9.201 3.025-10.701 8.191-4.5 15.5L622 542.5c3.242 24.405-7.258 37.905-31.5 40.5-4.333.667-8.667.667-13 0l-109-63c-8.528-.156-11.695 4.011-9.5 12.5l107 63c1.107 12.35-2.726 22.85-11.5 31.5-3.448 1.927-7.115 3.261-11 4-8.72.839-17.387.505-26-1l-85-41c-9.548-.747-12.715 3.42-9.5 12.5l2.5 2.5 82 40c-16.901 24.862-40.068 33.362-69.5 25.5-18.921-3.688-37.421-8.855-55.5-15.5 16.937-19.691 18.437-40.524 4.5-62.5-10.469-13.324-23.969-19.657-40.5-19 1.841-25.828-8.825-44.328-32-55.5-5.764-2.214-11.597-3.047-17.5-2.5 2.293-30.025-10.873-49.525-39.5-58.5-15.974-2.677-29.141 2.157-39.5 14.5-2.973 4.474-6.14 8.807-9.5 13-13.651-30.999-36.318-40.832-68-29.5l-11 9c-10.856-14.036-22.19-27.702-34-41l106-189.5z" fill="#278f04"/><path fill="#28900b" d="M158.5 464.5c17.008.509 28.175 8.842 33.5 25 1.31 7.371.31 14.371-3 21-7.473 10.107-15.306 19.94-23.5 29.5-18.101 6.072-31.601.572-40.5-16.5-3.601-8.846-3.267-17.512 1-26 7.473-10.107 15.306-19.94 23.5-29.5 3.071-1.296 6.071-2.462 9-3.5z"/><path fill="#289009" d="M246.5 471.5c24.731 2.84 35.564 16.507 32.5 41l-58 81c-10.712 9.718-22.212 10.552-34.5 2.5-12.299-9.422-16.465-21.588-12.5-36.5 19.728-28.396 40.228-56.229 61.5-83.5 3.553-2.121 7.22-3.621 11-4.5z"/><path fill="#28900b" d="M293.5 530.5c18.901-.264 30.734 8.736 35.5 27 1.405 7.217.071 13.884-4 20L279.5 639c-19.61 8.459-34.11 2.959-43.5-16.5-3.226-7.013-3.226-14.013 0-21l47-65c3.101-2.852 6.601-4.852 10.5-6z"/><path fill="#28900c" d="M344.5 588.5c23.569 1.069 35.402 13.402 35.5 37-.856 4.044-2.522 7.711-5 11-8.91 11.488-17.577 23.155-26 35-9.872 10.173-21.039 11.673-33.5 4.5-13.736-9.632-18.236-22.465-13.5-38.5 11.116-15.451 22.616-30.617 34.5-45.5 2.809-1.093 5.476-2.26 8-3.5z"/></svg>