<?xml version="1.0" encoding="UTF-8" standalone="no"?>
<svg
   width="1024"
   height="1024"
   shape-rendering="geometricPrecision"
   image-rendering="optimizeQuality"
   fill-rule="evenodd"
   version="1.1"
   id="svg174"
   sodipodi:docname="AllianceIconBlack.svg"
   inkscape:version="1.4.2 (f4327f4, 2025-05-13)"
   xmlns:inkscape="http://www.inkscape.org/namespaces/inkscape"
   xmlns:sodipodi="http://sodipodi.sourceforge.net/DTD/sodipodi-0.dtd"
   xmlns="http://www.w3.org/2000/svg"
   xmlns:svg="http://www.w3.org/2000/svg">
  <sodipodi:namedview
     id="namedview174"
     pagecolor="#ffffff"
     bordercolor="#000000"
     borderopacity="0.25"
     inkscape:showpageshadow="2"
     inkscape:pageopacity="0.0"
     inkscape:pagecheckerboard="0"
     inkscape:deskcolor="#d1d1d1"
     inkscape:zoom="0.29520327"
     inkscape:cx="887.52404"
     inkscape:cy="967.13021"
     inkscape:window-width="1920"
     inkscape:window-height="1057"
     inkscape:window-x="1912"
     inkscape:window-y="-8"
     inkscape:window-maximized="1"
     inkscape:current-layer="svg174" />
  <style
     id="style1"><![CDATA[.B{opacity:.022}.C{opacity:.011}.D{fill:#43443f}.E{fill:#43433f}.F{fill:#42453d}]]></style>
  <path
     d="M63.5 213.5c1.4587-.067 2.7921.266 4 1 4.4275.299 8.7609.965 13 2 1.86.571 3.5267.571 5 0 3.7671 1.295 7.7671 1.961 12 2 1.4187.951 3.085 1.284 5 1 3.86 1.304 7.86 1.971 12 2 1.419.951 3.085 1.284 5 1 3.86 1.304 7.86 1.971 12 2 1.419.951 3.085 1.284 5 1l12 3h4c4.132 1.363 8.465 2.363 13 3l4 1c4.307.827 8.64 1.493 13 2 1.068.934 2.401 1.268 4 1l12 3c1.459-.067 2.792.266 4 1 3.976.795 7.976 1.462 12 2 1.068.934 2.401 1.268 4 1 3.739 1.602 7.739 2.602 12 3 1.068.934 2.401 1.268 4 1 3.819 1.628 7.819 2.961 12 4l4 1c4.131 1.683 8.464 2.35 13 2h5 15 5 15 5 15c1.068.934 2.401 1.268 4 1h15 5c4.641.627 9.307.96 14 1h5c4.693.04 9.359.373 14 1h5c4.703-.063 9.37.271 14 1h5c4.652.498 9.319.831 14 1 1.86.571 3.527.571 5 0 2.908 1.069 5.908 1.236 9 .5l11-5.5 8-3c.667 0 1-.333 1-1 7.199-2.733 14.533-5.066 22-7l7-2 19-4h5c.667 0 1-.333 1-1 5.38.176 10.713-.158 16-1 1.667 1.333 3.333 1.333 5 0 4.703-.063 9.37.271 14 1h5l13 2 4 1 12 2c1.165 1.609 2.499 1.943 4 1 3.716 1.905 7.716 3.239 12 4 .473 1.406 1.473 2.073 3 2l11 4c.709.904 1.709 1.237 3 1 3.24 2.451 6.907 4.118 11 5 .79.901 1.79 1.568 3 2 3.558 1.612 7.225 2.945 11 4 .79.901 1.79 1.568 3 2l11 4c.709.904 1.709 1.237 3 1 3.483 1.906 7.15 3.572 11 5 1.208.734 2.541 1.067 4 1 3.03 1.903 6.363 3.237 10 4 .787 1.604 2.12 2.271 4 2 3.509 1.726 7.175 3.059 11 4 .709.904 1.709 1.237 3 1 3.297 2.101 6.963 3.435 11 4 1.171.845 2.505 1.511 4 2l11 4 4 1 11 4 4 1c.617.111 1.117.444 1.5 1 6.677-3.089 13.51-5.756 20.5-8 2.421-.378 4.754-1.045 7-2 .667 0 1-.333 1-1 7.06-1.848 14.06-3.848 21-6 2.526.569 4.859-.098 7-2l19-4c1.935-.65 3.935-.983 6-1 .667 0 1-.333 1-1 6.106-.573 12.106-1.573 18-3 1.473.571 3.14.571 5 0 5.631-.912 11.298-1.579 17-2h5c5.272-.9 10.605-1.233 16-1h5 15c1.068.934 2.401 1.268 4 1 4.681.169 9.348.502 14 1l4 1 13 2c.79.901 1.79 1.568 3 2 2.667 2 5 4.333 7 7l2 3c1.765 3.209 3.765 6.209 6 9-.271 1.88.396 3.213 2 4 1.159 3.651 2.826 6.985 5 10 .057 1.109.39 2.109 1 3 1.43 3.854 3.097 7.521 5 11-.237 1.291.096 2.291 1 3 .959 3.883 2.292 7.55 4 11-.067 1.459.266 2.792 1 4 .962 3.895 2.296 7.561 4 11-.284 1.915.049 3.581 1 5 1.156 3.623 2.156 7.289 3 11 .734 1.208 1.067 2.541 1 4 1.039 4.181 2.372 8.181 4 12-.943 1.501-.609 2.835 1 4 .348 4.057 1.014 8.057 2 12 .734 1.208 1.067 2.541 1 4l3 12c-.067 1.459.266 2.792 1 4 .557 4.552 1.557 8.885 3 13-.905 1.202-.905 2.536 0 4 .76 4.171 1.76 8.171 3 12-.76 1.759-.43 3.426 1 5 .04 4.233.71 8.233 2 12v5c.79 4.139 1.79 8.139 3 12v5c.99 4.272 1.66 8.606 2 13 .83 1.575 1.16 2.908 1 4 .48 4.373 1.15 8.706 2 13v5c1.03 4.239 1.7 8.572 2 13l1 4c.19 4.87.86 9.536 2 14v4c.38 4.51 1.05 8.843 2 13-.57 1.473-.57 3.14 0 5 .57 4.649 1.07 9.316 1.5 14 .38-.556.88-.889 1.5-1v5c-1.33 2-1.33 4 0 6v14c-3.35 4.347-7.35 8.014-12 11l-7 2c-5.362-.028-10.695.306-16 1h-5c-5.37-.108-10.703.225-16 1-1.599-1.062-3.266-1.062-5 0h-15-5-15-5-15-5c-4.63-.729-9.297-1.063-14-1h-4c-4.51-.841-9.176-1.508-14-2-1.464-.905-2.798-.905-4 0-4.192-1.108-8.525-2.108-13-3-1.459.067-2.792-.266-4-1-3.723-.797-7.39-1.797-11-3-1.014-1.174-2.347-1.84-4-2-1.293-1.796-2.793-3.463-4.5-5-5.563 4.863-11.396 9.363-17.5 13.5-1.304.804-1.971 1.971-2 3.5l2 10v5 15c-.667 0-1 .333-1 1-.017 2.065-.35 4.065-1 6-7.671 25.671-24.337 42.337-50 50h-5c-.667 0-1 .333-1 1-2.687-.164-5.354.003-8 .5-2.978 6.132-6.311 11.966-10 17.5-.667 0-1 .333-1 1-.667 0-1 .333-1 1-.667 0-1 .333-1 1-.667 0-1 .333-1 1-.667 0-1 .333-1 1-.667 0-1 .333-1 1-.667 0-1 .333-1 1-.667 0-1 .333-1 1-.667 0-1 .333-1 1-.667 0-1 .333-1 1-9.137 6.568-19.137 11.568-30 15-2.065.017-4.065.35-6 1-.667 0-1 .333-1 1-5.313.598-10.646.931-16 1h-5c-3.984.031-7.817-.636-11.5-2-6.091 9.26-13.925 16.593-23.5 22-3.683 1.175-7.016 2.841-10 5-6.611 1.986-13.277 3.653-20 5-1.358-.322-3.025-.322-5 0h-15c-1.716-.129-3.383-.462-5-1-4.074-.282-8.074-.948-12-2-1.208-.734-2.541-1.067-4-1-2.15-1.17-4.484-2.17-7-3-5.17 4.747-10.836 8.747-17 12-2.827.608-5.493 1.608-8 3-5.88 1.647-11.88 2.647-18 3-2.121-.175-4.121.159-6 1-4.63-.729-9.297-1.063-14-1-1.092.162-2.425-.172-4-1-4.024-.538-8.024-1.205-12-2-1.068-.934-2.401-1.268-4-1-3.45-1.708-7.117-3.041-11-4-.787-1.604-2.12-2.271-4-2-3.161-1.413-6.161-3.08-9-5-1.171-.845-2.505-1.511-4-2-2.82-2.245-5.82-4.245-9-6 0-1.333-.667-2-2-2-2.69-2.685-5.69-5.018-9-7-.473-1.406-1.473-2.073-3-2l-8-7-3-2c-2.378-2.378-5.045-4.378-8-6-.356-1.69-1.356-2.69-3-3-2.378-2.378-5.045-4.378-8-6-.667-1.333-1.667-2.333-3-3-2.36-2.353-5.027-4.353-8-6-.31-1.644-1.31-2.644-3-3-2.36-2.353-5.027-4.353-8-6-.31-1.644-1.31-2.644-3-3-2.36-2.353-5.027-4.353-8-6-.31-1.644-1.31-2.644-3-3-2.378-2.378-5.045-4.378-8-6-.667-1.333-1.667-2.333-3-3-2.378-2.378-5.045-4.378-8-6-.356-1.69-1.356-2.69-3-3-2.378-2.378-5.045-4.378-8-6-.667-1.333-1.667-2.333-3-3l-19-16c-.79-.901-1.79-1.568-3-2-2.251-2.795-4.918-5.128-8-7-.473-1.406-1.473-2.073-3-2-2.049-3.05-4.716-5.383-8-7-.473-1.406-1.473-2.073-3-2-2.027-2.694-4.361-5.027-7-7-.79-.901-1.79-1.568-3-2-2.69-2.685-5.69-5.018-9-7-.333-1-1-1.667-2-2-2.708-2.709-5.708-5.042-9-7-.432-1.21-1.099-2.21-2-3-2.95-1.615-5.616-3.615-8-6-.79-.901-1.79-1.568-3-2-2.049-3.05-4.716-5.383-8-7-.667-1.333-1.667-2.333-3-3-2.384-2.385-5.05-4.385-8-6-.667-1.333-1.667-2.333-3-3l-8-7-3-2c-1.476-2-3.309-3.667-5.5-5-1.81 4.929-3.31 9.929-4.5 15-.667 0-1 .333-1 1-.955 2.246-1.622 4.579-2 7-1.801 6.898-4.301 13.565-7.5 20-5.608 6.702-12.775 10.035-21.5 10-1.759-.454-3.759-.454-6 0-5.305.694-10.638 1.028-16 1-2.065.017-4.065.35-6 1-5.427-.282-10.76.051-16 1-1.86-.571-3.527-.571-5 0h-15-5c-5.3617-.028-10.6951.306-16 1h-5c-4.47-.986-9.1367-1.319-14-1h-5c-4.6811-.169-9.3478-.502-14-1-1.4643-.905-2.7976-.905-4 0-4.1391-1.063-8.4725-1.73-13-2-1.4187-.951-3.0853-1.284-5-1-3.0942-1.383-6.0942-3.05-9-5-.31018-1.644-1.31018-2.644-3-3l-4-9v-27c1.333333-5 1.333333-10 0-15v-5c1.67761-5.068 2.34428-10.402 2-16 .49255-2.306.82588-4.639 1-7v-14c.84141-1.879 1.17474-3.879 1-6l1-16c-.15335-1.886.17998-3.886 1-6 .06884-5.354.40218-10.687 1-16l1-6c.18654-5.345.51987-10.678 1-16l1-6c.48013-5.322.8135-10.655 1-16 .6667 0 1-.333 1-1v-5c.9574-5.616 1.6241-11.283 2-17l1-6 2-17 1-6c.4797-5.691 1.1464-11.358 2-17 .0172-2.065.3505-4.065 1-6l2-17 1-6c.8536-5.642 1.5203-11.309 2-17 .6667 0 1-.333 1-1 .3222-1.975.3222-3.642 0-5 1.1821-5.936 2.1821-11.936 3-18-.0759-1.804.2575-3.804 1-6 .8148-6.038 1.8148-12.038 3-18 .0172-2.065.3505-4.065 1-6 .7755-5.653 1.4421-11.32 2-17 .6667 0 1-.333 1-1l1-6c.5692-6.082 1.5692-12.082 3-18 .0172-2.065.3505-4.065 1-6 2.0074-12.007 9.0074-19.007 21-21zm30 49c-4.3333 5-9 9.667-14 14 .6377-5.511 1.8043-10.845 3.5-16 3.4002 1.04 6.9002 1.706 10.5 2zm4 1l13 2c-11.3333 12-23 23.667-35 35 1.1852-5.962 2.1852-11.962 3-18 6.6667-6 13-12.333 19-19zm17 3l13 2c-18 18.667-36.3333 37-55 55 .5579-5.68 1.2245-11.347 2-17 13.6667-13 27-26.333 40-40zm17 3c4.29.925 8.624 1.591 13 2l-76 76 3-18c20.3333-19.667 40.333-39.667 60-60zm17 3c4.171.762 8.171 1.762 12 3l-95 95 2-17 81-81zm17 4c4.074.282 8.074.948 12 2l-115 115c.4797-5.691 1.1464-11.358 2-17l101-100zm352 2l-150 150c-.941-4.57-1.274-9.237-1-14l133-133c5.974-1.163 11.974-2.163 18-3zm5 0h15l-161 161c-3.913-.95-6.58-3.283-8-7l154-154zm-341 1c4.187.713 8.187 1.713 12 3l-134 134c.4211-5.702 1.0878-11.369 2-17l120-120zm361 0c4.233.039 8.233.705 12 2l-160 161c-4.576.062-8.909-.605-13-2l161-161zm-49 3l-126 126c.916-7.335 2.916-14.335 6-21l98-98c7.195-2.731 14.528-5.065 22-7zm66 0c3.814.536 7.481 1.536 11 3l-89 90c-6.011.223-11.677 1.723-17 4.5L439 413.5c-7.61 8.616-16.11 16.116-25.5 22.5-3.703 2.354-7.703 3.854-12 4.5l158-158zm-361 1c4.261.398 8.261 1.398 12 3l-154 153 2-17 140-139zm376 3l11 4-79 80c-6.011 2.752-12.345 4.085-19 4l87-88zm-360 1c3.979.242 7.646 1.242 11 3l-171 171c.1865-5.345.5199-10.678 1-16l159-158zm375 5l10 5-65 64c-6.846 1.424-13.513 3.424-20 6l75-75zm-127 1l-86 86c5.377-13.021 12.377-25.021 21-36 9-8.333 17.667-17 26-26 11.857-9.766 24.857-17.766 39-24zm-235 1l-3 18-173 172 2-17 174-173zm52 2c-2.667 3.333-5.667 6.333-9 9-1.672-7.653 1.328-10.653 9-9zm5 0c4.763-.274 9.43.059 14 1-10.333 11-21 21.667-32 32 .357-6.141 1.357-12.141 3-18 5.333-4.667 10.333-9.667 15-15zm19 1h15c-18.667 19.333-37.667 38.333-57 57 .742-6.045 1.742-12.045 3-18 13.333-12.667 26.333-25.667 39-39zm20 0c4.73-.217 9.397.117 14 1l-82 82c1.177-6.372 2.51-12.705 4-19 21.667-21 43-42.333 64-64zm19 1h15l-108 108c1.078-6.392 2.412-12.725 4-19l89-89zm260 0c3.854 1.43 7.521 3.097 11 5l-64 63c-2.907-2.305-6.241-3.638-10-4l63-64zm-240 1c4.679-.166 9.345.001 14 .5-3.537 3.369-6.871 6.869-10 10.5l-124 123c1.357-6.76 3.023-13.427 5-20l115-114zm254 5c3.854 1.43 7.521 3.097 11 5l-66 65c-3.18-1.755-6.18-3.755-9-6 21.667-21 43-42.333 64-64zm15 6c3.249 1.528 6.582 2.861 10 4l-68 69-9-6 67-67zm13 6c3.813.938 7.479 2.271 11 4l-71 71-8-5c-.131-.739.036-1.406.5-2l67.5-68zm234 1l-80 80c-1.609-3.554-2.942-7.221-4-11l68-68c5.297-.775 10.63-1.108 16-1zm6 0h14l-94 94c-1.846-3.04-3.179-6.373-4-10l84-84zm19 0c4.391.523 8.724 1.19 13 2l-107 107c-1.058-3.779-2.391-7.446-4-11l98-98zm-680 1c-1.081 6.408-2.415 12.741-4 19l-170 169c.3408-5.749 1.0075-11.416 2-17l172-171zm633 1c-21 21.667-42.333 43-64 64-1.055-3.775-2.388-7.442-4-11 17.333-16.667 34.333-33.667 51-51 5.596-1.21 11.262-1.877 17-2zm-197 3c3.883.959 7.55 2.292 11 4l-75 74c-2.973-1.647-5.64-3.647-8-6l72-72zm174 0l-46 47c-1.903-3.479-3.57-7.146-5-11 11-10.333 21.667-21 32-32 6.299-1.491 12.632-2.825 19-4zm85 1c2.174 3.015 3.841 6.349 5 10l-108 107c-1.708-3.45-3.041-7.117-4-11l107-106zm-245 4c3.779 1.058 7.446 2.391 11 4l-78 78c-3.082-1.872-5.749-4.205-8-7l75-75zm134 1l-26 27c-2.451-3.24-4.118-6.907-5-11 3.667-3 7-6.333 10-10 6.868-2.4 13.868-4.4 21-6zm-455 1c-5.576 10.15-10.909 20.483-16 31l-102 101c1.848-7.061 3.848-14.061 6-21l112-111zm336 4c3.723.797 7.39 1.797 11 3l-82 82c-3.082-1.872-5.749-4.205-8-7l79-78zm237 3c1.612 3.558 2.945 7.225 4 11l-109 108c-1.058-3.779-2.391-7.446-4-11l109-108zm-147 1c-1 1.667-2.333 3-4 4-.916-2.96.418-4.293 4-4zm-75 1c3.61 1.203 7.277 2.203 11 3l-86 86c-2.95-1.615-5.616-3.615-8-6l83-83zm-485 5l-4 19-167 166c.4296-5.739 1.0963-11.405 2-17l169-168zm500 0c3.068.522 6.068 1.355 9 2.5.752.671 1.086 1.504 1 2.5l-89 89-8-7 87-87zm212 7c1.905 3.716 3.239 7.716 4 12l-109 108c-.797-3.723-1.797-7.39-3-11l108-109zm-200 1l5 10-85 85c-3.284-1.617-5.951-3.95-8-7l88-88zm6 14c2.174 3.015 3.841 6.349 5 10l-81 80c-3.082-1.872-5.749-4.205-8-7l84-83zm199 0c1.625 3.803 2.958 7.803 4 12l-108 107c-1.704-3.439-3.038-7.105-4-11l108-108zm-723 4c-1.175 6.368-2.509 12.701-4 19l-162 161c-.2257-5.062.1076-10.062 1-15l165-165zm120 0c-2.406 6.884-4.406 13.884-6 21l-99 98c1.354-6.75 3.021-13.417 5-20l100-99zm410 9c1.903 3.479 3.57 7.146 5 11l-76 76c-3.082-1.872-5.749-4.205-8-7l79-80zm198 3c1.403 3.881 2.403 7.881 3 12l-107 106-4-11 108-107zm-192 11c1.906 3.483 3.572 7.15 5 11l-72 71c-2.931-1.591-5.598-3.591-8-6l75-76zm-542 3l-5 20-157 156c.7745-5.297 1.1079-10.63 1-16l161-160zm118 2l-2 17-103 102c1.225-7.233 3.225-14.233 6-21l99-98zm620 0c1.602 3.739 2.602 7.739 3 12l-106 105c-1.203-3.61-2.203-7.277-3-11l106-106zm-189 9c.938 3.813 2.271 7.479 4 11l-68 67-7-6c22.949-24.617 46.616-48.617 71-72zm-223 2c3.22 2.103 6.22 4.436 9 7l-220 219c-2.95-1.615-5.616-3.615-8-6l219-220zm-7 2l-215 215c-2.95-1.615-5.616-3.615-8-6l201-202c7.451-1.928 14.785-4.261 22-7zm423 3c1.251 3.918 2.251 7.918 3 12l-105 104c-1.203-3.61-2.203-7.277-3-11l105-105zm-450 4c-10.667 11.333-21.667 22.333-33 33 8.708-9.731 16.708-20.064 24-31 2.978-.853 5.978-1.519 9-2zm46 0c2.973 1.647 5.64 3.647 8 6l-220 220c-2.955-1.622-5.622-3.622-8-6l220-220zm-222 2c-.063 4.703.271 9.37 1 14l-111 110c-.624-.417-.957-1.084-1-2 1.826-5.64 3.492-11.306 5-17l106-105zm438 2c1.509 3.178 2.842 6.511 4 10-20.667 21.333-41.667 42.333-63 63-2.667-2-5-4.333-7-7 21.667-22.333 43.667-44.333 66-66zm-561 1c-1.537 7.151-3.537 14.151-6 21l-150 149c.8424-5.287 1.1757-10.62 1-16l155-154zm356 3c3.22 2.103 6.22 4.436 9 7l-221 221-8-7 220-221zm397 4c.795 3.976 1.462 7.976 2 12l-103 103c-1.203-3.61-2.203-7.277-3-11l104-104zm-386 5c3.31 1.982 6.31 4.315 9 7l-221 221-8-7 220-221zm200 1l4 11c-19.667 19-39 38.333-58 58l-8-7c20.333-21 41-41.667 62-62zm-442 2c.691 4.096 1.691 8.096 3 12l-104 103c-2.95-1.615-5.616-3.615-8-6l109-109zm253 6c3.31 1.982 6.31 4.315 9 7l-221 221-8-7 220-221zm378 3c1.206 3.861 2.206 7.861 3 12l-102 101c-1.203-3.61-2.203-7.277-3-11l102-102zm-764 4c-1.353 6.744-3.019 13.411-5 20l-130 130h-13v-3l148-147zm580 0c1.846 3.04 3.179 6.373 4 10-17.667 18.333-35.667 36.333-54 54l-7-8 57-56zm-442 2c1.413 3.161 3.08 6.161 5 9l-100 101-8-7 103-103zm259 0c3.31 1.982 6.31 4.315 9 7l-221 221-8-7 220-221zm-127 2l-162 162c-3.082-1.872-5.749-4.205-8-7l128-128c15.694-6.505 29.694-15.505 42-27zm139 7c2.527 2.105 4.86 4.439 7 7l-220 221c-3.082-1.872-5.749-4.205-8-7l221-221zm358 1c1.31 4.15 2.31 8.483 3 13l-100 99c-1.197-3.595-2.197-7.261-3-11l100-101zm-621 2c2.027 2.694 4.361 5.027 7 7l-99 100-8-7 100-100zm440 0c1.058 3.779 2.391 7.446 4 11l-50 49c-2.561-2.14-4.895-4.473-7-7 17.333-18 35-35.667 53-53zm-167 7c2.931 1.591 5.598 3.591 8 6l-220 221c-3.082-1.872-5.749-4.205-8-7l220-220zm-263 2l10 6-101 101c-2.95-1.615-5.616-3.615-8-6-.131-.739.036-1.406.5-2l98.5-99zm-163 4l-6 21-102 102h-15l123-123zm598 2c1.726 3.509 3.059 7.175 4 11l-45 44c-2.667-2-5-4.333-7-7 15.667-16.333 31.667-32.333 48-48zm180 0c.344 4.394 1.01 8.728 2 13l-94 94-6-1c-.267-2.465-.934-4.799-2-7l100-99zm-602 1c3.916 1.312 7.916 2.312 12 3l-105 106c-3.31-1.982-6.31-4.315-9-7l102-102zm261 0l8 7-165 164c-5.047-.163-10.047.171-15 1l172-172zm-209 3l-124 124-8-7 115-115c5.762.064 11.429-.603 17-2zm-36 1c4.603.883 9.27 1.217 14 1l-113 113c-2.384-2.385-5.05-4.385-8-6l107-108zm256 5c2.027 2.694 4.361 5.027 7 7-15 15.667-30.333 31-46 46-4.285-.795-8.619-1.128-13-1 17-17.667 34.333-35 52-52zm156 4c.797 3.723 1.797 7.39 3 11l-40 41c-3.05-2.049-5.383-4.716-7-8 14.333-15 29-29.667 44-44zm176 3c1.117 3.795 1.783 7.795 2 12 .131.739-.036 1.406-.5 2l-77.5 78-14-1 90-91zm-322 3c2.667 2 5 4.333 7 7l-44 45-8-7c14.667-15.333 29.667-30.333 45-45zm-467 7c-1.536 7.144-3.536 14.144-6 21l-73 73h-15l94-94zm477 2l8 7c-14.667 15.333-29.667 30.333-45 45-2.667-2-5-4.333-7-7l44-45zm141 0c1.203 3.61 2.203 7.277 3 11-11.667 12.333-23.667 24.333-36 36-3.05-2.049-5.383-4.716-7-8l40-39zm174 6c.99 4.272 1.656 8.606 2 13-21 20.333-41.667 41-62 62h-14c23.949-25.617 48.616-50.617 74-75zm-305 4c3 2.333 5.667 5 8 8-15 14.333-29.667 29-44 44-3.082-1.872-5.749-4.205-8-7l44-45zm136 5l4 11-33 32-7-8 36-35zm-125 5c2 2.667 4.333 5 7 7l-44 45c-3-2.333-5.667-5-8-8l45-44zm297 3c.299 4.428.965 8.761 2 13-15.667 15-31 30.333-46 46-4.714.147-9.381-.186-14-1 19-19.667 38.333-39 58-58zm-803 3c-1.935 7.472-4.269 14.805-7 22-14.667 14-29 28.333-43 43-5.24.949-10.573 1.282-16 1 21.667-22.333 43.667-44.333 66-66zm516 4c2.694 2.027 5.027 4.361 7 7-14.333 15-29 29.667-44 44l-7-6c13.948-15.615 28.614-30.615 44-45zm120 0l4 11-29 28c-2.378-2.378-4.378-5.045-6-8 10-10.667 20.333-21 31-31zm-111 10c3 2.333 5.667 5 8 8l-44 43c-2.027-2.694-4.361-5.027-7-7l43-44zm280 1c.852 4.294 1.518 8.627 2 13-9.667 9-19 18.333-28 28h-15c13.333-14 27-27.667 41-41zm-164 4l4 11c-8.667 8-17 16.333-25 25-2.564-2.78-4.897-5.78-7-9l28-27zm-244 4c-1.421 4.803-1.088 9.469 1 14-12.333 11.667-24.333 23.667-36 36-5.827-1.133-11.493-.467-17 2 17-17.667 34.333-35 52-52zm138 1c3 2.333 5.667 5 8 8l-43 42c-3.082-1.872-5.749-4.205-8-7 14.667-14 29-28.333 43-43zm-544 5c-1.935 7.472-4.269 14.805-7 22-4.667 4-9 8.333-13 13-5.24.949-10.573 1.282-16 1 11.667-12.333 23.667-24.333 36-36zm816 4c1.063 4.139 1.73 8.472 2 13-3.333 2.667-6.333 5.667-9 9h-15c7-7.667 14.333-15 22-22zm-161 1c.567 1.53 1.233 3.03 2 4.5-7.564 5.744-15.23 11.244-23 16.5 6.667-7.333 13.667-14.333 21-21zm-101 1c2.667 2 5 4.333 7 7-13.667 14.333-27.667 28.333-42 42-2.639-1.973-4.973-4.306-7-7 13.667-14.333 27.667-28.333 42-42zm-146 5l7 8c-10.333 11-21 21.667-32 32-2.36-2.353-5.027-4.353-8-6l33-34zm156 5l7 8c-14 13.333-27.667 27-41 41-3-2.333-5.667-5-8-8l42-41zm255 5v5h-5c1.333-2 3-3.667 5-5zm-401 1c3.082 1.872 5.749 4.205 8 7-11 10.333-21.667 21-32 32l-8-7c10.333-11 21-21.667 32-32zm-374 8c-3 3.667-6.333 7-10 10 1.19-5.071 2.69-10.071 4.5-15 2.191 1.333 4.024 3 5.5 5zm529-3c2.795 2.251 5.128 4.918 7 8l-40 39c-2.667-2-5-4.333-7-7 13-13.667 26.333-27 40-40zm-582 2c.153 4.298-1.847 6.298-6 6 1.667-2.333 3.667-4.333 6-6zm438 2c2 2.667 4.333 5 7 7-10.333 11-21 21.667-32 32-2.931-1.591-5.598-3.591-8-6 10.667-11.333 21.667-22.333 33-33zm154 7c1.615 2.95 3.615 5.616 6 8-13 12.333-25.667 25-38 38l-8-7c12.718-13.72 26.052-26.72 40-39zm-144 3c2.667 2 5 4.333 7 7-10.333 11-21 21.667-32 32-2.667-2-5-4.333-7-7 10.333-11 21-21.667 32-32zm152 8c2.245 2.82 4.245 5.82 6 9l-36 35c-2.667-2-5-4.333-7-7 12-12.667 24.333-25 37-37zm-142 2c3.284 1.617 5.951 3.95 8 7-11 10.333-21.667 21-32 32-3-2.333-5.667-5-8-8l32-31zm-102 2c-2.727 5.476-3.393 11.143-2 17l-27 26c-2.384-2.385-5.05-4.385-8-6 12-12.667 24.333-25 37-37zm112 7l8 7c-10.333 11-21 21.667-32 32-2.667-2-5-4.333-7-7l31-32zm140 1c2.235 2.791 4.235 5.791 6 9-11.333 10.667-22.333 21.667-33 33-3-2.333-5.667-5-8-8l35-34zm-129 9c2.667 2 5 4.333 7 7-10 10.667-20.333 21-31 31-3.284-1.617-5.951-3.95-8-7l32-31zm136 3c2.548 3.496 3.881 7.496 4 12-9.333 8.667-18.333 17.667-27 27-3.082-1.872-5.749-4.205-8-7l31-32zm-260 1c1.752 3.172 3.752 6.172 6 9l-24 23c-2.667-2-5-4.333-7-7 8-8.667 16.333-17 25-25zm134 5l8 7-31 32c-3.284-1.617-5.951-3.95-8-7l31-32zm-126 6l8 7-24 25c-2.105-2.527-4.439-4.86-7-7 7.277-8.613 14.943-16.947 23-25zm137 4c2.667 2 5 4.333 7 7-10 10.667-20.333 21-31 31l-8-7 32-31zm120 0c-1.453 15.454-9.787 23.787-25 25 8-8.667 16.333-17 25-25zm-246 6c2.667 2 5 4.333 7 7l-24 25c-3-2.333-5.667-5-8-8l25-24zm136 4c3.264 1.594 5.931 3.927 8 7l-31 30c-2.931-1.591-5.598-3.591-8-6 10-10.667 20.333-21 31-31zm-221 1c-1.791 4.934-2.124 9.934-1 15l-28 29-8-6c11.614-13.281 23.947-25.948 37-38zm95 4c3 2.333 5.667 5 8 8-8.667 8-17 16.333-25 25-3-2.333-5.667-5-8-8 8.667-8 17-16.333 25-25zm136 4c3.284 1.617 5.951 3.95 8 7l-30 31c-3.082-1.872-5.749-4.205-8-7l30-31zm-126 6c3.284 1.617 5.951 3.95 8 7-8 8.667-16.333 17-25 25l-8-7c8.667-8 17-16.333 25-25zm137 4c3.284 1.617 5.951 3.95 8 7-10.333 9.667-20.333 19.667-30 30-3.284-1.617-5.951-3.95-8-7 9.667-10.333 19.667-20.333 30-30zm-242 1c2.08 3.142 4.414 6.142 7 9-8.667 8-17 16.333-25 25-3.082-1.872-5.749-4.205-8-7l26-27zm116 5c3.264 1.594 5.931 3.927 8 7l-26 25c-2.667-2-5-4.333-7-7 8-8.667 16.333-17 25-25zm137 3c2.639 1.973 4.973 4.306 7 7l-26 27c-4.18-.282-7.847-1.615-11-4 9.667-10.333 19.667-20.333 30-30zm-243 3l7 8c-8.333 7.667-16.333 15.667-24 24l-8-7c8-8.667 16.333-17 25-25zm117 3c2.639 1.973 4.973 4.306 7 7l-25 26-8-7c8.333-9 17-17.667 26-26zm136 3c5.321 2.29 6.155 5.623 2.5 10-6.703 7.935-15.203 12.602-25.5 14l23-24zm-244 5c2.667 2 5 4.333 7 7l-22 23-8-7c7.333-8 15-15.667 23-23zm118 1l8 7c-8.333 9-17 17.667-26 26l-8-7c9-8.333 17.667-17 26-26zm-108 9c2.667 2 5 4.333 7 7-6.667 7.333-13.667 14.333-21 21-2.973-1.647-5.64-3.647-8-6 7-7.667 14.333-15 22-22zm119 1l8 7-26 25c-2.95-1.615-5.616-3.615-8-6 8.333-9 17-17.667 26-26zm-109 9c2.667 2 5 4.333 7 7-6.333 7-13 13.667-20 20-2.95-1.615-5.616-3.615-8-6 6.667-7.333 13.667-14.333 21-21zm119 0c3.082 1.872 5.749 4.205 8 7l-21 22c-4.032-.582-7.699-1.916-11-4l24-25zm11 9l8 7-11 12c-5.547 1.522-11.214 2.188-17 2l20-21zm-120 1c2.667 2 5 4.333 7 7-5.333 6-11 11.667-17 17-3.802-.82-7.136-2.486-10-5l20-19zm10 9c3 2.333 5.667 5 8 8l-13 12c-3.847-.394-7.514-1.394-11-3l16-17zm10 10l8 7-3 4c-5 1.333-10 1.333-15 0l10-11z"
     id="path15" />
  <defs
     id="defs174">
    <path
       id="B"
       d="M516.5-.5h5l-253 254h-5l253-254z" />
    <path
       id="C"
       d="M575.5 441.5c1 .333 1.667 1 2 2l-220 221c-1.21-.432-2.21-1.099-3-2l221-221z" />
    <path
       id="D"
       d="M573.5 582.5c1.333.667 2.333 1.667 3 3-11 10.333-21.667 21-32 32-1.333-.667-2.333-1.667-3-3 11-10.333 21.667-21 32-32z" />
    <path
       id="E"
       d="M902.5 633.5h5l-389 390h-5l389-390z" />
  </defs>
</svg>
