<svg xmlns="http://www.w3.org/2000/svg" width="100" height="100" xmlns:v="https://vecta.io/nano"><path d="M52.875 31.00674c-.49121.062-.89424.536-.875 1.0302v1.0302c-2.47779.1677-4.34288.8536-7-.031v3.996c2.65712.8848 4.52221.1989 7 .031v2.9658h-2v5.994h12v-2.0604c0-1.9427-2.01271-3.9336-4.09375-3.9336H54v-7.992c.0226-.5776-.55092-1.1028-1.125-1.0302zm-12.78125 11.0202c-2.08104 0-4.09375 1.991-4.09375 3.9336v2.06048h-2v4.995h8v-4.995-5.99408zm-23.07224 5.83428c-.0488.425.20924.867.60349 1.0339l4.5625 2.2789c-.4409.504-.75431 1.1371-.9375 1.842H28v-2.997c-1.24549-.011-2.50235 0-3.59375.031l-5.875-2.93438c-.85866-.2369-1.37087.069-1.50974.74568zM48 48.02102v6.993H21v2.997h41 2.125l1.1875-1.3425c.334581-.3723.81362-.6116 1.3125-.6555h3.40625c.0754-.9548.0856-1.9919-.0625-2.8722l4.46875-2.2477c.410701-.1915.65307-.6875.551681-1.1288s-.53598-.782-.989181-.7755c-1.703.6041-3.38144 1.6053-5.03125 2.435-.773669-.8346-1.85083-1.4048-2.96875-1.4048h-4v-1.998zm37.5625 3.0907l-5.90625 2.9657c-.83623-.1168-1.68953-.062-2.5625-.062v1.998h5.34375c-.19284-.293-.400279-.5665-.65625-.8117l4.65625-2.3102c.410701-.1915.65307-.6875.551681-1.1288-.296351-.8059-.86733-.8923-1.426681-.6511zm-80.3795695 2.3138c-.35758.6586-.0648 1.1335.44207 1.4636l4.6562495 2.3102c-.25578.2452-.4679495.5186-.6562495.8117H15v-1.998c-.84395-.026-1.76714-.01-2.5625.062l-5.9062495-2.9657c-.60205-.2213-1.02929-.1474-1.34832.3163zM66.8125 58.01102l-1.75 1.998H5.0000005c0 3.996 3 8.991 4.9999995 8.991h77l8-10.989z"/><path d="M8.9021363 68.443587c-1.6933886-1.226684-3.3941718-4.578741-3.7240209-7.339635l-.115469-.966495H35.082363h30.019716l.846727-.999502.846727-.999502 14.008664-.0028 14.008664-.0028-.448212.608534-3.912377 5.369416-3.464163 4.760882H48.240623 9.4931382zm1.0958142-10.78529c.1712305-.182266.3113275-.375185.3113275-.42871s-1.0470357-.620035-2.3267465-1.258913l-2.5773196-1.383287c-.5420868-.479603-.1730529-1.465967.5484705-1.465967.1919693 0 1.7009565.676547 3.353305 1.503437l3.0042696 1.503436h1.289962 1.289961v.930699.930699h-2.602279-2.6022784zM21.48941 52.58938c.08131-.213871.289125-.642753.461805-.953071.233262-.41919.267045-.580237.131433-.62655-.100392-.03428-1.198966-.566295-2.441276-1.182245-1.780636-.882858-2.296958-1.203778-2.439274-1.516129-.156194-.342807-.143671-.445819.09289-.764168.150383-.202373.437562-.387694.638178-.411825.23926-.02878 1.403932.476165 3.385168 1.467641l3.020413 1.511515h1.791107 1.791106v1.431844 1.431844h-3.289698-3.289697zm-.4413 3.968467v-1.431845h13.530928 13.530928v-3.508018-3.508018h6.944444 6.944445v1.002291 1.002291h2.265443c2.566892 0 3.232208.148442 4.125235.920402l.54747.473251 2.41565-1.197972 2.737257-1.197972c.688286 0 1.065636 1.011253.54497 1.460458-.137815.1189-1.25168.738048-2.475257 1.375884l-2.224682 1.159703.05734 1.427574.05734 1.427574-2.100273.04663-2.100274.04662-.938055.966495-.938056.966495H42.510536 21.04811zm13.029782-6.013746v-2.434135h1.002291 1.002291l.0031-1.396048c.0036-1.605199.211653-2.216094 1.083205-3.180798.884174-.978675 1.745706-1.336946 3.388163-1.40898l1.396049-.06123v5.457662 5.457661h-3.937572-3.937572zm16.036656-7.517182v-2.935281h1.00229 1.002291v-1.586405-1.586406l-.393757.07534c-2.099692.401766-5.334423.458101-6.228522.108472l-.393757-.153974v-1.881642-1.881641l.322165.100046c.662429.205712 3.382745.230183 4.975658.04476l1.646621-.191676.0744-.832568c.104937-1.174253.698918-1.568355 1.448967-.96138l.338028.273548.04186 4.227408.04186 4.227408 2.392272.04515c2.719781.05133 3.233067.203712 4.308416 1.279062.87953.879531 1.171787 1.61851 1.266244 3.201748l.08134 1.363308h-5.963191-5.96319zM77.176403 55.05441v-.930699h1.289961 1.289962l3.00427-1.503436 3.355413-1.503437c.669479 0 1.049829 1.020533.546362 1.465967-.137815.12193-1.297609.744409-2.577319 1.383287l-2.326747 1.286406c0 .06864.09665.205021.214776.303058s.214777.234792.214777.303901-1.127577.125652-2.505727.125652h-2.505728z" fill="#fff"/><g fill="#0a0905"><path d="M-16.457031 106.02344c-.09869-.0101-.226864.0135-.337891.0176v4.50195l8.576172-.19141c-.068853-.0359-.1376782-.0728-.2011719-.12109-.032427-.0246-.052834-.0565-.076172-.0859l-.1816406-.0234c.031812-.0539.054148-.12027.080078-.18164-.047055-.21237.00416-.47542.048828-.73633l-1.9394525-.24023-2.152344-.36719c-.382403.0426-.758146.0799-.888672-.21484-.08023-.18117-.01566-.37747.0957-.56445-.09785-.31782-.104835-.64471.08984-.85743.08715-.0952.193996-.13548.314453-.14062.361372-.0154.837989.28285 1.220703.3418l4.9628905.8125 2.9570312.36132.6582031-.86718c-.012909-.0395-.015132-.0814-.027344-.1211l-3.7578125-.36523-9.4414063-.95703zm1.292969 12.93164c-.499562-.0409-1.176812.20752-1.63086.0918v.46874l4.123047.0762c-.128696-.0893-.235011-.20761-.345703-.32032l-.07617-.0137c-.237847-.0491-.738557-.0409-.755859-.22461l-1.314453-.0781zm-1.63086 6.39258v5.33593h54.453125V128.625l-13.34375-.88867L2.5 126.37891l-13.519531-.73438-5.775391-.29687z" fill-opacity=".00325377"/><path d="M-5.5507812 107.12305v1.01367l1.65625.20312.6640624-.87304c-.012909-.0395-.015132-.0814-.027344-.1211l-2.2929684-.22265zm0 18.81836v1.41015H18.130859L2.5 126.37891l-8.0507812-.4375z" fill-opacity=".00325377"/></g></svg>