<svg xmlns="http://www.w3.org/2000/svg" viewBox="0 0 1024 1024" fill="currentColor" overflow="hidden" xmlns:v="https://vecta.io/nano"><path d="M968.533333 808.533333l-390.4-390.4c38.4-98.133333 17.066667-215.466667-61.866666-294.4C430.933334 38.4 302.933334 21.333333 200.533333 70.4l185.6 185.6L256 386.133333l-185.6-185.6c-49.066667 102.4-32 230.4 53.333333 315.733334C202.666666 595.2 320 616.533334 418.133333 578.133333l390.4 390.4c17.066667 17.066667 44.8 17.066667 59.733334 0l100.266666-100.266666C985.6 853.333334 985.6 825.6 968.533333 808.533333z"/><g fill="#fff"><path d="M831.15024 980.03355c-5.86184-1.21685-10.85847-3.26757-15.45646-6.34379-2.22339-1.48756-87.38363-86.11712-200.55059-199.30096L418.45688 577.67324l-10.99596 3.81658c-17.68788 6.13926-37.78772 10.67283-58.97175 13.30121-10.04697 1.24656-49.29433 1.25082-59.39343.006-35.55511-4.381-63.68799-12.77363-94.45703-28.17853-28.17651-14.10649-48.43026-28.80755-71.21611-51.69133-43.916145-44.10489-70.158954-98.82196-78.109205-162.86008-1.971727-15.88198-1.789117-49.18463.357065-65.1181 3.824638-28.39449 10.695116-53.62668 20.848564-76.56744 1.654826-3.73892 3.19-7.39524 3.411497-8.12515.315942-1.04114 20.426144 18.69587 93.325819 91.59393l92.9231 92.92103 65.29596-65.29596 65.29596-65.29596-92.92103-92.9231-91.59393-93.330033c.72991-.223814 5.41741-2.186716 10.41668-4.362003 44.60269-19.407588 97.84391-26.221794 148.3388-18.985497 44.657 6.399685 89.50471 24.936642 125.08688 51.702317 34.19392 25.721396 60.6318 57.142856 79.8818 94.939646 15.45936 30.35396 24.41492 60.14947 28.8169 95.87497 1.23979 10.06185 1.23979 49.33157 0 59.39343-2.60529 21.14398-7.43563 42.36947-13.59773 59.75122l-3.55159 10.01817 198.02034 198.21663 200.69649 203.76126c5.85733 12.13551 6.02027 24.72177.46555 35.95922-2.7693 5.60237-4.02222 6.91683-58.66024 61.54018-49.3027 49.28946-56.41195 56.13202-60.80306 58.52221-8.10634 4.41257-16.98695 5.69146-26.21698 3.77549z"/><path d="M827.93012 978.7022c-2.95178-.91279-6.81593-2.40507-8.587-3.31622-4.13858-2.12908-12.88051-10.78213-225.86144-223.56439l-174.6972-174.53427-12.31323 4.05571c-20.68442 6.81301-43.26265 11.68718-61.56 13.28955-10.74564.94103-41.66994.92235-52.59539-.0318-31.66005-2.7649-64.18117-12.12435-95.29187-27.42463-28.76315-14.14576-48.87831-28.52515-71.93794-51.4251-43.997864-43.6932-70.008523-96.59393-79.074096-160.82166-1.799722-12.75066-1.788153-54.96505.01863-67.98043 3.937157-28.3618 11.484501-55.35884 22.262333-79.63293 1.731581-3.89991 1.930541-4.08985 3.446036-3.28987.884596.46695 42.755187 41.92705 93.045757 92.13354l91.43739 91.28456 65.63238-65.63238 65.63237-65.63237-84.45826-84.61807-99.3903-101.390203c1.2177-1.167417 19.87861-8.71179 29.56814-11.954025 19.52177-6.532222 43.93007-11.439094 65.60071-13.187902 13.41238-1.082371 43.96964-.490126 56.12228 1.087732 48.09505 6.244502 94.6163 25.129165 132.38295 53.739054 30.61152 23.189564 56.39475 53.148944 74.57719 86.656564 16.25018 29.94676 25.89682 58.90833 31.41462 94.31436 1.83595 11.78079 2.64763 47.04514 1.43385 62.29527-1.53563 19.2938-6.45105 42.40987-13.5073 63.52177l-4.0107 11.99975 190.67965 190.86818 198.75603 199.66497c5.08759 5.54134 8.70615 10.17567 9.77802 12.52272 5.39092 11.80505 5.2058 24.0811-.53017 35.15325-1.9192 3.70465-10.50928 12.60737-57.76104 59.86314l-59.00917 57.7707c-6.01405 3.8794-10.76595 5.30505-18.68052 5.60438-5.97806.22613-8.03915 0-12.52271-1.38895z"/><path d="M827.93012 978.7022c-2.95178-.91279-6.81593-2.40507-8.587-3.31622-4.13851-2.12908-12.88215-10.78378-225.83406-223.53701l-174.66983-174.5069-12.45526 4.05343c-21.10308 6.86777-43.28542 11.64435-61.47272 13.23708-10.74957.94138-41.6738.92223-52.59539-.0326-31.73076-2.77395-64.17323-12.10735-95.20822-27.39052-26.35105-12.97655-42.65931-24.10528-63.86236-43.57953-42.712862-39.2303-70.714484-87.95069-82.770137-144.01288-5.147389-23.93681-5.681763-29.37935-5.691007-57.96226-.0092-28.45928.423075-33.35514 4.928217-55.81552 4.034055-20.11178 10.328855-39.93852 18.580564-58.52321 1.731581-3.89991 1.930541-4.08985 3.446036-3.28987.884596.46695 42.755187 41.92705 93.045757 92.13354l91.43739 91.28456 65.63238-65.63238 65.63237-65.63237-84.45826-84.61807-99.3903-101.390233c1.0296-.987089 18.34573-8.103121 27.70202-11.384093 18.40345-6.45354 45.5646-11.990337 67.50524-13.760934 13.03787-1.052148 44.48635-.458259 55.85438 1.054784 33.14454 4.411413 61.32608 13.065791 91.09307 27.974121C518.28103 110.35962 571.2386 178.55005 589.17776 258.68344c2.59168 11.57692 4.66499 24.61512 5.46194 34.34801.91577 11.18386.91162 41.38872-.007 51.8798-1.62086 18.50854-6.90275 42.65796-13.73375 62.79235l-3.7023 10.91253 191.40668 191.5976 198.77349 199.6912c4.44192 4.88013 8.04009 9.56792 9.06265 11.80713 3.90809 8.55787 4.94877 18.38777 2.81439 26.58242-2.62583 10.08128-1.37048 8.67581-61.11118 68.42159l-59.00917 57.7707c-6.01405 3.8794-10.76602 5.30505-18.68052 5.60438-5.97806.22613-8.03915 0-12.52271-1.38895z"/></g></svg>