<svg xmlns="http://www.w3.org/2000/svg" fill="#000000" viewBox="0 0 24 24" xmlns:v="https://vecta.io/nano"><path d="M13 9a1 1 0 0 0-1-1H3a1 1 0 0 0-1 1v13h11zM6 20H4v-2h2zm0-4H4v-2h2zm0-4H4v-2h2zm5 8H8v-2h3zm0-4H8v-2h3zm0-4H8v-2h3zm3.5-6H6V3a1 1 0 0 1 1-1h10a1 1 0 0 1 1 1v7h-3V6.5a.5.5 0 0 0-.5-.5zm7.5 7v9h-2.5v-4h-2v4H15v-9a1 1 0 0 1 1-1h5a1 1 0 0 1 1 1z"/><path d="M2.0338983 15.3457626V8.7254238l.34864893-.3486489.34864896-.3486489 4.84665861.0283098 4.8466584.0283101.2453706.2853318.2453703.2853318v6.6553461 6.6553461H7.4745762 2.0338983zM6 19.0169493V18H4.9830507h-1.016949v1.0169493 1.016949h1.016949H6zm5.0847459 0V18H9.5084745 7.9322034v1.0169493 1.016949h1.5762711 1.5762714zM6 15v-1.0677966H4.9830507h-1.016949V15v1.0677966h1.016949H6zm5.0847459 0v-1.0677966H9.5084745 7.9322034V15v1.0677966h1.5762711 1.5762714zM6 10.9830507v-1.016949H4.9830507h-1.016949v1.016949V12h1.016949H6zm5.0847459 0v-1.016949H9.5084745 7.9322034v1.016949V12h1.5762711 1.5762714zm3.9661017-2.877966c0-1.3118643-.0360102-1.8970269-.122034-1.9830507C14.8376484 6.0308688 13.6906698 6 10.3944552 6H5.9821308l.0343584-1.6065006c.0374184-1.7495844.1279212-2.06149269.6564666-2.26244532.3402291-.1293549 10.3138587-.1293549 10.6540884 0 .1405464.05343567.3380175.22293765.4388235.37667103.1662651.25356003.1860957.61282209.2135565 3.86894589l.0302703 3.5894307h-1.479423-1.4794239zm0 9.2355027v-4.6255143l.2967426-.3321129.2967429-.3321126h2.7840009c2.5109376 0 2.8114374.0179769 3.0637284.1832844.1538502.1008066.3234477.2982774.3768834.4388238.0564531.1484823.0971559 2.1486684.0971559 4.7743425v4.5188034h-1.2203391-1.2203388v-1.983051V18h-1.0169493-1.016949v1.9830507 1.983051h-1.2203391-1.2203388z" fill="#fff"/></svg>