<svg xmlns="http://www.w3.org/2000/svg" shape-rendering="geometricPrecision" image-rendering="optimizeQuality" fill-rule="evenodd" viewBox="0 0 500 499.99999" width="500" height="500" xmlns:v="https://vecta.io/nano"><path d="M5.8295895 247.16089C65.39826 256.02013 106.88513 262.31167 162.00809 266.85556l14.35936-93.47237 16.15307-.12099v-59.97127h17.56104V172.953l12.17026-.25542v-34.25394h17.56104v33.94474c19.59584-.26887 39.07597-.2151 57.44707 1.0217 11.50485 1.3309 21.51493 6.54696 29.54807 16.89843 7.85955 10.13636 13.56858 24.99139 16.59668 45.68087l.10608.73939.0193.79316.58827 39.24146 50.74475 1.80142 97.12095 2.33917c1.9673.0403 4.58072 2.67524 3.57778 4.98752l-29.90488 68.79018c-.99329 2.28538-1.64906 4.98752-3.57778 4.98752H50.305987c-2.237321 0-43.357737-96.22828-48.0541823-107.50734-.7811336-1.86864.5496866-5.4446 3.5777848-5.00097zM108.38954 189.01793H98.5434l-1.330822-16.25314c-.125367-1.41156-.858282-2.58114-1.861219-2.58114H71.531605c-1.002937 0-1.735852 1.16958-1.851576 2.58114l-1.340464 16.25314H59.4385c-1.40797 0-2.218034 1.72077-2.594136 3.60285l-.829351 4.18092-43.12629-9.90783-1.475475 10.29769 41.438656 15.6213-6.422654 32.73482 76.38715 9.00712-11.84237-61.93402c-.35681-1.90897-1.20545-3.60285-2.58449-3.60285zm283.25255 37.11739h9.8365l1.34046-16.25314c.11572-1.41156.839-2.58114 1.85158-2.58114h23.81975c1.02222 0 1.7455 1.16958 1.86122 2.58114l1.34046 16.25314h8.90107c1.42726 0 2.21803 1.72077 2.58449 3.60285l.82935 4.18092 36.30825-7.34013 1.47547 10.29769-34.62061 13.0536 4.45536 22.65222-56.76238-1.35779-13.67466-.33608 7.85955-41.15043c.36646-1.90897 1.16688-3.60285 2.59414-3.60285zm-121.095-21.68429h52.28774c4.69644 9.86749 8.04278 19.95009 9.04572 30.28811h-61.33346zm-35.60426-.0135h22.49857v31.0275h-22.49857z"/><path d="M46.706349 351.9808c-4.702153-9.40511-15.148091-32.88097-31.704443-71.25153-10.7281011-24.86317-12.6085259-29.7847-11.9426631-31.25686.4346644-.961 1.4320088-1.74728 2.2163209-1.74728s15.7310272 2.08277 33.2149232 4.62839c55.538666 8.08629 122.159113 15.92117 123.550193 14.53008.23554-.23552 3.6233-21.24116 7.52837-46.67918l7.10013-46.25095 7.95982-.001 7.95982-.001v-30.28642-30.28615h8.54224 8.54225v29.89786 29.89786h6.60083 6.60082v-17.08449-17.08449h8.15396 8.15397v16.69621 16.6962l13.39579.0102c21.89937.0167 46.22637 1.33987 51.05934 2.77709 18.87306 5.61245 30.73872 21.45768 37.4049 49.94994 1.26524 5.40782 1.67375 10.89917 2.15857 29.0159l.90216 22.64572c.54568.53819 41.93742 1.93217 95.43373 3.21399 54.05235 1.29515 55.99853 1.44928 55.87254 4.42493-.0222.52405-7.2771 17.55195-16.12202 37.83978l-16.08168 36.88697-206.35685.19558-206.356855.19559-3.786166-7.57298zM257.82051 220.15698v-15.91964H246.172h-11.64852v15.91964 15.91964H246.172h11.64851zm74.1798 11.84265c-.98753-6.42557-3.63791-15.80032-6.09246-21.54975l-2.48647-5.82426-26.58789-.20434-26.58789-.20434v15.54156 15.54155h31.13097 31.13098zm-224.05738 20.66365l-34.792965-4.18087-25.710229-3.08698c-.343401 0 .8512-7.35153 2.654669-16.33673 2.940969-14.65242 3.149735-16.40042 2.02491-16.95453-.689767-.3398-10.071533-3.90876-20.848367-7.93102-14.89771-5.56031-19.520201-7.59241-19.285331-8.47806.169902-.64067.525567-2.76568.790368-4.72225l.481454-3.5574 19.580444 4.50115 21.608227 4.95443c1.844631.41233 2.069192.19808 2.486266-2.37205.70519-4.34557 1.657226-5.01642 7.119029-5.01642h4.842078l.550514-8.70006c.302782-4.78504.722598-8.9785.932924-9.31882s6.104255-.61875 13.097618-.61875c14.76188 0 13.249343-1.15028 14.040604 10.67781l.532477 7.95982h5.664 5.664l.80464 2.52384c.80804 2.53444 11.74089 59.3751 11.74089 61.04166 0 1.06925-1.42288 1.03009-13.97822-.38477zm308.94404 18.7537c-18.65086-.4307-34.15559-1.02828-34.45497-1.32794-.53305-.53356 6.25145-38.17574 7.4887-41.54929.55729-1.51951 1.26654-1.7384 6.29062-1.94141l5.66252-.22882.77657-8.54225c.42711-4.69823 1.05929-8.97906 1.40483-9.51295.45782-.70738 3.87376-.97071 12.5919-.97071 10.68101 0 12.04305.14836 12.70426 1.38384.40734.76112.9915 5.12931 1.29815 9.7071l.55754 8.32325h5.2935 5.29349l.80874 2.91213c.44481 1.60167.81069 3.35561.81307 3.89764.003.6267.64048.83439 1.75161.57047 4.27407-1.01523 32.80247-6.60367 33.71102-6.60367 1.00175 0 1.31418.90275 2.17005 6.26999l.44256 2.77543-17.28817 6.44808-17.4163 6.54338c-.0705.0524.89062 5.1332 2.13575 11.29063s2.17643 11.22747 2.06954 11.26676-15.45412-.28096-34.10498-.71166z" fill="#fff"/></svg>