<svg xmlns="http://www.w3.org/2000/svg" width="400" height="400" fill-rule="evenodd" xmlns:v="https://vecta.io/nano"><path d="M382.422 80.6l-.309 4.981c-.129-1.206-.421-1.566-1.948-2.4l-1.796-.981H306.8h-71.569l-1.816.992c-.998.545-1.852 1.265-1.897 1.6s-.197-1.732-.337-4.592l-.254-5.2.037 6.115c.027 4.51.172 6.198.55 6.432.282.174.403.603.269.953-.359.935 2.77 4.058 3.797 3.789.43-.112.848-.004.93.24.107.322 13.674.451 49.319.47l50.428.701c1.883 1.012 2.687 3.87 1.626 5.779-.269.483-21.913 22.353-48.099 48.6l-55.92 57.344c.122.317.026.577-.213.577-.761 0-1.992 2.926-1.755 4.169.138.723.07 1.057-.185.9-.957-.592-1.366 16.168-.45 18.405.254.619.508 1.349.564 1.621.258 1.245 3.817 3.528 4.87 3.124.3-.115.437-.032.302.186-.161.26 23.703.392 69.679.386 78.635-.01 71.87.262 74.346-2.984l1.129-1.481.053-7.663c.063-9.109-.555-10.8-4.492-12.296-.522-.199-22.653-.363-50.374-.373l-49.442-.019-.78-.991c-.429-.545-.95-.887-1.158-.758s-.339.085-.292-.096-.044-.879-.204-1.55c-.566-2.379.221-3.216 51.411-54.683l51.708-52.194c1.567-1.873 3.515-6.09 3.309-7.164-.096-.503-.032-.827.143-.719s.264-.701.198-1.797.04-2.047.235-2.112.3-3.176.234-6.914l-.121-6.797-.157 6.4m-177.297 94.219l.124 4.344-1.179-.588c-1.623-.81-92.899-.687-93.17.125-.462 1.385-.885.137-1.019-3-.094-2.197-.137-1.613-.115 1.571.03 4.5.129 5.199.876 6.2 1.976 2.65.258 2.511 31.533 2.537l28.072.278c-.14.14.122.655.582 1.145s.936 1.631 1.057 2.537l.221 1.647-6.549 6.692-25.982 26.293c-26.824 27.054-27.193 27.439-27.451 28.7-.124.605-.363 1.1-.532 1.1-2.74 0-2.656 18.479.089 19.581.505.203.738.386.518.408s.05.297.6.611c1.814 1.037 88.568.86 90.281-.184 2.154-1.314 2.519-2.532 2.519-8.416 0-6.793-.857-8.667-3.869-8.465-.882.06-1.302-.058-1.14-.32.176-.285-8.287-.415-27.006-.415-30.773 0-29.219.159-29.82-3.045-.509-2.717-.291-2.964 26.322-29.873l25.6-26.492c-.158-.175-.092-.207.146-.072.553.315 4.291-3.451 3.877-3.906-.171-.187-.113-.228.129-.09.845.481 4.7-4.494 4.297-5.546-.122-.317-.051-.576.158-.576 1.087 0 2.055-16.287 1.006-16.939-.165-.103-.244 1.768-.175 4.158M79.128 246.826l.128 3.552-1.152-.402c-1.93-.672-59.412-.317-60.243.373-.727.603-.914 2.851-.237 2.851.233 0 .313.178.178.397s.206.848.758 1.4L19.564 256h15.049 15.049l1.169 1.169c.961.962 1.169 1.504 1.169 3.056 0 2.137.875 1.168-20.736 22.958-12.02 12.12-11.373 10.968-11.322 20.156.042 7.475.41 9.072 1.954 8.48.3-.116.463-.077.363.086s12.434.274 27.854.249l28.036-.047.926-1.076c1.394-1.621 1.41-10.423.021-12.038l-.905-1.051-14.159.043-14.16.042-1.536-1.647c-2.144-2.299-2.131-3.991.051-6.47.873-.992 1.458-1.946 1.3-2.121s-.088-.204.155-.065c.552.314 2.276-1.461 1.862-1.918-.167-.184-.105-.221.138-.082.552.314 2.276-1.461 1.862-1.918-.167-.184-.105-.221.138-.082.552.314 2.276-1.461 1.862-1.918-.167-.184-.104-.22.141-.081.463.265 4.03-3.262 3.855-3.811-.055-.173.035-.277.2-.231.435.12 18.091-17.937 18.147-18.56.026-.288.026-.658 0-.823s.105-.3.29-.3c1.027 0 1.95-13.925.963-14.54-.165-.102-.242 1.412-.172 3.366m31.162 17.267c-.089.719-.164.227-.166-1.093s.071-1.908.162-1.307.093 1.681.004 2.4" fill="#049cdc"/><path d="M233.8 59.746l-2.72 1.197c-1.679.733-2.081 1.023-4.209 3.037-1.451 1.374-2.264 2.56-3.577 5.22-1.591 3.223-1.007 24 .674 24 .19 0 .452.425.582.945.297 1.181 4.14 4.995 5.35 5.308.495.129.9.387.9.575 0 1.481 2.802 1.572 48.321 1.572h44.176l-6.848 6.9-47.148 47.4-41.501 42.11c-.66.887-1.419 1.858-1.686 2.159s-.795 1.331-1.173 2.289-.809 1.832-.96 1.942c-.412.302-1.581 5.272-1.581 6.726 0 .701-.167 1.274-.371 1.274-.216 0-.389 3.608-.413 8.6-.028 5.675.098 8.6.371 8.6.227 0 .413.461.413 1.025 0 1.316 1.191 4.975 1.619 4.975.18 0 .43.325.556.722.327 1.03 3.158 3.883 4.709 4.746.724.403 1.413.861 1.531 1.019s1.304.565 2.635.906c3.926 1.006 145.709.726 147.75-.291 3.917-1.954 7.277-4.947 8.084-7.202.217-.605.544-1.1.727-1.1.838 0 1.238-4.783 1.113-13.296l-.131-8.904-1.205-2.2c-2.111-3.854-5.342-6.55-10.388-8.665-.44-.184-20.482-.425-44.538-.535l-43.738-.2 20.238-20.261L331.6 159.86c0-.12 12.06-12.28 26.8-27.021l26.8-27.201c0-.219.239-.542.531-.718s.877-.947 1.3-1.713.957-1.597 1.188-1.847.672-1.243.983-2.207.699-1.849.864-1.966c1.947-1.384 2.074-26.59.143-28.521-.277-.277-.632-.91-.79-1.406-.374-1.178-4.536-5.307-6.045-5.997-.646-.295-1.714-.835-2.374-1.2-1.647-.91-145.169-1.218-147.2-.317m143.361 8.279c1.945.449 3.815 1.834 5.039 3.733 1.3 2.018 1.203 18.033-.134 22.042-1.689 5.067-.161 3.469-76.88 80.406l-29.394 30.282c-.397 1.582.29 3.19 1.798 4.212l1.328.9 48.841.03c51.126.032 50.098-.003 52.281 1.77 4.241 3.443 4.436 17.817.293 21.681-2.412 2.251 2.164 2.119-73.733 2.119h-69.827l-1.91-.968c-1.156-.586-2.374-1.639-3.086-2.667l-1.177-1.7.001-9.432.001-9.433 1.345-3.121c1.817-4.215-1.19-1.119 88.953-91.583 19.194-19.262 18.777-18.701 16.025-21.574L335.85 93.6h-48.978c-54.137 0-51.055.154-53.902-2.693-2.191-2.191-2.37-3.037-2.37-11.173v-6.466l1.2-1.697c1.533-2.166 2.956-3.213 4.874-3.584 2.443-.472 138.431-.435 140.487.038m-266.279 91.227c-3.183.918-6.968 3.896-7.951 6.257-.342.82-.78 1.591-.975 1.714-1.727 1.088-1.49 16.192.309 19.647 1.773 3.408 5.466 6.73 7.482 6.73.322 0 .661.225.753.5.13.39 5.183.525 23.067.613l22.9.112-11.164 11.288-25.833 26.115c-8.069 8.155-14.67 15.103-14.67 15.438s-.344.921-.765 1.302-1 1.489-1.287 2.462-.645 1.77-.794 1.77c-1.284 0-1.558 19.865-.306 22.2l1.197 2.213c1.092 1.994 4.376 4.854 6.386 5.562 1.084.382 2.091.814 2.237.96.369.369 92.434.335 92.599-.035.073-.165 1.067-.618 2.208-1.007 2.633-.898 5.791-3.978 6.778-6.61.388-1.035.895-2.011 1.126-2.168.647-.439.571-15.598-.079-15.815-.275-.092-.5-.431-.5-.753 0-1.774-4.433-7.347-5.845-7.347-.269 0-.553-.194-.632-.432-.435-1.305-4.677-1.555-26.423-1.562l-21.5-.199c0-.107 6.165-6.413 13.7-14.015l38.122-39.392c.428-.77.892-1.49 1.031-1.6.377-.298 1.547-3.914 1.547-4.781 0-.414.225-.827.5-.919.649-.216.729-18.171.083-18.614-.229-.157-.669-1.07-.978-2.029s-.796-1.832-1.083-1.942-.522-.422-.522-.692c0-.531-3.045-3.423-3.604-3.423-.186 0-.577-.237-.867-.528-1.417-1.414-3.448-1.473-49.606-1.436l-46.641.416m92.222 8.746c2.726 1.662 2.949 2.518 2.815 10.802-.181 11.279 4.742 5.14-41.422 51.652L144 251.103v1.813c0 1.533.19 1.973 1.231 2.848l1.23 1.036h27.677 27.676l1.53 1.04c4.24 2.881 3.85 15.24-.552 17.463-2.181 1.102-89.221.885-90.858-.226-3.519-2.39-3.809-16.084-.462-21.854.613-1.057 9.745-10.565 21.73-22.623 38.245-38.479 38.398-38.639 38.397-40.101-.002-.861-1.077-3.268-1.693-3.788-.058-.05-12.828-.185-28.377-.3-27.763-.207-28.291-.226-29.375-1.036-4.302-3.212-4.218-15.045.123-17.336 2.381-1.256 88.769-1.296 90.827-.041M17.055 232.971c-1.07.29-2.06.686-2.2.879s-.774.619-1.408.946-1.624 1.227-2.2 2-1.244 1.614-1.485 1.871c-2.14 2.279-1.706 18.846.53 20.253.279.176.508.541.508.811 0 .663 1.906 2.29 3.829 3.269.864.44 1.699.98 1.856 1.2.173.243 4.25.45 10.365.526l10.08.126-11.165 11.302c-13.959 14.13-14.063 14.271-15 20.285-.665 4.27-.293 14.928.586 16.761 1.471 3.072 3.746 5.659 5.449 6.2.44.14.8.4.8.579 0 1.051 4.497 1.221 32.277 1.219 27.519-.002 31.723-.158 31.723-1.173 0-.186.405-.448.9-.582 1.671-.452 5.1-4.214 5.1-5.596 0-.319.225-.655.5-.747.633-.211.729-16.166.099-16.615-.22-.157-.67-.825-1-1.485-1.124-2.252-4.575-5.078-7.033-5.761-.889-.247-5.067-.436-9.666-.437-4.455-.001-8.1-.117-8.1-.258 0-.236 3.59-3.945 16.932-17.493 8.201-8.326 9.268-10.862 9.268-22.018 0-5.698-.123-7.608-.5-7.733-.275-.092-.5-.439-.5-.772 0-1.828-3.604-5.83-6.6-7.328-1.692-.846-60.895-1.058-63.945-.229m61.439 8.997l1.306 1.167v6.733 6.732l-1.2 2.068c-.753 1.298-6.712 7.68-16 17.137l-15.072 15.732c-.585 1.425-.32 3.227.637 4.341L49.13 297l14.135.2c18.003.255 17.304-.093 17.068 8.488l-.133 4.801-1.385 1.156-1.385 1.155H49.746 22.061l-1.178-.992c-1.919-1.615-2.178-2.763-2.002-8.885.231-8.012.238-8.025 10.578-18.438 25.954-26.138 23.96-23.641 21.3-26.671l-1.242-1.414H34.939c-18.842 0-18.139.311-18.139-8.026v-4.854l1.36-1.36 1.36-1.36h28.834 28.833l1.307 1.168m105.021 95.561c-.376.149-4.291.255-8.7.236s-8.015.115-8.015.3-1.575.334-3.5.333c-5.121-.004-23.799.816-24.5 1.075-.33.122-2.037.225-3.793.229s-3.465.149-3.8.324-3.757.527-7.607.784-7.173.574-7.384.704-1.165.189-2.121.13-1.953.066-2.216.278-2.684.613-5.379.891-4.9.62-4.9.759-.495.228-1.1.195-1.28.07-1.5.228-1.795.52-3.5.803-3.1.654-3.1.823-.45.259-1 .199-1 .024-1 .188-.779.493-1.731.733c-5.055 1.273-5.205 4.884-.269 6.437.99.311 1.982.7 2.203.863.54.396 5.601 1.559 6.788 1.559.519 0 1.002.164 1.076.365s2.833.67 6.133 1.042 6.36.83 6.8 1.017c.913.389 2.508.553 12 1.239 3.74.27 6.89.609 7 .753s.47.27.8.278c2.507.063 12.877.602 14 .728.77.086 5.405.28 10.3.431s8.9.425 8.9.61.36.337.8.337.8-.202.8-.449c0-.312.152-.323.5-.037 1.139.938 88.823 1.028 89.18.091.066-.173 4.53-.443 9.92-.601l10-.399c.11-.061 2.947-.239 6.305-.394 6.881-.319 7.164-.347 7.55-.733.153-.153 1.013-.277 1.912-.275 3.333.005 17.238-1.32 17.366-1.655.074-.192.704-.347 1.4-.346 1.739.002 10.82-1.316 11.067-1.607.11-.129 1.955-.56 4.1-.957s3.9-.868 3.9-1.045.739-.448 1.642-.6 1.984-.619 2.4-1.035.918-.758 1.115-.758c2.188 0 .155-3.517-2.632-4.554l-2.325-.87c-.44-.167-.964-.265-1.163-.218s-.47-.073-.6-.264-1.767-.635-3.637-.985-3.85-.76-4.4-.913-3.16-.536-5.8-.852-5.07-.718-5.4-.893-1.545-.28-2.7-.232-2.1-.042-2.1-.198c0-.298-10.438-1.232-13.7-1.225-1.045.002-1.9-.18-1.9-.406s-.675-.384-1.5-.353-6.72-.232-13.1-.585-13.685-.644-16.233-.647-4.769-.14-4.934-.305c-.564-.565-67.33-1.119-68.718-.571" fill="#45433b"/><path d="M235.883 68.787c-1.796.701-3.022 1.813-4.169 3.78-.327.56-.475 2.796-.453 6.833l.198 5.385c.092-.339.978-1.059 1.969-1.6l1.803-.985H306.8h71.569l1.796.981c1.527.834 1.819 1.194 1.948 2.4.084.78.183-1.751.22-5.626l.067-7.045-1.22-1.555c-.671-.855-2.066-1.958-3.1-2.45l-1.88-.895-69.2.014-71.117.763m-123.034 99.497c-2.267 1.116-2.846 2.544-2.848 7.016-.001 3.427.393 4.918.899 3.4.267-.801 91.544-.936 93.145-.137l1.155.576v-4.008c0-4.558-.518-5.916-2.643-6.925-2.04-.968-87.736-.894-89.708.078m-93.094 73.308c-1.905.77-2.555 2.274-2.555 5.911 0 3.112.055 3.349.661 2.846.821-.681 58.311-1.046 60.215-.382l1.124.391v-3.16c0-3.936-.48-5.071-2.364-5.595-1.777-.493-55.86-.504-57.081-.011M110.124 263c.002 1.32.077 1.812.166 1.093s.087-1.799-.004-2.4-.164-.013-.162 1.307m-90.363 40.6c0 3.41.061 4.805.136 3.1a85.45 85.45 0 0 0 0-6.2c-.075-1.705-.136-.31-.136 3.1m36.539-5.701c3.795.066 10.005.066 13.8 0s.69-.119-6.9-.119-10.695.054-6.9.119m-29.4 14.388a8.9 8.9 0 0 0 2.2 0c.605-.092.11-.167-1.1-.167s-1.705.075-1.1.167m8.605-.004c.497.096 1.217.092 1.6-.008s-.025-.179-.905-.174-1.193.086-.695.182m13.595-.001c.495.096 1.305.096 1.8 0s.09-.173-.9-.173-1.395.078-.9.173m8.005.001c.497.096 1.217.092 1.6-.008s-.025-.179-.905-.174-1.193.086-.695.182m5.395-.007c.385.1 1.015.1 1.4 0s.07-.183-.7-.183-1.085.082-.7.183m4.8 0c.385.1 1.015.1 1.4 0s.07-.183-.7-.183-1.085.082-.7.183" fill="#04b9f3"/><path d="M378.6 68.654l1.799 1.549 1.398 1.197-.998-1.137c-.55-.625-1.359-1.322-1.799-1.549s-.62-.253-.4-.06m4.289 11.787l-.274 8.4-.185 2.559.389-2.4c.214-1.32.337-5.1.274-8.4l-.115-6-.089 5.841m-152.083 5.992c.003.532.183 1.237.4 1.567.276.422.317.185.136-.8-.317-1.725-.544-2.051-.536-.767M236 92.794c.33.217 1.035.397 1.567.4 1.284.008.958-.219-.767-.536-.985-.181-1.222-.14-.8.136M338.093 97.6c0 .77.082 1.085.183.7s.1-1.015 0-1.4-.183-.07-.183.7m-17.495 19.3L303.8 133.8l16.9-16.798 16.9-16.9c0-.282-1.389 1.09-17.002 16.798m35.201 6L333.8 145l22.1-21.999 21.999-22.201c-.056 0-10.001 9.945-22.1 22.1m-151.4 46.6c.523.715 1.014 1.3 1.09 1.3.304 0-.688-1.5-1.344-2.033-.432-.351-.335-.071.254.733m1.363 8.3c0 3.52.062 4.906.136 3.081a91.63 91.63 0 0 0-.001-6.4c-.075-1.695-.136-.201-.135 3.319m83.036 12.5L275.8 203.4l13.1-12.998 13.1-13.1c0-.282-1.123.823-13.202 12.998m-83.918-3.62c-.592 1.929-.305 2.215.32.32.264-.799.402-1.531.307-1.626s-.377.492-.627 1.306m-33.187 3.72c0 .77.082 1.085.183.7s.1-1.015 0-1.4-.183-.07-.183.7m10.905 21.3L167.4 227l15.3-15.198 15.198-15.402c-.056 0-6.941 6.885-15.3 15.3m55.568-12c-1.768 1.815-3.466 3.66-3.772 4.1-.643.926-.819 1.098 3.794-3.7 1.956-2.035 3.475-3.7 3.376-3.7s-1.629 1.485-3.398 3.3M144 219.8l-11.195 11.4c.11 0 5.328-5.13 11.595-11.4l11.195-11.4c-.11 0-5.328 5.13-11.595 11.4m159.3-9.9h48.6c13.365-.058 2.43-.106-24.3-.106l-24.3.106m75.3.754l1.799 1.549 1.398 1.197-.998-1.137c-.55-.625-1.359-1.322-1.799-1.549s-.62-.253-.4-.06M230.564 221c-.001 3.74.059 5.324.133 3.52a104.14 104.14 0 0 0 .001-6.8c-.073-1.936-.134-.46-.134 3.28m151.999 1.4c0 3.63.06 5.115.135 3.3a98.14 98.14 0 0 0 0-6.6c-.075-1.815-.135-.33-.135 3.3m-228.766 18.5L143.8 251l10.1-9.997c9.385-9.29 10.28-10.203 9.997-10.203-.057 0-4.602 4.545-10.1 10.1m118.103-5.8h69.8c19.195-.057 3.49-.104-34.9-.104l-34.9.104m-252.038 6c-.169.272 20.425.269 46.938-.008 5.61-.058-2.614-.148-18.276-.199s-28.56.042-28.662.207m-2.813 2.715c-.137.358-.215 2.571-.174 4.918L16.95 253l.225-4.8c.245-5.225.242-5.341-.126-4.385m62.708 5.385c0 2.97.063 4.185.14 2.7a63.15 63.15 0 0 0 0-5.4c-.077-1.485-.14-.27-.14 2.7m31.224 5.237c-.352.681-.569 1.308-.482 1.395s.457-.47.823-1.237c.822-1.725.537-1.857-.341-.158m-32.095 2.624c-.247.804-.29 1.299-.096 1.1.392-.4.999-2.561.72-2.561-.096 0-.378.658-.624 1.461m67.057-.158c.166.166 12.532.256 27.48.2L200.6 257l-27.48-.2c-15.114-.11-27.344-.064-27.177.103m59.812 9.697c.001 2.86.065 3.978.142 2.483s.077-3.834-.001-5.2-.141-.143-.141 2.717m-139.761 5.3l-5.394 5.5 5.5-5.394 5.5-5.5c0-.287-.594.285-5.606 5.394m-17.216 17.6L47.4 291l1.5-1.378c.825-.759 1.5-1.434 1.5-1.5 0-.306-.338-.018-1.622 1.378m-1.711 1.967c-.366.365-.338 3.242.033 3.471.165.102.3-.697.3-1.776s-.015-1.962-.033-1.962-.154.12-.3.267m1.636 5.233l.942.9 13.477-.09 13.478-.089-13.659-.211c-11.307-.174-13.789-.313-14.419-.81-.419-.33-.337-.195.181.3m-29.342 6.9c0 3.41.061 4.805.136 3.1a85.45 85.45 0 0 0 0-6.2c-.075-1.705-.136-.31-.136 3.1m60.787 1.2c0 2.31.066 3.255.147 2.1a36.33 36.33 0 0 0 0-4.2c-.081-1.155-.147-.21-.147 2.1" fill="#24748c"/><path d="M272.532 67.9h69.2c18.957-.057 3.328-.104-34.732-.104l-34.468.104m-41.974 12.3c0 3.08.063 4.287.139 2.682s.076-4.124-.001-5.6-.139-.162-.138 2.918m152.335 9c0 .77.082 1.085.183.7s.1-1.015 0-1.4-.183-.07-.183.7m-121.162 4.3h49.2c13.458-.058 2.329-.106-24.731-.106l-24.469.106m75.644 48.2L336.2 143l1.3-1.175c.715-.646 1.3-1.231 1.3-1.3 0-.309-.33-.037-1.425 1.175m-19.177 19.2L301.8 177.4l16.5-16.398 16.5-16.5c0-.282-1.361 1.062-16.602 16.398m-46.202 4.6l-8.196 8.3 8.3-8.196 8.3-8.3c0-.285-.788.484-8.404 8.196m-136.265 2h44.4c12.138-.059 2.089-.107-22.331-.107l-22.069.107m-26.38 8.9c0 2.53.065 3.565.145 2.3s.079-3.335 0-4.6-.145-.23-.145 2.3m18.549 9.9h27.4c7.535-.061 1.37-.111-13.7-.111l-13.7.111m72.689 7.4l-2.789 2.9 2.9-2.789c1.595-1.534 2.9-2.839 2.9-2.9 0-.294-.42.095-3.011 2.789m-32.603 1.8l-2.186 2.3 2.3-2.186c2.137-2.032 2.483-2.414 2.186-2.414-.062 0-1.097 1.035-2.3 2.3m8.211 23l-8.797 8.9 8.9-8.797 8.9-8.9c0-.283-.83.527-9.003 8.797m206.76 3.9c0 2.97.063 4.185.14 2.7a63.15 63.15 0 0 0 0-5.4c-.077-1.485-.14-.27-.14 2.7m-257.561 16.1l-7.196 7.3 7.3-7.196c6.782-6.685 7.481-7.404 7.196-7.404-.057 0-3.342 3.285-7.3 7.3m-106.909 3.4c-.957.935-.973.981-.106.306 1.707-1.33 1.788-1.406 1.505-1.406-.15 0-.78.495-1.399 1.1m8.639 14.4c4.029.065 10.509.065 14.4-.001s.594-.119-7.326-.118-11.103.053-7.074.119m173.307.644c.092.079.707.264 1.367.412.876.196 1.038.159.6-.138-.54-.365-2.368-.62-1.967-.274m-91.075 8.456c0 3.08.063 4.287.139 2.682s.076-4.124-.001-5.6-.139-.162-.138 2.918m-34.958-2c-1.639 1.65-2.89 3-2.78 3s1.541-1.35 3.18-3 2.89-3 2.78-3-1.541 1.35-3.18 3m-29.804 5.9l-6.796 6.9 6.9-6.796 6.9-6.9c0-.285-.691.386-7.004 6.796m10.998 13.4l-5.394 5.5 5.5-5.394c5.109-5.012 5.681-5.606 5.394-5.606-.058 0-2.533 2.475-5.5 5.5m-36.636 21.1c0 3.08.063 4.287.139 2.682s.076-4.124-.001-5.6-.139-.162-.138 2.918m30.842 8.6l-28 .208 27.876.096L77.8 312.4c.136-.22.192-.357.124-.304s-12.724.19-28.124.304" fill="#345c64"/></svg>