<svg xmlns="http://www.w3.org/2000/svg" width="512" height="512" shape-rendering="geometricPrecision" image-rendering="optimizeQuality" fill-rule="evenodd" fill="#fefffe" xmlns:v="https://vecta.io/nano"><path d="M241.5 26.5c41.575-2.4621 73.742 13.5379 96.5 48 17.605 33.169 17.938 66.503 1 100-26.736 40.936-64.236 56.436-112.5 46.5-43.206-13.915-67.372-43.415-72.5-88.5-1.216-41.7486 15.951-73.2486 51.5-94.5 11.534-5.7085 23.534-9.5419 36-11.5zm0 27c43.93-2.3083 71.43 17.6917 82.5 60 3.415 38.676-12.752 65.509-48.5 80.5-37.348 9.447-66.181-2.053-86.5-34.5-16.555-38.619-8.055-70.452 25.5-95.5 8.548-5.0096 17.548-8.5096 27-10.5zm8 18c9.104-1.2312 13.437 2.7688 13 12 11.829.3038 15.996 5.9704 12.5 17-5.017 4.625-10.517 5.125-16.5 1.5-4.005-1.098-7.505-.265-10.5 2.5-.667 1.333-.667 2.667 0 4 6.229 3.867 12.729 7.367 19.5 10.5 13.621 9.988 16.454 22.488 8.5 37.5-3.786 4.56-8.453 7.894-14 10 .548 9.789-3.952 13.956-13.5 12.5-4.09-2.674-6.09-6.507-6-11.5-4.435-1.201-8.768-2.701-13-4.5-5.529-6.407-4.863-12.074 2-17 2.667-.667 5.333-.667 8 0 6.379 3.417 12.546 3.25 18.5-.5 1.293-4.082.126-7.249-3.5-9.5-7.442-2.887-14.442-6.554-21-11-6.592-6.886-8.759-15.052-6.5-24.5 2.83-8.6646 8.663-13.9979 17.5-16-1.127-5.5859.54-9.9192 5-13zm262 203v18c-2.955 10.156-8.622 18.656-17 25.5l-135 106c-11.903 6.412-24.569 10.412-38 12l-169 1c-4.636.879-8.969 2.545-13 5l-63 40c-8.4573 4.384-15.6239 2.884-21.5-4.5l-55.5-73v-9c3.36557-4.877 7.36557-9.377 12-13.5l102-93c35.683-26.305 74.017-30.972 115-14 12.664 7.335 25.997 13.001 40 17 21.333.667 42.667.667 64 0 8.306-7.151 16.973-13.818 26-20 18.375-8.056 35.042-5.556 50 7.5l40-31.5c22.722-10.987 41.888-6.487 57.5 13.5 2.297 4.26 4.13 8.593 5.5 13zm-43-6c14.367 1.549 19.2 9.216 14.5 23L348.5 399c-8.484 4.743-17.484 8.076-27 10l-176 2c-7.107 1.553-13.774 4.22-20 8L71 453.5 31.5 402l99-92c24.68-18.479 51.68-22.812 81-13 11.789 5.394 23.456 11.061 35 17 6.816 2.43 13.816 4.097 21 5l68 1c8.662 3.664 11.162 9.83 7.5 18.5-2.464 3.79-5.964 5.956-10.5 6.5l-158 10c-7.947 4.459-10.113 10.959-6.5 19.5 1.873 2.209 4.04 4.042 6.5 5.5 55.366-2.1 110.7-5.1 166-9 13.833-3.169 23.333-11.336 28.5-24.5l89.5-72.5c2.989-2.657 6.322-4.491 10-5.5zm-91 25c3.352.284 6.352 1.45 9 3.5l-18 15c-.667.667-1.333.667-2 0-1.81-2.644-3.81-5.144-6-7.5 4.949-4.981 10.615-8.648 17-11z"/></svg>