<svg xmlns="http://www.w3.org/2000/svg" viewBox="0 0 512 512" fill="#fefffe" fill-rule="evenodd" xmlns:v="https://vecta.io/nano"><path d="M511.5 274.5v18c-3 10.2-8.6 18.7-17 25.5l-135 106c-11.9 6.4-24.6 10.4-38 12l-169 1c-4.6.9-9 2.5-13 5l-63 40c-8.5 4.4-15.6 2.9-21.5-4.5l-55.5-73v-9c3.4-4.9 7.4-9.4 12-13.5l102-93c35.7-26.3 74-31 115-14 12.7 7.3 26 13 40 17 21.3.7 42.7.7 64 0 8.3-7.2 17-13.8 26-20 18.4-8.1 35-5.6 50 7.5 13.5-10.3 26.8-20.8 40-31.5 22.7-11 41.9-6.5 57.5 13.5 2.3 4.3 4.1 8.6 5.5 13zm-43-6c14.4 1.5 19.2 9.2 14.5 23L348.5 399c-8.5 4.7-17.5 8.1-27 10l-176 2c-7.1 1.6-13.8 4.2-20 8L71 453.5 31.5 402l99-92c24.7-18.5 51.7-22.8 81-13 11.8 5.4 23.5 11.1 35 17 6.8 2.4 13.8 4.1 21 5l68 1c8.7 3.7 11.2 9.8 7.5 18.5-2.5 3.8-6 6-10.5 6.5l-158 10c-7.9 4.5-10.1 11-6.5 19.5 1.9 2.2 4 4 6.5 5.5 55.4-2.1 110.7-5.1 166-9 13.8-3.2 23.3-11.3 28.5-24.5l89.5-72.5c3-2.7 6.3-4.5 10-5.5zm-91 25c3.4.3 6.4 1.5 9 3.5l-18 15c-.7.7-1.3.7-2 0-1.8-2.6-3.8-5.1-6-7.5 4.9-5 10.6-8.6 17-11zM203 91.9c0 36.8 27.9 66.7 62.4 66.7l33.3-12.2 1.9-4.8 2.2 3s2.4-1.6 2.8-1.8c13.6-12.2 22.2-30.6 22.2-51.1s-.8-12.5-2.4-18.2H205.3c-1.6 5.8-2.4 11.9-2.4 18.2v.2zM265.3-.4c-62.4 0-60.2 27.7-74.8 68.9h149.8c-14.8-41-12.5-68.9-74.9-68.9h-.1zm-2.1 190.8c-1.8 1.4-4.7 4.4-9.8 9.8-14.6 15.5-10.6 15.4-7.8 18.5s3.1 8.2 17.8-7.3c8.8-9.1 10.9-11.5 10.3-13.1 1.3 0 2.6-.4 4.1-1.6 4.9-4.1 8.4-17 7.7-25.2l39.1-17.9c7.7-3.5 13.8-10 27.1-16 2.8-1.2 4.7-2.2 6.5-3l15.5-7c.2 0 .2-.6.2-1.3l12.7-5.8c.7-.4-.2-2.8-1-2.5l-12.4 5.5c0-.1 0-.2-.1-.4l13.7-6.1c.7-.4-1.7-6.4-2.4-6.1-.8.4-1.6.7-2.4 1.1l-.8-2-3.2 1.4.8 2-8.5 3.8c-.4-.4-.7-.6-1-.5l-15.4 7-9.4 4.2-42.2 19-1.9-4.1s.4 2.3.5 4.7l-55.7 25.1c-.8.4-1.7.8-2.5 1.4l-9.2.6s3.1.7 6.1 1.7c-9.4 7.2-21.6 21.2-30.1 28.2-13.3 17.3-21.1 9.6-21.1 9.6s-18.8 13.2-31.4 18.8c0 0 9.7 7.2 12.2 10.4 4 5 10.7 19.8 10.7 19.8l83.1-73h.2zm5.8-5.3c1.4 3.4 3.4 6.2 5.8 6.4 0 0-3-4.1-4.4-7.4l10.7-9.5c2 3.5 0 15.1-4.3 18.7-4.6 3.8-8.5-2-11.3-4.6l-.2-.2 3.8-3.4h0zm2.3 12.5c1.9 2 1 3.1-8.8 13.2-12.8 13.4-12.8 8.8-15.2 6s-6.2-2.3 6.5-15.7c6.1-6.4 8.8-9.1 10.3-9.7 1.9 2 4.4 4.9 7.2 6.2h0zm-131.8 40.7l46.1-27.7s10 9.8 26.9-12.1c10.8-8.9 12.2-12.5 24.1-21.7-3.7-1.2-7.7-2.2-7.7-2.2l12-1.6c1.1-.7 2.2-1.3 3.2-1.8l8.2-3.7c-20.4-3.6-38-15.5-50.1-32.3-37.5 20.6-62.7 59-62.7 103m206-91.7c-.2 0-.5.2-.7.4L287.9 173c1.1 10.4-.2 20.5-6.4 25.7-1.8 1.4-3.5 2-5.2 1.9.8 2-2 5-13.1 16.7-12.6 13.3-14.9 7.4-18.4 3.5-3.5-4-5.5-4.7-4-8.4l-25.5 26.3h175.8c0-37.1-17.9-70-45.8-92h0z"/><path d="M48.6 85.8c0 28.3 21.5 51.2 47.9 51.2l25.5-9.4 1.4-3.7 1.7 2.3 2-1.3c10.4-9.4 17-23.4 17-39.1s-.6-9.6-1.8-14h-92c-1.2 4.4-1.8 9.1-1.8 14h.1zM96.4 15c-47.9 0-46.2 21.2-57.5 52.8h114.8C142.4 36.3 144.1 15 96.2 15h.1zm-1.6 146.3c-1.4 1.1-3.6 3.4-7.6 7.6-11.3 11.9-8 11.8-6 14.2 2.2 2.4 2.4 6.2 13.7-5.6 6.7-7 8.4-8.9 7.9-10.1 1 0 2-.2 3.1-1.2 3.7-3.1 6.5-13.1 5.9-19.3l30-13.7c5.9-2.6 10.6-7.6 20.8-12.2l5-2.3 11.9-5.3c.2 0 .2-.5.1-1l9.8-4.4c.6-.2-.2-2.2-.7-1.9l-9.5 4.3v-.4l10.4-4.7c.6-.2-1.3-4.9-1.8-4.7-.6.2-1.2.5-1.8.8l-.6-1.6-2.4 1.1.6 1.6-6.5 2.9c-.2-.4-.5-.5-.7-.4l-11.8 5.3-7.1 3.2-32.4 14.6-1.4-3.1.4 3.6-42.7 19.2c-.6.2-1.3.6-1.9 1.1l-7.1.4s2.4.6 4.7 1.3c-7.2 5.5-16.6 16.3-23.2 21.6-10.2 13.3-16.2 7.3-16.2 7.3s-14.4 10.1-24.1 14.4c0 0 7.4 5.5 9.4 8 3 3.8 8.2 15.2 8.2 15.2l63.8-56h-.2zm4.4-4c1.1 2.5 2.5 4.8 4.4 4.9 0 0-2.4-3.1-3.4-5.8l8.3-7.2c1.6 2.6 0 11.6-3.4 14.4-3.5 2.9-6.5-1.6-8.6-3.5l-.2-.2 2.9-2.5h0zm1.8 9.5c1.6 1.6.7 2.4-6.7 10.2-9.8 10.3-9.8 6.7-11.8 4.7s-4.8-1.8 5-12.1c4.7-4.9 6.7-7 7.9-7.4 1.6 1.6 3.4 3.8 5.5 4.8h0zm-45.1.6c8.3-6.8 9.4-9.6 18.5-16.7-2.9-1-5.9-1.7-5.9-1.7l9.2-1.2c.8-.6 1.7-1 2.5-1.3l6.2-2.9c-15.6-2.8-29.1-11.9-38.4-24.7C19.3 134.8 0 164.3 0 198l35.4-21.4s7.7 7.6 20.6-9.4h-.1zm101.8 2.3c4.9-8.9 11.3-16.8 19.4-21.8-5.3-7.7-11.9-14.5-19.3-20.4-.1 0-.4.1-.5.2l-43.7 20c.8 8-.1 15.7-4.9 19.7-1.3 1.1-2.6 1.6-4 1.4.6 1.6-1.6 3.8-10.1 12.7-9.7 10.2-11.4 5.6-14.2 2.6s-4.2-3.6-3-6.5l-19.6 20.2h84.4c3.1-10.4 10-18.8 15.2-28.3h0zm303.6-98.3h-92.1c-1.2 4.4-1.8 9.1-1.8 14 0 10.2 2.8 19.6 7.6 27.6 3.4-1.8 9.4-5.8 11.8-1.3s2.3 5.2 2 7.6c-.2 1.9-.5 2.5-2.4 2.9-.4.4-2.8 1-3.1 1.2 8.5 8.3 19.8 13.3 32.1 13.3l25.5-9.4 1.4-3.7 1.7 2.3 2-1.3c10.4-9.4 17-23.4 17-39.1s-.6-9.6-1.8-14h0zm-45.9-56.8c-47.9 0-46.2 21.2-57.5 52.8h114.8c-11.3-31.5-9.6-52.8-57.5-52.8h.1zm92.1 91.1L498 110v-.4l10.4-4.7c.6-.2-1.3-4.9-1.8-4.7-.6.2-1.2.5-1.8.8l-.6-1.6-2.4 1.1.6 1.6-6.5 2.9c-.2-.4-.5-.5-.7-.4l-11.8 5.3-7.1 3.2-32.4 14.6-1.4-3.1.4 3.6-42.7 19.2c-.6.2-1.3.6-1.9 1.1l-7.1.4s2.4.6 4.7 1.3c-5.8 4.4-13 12.2-19 18 1.6 2.3 3.1 4.6 4.7 6.7 2.2 3 3.8 6.2 5.2 9.6l27-23.7h0c-1.4 1.1-3.6 3.4-7.6 7.6-11.3 11.9-8 11.8-6 14.2 2.2 2.4 2.4 6.2 13.7-5.6 6.7-7 8.4-8.9 7.9-10.1 1 0 2-.2 3.1-1.2 3.7-3.1 6.5-13.1 5.9-19.3l30-13.7c5.9-2.6 10.6-7.6 20.8-12.2l5-2.3 11.9-5.3c.2 0 .2-.5.1-1l9.8-4.4c.6-.2-.2-2.2-.7-1.9h-.2zm-94.3 70.9c-9.8 10.3-9.8 6.7-11.8 4.7s-4.8-1.8 5-12.1c4.7-4.9 6.7-7 7.9-7.4 1.6 1.6 3.4 3.8 5.5 4.8 1.6 1.6.7 2.4-6.7 10.2h0zm10.8-13.5c-3.5 2.9-6.5-1.6-8.6-3.5l-.2-.2 2.9-2.5c1.1 2.5 2.5 4.8 4.4 4.9 0 0-2.4-3.1-3.4-5.8l8.3-7.2c1.6 2.6 0 11.6-3.4 14.4h0zm-48-34.3l-.4.4c-7.2 6-16 11.5-25.1 13.9 4.2 1.9 8.2 4.8 11.6 7.8 5 4.4 9.2 10 13.2 15.6 7.7-6.4 8.9-9.2 17.8-16.1-2.9-1-5.9-1.7-5.9-1.7l9.2-1.2c.8-.6 1.7-1 2.5-1.3l6.2-2.9c-11-1.9-21.1-7.1-29.3-14.5h0zm11.4 58.1c1.2 3.5 2.2 7.1 3 10.8h121.4c0-28.4-13.7-53.7-35.1-70.5-.1 0-.4.1-.5.2l-43.7 20c.8 8-.1 15.7-4.9 19.7-1.3 1.1-2.6 1.6-4 1.4.6 1.6-1.6 3.8-10.1 12.7-9.7 10.2-11.4 5.6-14.2 2.6s-4.2-3.6-3-6.5l-9.1 9.4h.1z"/></svg>