<svg xmlns="http://www.w3.org/2000/svg" width="682.666687011719" height="682.666687011719" viewBox="0 0 512 512" preserveAspectRatio="xMidYMid meet" xmlns:v="https://vecta.io/nano"><path d="M228.5 44.5c-64 8.4-121.1 45.7-155.1 101.5-27.8 45.6-37.2 102-25.8 155 8.6 40 28.4 76 57.9 105.5 35.1 35.2 78.7 56 128.4 61.5 17.1 1.9 44.2.8 61.5-2.4 42.3-8 80.2-28.2 111.1-59.1C447.2 365.8 469 313.4 469 256s-21.8-109.8-62.5-150.5c-34.8-34.9-78.6-56.1-127-61.5-12.2-1.3-38.7-1.1-51 .5zm57.4 43.6c37.5 6.4 73.8 26.9 98.9 56 50.4 58.3 55.7 142 12.9 206.7-3.3 5-6.3 9.2-6.7 9.2-.3 0-6.8-6.3-14.5-14s-14.4-14-15-14c-1.3 0-29.5 28.2-29.5 29.5 0 .6 6.3 7.3 14 15s14 14.2 14 14.5c0 1.2-19.5 13.4-28.9 18.1-39.9 19.8-88.2 22.9-130.2 8.3-59.5-20.6-102-70.3-113-132-3-16.6-3-42.2-.1-58.5 4.8-26.5 14.5-48.7 32.4-74.4.4-.6 6.8 5 15.2 13.4l14.5 14.5 2.2-2c5.7-4.9 27.9-27.2 27.9-28 0-.5-6.4-7.3-14.2-15.2-8.3-8.3-13.9-14.6-13.3-15 29.7-20.7 55.6-30.8 87.8-34.2 11.3-1.2 32-.2 45.6 2.1zM235 140.5v12.6l-4.5 1.9c-12.8 5.5-25.1 17.3-31.5 30.3-14.3 29.1-6 56.9 23 76.4 2.5 1.7 13.2 7.6 23.8 13.1 19.5 10.2 28.4 15.9 30.2 19.2 2.8 5.2.1 14.8-5.7 20.2-5.8 5.5-7.7 5.8-38.8 5.8H203v21.5V363h16 16v10.5V384h21 21v-12.5-12.6l4.5-1.9c23.2-10 39.8-36.5 38.2-61-1.2-17.9-11.2-33.2-29.9-45.8-2.5-1.8-13.2-7.6-23.7-13.1-19.3-10-28.3-15.8-30.1-19.1-2.8-5.2-.1-14.8 5.7-20.2 5.8-5.5 7.7-5.8 38.8-5.8H309v-21.5V149h-16-16v-10.5V128h-21-21v12.5z"/></svg>