<svg xmlns="http://www.w3.org/2000/svg" viewBox="0 0 18 18" xmlns:v="https://vecta.io/nano"><path fill-rule="evenodd" d="M9 0a9 9 0 1 0 0 18A9 9 0 1 0 9 0m.5 6h-1a.5.5 0 0 1-.5-.5v-1a.5.5 0 0 1 .5-.5h1a.5.5 0 0 1 .5.5v1a.5.5 0 0 1-.5.5m0 8h-1a.5.5 0 0 1-.5-.5v-5a.5.5 0 0 1 .5-.5h1a.5.5 0 0 1 .5.5v5a.5.5 0 0 1-.5.5"/><path d="M8.308 13.943a.47.47 0 0 1-.251-.262c-.034-.082-.039-.403-.039-2.689l.048-2.699c.058-.128.18-.224.332-.262.075-.019.31-.026.669-.021.552.008.554.008.672.077a.61.61 0 0 1 .177.164l.059.095.007 2.628.007 2.628-.059.112a.64.64 0 0 1-.167.188l-.107.076-.623.007c-.565.006-.632.002-.724-.041zm.013-7.998c-.115-.05-.196-.127-.255-.243-.043-.084-.048-.154-.048-.702s.005-.617.048-.702a.49.49 0 0 1 .261-.244c.075-.032.207-.039.681-.039.638.001.718.015.846.154.122.132.134.208.134.83s-.012.698-.134.83c-.128.14-.206.154-.851.153-.474 0-.611-.008-.682-.039z"/><path d="M8.169 17.951a10.95 10.95 0 0 1-1.374-.24c-2.225-.559-4.196-1.999-5.427-3.964a11.98 11.98 0 0 1-.796-1.625c-.895-2.434-.706-5.117.519-7.386.208-.386.62-1.006.906-1.364.45-.564 1.225-1.289 1.849-1.73C5.836.236 8.324-.285 10.776.192a9.05 9.05 0 0 1 5.045 2.964c1.189 1.402 1.89 3.011 2.112 4.849a11.06 11.06 0 0 1 0 1.995c-.298 2.513-1.587 4.738-3.614 6.239-1.294.958-2.91 1.569-4.533 1.714-.34.03-1.272.029-1.616-.003zm1.556-3.996a.45.45 0 0 0 .259-.291c.021-.063.029-.786.029-2.677-.001-2.905.012-2.701-.185-2.874-.142-.124-.233-.138-.886-.129l-.587.008-.122.076c-.08.05-.142.114-.181.187l-.059.111v2.627l.053 2.737a.51.51 0 0 0 .288.255c.044.015.325.027.669.028.574.002.598 0 .722-.058zm.012-8.003a.64.64 0 0 0 .187-.166L10 5.677V5v-.677l-.076-.108a.64.64 0 0 0-.187-.166c-.108-.057-.13-.059-.732-.058-.675.001-.749.014-.879.154-.122.133-.134.206-.134.855s.011.722.134.855c.129.141.204.154.879.154.602.001.624-.001.732-.058z"/><path d="M8.308 13.923c-.117-.062-.167-.113-.218-.223-.044-.096-.046-.232-.046-2.702l.048-2.707c.03-.066.088-.132.155-.177l.107-.071.557-.008c.718-.01.739-.007.905.146l.133.122.013 2.635-.031 2.724c-.051.103-.105.168-.206.246-.071.055-.088.057-.707.056-.529-.001-.647-.008-.71-.041z"/><g fill="#fff"><path d="M8.169 17.951a9.7 9.7 0 0 1-2.094-.456 8.86 8.86 0 0 1-3.425-2.153 8.54 8.54 0 0 1-1.754-2.473c-1.379-2.866-1.129-6.252.657-8.891.341-.504.625-.844 1.097-1.317C4.172 1.137 5.994.276 8.182.05c.332-.034 1.293-.034 1.642 0 2.064.203 3.939 1.064 5.412 2.488a8.97 8.97 0 0 1 2.211 9.526c-.923 2.551-2.991 4.573-5.578 5.454-.595.203-1.434.378-2.083.436-.34.03-1.272.029-1.616-.003zm1.568-4.006c.109-.057.148-.096.206-.206l.071-.136-.007-2.628-.05-2.707a.65.65 0 0 0-.292-.256 7.37 7.37 0 0 0-.688-.019c-.609 0-.62.001-.726.061a.65.65 0 0 0-.177.162l-.07.101-.007 2.651-.007 2.651.053.11c.057.117.163.212.288.255.044.015.327.027.673.028l.597.002zm0-7.993a.64.64 0 0 0 .187-.166L10 5.677V5v-.677l-.076-.108a.64.64 0 0 0-.187-.166c-.108-.057-.13-.059-.732-.058-.675.001-.749.014-.879.154-.123.133-.134.205-.133.861.001.669.014.741.158.874.124.114.216.128.867.129.589.001.612-.001.72-.058z"/><use href="#B" fill-opacity="0"/><use href="#C" fill-opacity="0"/></g><use href="#B" fill="#6b6b6b" fill-opacity=".888"/><use href="#D" fill="#52b620" fill-opacity="0"/><g fill="#4ca61d"><use href="#C" fill-opacity=".189"/><use href="#D" fill-opacity="0"/><use href="#E" fill-opacity="0"/><use href="#E" fill-opacity="0"/></g><defs ><path id="B" d="M8.308 13.923c-.117-.062-.167-.113-.218-.223-.044-.096-.046-.232-.046-2.702l.048-2.707c.03-.066.088-.132.155-.177l.107-.071.557-.008c.718-.01.739-.007.905.146l.133.122.013 2.635-.105 2.848c-.026.033-.083.087-.128.12-.079.058-.088.059-.713.058-.527-.001-.645-.008-.708-.041z"/><path id="C" d="M8.29 5.908c-.051-.027-.125-.091-.164-.142-.067-.088-.071-.109-.083-.429v-.673c.012-.321.016-.341.084-.43.139-.182.197-.195.851-.196l.676.026a.47.47 0 0 1 .284.281 8.62 8.62 0 0 1 0 1.307.47.47 0 0 1-.281.283c-.048.014-.354.024-.68.024-.539-.001-.602-.006-.687-.05z"/><path id="D" d="M8.308 13.9a.35.35 0 0 1-.202-.222c-.035-.093-.039-.398-.032-2.73l.007-2.626.057-.08a.59.59 0 0 1 .142-.133c.079-.049.122-.052.692-.052l.672.025c.036.014.114.07.175.126l.111.102.017 2.443-.005 2.687c-.024.264-.059.335-.221.447-.074.051-.105.054-.707.054-.522 0-.643-.007-.705-.04z"/><path id="E" d="M8.543 5.938c-.24-.017-.316-.054-.416-.201-.07-.102-.098-.468-.076-.994.016-.4.033-.459.164-.584.064-.061.108-.076.286-.097.286-.034 1.114-.006 1.204.041a.54.54 0 0 1 .208.217c.047.09.046 1.274 0 1.364s-.129.175-.203.214-.834.066-1.166.042z"/></defs></svg>