<svg xmlns="http://www.w3.org/2000/svg" viewBox="0 0 100 100">
  <path d="m59.903346 13.687732v6.602231h6.60223v19.806691h-6.60223v6.602231H40.096654v-6.602231h-6.60223V20.289963h6.60223v-6.602231z" fill="white"/>
  <path fill-rule="evenodd" clip-rule="evenodd" d="M33.494424.48327138V7.0855019h-6.602231v6.6022301h-6.60223v33.011153h6.60223v6.60223h6.602231v6.602231h-6.602231v39.613383h6.602231v-6.602231h6.60223v-6.60223h4.951673v-6.602231h6.602231v6.602231h6.60223v6.60223h6.602231v6.602231h6.60223V59.903346h-4.951673v-6.602231h6.602231v-6.60223h6.60223V13.687732h-6.60223V7.0855019H66.505576V.48327138ZM58.252788 86.312268v-6.602231h-6.60223v-6.60223h-6.602231v6.60223h-6.60223v6.602231H33.494424V59.903346H64.855019V86.312268ZM59.903346 7.0855019H40.096654v6.6022301h-6.60223v6.602231h-6.602231v19.806691h6.602231v6.602231h6.60223v6.60223h19.806692v-6.60223h6.60223v-6.602231h6.602231V20.289963h-6.602231v-6.602231h-6.60223z" fill="white"/>
</svg>
