<svg xmlns="http://www.w3.org/2000/svg" width="100" height="100" xmlns:v="https://vecta.io/nano"><style><![CDATA[.B{fill-opacity:.428571}.C{font-family:Helvetica Neue, Helvetica, Arial-Unicode, Arial, Sans-serif}]]></style><defs><clipPath id="A"><path d="M-13.822114944458-9.014423370361h124.098556518555v112.680290222168H-13.822114944458z" fill="#000" class="B"/></clipPath><clipPath id="B"><path d="M-13.822114944458-9.014423370361h124.098556518555v112.680290222168H-13.822114944458z" fill="#000" class="B"/></clipPath><clipPath id="C"><path d="M-13.822114944458-9.014423370361h124.098556518555v112.680290222168H-13.822114944458z" fill="#000" class="B"/></clipPath></defs><g clip-path="url(#C)"><path d="M70.697 39.701c-2.907-12.028-8.596-24.974-14.216-24.974-.278 0-.556.033-.823.097-1.225.296-2.2 1.229-2.916 2.744-.076.06-.159.106-.222.186-3.146 4.022-14.412 17.306-27.265 20.412l-9.82 2.534c-.039.009-.077.021-.115.033-3.009.827-5.549 2.72-7.184 5.362-1.71 2.766-2.23 6.034-1.463 9.205s2.722 5.841 5.506 7.52c2.771 1.672 6.048 2.169 9.225 1.402l2.036-.492h.002.001l2.449-.592 8.126 16.697c1.058 2.172 3.24 3.438 5.509 3.438.897 0 1.808-.197 2.667-.615 3.031-1.477 4.297-5.144 2.821-8.176l-6.57-13.5c11.731-.099 23.711 5.353 26.449 6.681.98.73 1.973 1.135 2.964 1.135.278 0 .556-.033.823-.098 2.594-.627 4.085-4.076 4.312-9.975.204-5.297-.611-12.053-2.296-19.024zM20.792 61.695c-2.505.607-5.088.215-7.271-1.102s-3.72-3.415-4.321-5.905-.195-5.058 1.148-7.228c1.323-2.141 3.406-3.66 5.872-4.281l.866-.21 4.481 18.538zM41.056 80.32c-1.742.848-3.853.12-4.7-1.623l-2.949-6.059 6.409-2.895 2.861 5.878c.849 1.742.121 3.85-1.621 4.699zm-2.378-12.916l-6.409 2.895-3.789-7.786 3.01-.728c1.351-.326 2.733-.541 4.129-.667zm-7.8-8.146l-6.784 1.639-4.481-18.539 6.255-1.515c10.808-2.612 20.417-11.869 25.586-17.701-.046.531-.084 1.079-.107 1.657-.107 2.758.069 5.917.495 9.291.006.048-.006.094.005.143.004.016.016.027.02.043.392 3.051.984 6.273 1.776 9.548.776 3.211 1.752 6.486 2.87 9.564.006.061-.008.119.007.18.043.177.127.328.23.465 1.283 3.438 2.746 6.592 4.308 9.1-6.992-2.773-19.305-6.505-30.18-3.875zm23.744-24.021c1.959.539 4.284 3.213 5.269 7.284.977 4.046.149 7.465-1.333 8.859-.85-2.446-1.662-5.163-2.388-8.168-.659-2.726-1.173-5.407-1.548-7.975zm15.774 23.388c-.189 4.871-1.304 7.301-2.326 7.548-.068.017-.138.024-.212.024-.23 0-.486-.071-.764-.208-.109-.137-.245-.255-.41-.341l-.404-.205c-1.881-1.551-4.42-5.476-6.779-11.51 2.93-1.8 4.207-6.688 2.917-12.024-1.297-5.364-4.683-9.147-8.139-9.372-.3-2.763-.423-5.352-.335-7.639.188-4.871 1.303-7.3 2.325-7.547.068-.017.138-.024.212-.024 2.507 0 8.112 8.185 11.689 22.985 1.631 6.745 2.421 13.248 2.226 18.313zm10.23-19.726c-.574-.012-1.091-.407-1.234-.991-.171-.697.256-1.401.953-1.572l8.494-2.084c.696-.172 1.401.256 1.572.953s-.256 1.401-.953 1.572l-8.494 2.084c-.113.028-.227.041-.338.038zm-6.435-14.206c-.348-.015-.689-.17-.933-.456-.466-.547-.399-1.368.148-1.833l7.659-6.514c.546-.464 1.368-.399 1.832.148s.399 1.368-.148 1.833l-7.659 6.514c-.26.222-.582.322-.899.308zm17.87 32.089c-.171.029-.351.025-.532-.02l-9.416-2.326c-.698-.172-1.122-.877-.95-1.573s.873-1.126 1.573-.95l9.416 2.326c.698.172 1.122.877.95 1.573-.126.517-.547.885-1.041.97z"/></g><text y="115" fill="#000" font-size="5" font-weight="bold" clip-path="url(#B)" x="0" class="C">Created by Jacopo Bonacci</text><text y="120" fill="#000" font-size="5" font-weight="bold" clip-path="url(#A)" x="0" class="C">from the Noun Project</text></svg>