<svg xmlns="http://www.w3.org/2000/svg" viewBox="0 0 48 60" xmlns:v="https://vecta.io/nano"><use href="#B"/><use href="#C"/><use href="#D"/><use href="#E"/><use href="#B" x="-11.5" y="-6"/><use href="#F"/><use href="#D" x="-11.5" y="-6"/><use href="#G"/><use href="#B" x="11.5" y="-6"/><use href="#C" x="11.5" y="-6"/><use href="#H"/><use href="#G" x="23"/><use href="#B" x="4.086" y="22.784"/><use href="#C" x="4.086" y="22.784"/><use href="#D" x="4.086" y="22.784"/><use href="#E" x="4.086" y="22.784"/><use href="#B" x="-7.414" y="16.784"/><use href="#F" x="4.086" y="22.784"/><use href="#D" x="-7.414" y="16.784"/><use href="#G" x="4.086" y="22.784"/><use href="#B" x="15.586" y="16.784"/><use href="#C" x="15.586" y="16.784"/><use href="#H" x="4.086" y="22.784"/><use href="#G" x="27.086" y="22.784"/><g fill="#fff"><path d="M30.757 11.647h3.101c.853.025.155.046-1.55.046s-2.403-.021-1.55-.046zM20.533 33.974c-.147-.147-1.34-2.936-1.636-3.824a17.04 17.04 0 0 1-.798-3.832c-.112-1.186-.004-3.49.207-4.44.039-.177-.018-.42-.462-1.978-.484-1.699-.503-1.784-.435-1.949a.52.52 0 0 1 .175-.227c.071-.038 1.096-.055 3.26-.055h3.157l.135.125c.097.09.135.176.135.307 0 .1-.219.947-.486 1.882-.45 1.575-.482 1.717-.435 1.928.21.936.314 3.057.211 4.281a17.22 17.22 0 0 1-.87 4.141c-.115.333-.497 1.28-.85 2.105-.551 1.289-.661 1.511-.786 1.575-.206.107-.392.093-.524-.04zm.708-2.511c.918-2.188 1.273-3.654 1.402-5.787.064-1.068-.021-2.649-.184-3.43l-.029-.14h-1.597-1.597l-.031.124c-.184.733-.264 3.174-.139 4.261.196 1.709.586 3.172 1.294 4.844.424 1.003.444 1.043.498.987.023-.024.196-.411.384-.86zm1.322-10.642l.114-.382c.021-.054-.329-.066-1.841-.066l-1.867.03a10.85 10.85 0 0 0 .18.671c.016.049.396.064 1.673.064h1.652zm.521-1.826l.107-.408h-2.366l-2.366.03c0 .016.049.2.11.408l.11.378h2.149 2.149z"/><use href="#I"/><path d="M20.515 15.2l-.143-.123V13.87v-1.207l.143-.123c.244-.21.578-.15.723.131.112.217.112 2.182 0 2.399-.145.281-.479.341-.723.131z"/><use href="#J"/><path d="M9.033 27.983c-.197-.166-1.466-3.234-1.788-4.322a16.52 16.52 0 0 1-.481-7.502l.082-.515-.491-1.71-.491-1.84c0-.072.055-.194.123-.273l.123-.143 3.141-.014c3.461-.015 3.366-.023 3.499.298.062.15.032.285-.434 1.917l-.501 1.756.111.749a16.72 16.72 0 0 1-.607 7.583c-.326 1.021-1.479 3.755-1.673 3.964-.154.167-.446.192-.613.051zm.723-2.563c1.287-3.035 1.671-5.758 1.253-8.885l-.06-.446H9.331 7.713l-.096.676c-.148 1.046-.136 3.25.025 4.322.135.9.472 2.283.74 3.034.278.778.919 2.267.96 2.228.02-.019.206-.437.414-.927zm1.307-10.599l.104-.408c0-.043-.499-.058-1.856-.058H7.455l.107.408.107.408h1.645 1.645zm.489-1.728l.107-.382c.023-.084-.111-.089-2.324-.089l-2.35.038a4.62 4.62 0 0 0 .088.382l.088.344h2.154 2.154zm.516-2.825c-.198-.115-.237-.347-.237-1.396 0-1.282.062-1.453.528-1.453.135 0 .209.037.309.157l.132.157V8.88v1.147l-.149.149c-.159.159-.401.197-.582.091zm-2.952-.99c-.076-.041-.162-.119-.191-.173s-.052-.567-.052-1.269V6.664l.157-.132c.213-.179.422-.173.612.017l.149.149v1.155l-.053 1.253c-.056.104-.305.254-.417.25-.036-.001-.129-.036-.205-.077zm-3.12.891l-.132-.157V8.85 7.688l.134-.134a.47.47 0 0 1 .658-.009l.125.125v1.194 1.194l-.134.134c-.197.197-.475.187-.651-.022zm22.998 0l-.132-.157V8.85 7.688l.134-.134a.47.47 0 0 1 .658-.009l.125.125v1.203 1.203l-.125.125c-.189.189-.487.175-.661-.032zm3.12-.891c-.076-.041-.162-.119-.191-.173s-.052-.561-.052-1.252V6.698l.149-.149c.102-.102.2-.149.31-.149s.208.047.31.149l.149.149v1.155l-.053 1.253c-.056.104-.305.254-.417.25-.036-.001-.129-.036-.205-.077zm2.932.97a.56.56 0 0 1-.164-.268c-.068-.246-.068-1.969 0-2.215a.43.43 0 0 1 .463-.346c.147 0 .217.034.32.157l.132.157V8.88v1.147l-.149.149c-.17.17-.419.199-.603.071zm-1.202 1.396c.05-.02.413-.035.806-.033.864.004.768.03-.194.053-.387.009-.662 0-.612-.02zM32.009 27.95c-.109-.119-1.111-2.412-1.422-3.257-.704-1.911-1.025-3.718-1.029-5.8-.002-1.175.037-1.7.203-2.732l.083-.514-.491-1.716-.491-1.841a.51.51 0 0 1 .122-.267l.122-.142 3.19.008 3.288.06c.054.029.128.125.164.213.062.149.031.286-.435 1.918l-.501 1.758.085.544a14.62 14.62 0 0 1 .202 2.686c.002 1.946-.26 3.544-.881 5.38-.318.939-1.433 3.553-1.582 3.707a.46.46 0 0 1-.627-.005zm.629-2.249c.621-1.442.988-2.558 1.217-3.697a16.88 16.88 0 0 0 .15-5.495l-.058-.421H32.33h-1.617l-.035.268c-.256 1.954-.241 3.584.049 5.253.115.665.44 1.909.656 2.511.282.787.918 2.268.958 2.228.019-.019.154-.311.298-.647zm1.424-10.88l.104-.408c0-.043-.498-.058-1.855-.058h-1.855l.108.408.108.408h1.643 1.643zm.51-1.785l.104-.382c0-.018-1.056-.033-2.346-.033l-2.345.064c0 .057.115.469.177.637.018.05.498.064 2.165.064h2.141zm-1.481 19.935l-.149-.149v-1.128c0-1.274.023-1.378.329-1.479.234-.077.429.012.552.254.08.158.089.303.076 1.249-.016 1.144-.035 1.235-.282 1.348a.42.42 0 0 1-.527-.094zm3.192-.878c-.315-.086-.33-.151-.332-1.438l-.001-1.164.149-.149c.197-.197.446-.203.634-.015l.134.134v1.18c0 1.287-.013 1.349-.292 1.444a.58.58 0 0 1-.293.007zm2.833.895l-.157-.132v-1.172l.053-1.27a.55.55 0 0 1 .493-.229c.069.017.182.091.249.165.123.132.123.137.123 1.302v1.169l-.149.149c-.19.19-.399.196-.612.017zm-2.975 17.776c-.139-.11-1.179-2.473-1.569-3.567a18.48 18.48 0 0 1-.871-3.879c-.132-1.199-.074-2.968.14-4.343l.085-.544-.497-1.739c-.532-1.864-.544-1.951-.3-2.144.128-.1.201-.103 3.289-.103h3.159l.149.149c.088.088.149.203.149.281s-.221.904-.49 1.846l-.49 1.714.079.49a13.99 13.99 0 0 1 .207 2.683 15.58 15.58 0 0 1-.82 5.252c-.344 1.058-1.47 3.688-1.654 3.863-.177.168-.386.182-.568.039zm.642-2.415c.702-1.655 1.089-2.965 1.311-4.444.196-1.306.193-3.292-.008-4.641l-.057-.382h-1.602l-1.625.064c-.07.194-.187 1.409-.213 2.205a15.66 15.66 0 0 0 .864 5.686c.265.755.911 2.295.962 2.295.02 0 .185-.352.368-.783zm1.375-10.763l.087-.382c0-.039-.549-.055-1.836-.055l-1.836.055c0 .03.039.203.087.382l.087.327h1.661 1.661zm.501-1.764l.094-.395c.001-.05-.5-.064-2.344-.064l-2.346.067c0 .057.109.474.18.685.017.051.478.061 2.172.051l2.151-.013zm-10.964 3.246c-.238-.136-.257-.239-.259-1.41-.002-.999.007-1.111.098-1.259.133-.218.409-.278.606-.132.253.188.266.261.251 1.454-.013 1.106-.014 1.108-.141 1.235-.157.157-.393.204-.555.112zm-3.047-1.025c-.205-.144-.229-.308-.212-1.472l.016-1.103.139-.139a.42.42 0 0 1 .661.028l.149.167-.015 1.174-.015 1.174-.143.123c-.164.141-.416.162-.578.049zm-2.899 1.046a.7.7 0 0 1-.204-.155c-.096-.106-.102-.185-.102-1.285v-1.172l.173-.154c.146-.13.201-.15.357-.125.108.017.232.084.299.161.112.128.115.164.115 1.254 0 1.22-.024 1.347-.279 1.464-.152.069-.214.072-.358.013zm-5.631-6.101l-.157-.132v-1.172l.053-1.27c.093-.174.337-.266.533-.201.317.105.333.171.333 1.456v1.153l-.149.149c-.19.19-.399.196-.612.017zm-6.025-.017l-.149-.149v-1.123l.058-1.251c.032-.07.14-.166.24-.214.173-.082.191-.082.362.01.282.151.318.33.299 1.524-.017 1.089-.038 1.185-.283 1.297a.42.42 0 0 1-.527-.094zm2.984-.996l-.125-.125v-1.171-1.171l.132-.157c.177-.21.455-.219.651-.022l.134.134v1.194 1.194l-.125.125c-.092.092-.18.125-.334.125s-.242-.033-.334-.125zm.066 18.789c-.091-.071-.312-.529-.745-1.543-.759-1.776-.975-2.374-1.257-3.481-.551-2.165-.657-4.314-.326-6.604l.107-.739-.49-1.708-.49-1.827c0-.066.067-.186.149-.268l.149-.149h3.169 3.169l.149.149c.088.088.149.203.149.281s-.221.904-.491 1.848l-.491 1.716.083.514a14.31 14.31 0 0 1 .204 2.681c.003 1.966-.268 3.623-.887 5.431-.366 1.068-1.421 3.502-1.587 3.659-.177.168-.385.182-.568.039zm.667-2.489c.482-1.137.693-1.731.901-2.532.559-2.148.681-4.226.378-6.441l-.058-.421-1.614.013-1.614.013-.088.586a18.95 18.95 0 0 0-.093 3.391 15.9 15.9 0 0 0 .719 3.629c.229.71 1.006 2.617 1.067 2.617.021 0 .201-.385.4-.857zm1.349-10.706l.088-.382c0-.021-.827-.038-1.836-.038l-1.836.055c0 .03.039.203.087.382l.087.327h1.661 1.661zm.493-1.739l.104-.408c0-.043-.621-.058-2.346-.058l-2.346.067c0 .057.109.473.18.685.017.05.495.064 2.162.064h2.141z"/><use href="#K"/><use href="#K"/><use href="#K"/><path d="M32.177 28.007c-.158-.078-.405-.565-1.016-2-.727-1.709-1.095-2.88-1.325-4.207-.197-1.138-.23-1.582-.226-3.06.003-1.288.018-1.546.131-2.269l.128-.816-.454-1.606c-.533-1.884-.555-2.009-.4-2.205l.111-.14h2.355l3.234.034c.87.033.88.035.964.163.111.169.088.275-.462 2.216l-.428 1.509.128.856c.111.748.128 1.037.132 2.284.009 2.954-.397 4.642-1.98 8.229-.44.997-.585 1.162-.89 1.012zm.809-3.097c.56-1.413.82-2.349 1.034-3.723.1-.644.116-.939.118-2.295.002-1.389-.054-2.369-.157-2.715-.024-.083-.148-.089-1.654-.089H30.7l-.025.115c-.171.789-.233 3.33-.108 4.424.198 1.736.643 3.31 1.456 5.15l.273.555c.072.087.18-.137.69-1.422zm1.095-10.045c.158-.567.355-.511-1.782-.511h-1.867l.033.14.109.408.076.268h1.673 1.673zm.516-1.809c.049-.181.079-.359.066-.395s-.062.072-.109.24l-.108.37c-.017.05-.489.064-2.13.064h-2.108l-.097-.37c-.053-.203-.106-.327-.117-.274-.022.109.084.536.157.631.038.049.54.064 2.203.064h2.153z"/></g><use href="#L"/><use href="#M"/><use href="#N"/><path d="M17.582 16.223c-.165-.125-.193-.334-.193-1.417v-1.071l.149-.149c.159-.159.374-.194.518-.084.197.152.219.287.219 1.362 0 1.283-.049 1.431-.47 1.426a.44.44 0 0 1-.223-.068z"/><g fill="#fff"><path d="M42.921 34.22c-.147-.147-1.34-2.936-1.636-3.824a17.04 17.04 0 0 1-.798-3.832c-.112-1.186-.004-3.49.207-4.44.039-.177-.018-.42-.462-1.978-.484-1.699-.503-1.784-.435-1.949.04-.095.118-.197.175-.227.071-.038 1.096-.055 3.26-.055h3.157l.135.125c.097.09.135.176.135.307 0 .1-.219.947-.486 1.882-.45 1.575-.482 1.717-.435 1.928.21.936.314 3.057.211 4.281a17.22 17.22 0 0 1-.87 4.141c-.115.333-.497 1.28-.85 2.105-.551 1.289-.661 1.511-.786 1.575-.206.107-.392.093-.524-.04zm.708-2.511c.918-2.188 1.273-3.654 1.402-5.787.064-1.068-.021-2.649-.184-3.43l-.029-.14H43.22h-1.597l-.031.124c-.184.733-.264 3.174-.139 4.261.196 1.709.586 3.172 1.294 4.844.424 1.003.444 1.043.498.987.023-.024.196-.411.384-.86zm1.322-10.642l.114-.382c.021-.054-.329-.066-1.841-.066l-1.867.03a10.85 10.85 0 0 0 .18.671c.016.049.396.064 1.673.064h1.652zm.521-1.826l.107-.408h-2.366l-2.366.03c0 .016.049.2.11.408l.11.378h2.149 2.149z"/><use href="#I" x="22.821" y="0.246"/><path d="M43.336 15.446l-.143-.123v-1.207-1.207l.143-.123c.244-.21.578-.15.723.131.112.217.112 2.182 0 2.399-.145.281-.479.341-.723.131z"/><use href="#J" x="22.821" y="0.245"/><path d="M38.506 33.233l-.157-.132V31.93l.053-1.27c.093-.174.337-.266.533-.201.317.105.333.171.333 1.456v1.153l-.149.149c-.19.19-.399.196-.612.017z"/></g><use href="#L" x="22.388" y="0.246"/><use href="#M" x="22.821" y="0.245"/><use href="#N" x="22.82" y="0.245"/><path d="M40.403 16.468c-.165-.125-.193-.334-.193-1.417V13.98l.149-.149c.159-.159.374-.194.518-.084.197.152.219.287.219 1.362 0 1.283-.049 1.431-.47 1.426a.44.44 0 0 1-.223-.068zM20.544 33.762c-.243-.371-1.141-2.51-1.535-3.654-.755-2.197-.996-4.466-.76-7.145l.127-1.443-.469-1.73c-.374-1.382-.443-1.755-.341-1.855.198-.194 6.232-.319 6.455-.134.2.166.176.313-.375 2.365-.4 1.491-.402 1.508-.285 2.386.073.545.098 1.651.067 2.884-.045 1.804-.081 2.121-.367 3.248-.336 1.327-.714 2.371-1.484 4.101-.579 1.302-.729 1.443-1.035.977zm.686-2.065a20.73 20.73 0 0 0 1.267-4.059c.194-1.112.257-3.944.111-4.972l-.084-.586h-1.669c-1.202 0-1.691.035-1.746.124-.042.068-.097 1.028-.121 2.132-.052 2.39.088 3.445.717 5.392.463 1.433.978 2.652 1.12 2.652.052 0 .234-.308.405-.684zm1.342-10.611c.025-.042.077-.226.116-.408l.071-.331h-1.943c-1.507 0-1.934.029-1.903.127a6.91 6.91 0 0 1 .101.408l.061.28h1.726l1.771-.076zm.592-2.064c.048-.234.032-.382-.047-.432-.169-.107-4.373-.095-4.544.013-.101.064-.121.195-.072.459l.069.37 2.26-.027 2.26-.027z"/><path d="M20.55 33.772c-.248-.379-1.23-2.707-1.572-3.726-.726-2.168-.961-4.451-.729-7.083l.127-1.443-.469-1.73c-.374-1.382-.443-1.755-.341-1.855.198-.194 6.232-.319 6.455-.134.202.167.174.342-.375 2.371-.39 1.442-.404 1.539-.299 2.212.165 1.066.137 4.097-.048 5.165-.242 1.396-.685 2.811-1.43 4.565-.832 1.959-.991 2.16-1.32 1.659zm.519-1.715c.33-.639.975-2.479 1.214-3.468.439-1.814.562-4.416.29-6.126l-.061-.382h-1.664c-1.197 0-1.685.035-1.74.124-.042.068-.097 1.028-.121 2.132-.052 2.381.084 3.403.716 5.381.446 1.395.976 2.663 1.112 2.663.047 0 .161-.146.253-.324zm1.502-10.971c.025-.042.077-.226.116-.408l.071-.331h-1.895-1.895v.247c0 .574-.015.569 1.841.569l1.762-.076zm.592-2.064c.048-.234.032-.382-.047-.432-.169-.107-4.373-.095-4.544.013-.101.064-.121.195-.072.459l.069.37 2.26-.027 2.26-.027z"/><g fill="#fff"><path d="M20.547 33.767c-.255-.389-1.218-2.672-1.564-3.705-.732-2.189-.967-4.462-.733-7.1l.128-1.443-.403-1.479c-.56-2.054-.55-2.002-.402-2.125.085-.07 1.243-.12 3.276-.139 2.845-.027 3.155-.014 3.253.14.082.129-.009.605-.377 1.971-.47 1.743-.482 1.824-.377 2.501.165 1.063.136 4.095-.049 5.16-.242 1.396-.685 2.811-1.43 4.565-.833 1.964-.991 2.161-1.323 1.654zm.897-2.642c1.127-2.761 1.549-5.993 1.129-8.662l-.06-.382h-1.668-1.668l-.078.28c-.043.154-.077 1.313-.075 2.575.003 2.061.027 2.394.243 3.264.452 1.825 1.364 4.222 1.58 4.152.062-.02.331-.572.598-1.226zm1.128-10.039c.025-.042.077-.226.116-.408l.071-.331h-1.895-1.895v.247c0 .574-.015.569 1.841.569l1.762-.076zm.571-2.034c.057-.207.078-.402.047-.433-.084-.084-4.6-.069-4.684.015-.039.039-.041.235-.004.433l.068.362h2.234 2.234zM17.6 16.107c-.224-.224-.234-2.303-.012-2.487.46-.382.712.202.646 1.493-.053 1.039-.262 1.366-.634.995zm3.02-.948c-.19-.12-.189-2.458.002-2.578s.25-.109.431.073c.232.232.232 2.201 0 2.433-.182.182-.244.192-.433.072zm2.971.932c-.185-.166-.197-.273-.142-1.292.048-.901.093-1.132.236-1.222.346-.217.469.099.504 1.299.031 1.031.018 1.117-.182 1.252-.189.128-.239.123-.416-.036zm16.786.312c-.037-.037-.068-.609-.068-1.271 0-1.13.013-1.21.221-1.322.183-.098.245-.087.357.067.179.245.19 2.295.013 2.472-.133.133-.415.163-.524.054zm3.016-1.071c-.146-.146-.177-2.193-.037-2.415.048-.075.194-.121.326-.102.301.043.38.315.38 1.309 0 .421-.032.88-.071 1.02-.078.283-.402.385-.599.187zm2.948 1.049l-.151-.116.001-.272.094-1.946c.032-.215.146-.327.333-.327a.43.43 0 0 1 .4.318c.021.073.048.592.061 1.152l.024 1.019-.087.093c-.212.227-.446.254-.675.078zm-1.296 1.533c.035-.009.092-.009.126 0s.006.016-.063.016-.098-.007-.063-.016z"/><use href="#O"/><use href="#O" x="0.973" y="0.036"/></g><defs ><path id="B" d="M23.827 13.37c-.28 0-.5.22-.5.5v2c0 .28.22.5.5.5s.5-.22.5-.5v-2a.5.5 0 0 0-.5-.5z"/><path id="C" d="M17.827 16.37c.28 0 .5-.22.5-.5v-2c0-.28-.22-.5-.5-.5s-.5.22-.5.5v2c0 .28.22.5.5.5z"/><path id="D" d="M21.327 14.87v-2c0-.28-.22-.5-.5-.5s-.5.22-.5.5v2c0 .28.22.5.5.5s.5-.22.5-.5z"/><path id="E" d="M23.827 17.63h-6c-.16 0-.3.07-.4.2-.09.12-.12.29-.08.44l.97 3.39c-.64 3.33-.28 6.73 1.06 9.85l.99 2.31c.08.18.26.3.46.3s.38-.12.46-.3l.99-2.31c1.34-3.12 1.7-6.52 1.06-9.85l.97-3.39a.53.53 0 0 0-.08-.44c-.1-.13-.24-.2-.4-.2zm-2.47 13.48l-.53 1.25-.53-1.24c-1.22-2.85-1.58-5.95-1.05-8.99h3.17a15.89 15.89 0 0 1-1.06 8.98zm1.09-9.98h-3.25l-.21-.75h3.67zm.5-1.76h-4.25l-.21-.75h4.67z"/><path id="F" d="M6.327 10.37c.28 0 .5-.22.5-.5v-2c0-.28-.22-.5-.5-.5a.5.5 0 0 0-.5.5v2c0 .28.22.5.5.5z"/><path id="G" d="M12.327 11.63h-6c-.16 0-.3.07-.4.2-.09.12-.12.29-.08.44l.97 3.39c-.64 3.33-.28 6.73 1.06 9.85l.99 2.31c.08.18.26.3.46.3s.38-.12.46-.3l.99-2.31c1.34-3.12 1.7-6.52 1.06-9.85l.97-3.39a.53.53 0 0 0-.08-.44c-.1-.13-.24-.2-.4-.2zm-2.47 13.48l-.53 1.24-.53-1.24c-1.22-2.85-1.58-5.95-1.05-8.99h3.17c.52 3.05.16 6.15-1.06 8.99zm1.09-9.98h-3.25l-.21-.75h3.67zm.5-1.76h-4.25l-.21-.75h4.67z"/><path id="H" d="M31.827 6.87v2c0 .28.22.5.5.5s.5-.22.5-.5v-2c0-.28-.22-.5-.5-.5a.5.5 0 0 0-.5.5z"/><path id="I" d="M23.504 16.194l-.149-.149v-1.128c0-1.246.024-1.363.301-1.478.196-.081.397-.017.537.171.099.132.105.209.105 1.289v1.148l-.167.149c-.221.198-.43.198-.628 0z"/><path id="J" d="M17.582 16.264c-.219-.119-.253-.336-.235-1.51.016-1.025.02-1.058.136-1.181.233-.248.602-.212.75.073.111.215.107 2.231-.005 2.448-.124.24-.39.31-.646.171z"/><path id="K" d="M24.631 56.743c-.113-.104-.31-.511-.76-1.568l-.838-2.094c-.882-2.544-1.128-5.362-.701-8.043l.096-.601-.48-1.68-.48-1.848c0-.229.118-.381.346-.444.283-.079 5.998-.066 6.232.013a.44.44 0 0 1 .269.245l.09.185-.508 1.781-.463 1.983c.211.949.317 3.202.206 4.414-.183 2.011-.595 3.521-1.621 5.935-.713 1.678-.736 1.724-.904 1.8-.204.093-.317.074-.485-.079zm.701-2.511c.473-1.122.735-1.884.952-2.764.345-1.4.526-3.1.464-4.376-.033-.69-.158-1.936-.211-2.103-.026-.082-.149-.089-1.626-.089h-1.598l-.054.319c-.173 1.014-.227 2.969-.11 4.016.133 1.2.402 2.447.747 3.468a41.9 41.9 0 0 0 .973 2.414c.046.076.102-.03.462-.884zm1.287-10.517l.104-.365c.027-.081.049-.167.049-.191s-.84-.043-1.867-.043h-1.867l.034.14.111.408.077.268h1.652 1.652zm.524-1.845l.118-.408c.028-.072-.206-.08-2.351-.08l-2.35.084c.018.046.069.23.114.408l.081.324h2.15 2.15z"/><path id="L" d="M20.574 33.952c-.136-.136-.699-1.395-1.302-2.914-.564-1.421-.906-2.749-1.091-4.245-.143-1.152-.092-3.452.102-4.602.089-.527.089-.526-.383-2.203-.523-1.857-.528-1.884-.439-2.056.043-.082.112-.163.155-.179s1.484-.045 3.202-.064l3.124-.034.148.157c.133.142.145.182.118.402-.017.134-.161.715-.32 1.29l-.441 1.606-.151.561.081.535.131 1.122c.065.761.064 2.6-.001 3.187-.148 1.323-.482 2.797-.891 3.924-.357.983-1.352 3.284-1.493 3.452s-.41.2-.549.061zm.612-2.293c.622-1.478.962-2.509 1.175-3.558a17.35 17.35 0 0 0 .172-5.567l-.06-.43-1.633.013-1.633.013-.039.146c-.099.372-.165 1.45-.165 2.709 0 1.491.06 2.069.351 3.366.288 1.284 1.291 4.002 1.478 4.002.034 0 .194-.313.355-.696zm1.413-10.854l.092-.37c.001-.05-.406-.064-1.867-.064h-1.868l.033.209c.018.115.066.287.106.383l.073.174 1.669-.013 1.669-.013zm.509-1.785l.092-.395c.001-.021-1.066-.038-2.37-.038l-2.371.089c0 .077.104.466.177.663.019.051.486.061 2.202.051l2.178-.013z"/><path id="M" d="M20.704 15.263c-.309-.114-.307-.103-.307-1.393 0-1.067.009-1.191.09-1.264.249-.225.568-.187.711.084.124.237.124 2.123 0 2.36-.099.189-.312.28-.495.213z"/><path id="N" d="M23.506 16.155l-.163-.137.036-1.125.096-1.251c.135-.289.554-.259.709.05.076.153.089.332.089 1.257v1.079l-.157.132a.42.42 0 0 1-.61-.005z"/><path id="O" d="M42.994 34.181c-.219-.219-1.286-2.718-1.702-3.988a17.43 17.43 0 0 1-.672-2.915c-.168-1.197-.143-3.293.056-4.733.091-.661.089-.673-.365-2.302-.532-1.907-.536-1.926-.402-2.114l.076-.107.551-.023 2.895-.042 2.614-.034.27-.015.139.167c.13.156.138.179.119.339-.025.213-.222.985-.611 2.402l-.3 1.091.063.419c.152 1.002.185 1.514.187 2.843.002 1.354-.015 1.59-.176 2.542-.305 1.798-.677 2.946-1.737 5.355-.396.9-.498 1.084-.64 1.151-.168.08-.26.071-.366-.035zm.431-1.9a19.37 19.37 0 0 0 .433-1.019c.732-1.851 1.037-3.135 1.181-4.973.062-.787.022-2.582-.073-3.302l-.074-.604c0-.035-.286-.045-1.308-.045l-1.659.023-.352.023-.034.13c-.127.479-.206 2.425-.149 3.632.067 1.41.244 2.34.727 3.823.487 1.496.963 2.645 1.097 2.645.026 0 .12-.15.21-.334zm.661-10.904l.835-.024.08-.292.094-.35c.011-.043-.02-.064-.121-.081-.195-.032-3.652-.029-3.651.004a3.68 3.68 0 0 0 .159.631l.057.135h.856l1.691-.024zm.843-1.743h.494l.096-.383.083-.396c-.007-.007-.734-.024-1.615-.037-1.545-.023-3.045.004-3.128.056-.042.026.064.549.139.69.049.092.281.102 2.034.085l1.898-.014z"/></defs></svg>