<svg xmlns="http://www.w3.org/2000/svg" viewBox="0 0 24 30" xmlns:v="https://vecta.io/nano"><path d="M22.835 6.395c.109-.284.165-.586.165-.895 0-1.192-.851-2.21-2.009-2.441-1.122-1.147-2.989-1.373-4.34-.517C15.422.941 13.534 0 11.5 0 9.363 0 7.351 1.073 6.145 2.827 5.609 2.61 5.058 2.5 4.5 2.5 2.019 2.5 0 4.519 0 7c0 .501.092 1.005.273 1.5-.179.305-.273.646-.273 1 0 1.103.897 2 2 2 .354 0 .695-.094 1-.273.657.241 1.31.331 2.001.24v.033C5 12.878 6.122 14 7.5 14h.068c-.405-1.246-.886-2.121-1.205-2.439-.195-.195-.195-.512 0-.707s.512-.195.707 0c.589.588 1.246 1.997 1.673 3.588.005.019.001.037.004.056l.134.495c-.457.029-1.044.142-1.44.498-.289.257-.441.607-.441 1.009 0 .354.128.667.37.905.655.645 1.998.624 3.42.602h1.42l.76.008c1.125 0 2.123-.082 2.66-.61.242-.238.37-.551.37-.905 0-.402-.152-.752-.44-1.01-.396-.356-.983-.469-1.44-.498l.133-.481c.003-.023-.002-.046.004-.07.172-.641.383-1.248.61-1.788.002-.004.003-.009.005-.013l.001.001c.336-.795.709-1.437 1.058-1.787.195-.195.512-.195.707 0s.195.512 0 .707c-.25.25-.6.845-.935 1.689.366.163.792.25 1.298.25.801 0 1.153-.335 1.482-.718.318.144.663.218 1.017.218 1.222 0 2.242-.881 2.458-2.042C23.119 10.742 24 9.722 24 8.5c0-.864-.451-1.654-1.165-2.105zm-3.981 1.459c-.559.558-1.83.724-2.718.357-.275-.114-.504-.271-.683-.466-.75.911-2.204 1.755-3.953 1.755s-3.203-.844-3.952-1.755c-.179.194-.408.352-.683.466-.89.367-2.16.202-2.718-.357-.195-.195-.195-.512 0-.707s.512-.195.707 0 1.021.393 1.628.14C6.835 7.141 7 6.891 7 6.5c0-.276.224-.5.5-.5s.5.224.5.5c0 .514 1.375 2 3.5 2s3.5-1.486 3.5-2c0-.276.224-.5.5-.5s.5.224.5.5c0 .391.165.641.518.787.609.252 1.432.057 1.628-.14s.512-.195.707 0 .196.511.001.707zM17.5 21c-.916 0-2.228.569-2.869.876-.4-.589-.506-1.428-.635-2.439-.032-.25-.244-.437-.496-.437h-4c-.252 0-.475.273-.507.522-.119.938-.225 1.766-.624 2.354C7.728 21.569 6.416 21 5.5 21 3.434 21 3 22.359 3 23.5c0 .276.224.5.5.5h16c.276 0 .5-.224.5-.5 0-1.141-.434-2.5-2.5-2.5z"/><path d="M9.1241213 17.967154c-1.268666-.09348-1.9217536-.481488-2.0840316-1.238163-.114678-.534725.1940546-1.150474.7164433-1.428904.2357254-.125641.6259715-.239342.9274983-.270234l.2163123-.02833c0-.0034-.055111-.221617-.122469-.484945-.4848798-1.895587-1.4173241-3.713217-1.9567987-3.814423-.1795055-.03368-.3705615.03418-.4948649.175752-.1037234.118135-.1254832.200776-.1081265.410651.010895.131738.025917.157678.258754.446835s.6626931 1.138815.8931883 1.759823l.1557464.459767c0 .05697-.4294808.01044-.7176357-.07775-.6973238-.213401-1.2389502-.684792-1.5528286-1.35146-.13178-.279896-.2381268-.698292-.2381268-.936853v-.132191l-.4101897.01463c-.4569065.01629-.9157127-.04468-1.354126-.179944l-.2599117-.08019-.1696344.08118c-.5394141.258151-1.1877155.241141-1.7331538-.045479-.93451023-.491071-1.31194358-1.5904456-.88504532-2.5779281l.07772902-.1797993-.08840946-.3184824C.06214576 7.6941423.03436426 7.489456.03436426 6.9913172c0-.9231017.23229986-1.6968935.73703388-2.4550632.56117006-.8429433 1.37014436-1.4668901 2.30972646-1.781449.4952991-.1658192.8608098-.2242147 1.4034115-.2242147.5361203 0 .8940429.056216 1.3703309.2152254l.2977567.0994066.1947577-.2587725C7.4519206 1.1188615 9.2431595.1555203 11.083106.03954305c1.549668-.09768012 3.008593.33263946 4.277719 1.26174115.284874.2085508.989882.8826248 1.151202 1.1006903.0567.076646.118004.1397218.136227.1401685s.15043-.060212.293792-.134797c.909278-.4730585 2.073055-.4818075 3.041885-.022868.364258.1725506.582353.3142482.809317.5258176.114914.1071194.221785.1666543.395189.220148 1.345049.4149363 2.096179 1.8067679 1.674996 3.1037374-.05215.160602-.05167.1710893.0099.2137426.788847.5462141 1.219456 1.4952855 1.081154 2.3828859-.08974.5759189-.292918.9769007-.707097 1.3954765-.316526.319884-.601719.498432-1.007285.630619l-.28609.09325-.102829.306711c-.136156.406114-.350814.742522-.65846 1.031927-.295378.277864-.543431.432635-.882206.55045-.525558.182771-1.056388.186119-1.592743.01005l-.228388-.074993-.225469.210915c-.383615.358853-.724464.485575-1.306066.485575-.191011 0-.439051-.01641-.551199-.03646-.248806-.04449-.667823-.174399-.667823-.207043 0-.01309.07699-.196581.171086-.407765.210698-.472873.493727-.956254.700903-1.197066.09266-.1077.165641-.23148.179246-.304002.02883-.153693-.03535-.374419-.139021-.478088s-.323915-.167879-.487937-.137443c-.518713.09625-1.441057 1.906153-1.929921 3.787051l-.134802.518646.213004.02182c.503794.05161 1.014964.259741 1.273897.518674.08748.08748.207713.262114.267826.389006.09873.208413.109084.261246.109061.556725-.000021.265003-.01444.357704-.0766.492423-.237094.51389-.718807.798425-1.589902.939113-.265292.04285-.74592.05424-2.560281.06067-1.228522.0044-2.4035953-.0046-2.6112737-.0199zm2.9648617-8.4850313c1.166686-.1285835 2.256009-.6244437 3.066782-1.3959993l.306794-.2919543.139705.1195824c.07684.065771.228027.1666574.335976.2241935.851072.4536169 2.302849.3327282 2.889249-.2405862.136394-.1333506.175947-.2254959.175947-.4098935 0-.2887646-.20242-.489779-.496087-.4926419-.148261-.00145-.205523.019345-.386893.1404687-.275732.1841405-.488819.2363-.955508.2338893-.310755-.0016-.414689-.016192-.584192-.081992-.36004-.1397632-.56701-.4286711-.56701-.7914832 0-.3826642-.402723-.6278323-.744711-.4533629-.175302.089432-.248119.2012337-.287114.4408275s-.154795.4379598-.436869.7369732c-.302144.320288-.604991.5434423-1.039897.7662523-.677959.3473302-1.250515.4835638-2.027492.4824212-.904407-.0013299-1.6803843-.2388945-2.4398623-.7469608-.5375217-.3595849-1.0306863-.9696481-1.0310564-1.2754553-.0002749-.2218457-.1961842-.4240437-.4429374-.4571402-.3117176-.0418103-.5878619.2255134-.5878619.5690838 0 .399355-.3047921.6960547-.8189529.7972096-.4173498.0821086-1.047634-.0264735-1.2777808-.2201295-.4115398-.346288-.9747687-.0393375-.8776573.4783089.0499474.2662433.4530422.5517423.9999948.7082639.3628821.1038464 1.1795086.1139622 1.5276608.0189237.3234409-.0882927.6946722-.273402.8671646-.4324003l.1499285-.1381993.1451062.1684581c.1761811.2045336.6188767.5602086.9683849.7780295.6563.4090206 1.4429362.6694636 2.3539522.7793571.228638.02758.760611.020632 1.075237-.014044zM3.2996541 23.926064c-.065775-.03305-.1563738-.114208-.2013319-.18036-.077354-.113818-.080714-.140566-.062597-.498281.034714-.68541.2319672-1.186236.6240689-1.584508.1784224-.18123.307115-.275978.4982818-.366852.390243-.185508.6130954-.234719 1.1512028-.254212.4038745-.01463.5390185-.0056.8419243.05609.4544894.0926 1.1377805.322121 1.7425763.585332.2574928.112063.4814066.195569.4975859.185569.055608-.03437.2261045-.408727.3160042-.693852.092424-.293133.1967055-.830787.2612216-1.346813.020086-.160653.060343-.357098.08946-.436543.063714-.173844.2459515-.342856.399978-.370951.06183-.01128 1.02479-.01591 2.13991-.01029l2.139905.0782c.154522.09344.235848.286158.2831.670854.06046.49225.194475 1.192257.276311 1.443299.07792.239031.265749.644264.311817.672736.01536.0095.217854-.06652.449981-.168915.56769-.250427 1.099735-.442039 1.556068-.560408.341536-.08859.432714-.09805.945017-.09805.486832 0 .604909.01098.835024.07768.415139.12032.664968.263404.937746.537073.411339.412685.590991.869883.622951 1.585359l.01846.413169-.09724.115559c-.189669.225409.455727.209311-8.38972.209253l-8.1877041-.06014z" fill="#fff"/></svg>