<svg xmlns="http://www.w3.org/2000/svg" viewBox="0 0 122.88 122.88" xmlns:v="https://vecta.io/nano"><path d="M86.71 104.87c-16.58 8.49-33.27 8.72-50.08-.02L54.62 74.2c4.09 2.43 8.89 2.45 14.39.01l17.7 30.66h0zM61.44 0c16.97 0 32.33 6.88 43.44 18 11.12 11.12 18 26.48 18 43.44 0 16.97-6.88 32.33-18 43.44-11.12 11.12-26.48 18-43.44 18S29.11 116 18 104.88C6.88 93.77 0 78.41 0 61.44S6.88 29.11 18 18C29.11 6.88 44.47 0 61.44 0h0zm40.09 21.35C91.27 11.09 77.1 4.74 61.44 4.74s-29.83 6.35-40.09 16.61S4.74 45.78 4.74 61.44s6.35 29.83 16.61 40.09 24.43 16.61 40.09 16.61 29.83-6.35 40.09-16.61 16.61-24.43 16.61-40.09-6.35-29.83-16.61-40.09h0zm-15.08-3.62c15.64 10.11 24.19 24.45 25.02 43.38l-35.55-.25c.06-4.76-2.32-8.92-7.18-12.46l17.71-30.67h0zM61.5 52.41c5.33 0 9.65 4.32 9.65 9.65s-4.32 9.65-9.65 9.65-9.65-4.32-9.65-9.65 4.32-9.65 9.65-9.65h0zm-49.97 8.92c.93-18.6 9.08-33.17 25.06-43.36l17.56 30.91c-4.15 2.33-6.56 6.47-7.2 12.45H11.53h0z" fill-rule="evenodd"/><path d="M11.70643 59.786116c1.139427-16.160682 8.143123-29.293513 20.677605-38.773166 2.197888-1.662233 4.085146-2.898655 4.217934-2.763347.06426.06548 3.641966 6.326396 7.950456 13.913145l8.651657 15.226268.818038 1.43218-.795253.52629c-1.055321.698402-2.583899 2.179565-3.328121 3.224884-1.480563 2.079567-2.376737 4.545088-2.95463 8.12866l-.08512.527835H29.231852 11.604708zm46.988826 62.941134c-22.260332-.93849-42.399391-14.12511-52.3108964-34.25203C2.9646076 81.530857.99383178 74.442259.28441638 66.534599c-.19205572-2.140793-.19205572-8.048407 0-10.189201C1.8185976 39.244297 9.8992478 24.157946 23.268173 13.435354 31.730429 6.6481749 42.377675 2.0796153 53.065016.65001616c5.990142-.80127547 12.798654-.70229495 18.547311.26963635C91.038343 4.2040294 107.77055 16.687064 116.49564 34.404778c4.57072 9.281599 6.5967 18.930787 6.22314 29.639207-.67949 19.478373-11.16366 37.908445-27.733022 48.751735-8.926925 5.84194-19.972559 9.47882-29.993441 9.87562l-2.848538.11677c-.541911.0237-2.093746-.004-3.448523-.0609zm8.793164-4.84428c15.657732-1.66441 29.848125-9.73259 39.38047-22.390426 6.20898-8.244789 10.06209-18.206707 11.10218-28.703817.23089-2.330303.23513-8.336725.008-10.627079-1.69527-17.052281-10.5812-32.1047-24.587457-41.649367-7.899063-5.3828747-16.803364-8.5981181-26.602886-9.6060049-2.172-.2233915-8.514666-.2241348-10.697457-.0012537C38.849211 6.66558 23.798697 15.643717 14.291027 29.840274 8.9994852 37.74144 5.8909646 46.435422 4.9050224 56.09127c-.2223286 2.17738-.2223286 8.520077 0 10.697457.814071 7.972623 3.1638225 15.536575 6.9087136 22.23945 8.421597 15.073573 23.128561 25.489873 40.035971 28.355733 2.08142.3528 3.724181.53572 6.915927.77005 1.388495.10195 6.794335-.066 8.722786-.27099zm28.929447-56.94342l-15.84174-.112989-4.510881-.01996-.16711-1.495427c-.418836-3.748074-2.374975-7.119328-5.732652-9.879787-1.204-.989848-1.300725-1.105601-1.139118-1.363209.09713-.154832 4.028948-6.963904 8.737369-15.131272L86.4165 17.981654c.114367-.131145 2.671012 1.599009 4.687445 3.172127 11.833105 9.231584 18.448885 21.230158 20.018335 36.305857.11865 1.139682.21572 2.422321.21572 2.850309v.778162l-1.79463-.02777-13.125503-.120792zm-39.411683 50.09488c-6.009106-.5597-13.213013-2.67742-18.885561-5.55173l-1.361438-.68985 8.937077-15.22302 8.937077-15.22302 1.151234.529562c1.43384.65956 2.470691.941584 4.158184 1.131028 2.295162.257664 5.385458-.226756 7.90164-1.238623.580619-.233492 1.09979-.382667 1.153717-.3315.0958.0909 16.969067 29.268343 17.374488 30.044153l.205039.39237-1.660231.78387c-6.221845 2.93764-12.231313 4.67721-18.393059 5.32429-2.235759.23479-7.263216.2625-9.518167.0525zm2.825703-39.533351c-3.89306-.821992-6.842534-3.673556-7.669083-7.414502-1.30228-5.894095 3.287355-11.579697 9.347573-11.579697 1.460228 0 2.787111.310759 4.134235.968248 2.415364 1.178864 4.124027 3.140785 4.975326 5.712774.322058.973018.373139 1.365159.375868 2.885499.0028 1.564766-.04013 1.884048-.388055 2.885498-.57625 1.658656-1.132967 2.542035-2.401404 3.810472-1.277859 1.277859-2.170746 1.837568-3.810472 2.388607-1.248439.419544-3.426472.58328-4.563988.343101z" fill="#fff"/></svg>