<svg xmlns="http://www.w3.org/2000/svg" viewBox="0 0 100 100" xmlns:v="https://vecta.io/nano"><path d="M86.946 70.119l-2.417-15.098c-.286-1.419-1.511-2.495-2.982-2.495-.899 0-1.687.385-2.268.997L68.104 63.997c-.176.156-.352.338-.515.56-1.049 1.433-.749 3.465.684 4.527.273.215.573.345.866.462l2.808.931c-2.697 7.641-9.313 13.45-17.417 15.059l.014-45.638h5.992c1.889 0 3.412-1.538 3.412-3.426 0-1.875-1.523-3.413-3.412-3.413h-5.992v-6.78c3.979-1.687 6.721-5.634 6.721-10.206C61.264 9.95 56.314 5 50.192 5c-6.097 0-11.073 4.95-11.073 11.073 0 4.578 2.847 8.52 6.8 10.206l.007 6.78h-6.468c-1.882 0-3.413 1.538-3.413 3.413 0 1.889 1.531 3.426 3.413 3.426h6.468l.021 45.71c-8.292-1.485-15.15-7.354-17.926-15.131l2.827-.931c.299-.117.6-.247.879-.456 1.427-1.067 1.753-3.1.671-4.533-.155-.222-.313-.404-.508-.554L20.706 53.524c-.553-.612-1.361-.997-2.246-.997-1.486 0-2.743 1.075-3.009 2.495L13.027 70.12c-.053.241-.064.508-.064.762 0 1.791 1.446 3.236 3.229 3.236.339 0 .658-.032.959-.137l2.624-.853C23.956 85.816 35.901 95 49.997 95s26.053-9.184 30.221-21.891l2.619.872c.299.105.618.137.963.137 1.785 0 3.237-1.446 3.237-3.236 0-.255-.025-.522-.091-.763M45.659 16.073c0-2.521 2.044-4.553 4.533-4.553 2.527 0 4.552 2.032 4.552 4.553 0 2.514-2.024 4.559-4.552 4.559-2.489 0-4.533-2.046-4.533-4.559"/><path d="M46.821306 94.770829c-9.672125-.972647-18.52814-6.513856-23.771656-14.873922-.868866-1.385288-2.385574-4.487112-2.870545-5.870561l-.343618-.96102c-.0095-.01668-.705224.192731-1.545948.46535s-1.804312.494255-2.141309.492526c-1.598809-.0082-3.122304-1.547171-3.115278-3.146913.000864-.196879.574575-3.918388 1.274912-8.270022 1.419295-8.818969 1.428076-8.850837 2.627499-9.536632.834583-.477189 1.483957-.563323 2.337029-.309989.644845.191499 1.336272.793564 6.866372 5.978939 4.549564 4.26596 6.233135 5.932201 6.471488 6.40487.603214 1.196211.325525 2.693184-.677921 3.654548-.288018.275937-1.002559.607386-2.183926 1.013042-2.007091.68919-1.921853.529349-1.189152 2.229934 2.313522 5.369652 7.064022 9.988932 12.577448 12.230032 1.263767.513697 3.384288 1.159414 4.275471 1.30192l.550027.08795V62.733077 39.805269H42.37799c-3.958889 0-4.236614-.04887-5.126792-.902159-.76147-.729916-1.085823-1.473414-1.081006-2.477941.0071-1.483668.947583-2.699422 2.43431-3.146861.49772-.149791 1.545965-.202707 4.01562-.202707h3.342077v-3.423483-3.423485l-1.109679-.604511c-.793899-.432485-1.482722-.979822-2.420583-1.923389-1.146297-1.15327-1.401076-1.505996-2.029023-2.809061-.858345-1.781165-1.170382-3.086543-1.170382-4.896174 0-6.4184795 5.839733-11.6186738 12.164919-10.8326779 2.656895.3301574 4.668838 1.3296881 6.615711 3.286675 1.070143 1.0757025 1.339007 1.4513238 1.957431 2.7346549.865772 1.796619 1.169155 3.085051 1.169155 4.965255 0 4.023175-2.191435 7.679165-5.755536 9.602011l-.969271.522925-.0024 3.389446-.0024 3.389446 3.472222.04702c3.946037.05344 4.168331.108713 5.177124 1.287261 1.316051 1.53751.926562 3.821223-.837885 4.912821l-.700444.433339-3.555509.04279-3.555508.0428v22.902508l.107388 22.902148c.332248-.0011 2.935079-.780331 4.075018-1.219944 5.752163-2.218302 10.721311-7.144396 13.059805-12.946652.204466-.507318.322918-.966456.263226-1.020307s-.65621-.274921-1.325597-.491268c-1.73484-.560706-2.51001-1.013168-2.998016-1.749923-.680235-1.026966-.727607-2.0483-.14813-3.19361.309132-.610985 12.085183-11.683542 12.854449-12.08653 1.199252-.628243 2.81487-.181005 3.651625 1.010847.392869.559594.481176 1.003292 1.695561 8.519473.875547 5.419011 1.264717 8.190005 1.229335 8.753186-.06941 1.104804-.613524 1.897274-1.670778 2.433394-1.027413.520988-1.635513.502208-3.442467-.106313-.816705-.275039-1.512424-.472563-1.546044-.438944s-.379938.854657-.769596 1.824527c-2.13365 5.310705-5.61865 9.924534-10.123033 13.401993-6.338429 4.893379-14.56767 7.254819-22.501513 6.456977zm4.86827-74.330261c1.140586-.346728 2.230937-1.344337 2.770928-2.535241.21803-.480845.29704-.95557.301498-1.811516.0055-1.049248-.04177-1.253646-.495106-2.142377-1.123467-2.202486-3.642798-3.073429-5.980881-2.067613-.987511.424816-2.068224 1.59611-2.409954 2.611949-1.248434 3.711132 2.053637 7.087771 5.813515 5.944798z" fill="#fff"/></svg>