<svg xmlns="http://www.w3.org/2000/svg" viewBox="0 0 24 24" xmlns:v="https://vecta.io/nano"><path d="M12 0C8.629 2.866 6.516 3 3 3v11.535c0 4.603 3.203 5.804 9 9.465 5.797-3.661 9-4.862 9-9.465V3c-3.516 0-5.629-.134-9-3zm0 2.545c2.5 1.805 4.554 2.292 7 2.416v9.574c0 3.042-1.687 3.826-7 7.107-5.31-3.277-7-4.065-7-7.107V4.961c2.446-.124 4.5-.611 7-2.416zm1.197 3.563c.006.004.012.008.018.012-.002-.005-.011-.01-.018-.012zm3.408 1.006c.005-.016-.013.029-.018.045h.002c.003-.005 0 .007.016-.045zm.32 6.662c.016.007.04.009.064.01-.019 0-.048-.013-.064-.01zm-3.471.273c-.001.008-.001.016-.002.023h.002c0-.007 0-.017 0-.023z"/><use href="#B" fill="#ececec" fill-opacity=".003"/><g fill="#333"><use href="#B" fill-opacity=".003"/><use href="#B" fill-opacity=".003"/></g><use href="#B"/><path d="M12 .029l-.42.336C9.484 2.046 7.835 2.743 5.484 2.941l-2.303.082H3.01l.002 5.918.027 6.262a6.47 6.47 0 0 0 .205 1.223c.445 1.715 1.522 2.952 4 4.592l3.25 2.031 1.32.814.188.109c.008 0 .224-.132.48-.293l1.455-.896c3.356-2.053 4.21-2.65 5.17-3.607 1.176-1.174 1.729-2.358 1.855-3.98.015-.198.025-2.769.025-6.254l.002-5.918h-.172l-2.303-.082c-2.355-.2-4.001-.896-6.096-2.576zm0 2.5l.379.258c1.773 1.208 3.432 1.834 5.463 2.063l1.148.1c.012 0 .017 2.321.012 5.16l-.066 5.465c-.239 1.229-.851 2.063-2.289 3.125-.645.476-1.509 1.033-3.637 2.342l-1.018.619c-.012-.004-1.68-1.034-2.453-1.516-1.735-1.08-2.562-1.672-3.213-2.301-.709-.685-1.076-1.347-1.26-2.266l-.062-.307-.008-5.162.014-5.16c.012 0 .195-.014.406-.029 2.451-.177 4.234-.79 6.205-2.133z" fill="#fff"/><defs ><path id="B" d="M12 .029l-.436.35C9.5 2.039 7.83 2.742 5.484 2.941l-2.303.082H3.01l.008 6.139.008 6.137.063.385c.349 2.163 1.377 3.49 4.115 5.307l2.818 1.766 1.566.965.428.24c.017-.006.265-.156.551-.334l1.729-1.064c2.957-1.813 3.819-2.414 4.738-3.303 1.092-1.057 1.639-2.097 1.879-3.576l.063-.385.008-6.135.008-6.133-.68-.018c-1.866-.045-2.679-.126-3.615-.361-1.446-.363-2.726-1.046-4.252-2.268zm0 2.498l.295.203c1.501 1.034 2.926 1.654 4.502 1.957.657.126.997.168 2.002.248l.213.018-.01 5.16-.008 5.158-.061.313c-.294 1.522-1.139 2.444-3.771 4.119l-1.904 1.186-1.264.771c-.029-.008-2.778-1.715-3.285-2.039-2.513-1.607-3.342-2.524-3.643-4.033l-.062-.316-.008-5.158-.008-5.158.186-.018.42-.031a18.13 18.13 0 0 0 1.416-.178c1.684-.311 3.095-.906 4.611-1.943z"/></defs></svg>