<?xml version="1.0" encoding="UTF-8"?>
<svg width="1200pt" height="1200pt" version="1.1" viewBox="0 0 1200 1200" xmlns="http://www.w3.org/2000/svg">
 <path d="m417.86 237.12v-237.12h-40.664v432.45h78.738v-195.34z"/>
 <path d="m708.33 392.05h302.69v69.617l38.762-0.14453-0.046875-5.3555s-0.5-48.523-0.5-68.785c0-113.14-85.332-204.45-189.74-204.45-104.5 0-190.45 93.094-190.45 206.26 0 20.477-0.5 70.215-0.5 70.238l-0.046875 2.0703h39.809z"/>
 <path d="m735.59 418.45c-0.26172 2.9062-0.66797 5.7852-0.66797 8.7383 0 68.832 55.809 124.57 124.59 124.57 68.785 0 124.55-55.762 124.55-124.57 0-2.9766-0.45312-5.8555-0.64453-8.7383z"/>
 <path d="m1030.2 573.67h-331.57c-96.855 0-169.98 56.047-169.98 154.98v409.93c0 33.191 26.953 60.023 60.094 60.023 33.191 0 60.047-26.883 60.047-60.023l0.046875-367.07h37.738v428.5h355.53v-428.52h37.547l0.19141 367.07c0 33.191 26.953 60.023 60.023 60.023 33.238 0 60.094-26.883 60.094-60.023v-409.95c0.046875-98.926-72.953-154.93-169.76-154.93zm-47.5 207-48.785-25.668-48.762 25.668 9.3086-54.309-39.43-38.43 54.5-7.9297 24.383-49.406 24.355 49.406 54.523 7.9297-39.453 38.43z"/>
 <path d="m489.07 1162-0.90625-396.02-30.668 0.070312-0.71094-311.24-78.523 0.19141 0.71484 293.79s-24.262 41.57-100.19 41.57c-69.332 0-225.52-90.809-225.52-90.809l-53.262 131.71s112.19 55.883 173.67 65.43c23 3.5938 47.617 5.1172 71.191 5.4766-13.883 15.453-22.547 35.668-22.547 58.023 0 28.168 13.617 52.953 34.383 68.953l-133.91 67.977 55.07 97.906 136.24-93.93s13.93-9.8555 26.285-3.332c11.117 5.8828 12.617 20.57 12.617 20.57l0.11719 44.047 46.07-0.30859-0.57031 37.191h53.309l-0.023437-37.262zm-180-159.05c-23.43 0-42.406-19-42.406-42.406s18.977-42.406 42.406-42.406c18.023 0 33.332 11.309 39.477 27.168h-43.57v33.477h42.238c-6.832 14.238-21.262 24.168-38.145 24.168z"/>
</svg>
