<?xml version="1.0" encoding="UTF-8" standalone="no"?>
<svg
   version="1.1"
   x="0px"
   y="0px"
   viewBox="0 0 100 100"
   id="svg10"
   sodipodi:docname="TraitorIcon.svg"
   width="100"
   height="100"
   inkscape:version="1.1.2 (0a00cf5339, 2022-02-04)"
   xmlns:inkscape="http://www.inkscape.org/namespaces/inkscape"
   xmlns:sodipodi="http://sodipodi.sourceforge.net/DTD/sodipodi-0.dtd"
   xmlns="http://www.w3.org/2000/svg"
   xmlns:svg="http://www.w3.org/2000/svg">
  <defs
     id="defs14" />
  <sodipodi:namedview
     id="namedview12"
     pagecolor="#ffffff"
     bordercolor="#666666"
     borderopacity="1.0"
     inkscape:pageshadow="2"
     inkscape:pageopacity="0.0"
     inkscape:pagecheckerboard="0"
     showgrid="false"
     height="100px"
     inkscape:zoom="6.984"
     inkscape:cx="49.971363"
     inkscape:cy="62.142039"
     inkscape:window-width="3072"
     inkscape:window-height="1653"
     inkscape:window-x="0"
     inkscape:window-y="38"
     inkscape:window-maximized="1"
     inkscape:current-layer="svg10" />
  <g
     transform="translate(0,-952.36218)"
     id="g4">
    <path
       style="color:#000000;text-indent:0;text-transform:none;direction:ltr;baseline-shift:baseline;enable-background:accumulate"
       d="m 49.682164,957.35229 c -0.08371,0.007 -0.167129,0.0173 -0.249965,0.0312 l -35.995035,7.00077 C 12.072501,964.6449 10.989932,965.96376 11,967.35339 v 32.00351 c 0.0012,0.13594 0.01165,0.27179 0.03125,0.4063 1.29114,9.0104 3.853487,15.5969 8.498827,22.2837 0.990121,1.4292 3.318267,1.6525 4.561871,0.4375 4.250005,-4.1812 7.885056,-7.78 11.967099,-11.9697 0.44046,-0.4164 0.750052,-0.9694 0.87488,-1.5626 0.628358,-3.8527 1.729676,-9.31167 2.530901,-13.59583 h 15.529108 c 1.243283,0.002 2.441795,-0.85453 2.843357,-2.03147 l 9.998621,-29.00319 c 0.567687,-1.6172 -0.568544,-3.6061 -2.249689,-3.93794 l -14.997932,-3.00033 c -0.298144,-0.0562 -0.604826,-0.0667 -0.906125,-0.0312 z m 23.902953,5.00055 c -1.078435,0.15321 -2.042235,0.94196 -2.405918,1.96897 L 58.899643,998.35679 H 44.995311 c -1.406702,-0.005 -2.733797,1.11295 -2.968341,2.50031 l -1.81225,10.9699 -14.27928,13.3139 c -1.128859,1.0576 -1.217322,3.0338 -0.187474,4.188 6.269465,7.139 13.562725,12.4576 22.778108,17.627 0.892103,0.5009 2.044992,0.5009 2.937095,0 19.535202,-10.9581 34.280717,-24.7622 37.494828,-47.1927 0.06997,-10.76177 0.03124,-21.61653 0.03124,-32.40981 0.0049,-1.40704 -1.112648,-2.73446 -2.499655,-2.96908 l -11.99834,-2.00021 c -0.298144,-0.0562 -0.604826,-0.0667 -0.906125,-0.0312 z m -23.621742,1.06261 11.060975,2.18774 -8.186371,23.75262 H 36.996414 c -1.378861,0.004 -2.67845,1.08304 -2.937095,2.43777 l -2.812112,15.06422 c -2.889686,2.9098 -5.919847,5.9695 -8.686302,8.7197 -2.891489,-4.8594 -4.568269,-9.6725 -5.561733,-16.50187 v -29.25322 z m 25.996415,5.28184 7.03028,1.18763 v 29.19071 c -2.868962,19.61817 -15.058331,31.46397 -32.995449,41.78587 -7.128175,-4.1138 -12.790202,-8.2954 -17.716306,-13.4077 l 12.779487,-11.9076 c 0.479911,-0.4525 0.804009,-1.0673 0.906125,-1.719 l 1.59353,-9.4698 h 13.435647 c 1.225447,-0.01 2.403546,-0.8446 2.812112,-2.0002 z"
       fill="#FFFFFF"
       fill-opacity="1"
       fill-rule="nonzero"
       stroke="none"
       marker="none"
       visibility="visible"
       display="inline"
       overflow="visible"
       id="path2" />
  </g>
  <path
     style="fill:#ff2d2d;fill-opacity:0;stroke-width:0.143184"
     d="M 21.229102,70.741061 C 20.081432,70.373981 19.32618,69.461642 17.270525,65.959129 14.47136,61.189795 12.54351,55.744636 11.459279,49.545428 L 11.096793,47.472871 V 30.96265 c 0,-13.527886 0.03488,-16.593449 0.193078,-16.970972 0.258937,-0.617909 0.895032,-1.354431 1.391463,-1.611145 0.222726,-0.115176 8.704097,-1.825312 18.847492,-3.8003039 l 18.442537,-3.5908935 7.910402,1.5791153 c 4.350721,0.8685133 8.143647,1.6897975 8.428725,1.8250757 0.961973,0.4564861 1.758687,1.9751714 1.568376,2.9896164 -0.047,0.250541 -2.368442,7.075757 -5.158757,15.167146 -3.44537,9.990924 -5.193245,14.868872 -5.447096,15.201688 -0.205587,0.269539 -0.643902,0.634451 -0.974034,0.810914 -0.596667,0.318933 -0.648799,0.32127 -8.759053,0.392435 l -8.158815,0.07159 -0.470445,2.434135 c -0.258746,1.338774 -0.824052,4.367125 -1.256239,6.729668 -0.432185,2.362543 -0.88633,4.5664 -1.009211,4.897461 -0.177968,0.479472 -1.505767,1.882854 -6.526761,6.898286 -3.466837,3.462998 -6.517904,6.398177 -6.78015,6.52262 -0.601484,0.285423 -1.599068,0.395138 -2.109203,0.231972 z m 5.734389,-11.793889 4.338592,-4.340341 1.438261,-7.722946 c 1.617094,-8.683222 1.602011,-8.634211 2.883301,-9.369051 l 0.745198,-0.427381 8.253581,-0.0013 c 6.783328,-0.0011 8.266754,-0.03567 8.327529,-0.194046 0.04067,-0.105988 1.891336,-5.461638 4.11259,-11.901446 2.549671,-7.391954 3.982955,-11.742017 3.8876,-11.798993 -0.08307,-0.04964 -2.590856,-0.568451 -5.572852,-1.15292 l -5.42181,-1.062727 -16.494063,3.206249 -16.494064,3.206248 v 14.900444 c 0,14.430688 0.0093,14.952195 0.295638,16.541989 0.677724,3.763097 1.813851,7.543992 3.102693,10.32539 0.832524,1.796635 2.062365,4.131162 2.176318,4.131162 0.04559,0 2.035263,-1.953154 4.421488,-4.340342 z"
     id="path944" />
  <path
     style="fill:#ff2d2d;fill-opacity:0;stroke-width:0.143184"
     d="M 21.229102,70.741061 C 20.081432,70.373981 19.32618,69.461642 17.270525,65.959129 14.47136,61.189795 12.54351,55.744636 11.459279,49.545428 L 11.096793,47.472871 V 30.96265 c 0,-13.527886 0.03488,-16.593449 0.193078,-16.970972 0.258937,-0.617909 0.895032,-1.354431 1.391463,-1.611145 0.222726,-0.115176 8.704097,-1.825312 18.847492,-3.8003039 l 18.442537,-3.5908935 7.910402,1.5791153 c 4.350721,0.8685133 8.143647,1.6897975 8.428725,1.8250757 0.961973,0.4564861 1.758687,1.9751714 1.568376,2.9896164 -0.047,0.250541 -2.368442,7.075757 -5.158757,15.167146 -3.44537,9.990924 -5.193245,14.868872 -5.447096,15.201688 -0.205587,0.269539 -0.643902,0.634451 -0.974034,0.810914 -0.596667,0.318933 -0.648799,0.32127 -8.759053,0.392435 l -8.158815,0.07159 -0.470445,2.434135 c -0.258746,1.338774 -0.824052,4.367125 -1.256239,6.729668 -0.432185,2.362543 -0.88633,4.5664 -1.009211,4.897461 -0.177968,0.479472 -1.505767,1.882854 -6.526761,6.898286 -3.466837,3.462998 -6.517904,6.398177 -6.78015,6.52262 -0.601484,0.285423 -1.599068,0.395138 -2.109203,0.231972 z m 5.734389,-11.793889 4.338592,-4.340341 1.438261,-7.722946 c 1.617094,-8.683222 1.602011,-8.634211 2.883301,-9.369051 l 0.745198,-0.427381 8.253581,-0.0013 c 6.783328,-0.0011 8.266754,-0.03567 8.327529,-0.194046 0.04067,-0.105988 1.891336,-5.461638 4.11259,-11.901446 2.549671,-7.391954 3.982955,-11.742017 3.8876,-11.798993 -0.08307,-0.04964 -2.590856,-0.568451 -5.572852,-1.15292 l -5.42181,-1.062727 -16.494063,3.206249 -16.494064,3.206248 v 14.900444 c 0,14.430688 0.0093,14.952195 0.295638,16.541989 0.677724,3.763097 1.813851,7.543992 3.102693,10.32539 0.832524,1.796635 2.062365,4.131162 2.176318,4.131162 0.04559,0 2.035263,-1.953154 4.421488,-4.340342 z"
     id="path983" />
  <path
     style="fill:#ff2d2d;fill-opacity:0;stroke-width:0.143184"
     d="M 21.229102,70.741061 C 20.081432,70.373981 19.32618,69.461642 17.270525,65.959129 14.47136,61.189795 12.54351,55.744636 11.459279,49.545428 L 11.096793,47.472871 V 30.96265 c 0,-13.527886 0.03488,-16.593449 0.193078,-16.970972 0.258937,-0.617909 0.895032,-1.354431 1.391463,-1.611145 0.222726,-0.115176 8.704097,-1.825312 18.847492,-3.8003039 l 18.442537,-3.5908935 7.910402,1.5791153 c 4.350721,0.8685133 8.143647,1.6897975 8.428725,1.8250757 0.961973,0.4564861 1.758687,1.9751714 1.568376,2.9896164 -0.047,0.250541 -2.368442,7.075757 -5.158757,15.167146 -3.44537,9.990924 -5.193245,14.868872 -5.447096,15.201688 -0.205587,0.269539 -0.643902,0.634451 -0.974034,0.810914 -0.596667,0.318933 -0.648799,0.32127 -8.759053,0.392435 l -8.158815,0.07159 -0.470445,2.434135 c -0.258746,1.338774 -0.824052,4.367125 -1.256239,6.729668 -0.432185,2.362543 -0.88633,4.5664 -1.009211,4.897461 -0.177968,0.479472 -1.505767,1.882854 -6.526761,6.898286 -3.466837,3.462998 -6.517904,6.398177 -6.78015,6.52262 -0.601484,0.285423 -1.599068,0.395138 -2.109203,0.231972 z m 5.734389,-11.793889 4.338592,-4.340341 1.438261,-7.722946 c 1.617094,-8.683222 1.602011,-8.634211 2.883301,-9.369051 l 0.745198,-0.427381 8.253581,-0.0013 c 6.783328,-0.0011 8.266754,-0.03567 8.327529,-0.194046 0.04067,-0.105988 1.891336,-5.461638 4.11259,-11.901446 2.549671,-7.391954 3.982955,-11.742017 3.8876,-11.798993 -0.08307,-0.04964 -2.590856,-0.568451 -5.572852,-1.15292 l -5.42181,-1.062727 -16.494063,3.206249 -16.494064,3.206248 v 14.900444 c 0,14.430688 0.0093,14.952195 0.295638,16.541989 0.677724,3.763097 1.813851,7.543992 3.102693,10.32539 0.832524,1.796635 2.062365,4.131162 2.176318,4.131162 0.04559,0 2.035263,-1.953154 4.421488,-4.340342 z"
     id="path1022" />
  <path
     style="fill:#ff2d2d;fill-opacity:0;stroke-width:0.143184"
     d="M 21.229102,70.741061 C 20.081432,70.373981 19.32618,69.461642 17.270525,65.959129 14.47136,61.189795 12.54351,55.744636 11.459279,49.545428 L 11.096793,47.472871 V 30.96265 c 0,-13.527886 0.03488,-16.593449 0.193078,-16.970972 0.258937,-0.617909 0.895032,-1.354431 1.391463,-1.611145 0.222726,-0.115176 8.704097,-1.825312 18.847492,-3.8003039 l 18.442537,-3.5908935 7.910402,1.5791153 c 4.350721,0.8685133 8.143647,1.6897975 8.428725,1.8250757 0.961973,0.4564861 1.758687,1.9751714 1.568376,2.9896164 -0.047,0.250541 -2.368442,7.075757 -5.158757,15.167146 -3.44537,9.990924 -5.193245,14.868872 -5.447096,15.201688 -0.205587,0.269539 -0.643902,0.634451 -0.974034,0.810914 -0.596667,0.318933 -0.648799,0.32127 -8.759053,0.392435 l -8.158815,0.07159 -0.470445,2.434135 c -0.258746,1.338774 -0.824052,4.367125 -1.256239,6.729668 -0.432185,2.362543 -0.88633,4.5664 -1.009211,4.897461 -0.177968,0.479472 -1.505767,1.882854 -6.526761,6.898286 -3.466837,3.462998 -6.517904,6.398177 -6.78015,6.52262 -0.601484,0.285423 -1.599068,0.395138 -2.109203,0.231972 z m 5.734389,-11.793889 4.338592,-4.340341 1.438261,-7.722946 c 1.617094,-8.683222 1.602011,-8.634211 2.883301,-9.369051 l 0.745198,-0.427381 8.253581,-0.0013 c 6.783328,-0.0011 8.266754,-0.03567 8.327529,-0.194046 0.04067,-0.105988 1.891336,-5.461638 4.11259,-11.901446 2.549671,-7.391954 3.982955,-11.742017 3.8876,-11.798993 -0.08307,-0.04964 -2.590856,-0.568451 -5.572852,-1.15292 l -5.42181,-1.062727 -16.494063,3.206249 -16.494064,3.206248 v 14.900444 c 0,14.430688 0.0093,14.952195 0.295638,16.541989 0.677724,3.763097 1.813851,7.543992 3.102693,10.32539 0.832524,1.796635 2.062365,4.131162 2.176318,4.131162 0.04559,0 2.035263,-1.953154 4.421488,-4.340342 z"
     id="path1061" />
  <path
     style="fill:#ff2d2d;fill-opacity:0;stroke-width:0.143184"
     d="M 21.229102,70.741061 C 20.081432,70.373981 19.32618,69.461642 17.270525,65.959129 14.47136,61.189795 12.54351,55.744636 11.459279,49.545428 L 11.096793,47.472871 V 30.96265 c 0,-13.527886 0.03488,-16.593449 0.193078,-16.970972 0.258937,-0.617909 0.895032,-1.354431 1.391463,-1.611145 0.222726,-0.115176 8.704097,-1.825312 18.847492,-3.8003039 l 18.442537,-3.5908935 7.910402,1.5791153 c 4.350721,0.8685133 8.143647,1.6897975 8.428725,1.8250757 0.961973,0.4564861 1.758687,1.9751714 1.568376,2.9896164 -0.047,0.250541 -2.368442,7.075757 -5.158757,15.167146 -3.44537,9.990924 -5.193245,14.868872 -5.447096,15.201688 -0.205587,0.269539 -0.643902,0.634451 -0.974034,0.810914 -0.596667,0.318933 -0.648799,0.32127 -8.759053,0.392435 l -8.158815,0.07159 -0.470445,2.434135 c -0.258746,1.338774 -0.824052,4.367125 -1.256239,6.729668 -0.432185,2.362543 -0.88633,4.5664 -1.009211,4.897461 -0.177968,0.479472 -1.505767,1.882854 -6.526761,6.898286 -3.466837,3.462998 -6.517904,6.398177 -6.78015,6.52262 -0.601484,0.285423 -1.599068,0.395138 -2.109203,0.231972 z m 5.734389,-11.793889 4.338592,-4.340341 1.438261,-7.722946 c 1.617094,-8.683222 1.602011,-8.634211 2.883301,-9.369051 l 0.745198,-0.427381 8.253581,-0.0013 c 6.783328,-0.0011 8.266754,-0.03567 8.327529,-0.194046 0.04067,-0.105988 1.891336,-5.461638 4.11259,-11.901446 2.549671,-7.391954 3.982955,-11.742017 3.8876,-11.798993 -0.08307,-0.04964 -2.590856,-0.568451 -5.572852,-1.15292 l -5.42181,-1.062727 -16.494063,3.206249 -16.494064,3.206248 v 14.900444 c 0,14.430688 0.0093,14.952195 0.295638,16.541989 0.677724,3.763097 1.813851,7.543992 3.102693,10.32539 0.832524,1.796635 2.062365,4.131162 2.176318,4.131162 0.04559,0 2.035263,-1.953154 4.421488,-4.340342 z"
     id="path1100" />
  <path
     style="fill:#ff2d2d;fill-opacity:0;stroke-width:0.143184"
     d="M 22.451679,62.831985 C 22.040716,62.318926 20.614744,59.414324 19.904415,57.643392 18.969118,55.311589 18.276544,53.003918 17.644871,50.114548 L 17.190978,48.038373 17.14702,32.753436 c -0.02418,-8.406715 0.006,-15.283838 0.06717,-15.282495 0.06112,0.0013 7.450905,-1.423883 16.421746,-3.16717 l 16.310618,-3.169613 5.310229,1.037928 c 2.920626,0.570861 5.383063,1.077918 5.472081,1.126793 0.108366,0.0595 -1.175715,3.968788 -3.885785,11.829987 l -4.047636,11.741123 -8.356483,0.07159 c -6.695958,0.05736 -8.427615,0.110521 -8.714445,0.267501 -0.60381,0.330461 -1.419391,1.193902 -1.576025,1.66851 -0.08176,0.247726 -0.783479,3.851808 -1.559383,8.00907 l -1.410734,7.55866 -4.287731,4.287731 c -3.320136,3.320136 -4.321858,4.245124 -4.438961,4.098932 z"
     id="path1139" />
  <path
     style="fill:#FFFFFF;fill-opacity:1;stroke-width:0.143184"
     d="m 40.914948,36.977471 c 2.185353,-0.02223 5.761384,-0.02223 7.946736,0 2.185352,0.02223 0.397337,0.04042 -3.973368,0.04042 -4.370704,0 -6.15872,-0.01819 -3.973368,-0.04042 z"
     id="path1178" />
  <path
     style="fill:#ff5a5a;fill-opacity:1;stroke-width:0.143184"
     d="M 21.229102,70.741061 C 20.081432,70.373981 19.32618,69.461642 17.270525,65.959129 14.47136,61.189795 12.54351,55.744636 11.459279,49.545428 L 11.096793,47.472871 V 30.96265 c 0,-13.527886 0.03488,-16.593449 0.193078,-16.970972 0.258937,-0.617909 0.895032,-1.354431 1.391463,-1.611145 0.222726,-0.115176 8.704097,-1.825312 18.847492,-3.8003039 l 18.442537,-3.5908935 7.910402,1.5791153 c 4.350721,0.8685133 8.143647,1.6897975 8.428725,1.8250757 0.961973,0.4564861 1.758687,1.9751714 1.568376,2.9896164 -0.047,0.250541 -2.368442,7.075757 -5.158757,15.167146 -3.44537,9.990924 -5.193245,14.868872 -5.447096,15.201688 -0.205587,0.269539 -0.643902,0.634451 -0.974034,0.810914 -0.596667,0.318933 -0.648799,0.32127 -8.759053,0.392435 l -8.158815,0.07159 -0.470445,2.434135 c -0.258746,1.338774 -0.824052,4.367125 -1.256239,6.729668 -0.432185,2.362543 -0.88633,4.5664 -1.009211,4.897461 -0.177968,0.479472 -1.505767,1.882854 -6.526761,6.898286 -3.466837,3.462998 -6.517904,6.398177 -6.78015,6.52262 -0.601484,0.285423 -1.599068,0.395138 -2.109203,0.231972 z m 5.734389,-11.793889 4.338592,-4.340341 1.438261,-7.722946 c 1.617094,-8.683222 1.602011,-8.634211 2.883301,-9.369051 l 0.745198,-0.427381 8.253581,-0.0013 c 6.783328,-0.0011 8.266754,-0.03567 8.327529,-0.194046 0.04067,-0.105988 1.891336,-5.461638 4.11259,-11.901446 2.549671,-7.391954 3.982955,-11.742017 3.8876,-11.798993 -0.08307,-0.04964 -2.590856,-0.568451 -5.572852,-1.15292 l -5.42181,-1.062727 -16.494063,3.206249 -16.494064,3.206248 v 14.900444 c 0,14.430688 0.0093,14.952195 0.295638,16.541989 0.677724,3.763097 1.813851,7.543992 3.102693,10.32539 0.832524,1.796635 2.062365,4.131162 2.176318,4.131162 0.04559,0 2.035263,-1.953154 4.421488,-4.340342 z"
     id="path9953" />
  <path
     style="fill:#ff5a5a;fill-opacity:1;stroke-width:0.143184"
     d="M 49.327033,94.804719 C 48.714427,94.60513 47.768416,94.086861 45.174685,92.529868 37.917796,88.173624 32.73106,84.14232 27.795635,79.022291 c -1.145161,-1.187994 -2.213316,-2.431436 -2.374239,-2.763859 -0.397355,-0.820826 -0.385516,-1.87334 0.02963,-2.634656 0.211883,-0.388557 2.674852,-2.777493 7.195017,-6.978744 3.780069,-3.513371 7.046744,-6.559837 7.25928,-6.769926 0.367228,-0.363001 0.433179,-0.666405 1.327443,-6.106826 1.040786,-6.331825 1.066013,-6.412508 2.250084,-7.196324 l 0.596675,-0.39498 7.446948,-0.07159 7.446947,-0.07159 6.097509,-16.895762 c 3.353629,-9.292669 6.184278,-17.104473 6.290327,-17.359565 0.271361,-0.652727 1.177566,-1.423686 1.905252,-1.620901 0.55181,-0.149551 1.267997,-0.05876 6.811404,0.863504 3.407116,0.566845 6.423919,1.093902 6.704006,1.171238 0.637026,0.175891 1.521753,0.963097 1.870312,1.664151 0.253992,0.510853 0.264529,1.240952 0.247407,17.14297 -0.01766,16.399934 -0.02182,16.631061 -0.329684,18.327606 -2.58954,14.26993 -9.981308,25.824745 -22.991493,35.940307 -3.466755,2.695441 -7.896512,5.630746 -12.608706,8.354951 -2.064486,1.193517 -2.838015,1.444605 -3.642726,1.182428 z M 52.47709,87.119888 C 59.271254,83.059324 64.365846,79.189404 68.951193,74.605944 76.565106,66.995162 80.844811,58.899716 82.755326,48.494191 l 0.363231,-1.978318 V 32.007709 17.499544 l -0.322165,-0.07398 c -0.957493,-0.219871 -6.829216,-1.157603 -6.884521,-1.099478 -0.03586,0.03769 -2.785127,7.60719 -6.109478,16.821108 -3.324352,9.213917 -6.177636,16.993316 -6.340633,17.287551 -0.353145,0.637482 -1.164147,1.232386 -1.918855,1.407559 -0.300488,0.06975 -3.5908,0.128346 -7.311805,0.130225 -3.721005,0.0019 -6.765464,0.04073 -6.765464,0.08633 0,0.474978 -1.637454,9.59135 -1.804511,10.046442 -0.187845,0.511725 -1.260378,1.573508 -6.797799,6.729668 -3.61612,3.367143 -6.574871,6.194451 -6.575002,6.282908 -3e-4,0.204934 2.512831,2.628316 4.451717,4.292733 1.895466,1.627144 5.431341,4.277542 7.645781,5.731075 2.084726,1.368391 5.558468,3.470987 5.657133,3.424166 0.03938,-0.01869 1.134737,-0.669367 2.434135,-1.44596 z"
     id="path10066" />
</svg>
