<svg xmlns="http://www.w3.org/2000/svg" width="512" height="512" shape-rendering="geometricPrecision" image-rendering="optimizeQuality" fill-rule="evenodd" xmlns:v="https://vecta.io/nano"><path fill="#fefffe" d="M57.5 16.5c22.1232-.3748 30.9565 10.2919 26.5 32-.7804 3.0117-1.9471 5.8451-3.5 8.5 30.936 17.9338 56.436 41.7672 76.5 71.5 25.331-18.832 53.831-28.166 85.5-28v19c-27.006-.275-51.34 7.558-73 23.5 12.268 1.418 24.601 2.418 37 3l49 53.5 49-53.5c12.399-.582 24.732-1.582 37-3-21.66-15.942-45.994-23.775-73-23.5v-19c31.669-.166 60.169 9.168 85.5 28 20.064-29.7328 45.564-53.5662 76.5-71.5-7.571-12.8387-6.571-24.8387 3-36 7.553-4.5553 15.553-5.5553 24-3 20.579 7.4111 32.579 21.9111 36 43.5-2.633 18.7657-13.299 25.9324-32 21.5-3.012-.7804-5.845-1.9471-8.5-3.5-17.934 30.936-41.767 56.436-71.5 76.5 19.386 25.491 29.22 54.324 29.5 86.5-6.076.976-12.242 1.31-18.5 1-.625-28.043-9.125-53.376-25.5-76-1.523 12.57-2.523 25.237-3 38l-57.5 52c61.377 70.136 119.877 142.469 175.5 217 4.572 6.183 8.572 12.516 12 19L409.5 430 255 302.5c-76.722 67.07-156.0557 130.737-238 191 3.4282-6.484 7.4282-12.817 12-19C84.5044 400.043 143.004 327.876 204.5 258c-18.738-17.727-37.904-35.227-57.5-52.5-.477-12.763-1.477-25.43-3-38-16.375 22.624-24.875 47.957-25.5 76-6.258.31-12.424-.024-18.5-1 .28-32.176 10.114-61.009 29.5-86.5-29.7328-20.064-53.5662-45.564-71.5-76.5-11.3276 6.7353-22.4942 6.5686-33.5-.5-6.496-7.8234-8.3294-16.6567-5.5-26.5 6.9173-18.42 19.7506-30.42 38.5-36z"/></svg>