<svg xmlns="http://www.w3.org/2000/svg" viewBox="0 0 100 125" xmlns:v="https://vecta.io/nano"><path d="M32.4 50.6L10 27.4C5 22.4 5 15 10 10s12.4-5 17.4 0l22.4 22.4L72.2 10c5-5 13.3-5 18.2 0 5 5 5 13.3 0 18.2L68 50.6 90.4 73c5 5 5 12.4 0 17.4s-12.4 5-17.4 0L50.6 68 28.2 90.4c-5 5-13.3 5-18.2 0-5-5-5-13.3 0-18.2l22.4-21.6zM1.871 111.352c-.243.008-.467.051-.666.139a1.59 1.59 0 0 0-.551.4c-.15.17-.264.37-.344.6a2.21 2.21 0 0 0-.121.74 2.18 2.18 0 0 0 .121.73c.078.218.189.408.334.572-.213-.473-.144-1.118.381-1.756v-.002a1.22 1.22 0 0 1 .17-.391c.077-.117.175-.209.299-.275.034-.019.079-.022.117-.035l.07-.186.189-.537zm2.127 3.563c-.007.011-.016.021-.023.031v.039l.109.004c-.03-.022-.058-.049-.086-.074z"/><g fill="#fff"><use href="#B" fill-opacity="0"/><use href="#B" fill-opacity="0"/><use href="#B" fill-opacity="0"/><use href="#B" fill-opacity="0"/><use href="#B" fill-opacity="0"/><use href="#B"/><path d="M16.765 93.791c-7.971-1.714-12.394-9.9-9.363-17.332.975-2.39 1.358-2.793 16.974-17.868l8.102-7.968c0-.081-.617-.788-1.372-1.571L10.669 27.778c-2.112-2.222-2.995-3.588-3.728-5.762-.872-2.588-.527-6.08.856-8.664 1.623-3.032 4.25-5.245 7.635-6.43 1.046-.366 1.271-.393 3.297-.389 2.008.003 2.26.033 3.297.393.617.214 1.622.653 2.232.976 1.352.714 1.945 1.278 15.549 14.789l9.999 9.718c.118 0 4.585-4.34 9.928-9.645C74.641 7.961 73.975 8.591 75.547 7.819c2.179-1.069 3.193-1.297 5.752-1.29 2.362.006 3.161.154 4.948.913 3.039 1.291 5.643 3.998 6.878 7.148 1.01 2.578 1.076 5.938.168 8.628-.478 1.416-1.06 2.42-2.197 3.789-.64.771-6.105 6.363-12.144 12.427l-10.98 11.191c0 .091 4.246 4.442 9.436 9.668C91.883 74.87 91.783 74.766 92.548 76.252c.983 1.912 1.256 2.927 1.338 4.977.059 1.466.022 1.956-.225 2.988-.91 3.809-3.514 6.929-7.225 8.662-2.779 1.297-5.39 1.439-8.357.455-1.576-.523-2.565-1.098-3.914-2.276-.667-.583-6.191-6.016-12.274-12.073L50.701 67.924c-.072-.026-4.975 4.766-10.895 10.65L27.593 90.581c-2.451 2.216-4.993 3.251-8.232 3.353-1.105.035-1.997-.014-2.595-.143z"/><path d="M16.765 93.794c-4.971-1.054-8.74-4.664-9.967-9.548-.618-2.461-.35-5.671.668-7.986.987-2.245.936-2.191 15.086-15.888l9.926-9.741c0-.15.308.175-11.582-12.19C7.786 24.807 8.722 25.846 7.673 23.765c-1.32-2.619-1.567-5.524-.717-8.403.877-2.966 3.413-5.99 6.262-7.464 2.353-1.218 2.987-1.375 5.51-1.368 1.992.006 2.266.038 3.266.386 1.748.608 2.973 1.298 4.152 2.337.605.533 6.135 5.961 12.287 12.062l11.378 11.092c.105 0 4.661-4.435 10.124-9.855C74.696 7.908 73.967 8.596 75.547 7.821c1.836-.902 3.104-1.234 5.051-1.326 3.794-.178 6.896.995 9.54 3.606 2.529 2.498 3.788 5.505 3.788 9.049 0 1.763-.277 3.225-.907 4.788-.919 2.278-1.087 2.463-14.346 15.778L67.971 50.62c0 .087 4.246 4.437 9.435 9.667 14.563 14.677 14.38 14.483 15.142 15.965.983 1.912 1.256 2.927 1.338 4.977.059 1.466.022 1.956-.225 2.988-.91 3.809-3.514 6.929-7.225 8.662-2.779 1.297-5.39 1.439-8.357.455-1.517-.503-2.528-1.075-3.764-2.13-.596-.508-6.14-5.959-12.321-12.114l-11.342-11.19c-.057 0-4.943 4.809-10.858 10.686L27.593 90.581c-2.463 2.226-4.981 3.252-8.232 3.353-1.091.034-2.005-.016-2.595-.141z"/></g><defs ><path id="B" d="M17.607 93.991c-3.78-.447-7.107-2.535-9.235-5.795-2.829-4.334-2.652-10.307.428-14.473.342-.463 5.805-5.829 12.138-11.925l11.528-11.164c.007-.044-5.077-5.347-11.296-11.785L9.094 26.235c-.94-1.118-2.059-3.339-2.432-4.827-.571-2.271-.29-5.281.696-7.454.871-1.921 2.627-4.04 4.427-5.343.952-.689 3.013-1.651 4.209-1.964 1.458-.381 4.132-.353 5.582.059 1.397.397 2.64.963 3.767 1.713.592.394 4.843 4.538 12.608 12.292l11.853 11.697c.075 0 5.41-5.263 11.854-11.695L74.038 8.571c5.03-3.373 11.655-2.862 15.998 1.235 3.859 3.64 5.08 9.351 3.044 14.241-.966 2.319-1.111 2.48-13.454 14.857L67.978 50.589c-.035.037 5.242 5.383 11.726 11.881L91.99 75.056c2.172 3.38 2.644 7.055 1.359 10.584-1.948 5.349-7.576 9.005-12.857 8.352-1.61-.199-3.483-.832-4.875-1.647-1.008-.591-2.333-1.864-13.056-12.555L50.628 67.891 39.063 79.438 26.563 91.652c-1.774 1.266-3.851 2.056-6.147 2.338-1.301.16-1.469.16-2.81.001z"/></defs></svg>