<?xml version="1.0" encoding="UTF-8"?>
<svg id="_レイヤー_1" xmlns="http://www.w3.org/2000/svg" version="1.1" viewBox="0 0 72 72">
  <!-- Generator: Adobe Illustrator 29.4.0, SVG Export Plug-In . SVG Version: 2.1.0 Build 152)  -->
  <defs>
    <style>
      .st0 {
        fill: #e60012;
        fill-rule: evenodd;
      }
    </style>
  </defs>
  <path class="st0" d="M35.9,29.8h.3c.5.1.6.4.5.9,0,.2-.2.3-.3.4h0c.2.7.3,1.5.5,2.2,0,.3.2.6.5.8.2,0,.5,0,.7,0,.3-.2.5-.5.6-.8-.3-.4-.3-.7,0-1.1.4-.2.7-.2,1,0,.2.5,0,.8-.3,1.1h-.4c0,.3,0,.5,0,.8v.8c0,.2.2.3.5.3s.5,0,.8-.3.5-.4.8-.7c-.2-.3-.2-.6,0-.8.3-.3.6-.3.9,0,0,0,.2.2.3.4v.4c-.2.4-.5.6-.9.5-.4,1.1-.8,2.2-1.2,3.4h-7.9c-.4-1.1-.8-2.3-1.1-3.4-.4,0-.7,0-.9-.4v-.4c.2-.4.5-.6,1-.4.4.3.5.6.3,1,.4.3.8.6,1.2.8h.7c0,0,.2-.2.2-.4,0-.5,0-.9,0-1.4-.5,0-.8-.2-.8-.7s.4-.8,1-.6c.4.2.5.6.3,1,0,0,0,.2-.2.2.2.2.3.5.5.7s.3.2.5.3c0,0,.2,0,.3,0,.2-.2.3-.5.4-.8.2-.7.4-1.5.5-2.2,0,0-.3-.2-.4-.3-.2-.5,0-.9.4-1.1h0Z"/>
  <path class="st0" d="M40,40.4h-8v-1.4h8v1.4Z"/>
</svg>