<?xml version="1.0" encoding="UTF-8"?>
<svg id="_レイヤー_1" xmlns="http://www.w3.org/2000/svg" version="1.1" viewBox="0 0 72 72">
  <!-- Generator: Adobe Illustrator 29.4.0, SVG Export Plug-In . SVG Version: 2.1.0 Build 152)  -->
  <defs>
    <style>
      .st0 {
        fill: #e60012;
      }
    </style>
  </defs>
  <path id="path3032" class="st0" d="M36,24.4l-.4.3c-2.1,1.7-3.7,2.4-6.1,2.6-.3,0-1.8,0-2.3,0h-.2v5.9c0,3.6,0,6.1,0,6.3,0,.4,0,.8.2,1.2.4,1.7,1.5,3,4,4.6.7.4.9.6,3.3,2,.6.4,1.2.8,1.3.8,0,0,.2.1.2.1,0,0,.2-.1.5-.3.3-.2.9-.6,1.5-.9,3.4-2.1,4.2-2.6,5.2-3.6,1.2-1.2,1.7-2.4,1.9-4,0-.2,0-2.8,0-6.3v-5.9s-.2,0-.2,0c-.5,0-2,0-2.3,0-2.4-.2-4-.9-6.1-2.6l-.4-.3ZM36,26.9l.4.3c1.8,1.2,3.4,1.8,5.5,2.1.3,0,1,0,1.1,0,0,0,0,2.3,0,5.2,0,5.1,0,5.2,0,5.5-.2,1.2-.9,2.1-2.3,3.1-.6.5-1.5,1-3.6,2.3-.6.3-1,.6-1,.6,0,0-1.7-1-2.5-1.5-1.7-1.1-2.6-1.7-3.2-2.3-.7-.7-1.1-1.3-1.3-2.3v-.3c0,0,0-5.2,0-5.2,0-2.8,0-5.2,0-5.2,0,0,.2,0,.4,0,2.5-.2,4.2-.8,6.2-2.1l.4-.3Z"/>
</svg>