<?xml version="1.0" encoding="UTF-8"?>
<svg id="_レイヤー_1" xmlns="http://www.w3.org/2000/svg" version="1.1" viewBox="0 0 72 72">
  <!-- Generator: Adobe Illustrator 29.4.0, SVG Export Plug-In . SVG Version: 2.1.0 Build 152)  -->
  <defs>
    <style>
      .st0 {
        fill: #e60012;
      }
    </style>
  </defs>
  <path class="st0" d="M47.5,35.9c-.3-3.2-1.5-4.4-6.4-9.4-.3-.8-.9-1.5-1.6-1.9-2.4-1.4-5.9.4-8,3.9-1.7,3-1.8,6.2-.4,8l-6.6,9.3.7,2.1,7.4-10.4c.8.3,1.8.3,2.8,0,2.2.1,5.4-.5,6.4.3.5.4,1.8.9,1.9,1.7.4,1.6.3,3.7,1.2,3.6,1.9-.3,2.8-5.2,2.6-7.3Z"/>
</svg>