<?xml version="1.0" encoding="UTF-8"?>
<svg id="_レイヤー_1" xmlns="http://www.w3.org/2000/svg" version="1.1" viewBox="0 0 72 72">
  <!-- Generator: Adobe Illustrator 29.4.0, SVG Export Plug-In . SVG Version: 2.1.0 Build 152)  -->
  <defs>
    <style>
      .st0 {
        fill: #e60012;
      }
    </style>
  </defs>
  <path class="st0" d="M36.3,28c-2.6,2.1-3.5,1.9-3,3.6.8,3,2.6,8.5,2.6,8.5,0,0,2.1-5.4,3-8.4.6-1.7-.3-1.5-2.7-3.8Z"/>
  <path class="st0" d="M43.7,33.8c-2.8-1.9-2.9-2.7-4.3-1.7-2.6,1.7-7.3,5.1-7.3,5.1,0,0,5.8.3,8.9.3,1.8,0,1.4-.7,2.8-3.7Z"/>
  <path class="st0" d="M40.5,42.6c.9-3.2,1.7-3.6.3-4.7-2.5-2-7.1-5.3-7.1-5.3,0,0,1.5,5.6,2.5,8.5.5,1.7,1.1,1.1,4.4,1.5Z"/>
  <path class="st0" d="M31.1,42.3c3.3-.1,3.9.5,4.5-1.2,1.1-2.9,2.9-8.4,2.9-8.4,0,0-4.8,3.1-7.4,5-1.4,1-.7,1.4,0,4.6Z"/>
  <path class="st0" d="M28.5,33.3c1.2,3.1.7,3.9,2.5,4,3.1.1,8.9.1,8.9.1,0,0-4.5-3.6-7-5.5-1.4-1.1-1.5-.2-4.4,1.4Z"/>
</svg>