<?xml version="1.0" encoding="UTF-8"?>
<svg id="_レイヤー_1" xmlns="http://www.w3.org/2000/svg" version="1.1" viewBox="0 0 72 72">
  <!-- Generator: Adobe Illustrator 29.4.0, SVG Export Plug-In . SVG Version: 2.1.0 Build 152)  -->
  <defs>
    <style>
      .st0 {
        fill: #e60012;
      }
    </style>
  </defs>
  <g id="s">
    <g id="c">
      <path id="t" class="st0" d="M36,21.6l-.6,2,1,.3-.3-2.3Z"/>
      <path id="t1" data-name="t" class="st0" d="M36,21.6l.6,2-1,.3.3-2.3Z"/>
    </g>
    <g id="a">
      <g id="c1" data-name="c">
        <path id="t2" data-name="t" class="st0" d="M38,23h-2.1s0,1,0,1l2.1-1Z"/>
        <path id="t3" data-name="t" class="st0" d="M38,23l-1.7,1.2-.6-.8,2.3-.4Z"/>
      </g>
      <g id="c2" data-name="c">
        <path id="t4" data-name="t" class="st0" d="M37.2,25.4l-.6-2-1,.3,1.6,1.7Z"/>
        <path id="t5" data-name="t" class="st0" d="M37.2,25.4l-1.7-1.2.6-.8,1.1,2.1Z"/>
      </g>
    </g>
    <g id="a1" data-name="a">
      <g id="c3" data-name="c">
        <path id="t6" data-name="t" class="st0" d="M34,23h2.1s0,1,0,1l-2.1-1Z"/>
        <path id="t7" data-name="t" class="st0" d="M34,23l1.7,1.2.6-.8-2.3-.4Z"/>
      </g>
      <g id="c4" data-name="c">
        <path id="t8" data-name="t" class="st0" d="M34.8,25.4l.6-2,1,.3-1.6,1.7Z"/>
        <path id="t9" data-name="t" class="st0" d="M34.8,25.4l1.7-1.2-.6-.8-1.1,2.1Z"/>
      </g>
    </g>
  </g>
  <g id="s1" data-name="s">
    <g id="c5" data-name="c">
      <path id="t10" data-name="t" class="st0" d="M36,46.6l-.6,2,1,.3-.3-2.3Z"/>
      <path id="t11" data-name="t" class="st0" d="M36,46.6l.6,2-1,.3.3-2.3Z"/>
    </g>
    <g id="a2" data-name="a">
      <g id="c6" data-name="c">
        <path id="t12" data-name="t" class="st0" d="M38,48.1h-2.1s0,1,0,1l2.1-1Z"/>
        <path id="t13" data-name="t" class="st0" d="M38,48.1l-1.7,1.2-.6-.8,2.3-.4Z"/>
      </g>
      <g id="c7" data-name="c">
        <path id="t14" data-name="t" class="st0" d="M37.2,50.4l-.6-2-1,.3,1.6,1.7Z"/>
        <path id="t15" data-name="t" class="st0" d="M37.2,50.4l-1.7-1.2.6-.8,1.1,2.1Z"/>
      </g>
    </g>
    <g id="a3" data-name="a">
      <g id="c8" data-name="c">
        <path id="t16" data-name="t" class="st0" d="M34,48.1h2.1s0,1,0,1l-2.1-1Z"/>
        <path id="t17" data-name="t" class="st0" d="M34,48.1l1.7,1.2.6-.8-2.3-.4Z"/>
      </g>
      <g id="c9" data-name="c">
        <path id="t18" data-name="t" class="st0" d="M34.8,50.4l.6-2,1,.3-1.6,1.7Z"/>
        <path id="t19" data-name="t" class="st0" d="M34.8,50.4l1.7-1.2-.6-.8-1.1,2.1Z"/>
      </g>
    </g>
  </g>
  <g id="l">
    <g id="s2" data-name="s">
      <g id="c10" data-name="c">
        <path id="t20" data-name="t" class="st0" d="M23.5,34.1l-.6,2,1,.3-.3-2.3Z"/>
        <path id="t21" data-name="t" class="st0" d="M23.5,34.1l.6,2-1,.3.3-2.3Z"/>
      </g>
      <g id="a4" data-name="a">
        <g id="c11" data-name="c">
          <path id="t22" data-name="t" class="st0" d="M25.5,35.6h-2.1s0,1,0,1l2.1-1Z"/>
          <path id="t23" data-name="t" class="st0" d="M25.5,35.6l-1.7,1.2-.6-.8,2.3-.4Z"/>
        </g>
        <g id="c12" data-name="c">
          <path id="t24" data-name="t" class="st0" d="M24.7,37.9l-.6-2-1,.3,1.6,1.7Z"/>
          <path id="t25" data-name="t" class="st0" d="M24.7,37.9l-1.7-1.2.6-.8,1.1,2.1Z"/>
        </g>
      </g>
      <g id="a5" data-name="a">
        <g id="c13" data-name="c">
          <path id="t26" data-name="t" class="st0" d="M21.5,35.6h2.1s0,1,0,1l-2.1-1Z"/>
          <path id="t27" data-name="t" class="st0" d="M21.5,35.6l1.7,1.2.6-.8-2.3-.4Z"/>
        </g>
        <g id="c14" data-name="c">
          <path id="t28" data-name="t" class="st0" d="M22.3,37.9l.6-2,1,.3-1.6,1.7Z"/>
          <path id="t29" data-name="t" class="st0" d="M22.3,37.9l1.7-1.2-.6-.8-1.1,2.1Z"/>
        </g>
      </g>
    </g>
    <g id="s3" data-name="s">
      <g id="c15" data-name="c">
        <path id="t30" data-name="t" class="st0" d="M28.5,27l1.7-1.2-.6-.8-1.1,2.1Z"/>
        <path id="t31" data-name="t" class="st0" d="M28.5,27l.6-2,1,.3-1.6,1.7Z"/>
      </g>
      <g id="a6" data-name="a">
        <g id="c16" data-name="c">
          <path id="t32" data-name="t" class="st0" d="M27.8,24.7l1.7,1.2.6-.8-2.3-.4Z"/>
          <path id="t33" data-name="t" class="st0" d="M27.8,24.7h2.1v1s-2.1-1-2.1-1Z"/>
        </g>
        <g id="c17" data-name="c">
          <path id="t34" data-name="t" class="st0" d="M29.7,23.3l-.6,2,1,.3-.3-2.3Z"/>
          <path id="t35" data-name="t" class="st0" d="M29.7,23.3l.6,2-1,.3.3-2.3Z"/>
        </g>
      </g>
      <g id="a7" data-name="a">
        <g id="c18" data-name="c">
          <path id="t36" data-name="t" class="st0" d="M31,27l-1.7-1.2.6-.8,1.1,2.1Z"/>
          <path id="t37" data-name="t" class="st0" d="M31,27l-.6-2-1,.3,1.6,1.7Z"/>
        </g>
        <g id="c19" data-name="c">
          <path id="t38" data-name="t" class="st0" d="M31.7,24.7l-1.7,1.2-.6-.8,2.3-.4Z"/>
          <path id="t39" data-name="t" class="st0" d="M31.7,24.7h-2.1v1s2.1-1,2.1-1Z"/>
        </g>
      </g>
    </g>
    <g id="s4" data-name="s">
      <g id="c20" data-name="c">
        <path id="t40" data-name="t" class="st0" d="M26.4,31.6l-.6-2-1,.3,1.6,1.7Z"/>
        <path id="t41" data-name="t" class="st0" d="M26.4,31.6l-1.7-1.2.6-.8,1.1,2.1Z"/>
      </g>
      <g id="a8" data-name="a">
        <g id="c21" data-name="c">
          <path id="t42" data-name="t" class="st0" d="M23.9,31.6l1.7-1.2-.6-.8-1.1,2.1Z"/>
          <path id="t43" data-name="t" class="st0" d="M23.9,31.6l.6-2,1,.3-1.6,1.7Z"/>
        </g>
        <g id="c22" data-name="c">
          <path id="t44" data-name="t" class="st0" d="M23.2,29.3l1.7,1.2.6-.8-2.3-.4Z"/>
          <path id="t45" data-name="t" class="st0" d="M23.2,29.3h2.1v1s-2.1-1-2.1-1Z"/>
        </g>
      </g>
      <g id="a9" data-name="a">
        <g id="c23" data-name="c">
          <path id="t46" data-name="t" class="st0" d="M27.1,29.3l-1.7,1.2-.6-.8,2.3-.4Z"/>
          <path id="t47" data-name="t" class="st0" d="M27.1,29.3h-2.1s0,1,0,1l2.1-1Z"/>
        </g>
        <g id="c24" data-name="c">
          <path id="t48" data-name="t" class="st0" d="M25.2,27.9l.6,2-1,.3.3-2.3Z"/>
          <path id="t49" data-name="t" class="st0" d="M25.2,27.9l-.6,2,1,.3-.3-2.3Z"/>
        </g>
      </g>
    </g>
    <g id="s5" data-name="s">
      <g id="c25" data-name="c">
        <path id="t50" data-name="t" class="st0" d="M27.1,41.8h-2.1s0,1,0,1l2.1-1Z"/>
        <path id="t51" data-name="t" class="st0" d="M27.1,41.8l-1.7,1.2-.6-.8,2.3-.4Z"/>
      </g>
      <g id="a10" data-name="a">
        <g id="c26" data-name="c">
          <path id="t52" data-name="t" class="st0" d="M26.4,44.1l-.6-2-1,.3,1.6,1.7Z"/>
          <path id="t53" data-name="t" class="st0" d="M26.4,44.1l-1.7-1.2.6-.8,1.1,2.1Z"/>
        </g>
        <g id="c27" data-name="c">
          <path id="t54" data-name="t" class="st0" d="M23.9,44.1l1.7-1.2-.6-.8-1.1,2.1Z"/>
          <path id="t55" data-name="t" class="st0" d="M23.9,44.1l.6-2,1,.3-1.6,1.7Z"/>
        </g>
      </g>
      <g id="a11" data-name="a">
        <g id="c28" data-name="c">
          <path id="t56" data-name="t" class="st0" d="M25.2,40.4l.6,2-1,.3.3-2.3Z"/>
          <path id="t57" data-name="t" class="st0" d="M25.2,40.4l-.6,2,1,.3-.3-2.3Z"/>
        </g>
        <g id="c29" data-name="c">
          <path id="t58" data-name="t" class="st0" d="M23.2,41.8h2.1s0,1,0,1l-2.1-1Z"/>
          <path id="t59" data-name="t" class="st0" d="M23.2,41.8l1.7,1.2.6-.8-2.3-.4Z"/>
        </g>
      </g>
    </g>
    <g id="s6" data-name="s">
      <g id="c30" data-name="c">
        <path id="t60" data-name="t" class="st0" d="M31.7,46.4h-2.1s0,1,0,1l2.1-1Z"/>
        <path id="t61" data-name="t" class="st0" d="M31.7,46.4l-1.7,1.2-.6-.8,2.3-.4Z"/>
      </g>
      <g id="a12" data-name="a">
        <g id="c31" data-name="c">
          <path id="t62" data-name="t" class="st0" d="M31,48.7l-.6-2-1,.3,1.6,1.7Z"/>
          <path id="t63" data-name="t" class="st0" d="M31,48.7l-1.7-1.2.6-.8,1.1,2.1Z"/>
        </g>
        <g id="c32" data-name="c">
          <path id="t64" data-name="t" class="st0" d="M28.5,48.7l1.7-1.2-.6-.8-1.1,2.1Z"/>
          <path id="t65" data-name="t" class="st0" d="M28.5,48.7l.6-2,1,.3-1.6,1.7Z"/>
        </g>
      </g>
      <g id="a13" data-name="a">
        <g id="c33" data-name="c">
          <path id="t66" data-name="t" class="st0" d="M29.7,45l.6,2-1,.3.3-2.3Z"/>
          <path id="t67" data-name="t" class="st0" d="M29.7,45l-.6,2,1,.3-.3-2.3Z"/>
        </g>
        <g id="c34" data-name="c">
          <path id="t68" data-name="t" class="st0" d="M27.8,46.4h2.1v1s-2.1-1-2.1-1Z"/>
          <path id="t69" data-name="t" class="st0" d="M27.8,46.4l1.7,1.2.6-.8-2.3-.4Z"/>
        </g>
      </g>
    </g>
  </g>
  <g id="l1" data-name="l">
    <g id="s7" data-name="s">
      <g id="c35" data-name="c">
        <path id="t70" data-name="t" class="st0" d="M48.5,34.1l.6,2-1,.3.3-2.3Z"/>
        <path id="t71" data-name="t" class="st0" d="M48.5,34.1l-.6,2,1,.3-.3-2.3Z"/>
      </g>
      <g id="a14" data-name="a">
        <g id="c36" data-name="c">
          <path id="t72" data-name="t" class="st0" d="M46.5,35.6h2.1s0,1,0,1l-2.1-1Z"/>
          <path id="t73" data-name="t" class="st0" d="M46.5,35.6l1.7,1.2.6-.8-2.3-.4Z"/>
        </g>
        <g id="c37" data-name="c">
          <path id="t74" data-name="t" class="st0" d="M47.3,37.9l.6-2,1,.3-1.6,1.7Z"/>
          <path id="t75" data-name="t" class="st0" d="M47.3,37.9l1.7-1.2-.6-.8-1.1,2.1Z"/>
        </g>
      </g>
      <g id="a15" data-name="a">
        <g id="c38" data-name="c">
          <path id="t76" data-name="t" class="st0" d="M50.5,35.6h-2.1s0,1,0,1l2.1-1Z"/>
          <path id="t77" data-name="t" class="st0" d="M50.5,35.6l-1.7,1.2-.6-.8,2.3-.4Z"/>
        </g>
        <g id="c39" data-name="c">
          <path id="t78" data-name="t" class="st0" d="M49.7,37.9l-.6-2-1,.3,1.6,1.7Z"/>
          <path id="t79" data-name="t" class="st0" d="M49.7,37.9l-1.7-1.2.6-.8,1.1,2.1Z"/>
        </g>
      </g>
    </g>
    <g id="s8" data-name="s">
      <g id="c40" data-name="c">
        <path id="t80" data-name="t" class="st0" d="M43.5,27l-1.7-1.2.6-.8,1.1,2.1Z"/>
        <path id="t81" data-name="t" class="st0" d="M43.5,27l-.6-2-1,.3,1.6,1.7Z"/>
      </g>
      <g id="a16" data-name="a">
        <g id="c41" data-name="c">
          <path id="t82" data-name="t" class="st0" d="M44.2,24.7l-1.7,1.2-.6-.8,2.3-.4Z"/>
          <path id="t83" data-name="t" class="st0" d="M44.2,24.7h-2.1v1s2.1-1,2.1-1Z"/>
        </g>
        <g id="c42" data-name="c">
          <path id="t84" data-name="t" class="st0" d="M42.3,23.3l.6,2-1,.3.3-2.3Z"/>
          <path id="t85" data-name="t" class="st0" d="M42.3,23.3l-.6,2,1,.3-.3-2.3Z"/>
        </g>
      </g>
      <g id="a17" data-name="a">
        <g id="c43" data-name="c">
          <path id="t86" data-name="t" class="st0" d="M41,27l1.7-1.2-.6-.8-1.1,2.1Z"/>
          <path id="t87" data-name="t" class="st0" d="M41,27l.6-2,1,.3-1.6,1.7Z"/>
        </g>
        <g id="c44" data-name="c">
          <path id="t88" data-name="t" class="st0" d="M40.3,24.7l1.7,1.2.6-.8-2.3-.4Z"/>
          <path id="t89" data-name="t" class="st0" d="M40.3,24.7h2.1v1s-2.1-1-2.1-1Z"/>
        </g>
      </g>
    </g>
    <g id="s9" data-name="s">
      <g id="c45" data-name="c">
        <path id="t90" data-name="t" class="st0" d="M45.6,31.6l.6-2,1,.3-1.6,1.7Z"/>
        <path id="t91" data-name="t" class="st0" d="M45.6,31.6l1.7-1.2-.6-.8-1.1,2.1Z"/>
      </g>
      <g id="a18" data-name="a">
        <g id="c46" data-name="c">
          <path id="t92" data-name="t" class="st0" d="M48.1,31.6l-1.7-1.2.6-.8,1.1,2.1Z"/>
          <path id="t93" data-name="t" class="st0" d="M48.1,31.6l-.6-2-1,.3,1.6,1.7Z"/>
        </g>
        <g id="c47" data-name="c">
          <path id="t94" data-name="t" class="st0" d="M48.8,29.3l-1.7,1.2-.6-.8,2.3-.4Z"/>
          <path id="t95" data-name="t" class="st0" d="M48.8,29.3h-2.1v1s2.1-1,2.1-1Z"/>
        </g>
      </g>
      <g id="a19" data-name="a">
        <g id="c48" data-name="c">
          <path id="t96" data-name="t" class="st0" d="M44.9,29.3l1.7,1.2.6-.8-2.3-.4Z"/>
          <path id="t97" data-name="t" class="st0" d="M44.9,29.3h2.1s0,1,0,1l-2.1-1Z"/>
        </g>
        <g id="c49" data-name="c">
          <path id="t98" data-name="t" class="st0" d="M46.8,27.9l-.6,2,1,.3-.3-2.3Z"/>
          <path id="t99" data-name="t" class="st0" d="M46.8,27.9l.6,2-1,.3.3-2.3Z"/>
        </g>
      </g>
    </g>
    <g id="s10" data-name="s">
      <g id="c50" data-name="c">
        <path id="t100" data-name="t" class="st0" d="M44.9,41.8h2.1s0,1,0,1l-2.1-1Z"/>
        <path id="t101" data-name="t" class="st0" d="M44.9,41.8l1.7,1.2.6-.8-2.3-.4Z"/>
      </g>
      <g id="a20" data-name="a">
        <g id="c51" data-name="c">
          <path id="t102" data-name="t" class="st0" d="M45.6,44.1l.6-2,1,.3-1.6,1.7Z"/>
          <path id="t103" data-name="t" class="st0" d="M45.6,44.1l1.7-1.2-.6-.8-1.1,2.1Z"/>
        </g>
        <g id="c52" data-name="c">
          <path id="t104" data-name="t" class="st0" d="M48.1,44.1l-1.7-1.2.6-.8,1.1,2.1Z"/>
          <path id="t105" data-name="t" class="st0" d="M48.1,44.1l-.6-2-1,.3,1.6,1.7Z"/>
        </g>
      </g>
      <g id="a21" data-name="a">
        <g id="c53" data-name="c">
          <path id="t106" data-name="t" class="st0" d="M46.8,40.4l-.6,2,1,.3-.3-2.3Z"/>
          <path id="t107" data-name="t" class="st0" d="M46.8,40.4l.6,2-1,.3.3-2.3Z"/>
        </g>
        <g id="c54" data-name="c">
          <path id="t108" data-name="t" class="st0" d="M48.8,41.8h-2.1s0,1,0,1l2.1-1Z"/>
          <path id="t109" data-name="t" class="st0" d="M48.8,41.8l-1.7,1.2-.6-.8,2.3-.4Z"/>
        </g>
      </g>
    </g>
    <g id="s11" data-name="s">
      <g id="c55" data-name="c">
        <path id="t110" data-name="t" class="st0" d="M40.3,46.4h2.1s0,1,0,1l-2.1-1Z"/>
        <path id="t111" data-name="t" class="st0" d="M40.3,46.4l1.7,1.2.6-.8-2.3-.4Z"/>
      </g>
      <g id="a22" data-name="a">
        <g id="c56" data-name="c">
          <path id="t112" data-name="t" class="st0" d="M41,48.7l.6-2,1,.3-1.6,1.7Z"/>
          <path id="t113" data-name="t" class="st0" d="M41,48.7l1.7-1.2-.6-.8-1.1,2.1Z"/>
        </g>
        <g id="c57" data-name="c">
          <path id="t114" data-name="t" class="st0" d="M43.5,48.7l-1.7-1.2.6-.8,1.1,2.1Z"/>
          <path id="t115" data-name="t" class="st0" d="M43.5,48.7l-.6-2-1,.3,1.6,1.7Z"/>
        </g>
      </g>
      <g id="a23" data-name="a">
        <g id="c58" data-name="c">
          <path id="t116" data-name="t" class="st0" d="M42.3,45l-.6,2,1,.3-.3-2.3Z"/>
          <path id="t117" data-name="t" class="st0" d="M42.3,45l.6,2-1,.3.3-2.3Z"/>
        </g>
        <g id="c59" data-name="c">
          <path id="t118" data-name="t" class="st0" d="M44.2,46.4h-2.1v1s2.1-1,2.1-1Z"/>
          <path id="t119" data-name="t" class="st0" d="M44.2,46.4l-1.7,1.2-.6-.8,2.3-.4Z"/>
        </g>
      </g>
    </g>
  </g>
</svg>