<?xml version="1.0" encoding="UTF-8"?>
<svg id="_レイヤー_1" xmlns="http://www.w3.org/2000/svg" version="1.1" viewBox="0 0 72 72">
  <!-- Generator: Adobe Illustrator 29.4.0, SVG Export Plug-In . SVG Version: 2.1.0 Build 152)  -->
  <defs>
    <style>
      .st0 {
        fill: #e60012;
      }
    </style>
  </defs>
  <path class="st0" d="M26,17.8c-.8.6-1.1.6-.9,1.1.2.9.8,2.6.8,2.6,0,0,.6-1.6.9-2.5.2-.5,0-.5-.8-1.1h0Z"/>
  <path class="st0" d="M28.3,19.6c-.8-.6-.9-.8-1.3-.5-.8.5-2.2,1.5-2.2,1.5,0,0,1.7,0,2.7,0s.4-.2.8-1.1h0Z"/>
  <path class="st0" d="M27.3,22.2c.3-1,.5-1.1,0-1.4-.8-.6-2.1-1.6-2.1-1.6,0,0,.5,1.7.8,2.6.2.5.3.3,1.3.5h0Z"/>
  <path class="st0" d="M24.5,22.1c1,0,1.2.2,1.4-.4.3-.9.9-2.5.9-2.5,0,0-1.4.9-2.2,1.5-.4.3-.2.4,0,1.4Z"/>
  <path class="st0" d="M23.7,19.4c.4.9.2,1.2.8,1.2.9,0,2.7,0,2.7,0,0,0-1.4-1.1-2.1-1.7-.4-.3-.5,0-1.3.4Z"/>
</svg>