<?xml version="1.0" encoding="UTF-8"?>
<svg id="_レイヤー_1" xmlns="http://www.w3.org/2000/svg" version="1.1" viewBox="0 0 72 72">
  <!-- Generator: Adobe Illustrator 29.4.0, SVG Export Plug-In . SVG Version: 2.1.0 Build 152)  -->
  <defs>
    <style>
      .st0 {
        fill: #e60012;
      }
    </style>
  </defs>
  <path class="st0" d="M36.1,17.7c-1.2,1-1.6.9-1.4,1.7.4,1.4,1.2,3.9,1.2,3.9,0,0,1-2.5,1.4-3.9.3-.8,0-.7-1.2-1.7h0Z"/>
  <path class="st0" d="M39.5,20.3c-1.3-.9-1.3-1.2-2-.8-1.2.8-3.4,2.3-3.4,2.3,0,0,2.7.1,4.1.1s.6-.3,1.3-1.7h0Z"/>
  <path class="st0" d="M38,24.4c.4-1.5.8-1.7,0-2.2-1.1-.9-3.3-2.4-3.3-2.4,0,0,.7,2.6,1.1,3.9.2.8.5.5,2,.7h.1Z"/>
  <path class="st0" d="M33.7,24.2c1.5,0,1.8.2,2.1-.6.5-1.3,1.3-3.9,1.3-3.9,0,0-2.2,1.4-3.4,2.3-.6.5-.3.6,0,2.1h0Z"/>
  <path class="st0" d="M32.5,20.1c.6,1.4.3,1.8,1.1,1.8h4.1s-2.1-1.7-3.2-2.5c-.6-.5-.7,0-2,.6h0Z"/>
</svg>