<?xml version="1.0" encoding="UTF-8"?>
<svg id="_レイヤー_1" xmlns="http://www.w3.org/2000/svg" version="1.1" viewBox="0 0 72 72">
  <!-- Generator: Adobe Illustrator 29.4.0, SVG Export Plug-In . SVG Version: 2.1.0 Build 152)  -->
  <defs>
    <style>
      .st0 {
        fill: #e60012;
      }
    </style>
  </defs>
  <path class="st0" d="M48.6,47.4c-1.1.3-2.3.4-3.4.8,1.9-1.6,1.8-4.1,3-6,.4-.5.7-1.1,1.2-1.6-.8,1.5-.4,3.5-1.3,5-.3.6-.8,1.2-1.3,1.6.2,0,.3-.2.5-.3,1.4-1.4,3.3-1.8,4.8-3,.6-.5,1.2-1.1,1.4-1.8-.3,2.3-2.6,4.5-4.8,5.2h-.1ZM53.7,37.9c-.7,1-1.5,1.9-2.2,2.9,0-.8.2-1.8,0-2.5-.5-1.6-1-3.3-1.2-5v-.7c.4,1.8,2.2,3.1,2.1,5.1,0,.5,0,.9-.2,1.3h0c.3-1,.4-2,.8-3,.6-1.3,1.3-2.7,1-4.3.9,1.9.6,4.5-.4,6.2h.2Z"/>
  <path class="st0" d="M52.6,27.6c1.2,1.6,1.4,4.1.6,5.9-.3.8-.5,1.6-.7,2.4,0,0,0-.3,0-.5-.5-1.8-2.1-3-2.8-4.7-.2-.5-.4-1.1-.5-1.7.7,1.4,2.6,2.1,3.1,3.6.2.4.2.9.3,1.3h0c-.2-1.5-.2-3.2,0-4.7,0-.8,0-1.6-.6-2.3.3.2.4.5.6.8h.1Z"/>
  <path class="st0" d="M51.8,27.3c.3,1.4,0,2.7,0,4.1h0c-.8-1.5-2.4-2.2-3.5-3.4-.6-.7-.9-1.6-1.1-2.5.6,1.5,2.3,1.9,3.3,3.1.3.3.4.7.6,1h0c-.6-1.2-.8-2.6-1.1-3.9-.2-.6-.6-1.1-1.1-1.4,1.3.3,2.4,1.6,2.7,2.8v.2Z"/>
  <path class="st0" d="M48.3,24.1c1,.9,1.4,2,1.7,3.1l.2.4c-1.4-1-2.7-2.4-3.6-3.8l-1.1-1.1c1,.4,2,.7,2.8,1.4ZM26.2,22.9c-1,.8-1.6,1.9-2.4,2.9-.6.8-1.5,1.3-2.2,2,.4-.8.4-1.8,1-2.5.8-1.4,2.3-1.9,3.6-2.4Z"/>
  <path class="st0" d="M20.9,25.9c.5-.6,1.1-1,1.7-1.2-1.3.9-1.2,2.5-1.6,3.8-.1.5-.4.9-.5,1.5h0c.2-.5.6-1.1,1.1-1.6.9-.9,2.3-1.4,2.8-2.7,0,1.8-1.5,3.1-2.9,4.1-.6.5-1.1,1.1-1.5,1.7v-1.4c-.2-1.5-.3-3.3.8-4.4v.2Z"/>
  <path class="st0" d="M18.2,31.1c0-1.6.6-2.8,1.5-4h0c-1,1.5-.2,3.4-.2,5.2v1.8q-.1,0,0,0c0-.2,0-.4.1-.6.2-1.4,1.5-2.4,2.6-3.4.2-.3.4-.5.6-.8,0,.7-.3,1.4-.6,2.1-.8,1.6-2.4,3-2.7,4.9-.1-1.8-1.4-3.2-1.2-5.1h0Z"/>
  <path class="st0" d="M17.5,33.4c.1-.5.2-1,.4-1.4-.4,2.1,1,3.5,1.4,5.3.2.7.2,1.4.5,2h0c-.7-1.9.3-3.7,1.3-5.1.2-.4.4-.9.5-1.3.1.9-.1,1.8-.2,2.7-.2,1.1-.6,2.2-.9,3.3-.2.7-.2,1.5,0,2.2h0c-.7-1.4-2.1-2.4-2.6-3.9-.3-1.2-.6-2.5-.3-3.8h0Z"/>
  <path class="st0" d="M17.4,37.4c.2,2.2,2.5,3.3,3.6,5.1.3.4.5.8.8,1.1,0-.2-.3-.4-.4-.7-.4-.8-.5-1.7-.4-2.6.1-1.1.6-2.1.4-3.3,1,2.1.7,4.6,1.2,6.9.1.5.4.9.6,1.4-2-1.3-4.6-2.6-5.5-5.1-.4-.8-.4-1.9-.3-2.9h0Z"/>
  <path class="st0" d="M18.6,42.4c1.1,2.5,3.8,2.7,5.7,4.2.3.3.7.6,1.1.7h0c-.4-.4-.9-.8-1.2-1.3-1.1-1.5-.7-3.6-1.5-5.2.7.9,1.4,1.8,1.8,2.8.7,1.6.9,3.5,2.4,4.7-1.6-.5-3.6-.4-5-1.4-1.6-1-3-2.6-3.3-4.4h0Z"/>
  <path class="st0" d="M21.4,47c1.8,2,4.6,1.3,7,1.9.3,0,.6.2,1,0-.3-.2-.7-.2-1-.3-1.8-.6-2.1-2.6-3.1-4,1.3.8,2.3,2,3.5,3.1.8.7,1.9,1.1,2.9,1.3-.3,0-.6,0-.9,0-1.9.5-4.1,1.2-6.1.6-1.3-.4-2.7-1.5-3.4-2.8h.1Z"/>
  <path class="st0" d="M45.2,51.7c-2,.7-4,0-5.6-1.2-.6-.4-1.2-1-2-.9h-.8c1.5.7,2.9,1.7,4.2,2.9-.2.2-.5.5-.8.7-1.2-1.3-2.6-2.6-4.1-3.3-.3,0-.6.2-.9.4-1.2.8-2.5,1.8-3.4,3l-.8-.7c1.3-1.3,2.7-2.3,4.2-3-1.5-.5-2.5.8-3.6,1.4-1.3.9-3.2,1.4-4.9.7-.9-.3-1.7-.8-2.3-1.6,1.3.9,3.1,1,4.6.4,1.9-.8,3.9-1.9,6.3-1.4.4,0,.7.4,1.1,0,1.7-.4,3.7,0,5.2.7l1.5.6c1.4.5,3.3.4,4.5-.5-.6.8-1.5,1.3-2.4,1.7h0Z"/>
  <path class="st0" d="M47.3,49.6c-2.2.8-4.5-.2-6.6-.5h-.4c1-.3,2-.6,2.8-1.3,1.2-1.1,2.3-2.3,3.6-3.2-1,1.3-1.1,3.1-2.7,3.9-.4.3-.9.3-1.3.5.6,0,1.1-.2,1.7-.3,2.2-.3,4.7,0,6.2-1.8-.6,1.3-2,2.4-3.3,2.8h0ZM51.4,43.4c-.9.6-1.8,1.1-2.6,1.8h0c1.3-2.2.7-5.2,1.5-7.5l.3-.8c-.2,1.5.5,2.7.4,4.2,0,.9-.3,1.7-.8,2.4h0c.6-.8,1.1-1.7,1.9-2.5,1.1-1.1,2.3-2.2,2.5-3.8.4,2.6-1,4.8-3.2,6.3h0Z"/>
</svg>