<?xml version="1.0" encoding="UTF-8"?>
<svg id="_レイヤー_1" xmlns="http://www.w3.org/2000/svg" version="1.1" viewBox="0 0 72 72">
  <!-- Generator: Adobe Illustrator 29.4.0, SVG Export Plug-In . SVG Version: 2.1.0 Build 152)  -->
  <defs>
    <style>
      .st0 {
        fill: #e60012;
      }
    </style>
  </defs>
  <g id="layer1">
    <path id="path2" class="st0" d="M35.8,20.7v3c0,0,.1,0,.2,0,0,0,.1,0,.2,0v-3h-.3ZM36,25.3l-2.5,8.2-8.2,2.5,8.2,2.5,2.5,8.2,2.5-8.2,8.2-2.5-8.2-2.5-2.5-8.2ZM36,27.5l2,6.3-2,2.2v-8.5ZM37.7,27.7v.4c3.2.7,5.5,3.1,6.2,6.1h.4c-.7-3.2-3.3-5.8-6.6-6.5ZM34.3,27.7c-3.3.7-5.9,3.3-6.6,6.6h.4c.7-3.1,3.1-5.5,6.1-6.2v-.4ZM33.8,34l2.2,1.9h-8.5s6.3-1.9,6.3-1.9ZM14.9,35.8v.3h8.8c0,0,0-.2,0-.2,0,0,0,0,0-.1h-8.8ZM48.3,35.8s0,0,0,.1c0,0,0,.2,0,.2h8.8v-.3h-8.8ZM44.5,36h0s-6.3,2-6.3,2l-2.2-2h8.5ZM36,36v8.5s0,0,0,0l-2-6.3,2-2.2ZM27.7,37.7c.7,3.3,3.3,5.9,6.6,6.6v-.4c-3.1-.7-5.5-3.1-6.2-6.1h-.4ZM44.3,37.7h-.4c-.7,3.1-3.1,5.5-6.1,6.2v.4c3.2-.7,5.8-3.3,6.5-6.6ZM35.8,48.2v3.1h.3v-3.1c0,0-.1,0-.2,0,0,0-.1,0-.2,0Z"/>
  </g>
</svg>