<?xml version="1.0" encoding="UTF-8"?>
<svg id="_レイヤー_1" xmlns="http://www.w3.org/2000/svg" version="1.1" viewBox="0 0 72 72">
  <!-- Generator: Adobe Illustrator 29.4.0, SVG Export Plug-In . SVG Version: 2.1.0 Build 152)  -->
  <defs>
    <style>
      .st0 {
        fill: #e60012;
      }
    </style>
  </defs>
  <path class="st0" d="M48.4,32h0s0,0,0,0c3.1-3.3-.7-8.5-4.8-6.5h0c.6-4.5-5.5-6.5-7.6-2.5-2.2-4-8.2-2-7.6,2.5h0c-4.1-1.9-7.9,3.2-4.8,6.5h0c-4.5.9-4.5,7.3,0,8.1h0s0,0,0,0c-3.1,3.3.7,8.5,4.8,6.5h0c-.6,4.5,5.5,6.5,7.6,2.5,2.2,4,8.2,2,7.6-2.5h0c4.1,1.9,7.9-3.2,4.8-6.5h0c4.5-.9,4.5-7.3,0-8.1ZM34.4,42.6l-.3.3-6.8-6.4,2.6-2.7,4,3.8,7.9-8.4,2.7,2.6-10.2,10.8Z"/>
</svg>