<?xml version="1.0" encoding="UTF-8"?>
<svg id="_レイヤー_1" xmlns="http://www.w3.org/2000/svg" version="1.1" viewBox="0 0 72 72">
  <!-- Generator: Adobe Illustrator 29.4.0, SVG Export Plug-In . SVG Version: 2.1.0 Build 152)  -->
  <defs>
    <style>
      .st0, .st1 {
        fill: #e60012;
      }

      .st1 {
        fill-rule: evenodd;
      }
    </style>
  </defs>
  <path class="st0" d="M45,36.7h0s0,0,0,0c2.3-2.4-.5-6.1-3.4-4.7h0c.4-3.3-4-4.7-5.5-1.8-1.6-2.9-6-1.5-5.5,1.8h0c-3-1.4-5.7,2.3-3.4,4.7h0c-3.2.6-3.2,5.3,0,5.9h0s0,0,0,0c-2.3,2.4.5,6.1,3.4,4.7h0c-.4,3.3,4,4.7,5.5,1.8,1.6,2.9,6,1.5,5.5-1.8h0c3,1.4,5.7-2.3,3.4-4.7h0c3.2-.6,3.2-5.3,0-5.9ZM34.9,44.4l-.2.2-4.9-4.6,1.9-2,2.9,2.8,5.8-6.1,2,1.9-7.4,7.9Z"/>
  <path class="st1" d="M21.7,21.4l.3-.3c.7-.3,1,0,1.3.6.2.2,0,.5,0,.7h0c.8.6,1.6,1.5,2.4,2.1.3.3.7.5,1.3.5.3,0,.6-.4.8-.6.2-.5.1-1,0-1.4-.7-.2-.9-.5-.9-1.3.3-.6.6-.8,1.2-.7.7.4.8.8.6,1.5l-.5.3c.3.3.4.6.6,1l.7.9c.2.2.5.2.8,0s.5-.5.7-1,.2-.9.3-1.5c-.5-.2-.7-.5-.7-.9,0-.6.4-.9.9-.9.2,0,.4,0,.7.2l.3.5c.1.6,0,1.1-.6,1.3.5,1.6,1,3.2,1.5,4.9l-9,6.7c-1.4-.9-2.9-1.9-4.1-2.9-.4.5-.8.6-1.4.3l-.3-.5c-.1-.6,0-1.1.8-1.3.7,0,1.1.3,1.2.9.7,0,1.4,0,2-.1l.8-.6c0-.2,0-.4-.1-.6-.4-.6-.8-1-1.3-1.5-.6.4-1.1.5-1.5-.1s-.2-1.3.6-1.5c.6-.1,1.1.3,1.2.9,0,0,0,.3,0,.4.4,0,.8.3,1.2.4s.5,0,.8,0c.1,0,.2-.2.3-.4,0-.4,0-.8-.2-1.3-.4-1-.8-2-1.3-2.9-.1,0-.5,0-.7,0-.7-.4-.8-1-.5-1.6h-.2Z"/>
</svg>