<?xml version="1.0" encoding="UTF-8"?>
<svg id="_レイヤー_1" xmlns="http://www.w3.org/2000/svg" version="1.1" viewBox="0 0 72 72">
  <!-- Generator: Adobe Illustrator 29.4.0, SVG Export Plug-In . SVG Version: 2.1.0 Build 152)  -->
  <defs>
    <style>
      .st0 {
        fill: #e60012;
      }
    </style>
  </defs>
  <path class="st0" d="M46,23.1c-4.3,0-10.1,2.9-13.9,8h-3.2c-2.3,0-3.6,1.7-4.6,3.6l-1.2,2.5h5.8l3,3,3,3v5.8l2.5-1.2c1.8-.9,3.6-2.2,3.6-4.6v-3.2c5.1-3.9,8-9.6,8-13.9v-2.9h-2.9ZM40.9,29.1c1.1,0,2,.9,2,2s-.9,2-2,2-2-.9-2-2,.9-2,2-2ZM27.9,41.1l-1,1c-1.4,1.4-2,5-2,5,0,0,3.4-.4,5-2l1-1-3-3Z"/>
</svg>