<?xml version="1.0" encoding="UTF-8"?>
<svg id="_レイヤー_1" xmlns="http://www.w3.org/2000/svg" version="1.1" viewBox="0 0 72 72">
  <!-- Generator: Adobe Illustrator 29.4.0, SVG Export Plug-In . SVG Version: 2.1.0 Build 152)  -->
  <defs>
    <style>
      .st0 {
        fill: #e60012;
      }
    </style>
  </defs>
  <path class="st0" d="M41,29.9c-2.1,0-5,1.5-7,4h-1.6c-1.2,0-1.8.9-2.3,1.8l-.6,1.2h2.9l1.5,1.5,1.5,1.5v2.9l1.2-.6c.9-.5,1.8-1.1,1.8-2.3v-1.6c2.5-1.9,4-4.8,4-7v-1.4s-1.4,0-1.4,0ZM38.4,32.9c.6,0,1,.4,1,1s-.4,1-1,1-1-.4-1-1,.4-1,1-1ZM31.9,38.9l-.5.5c-.7.7-1,2.5-1,2.5,0,0,1.7-.2,2.5-1l.5-.5s-1.5-1.5-1.5-1.5Z"/>
</svg>