<?xml version="1.0" encoding="UTF-8"?>
<svg width="1200pt" height="1200pt" version="1.1" viewBox="0 0 1200 1200" xmlns="http://www.w3.org/2000/svg">
 <path fill="white" d="m479.78 149.95c-4-0.015625-7.8359 1.5664-10.664 4.3906-2.8281 2.8281-4.4102 6.668-4.3945 10.668v870.1c0.042969 3.9609 1.6484 7.7422 4.4727 10.523 2.8203 2.7773 6.625 4.332 10.586 4.3164h240.5c3.9609 0.015625 7.7695-1.5391 10.59-4.3164 2.8203-2.7812 4.4258-6.5625 4.4688-10.523v-870.1c0.015625-4-1.5625-7.8398-4.3906-10.664-2.8281-2.8281-6.668-4.4102-10.668-4.3945zm14.836 30.117h210.61v839.98h-210.61z"/>
 <path fill="white" d="m165.09 440.05c-3.9609-0.015626-7.7656 1.5352-10.586 4.3164-2.8203 2.7812-4.4297 6.5625-4.4727 10.523v580.21c0.042969 3.9609 1.6523 7.7422 4.4727 10.523 2.8203 2.7773 6.625 4.332 10.586 4.3164h240.5c3.9609 0.015625 7.7656-1.5391 10.586-4.3164 2.8203-2.7812 4.4297-6.5625 4.4727-10.523v-580.21c-0.042969-3.9609-1.6523-7.7422-4.4727-10.523-2.8203-2.7812-6.625-4.332-10.586-4.3164zm14.84 29.898h210.61v550.1h-210.61z"/>
 <path fill="white" d="m794.47 729.94c-4-0.015625-7.8398 1.5664-10.668 4.3945-2.8281 2.8281-4.4102 6.668-4.3945 10.664v290.11c0.042969 3.9609 1.6523 7.7422 4.4727 10.523 2.8203 2.7773 6.6289 4.332 10.59 4.3164h240.5c3.9609 0.015625 7.7656-1.5391 10.586-4.3164 2.8203-2.7812 4.4297-6.5625 4.4727-10.523v-290.11c0.015625-3.9961-1.5664-7.8359-4.3945-10.664-2.8281-2.8281-6.6641-4.4102-10.664-4.3945zm14.836 30.121h210.61v259.99h-210.61z"/>
 <path fill="white" d="m479.69 164.99h240.63v870.02h-240.63z"/>
 <path fill="white" d="m165 455h240.63v580.01h-240.63z"/>
 <path fill="white" d="m794.38 745h240.63v290h-240.63z"/>
</svg>
