<?xml version="1.0" encoding="UTF-8"?>
<svg version="1.1" xmlns="http://www.w3.org/2000/svg" width="1310" height="298">
<path d="M0 0 C13.53 0 27.06 0 41 0 C41 2.97 41 5.94 41 9 C42.32 9 43.64 9 45 9 C45 11.97 45 14.94 45 18 C46.32 18 47.64 18 49 18 C49 20.64 49 23.28 49 26 C50.65 26 52.3 26 54 26 C54 30.29 54 34.58 54 39 C55.32 39 56.64 39 58 39 C58 41.97 58 44.94 58 48 C59.32 48 60.64 48 62 48 C62 50.97 62 53.94 62 57 C63.32 57 64.64 57 66 57 C66 38.19 66 19.38 66 0 C79.2 0 92.4 0 106 0 C106 43.56 106 87.12 106 132 C92.8 132 79.6 132 66 132 C66 130.68 66 129.36 66 128 C64.35 128 62.7 128 61 128 C61 125.03 61 122.06 61 119 C59.68 119 58.36 119 57 119 C57 116.36 57 113.72 57 111 C55.68 111 54.36 111 53 111 C53 108.03 53 105.06 53 102 C51.35 102 49.7 102 48 102 C48 97.71 48 93.42 48 89 C46.68 89 45.36 89 44 89 C44 86.03 44 83.06 44 80 C43.01 80 42.02 80 41 80 C41 97.16 41 114.32 41 132 C27.47 132 13.94 132 0 132 C0 88.44 0 44.88 0 0 Z " fill="#DDDDDD" transform="translate(937,83)"/>
<path d="M0 0 C13.2 0 26.4 0 40 0 C40 2.97 40 5.94 40 9 C41.65 9 43.3 9 45 9 C45 11.97 45 14.94 45 18 C46.32 18 47.64 18 49 18 C49 20.64 49 23.28 49 26 C50.32 26 51.64 26 53 26 C53 30.29 53 34.58 53 39 C54.65 39 56.3 39 58 39 C58 41.97 58 44.94 58 48 C59.32 48 60.64 48 62 48 C62 50.97 62 53.94 62 57 C63.32 57 64.64 57 66 57 C66 38.19 66 19.38 66 0 C79.2 0 92.4 0 106 0 C106 43.56 106 87.12 106 132 C92.8 132 79.6 132 66 132 C66 130.68 66 129.36 66 128 C64.35 128 62.7 128 61 128 C61 125.03 61 122.06 61 119 C59.68 119 58.36 119 57 119 C57 116.36 57 113.72 57 111 C55.35 111 53.7 111 52 111 C52 108.03 52 105.06 52 102 C50.68 102 49.36 102 48 102 C48 97.71 48 93.42 48 89 C46.68 89 45.36 89 44 89 C44 86.03 44 83.06 44 80 C42.68 80 41.36 80 40 80 C40 97.16 40 114.32 40 132 C26.8 132 13.6 132 0 132 C0 88.44 0 44.88 0 0 Z " fill="#DCDCDC" transform="translate(495,83)"/>
<path d="M0 0 C33.66 0 67.32 0 102 0 C102 13.2 102 26.4 102 40 C81.54 40 61.08 40 40 40 C40 43.96 40 47.92 40 52 C54.85 52 69.7 52 85 52 C85 61.24 85 70.48 85 80 C70.15 80 55.3 80 40 80 C40 83.96 40 87.92 40 92 C60.46 92 80.92 92 102 92 C102 105.2 102 118.4 102 132 C68.34 132 34.68 132 0 132 C0 88.44 0 44.88 0 0 Z " fill="#DEDEDE" transform="translate(385,83)"/>
<path d="M0 0 C27.72 0 55.44 0 84 0 C84 1.32 84 2.64 84 4 C85.65 4 87.3 4 89 4 C89 5.65 89 7.3 89 9 C90.32 9 91.64 9 93 9 C93 10.32 93 11.64 93 13 C94.65 13 96.3 13 98 13 C98 14.65 98 16.3 98 18 C99.32 18 100.64 18 102 18 C102 38.46 102 58.92 102 80 C100.68 80 99.36 80 98 80 C98 81.32 98 82.64 98 84 C96.35 84 94.7 84 93 84 C93 85.32 93 86.64 93 88 C94.65 88 96.3 88 98 88 C98 89.32 98 90.64 98 92 C99.32 92 100.64 92 102 92 C102 105.2 102 118.4 102 132 C90.12 132 78.24 132 66 132 C66 122.1 66 112.2 66 102 C56.1 102 46.2 102 36 102 C36 111.9 36 121.8 36 132 C24.12 132 12.24 132 0 132 C0 88.44 0 44.88 0 0 Z M36 36 C36 45.9 36 55.8 36 66 C44.58 66 53.16 66 62 66 C62 64.35 62 62.7 62 61 C63.32 61 64.64 61 66 61 C66 54.4 66 47.8 66 41 C64.68 41 63.36 41 62 41 C62 39.35 62 37.7 62 36 C53.42 36 44.84 36 36 36 Z " fill="#DDDDDD" transform="translate(718,83)"/>
<path d="M0 0 C22.11 0 44.22 0 67 0 C67 1.32 67 2.64 67 4 C68.32 4 69.64 4 71 4 C71 5.65 71 7.3 71 9 C72.32 9 73.64 9 75 9 C75 10.32 75 11.64 75 13 C76.65 13 78.3 13 80 13 C80 14.32 80 15.64 80 17 C81.32 17 82.64 17 84 17 C84 49.34 84 81.68 84 115 C82.68 115 81.36 115 80 115 C80 116.32 80 117.64 80 119 C78.35 119 76.7 119 75 119 C75 120.32 75 121.64 75 123 C73.68 123 72.36 123 71 123 C71 124.65 71 126.3 71 128 C69.68 128 68.36 128 67 128 C67 129.32 67 130.64 67 132 C44.89 132 22.78 132 0 132 C0 130.68 0 129.36 0 128 C-1.32 128 -2.64 128 -4 128 C-4 126.35 -4 124.7 -4 123 C-5.65 123 -7.3 123 -9 123 C-9 121.68 -9 120.36 -9 119 C-10.32 119 -11.64 119 -13 119 C-13 117.68 -13 116.36 -13 115 C-14.65 115 -16.3 115 -18 115 C-18 82.66 -18 50.32 -18 17 C-16.35 17 -14.7 17 -13 17 C-13 15.68 -13 14.36 -13 13 C-11.68 13 -10.36 13 -9 13 C-9 11.68 -9 10.36 -9 9 C-7.35 9 -5.7 9 -4 9 C-4 7.35 -4 5.7 -4 4 C-2.68 4 -1.36 4 0 4 C0 2.68 0 1.36 0 0 Z M18 36 C18 54.48 18 72.96 18 92 C27.9 92 37.8 92 48 92 C48 73.52 48 55.04 48 36 C38.1 36 28.2 36 18 36 Z " fill="#DCDCDC" transform="translate(184,83)"/>
<path d="M0 0 C22.11 0 44.22 0 67 0 C67 1.32 67 2.64 67 4 C68.32 4 69.64 4 71 4 C71 5.65 71 7.3 71 9 C72.65 9 74.3 9 76 9 C76 10.32 76 11.64 76 13 C77.32 13 78.64 13 80 13 C80 14.32 80 15.64 80 17 C81.32 17 82.64 17 84 17 C84 49.34 84 81.68 84 115 C82.68 115 81.36 115 80 115 C80 116.32 80 117.64 80 119 C78.68 119 77.36 119 76 119 C76 120.32 76 121.64 76 123 C74.35 123 72.7 123 71 123 C71 124.65 71 126.3 71 128 C69.68 128 68.36 128 67 128 C67 129.32 67 130.64 67 132 C44.89 132 22.78 132 0 132 C0 130.68 0 129.36 0 128 C-1.32 128 -2.64 128 -4 128 C-4 126.35 -4 124.7 -4 123 C-5.65 123 -7.3 123 -9 123 C-9 121.68 -9 120.36 -9 119 C-10.32 119 -11.64 119 -13 119 C-13 117.68 -13 116.36 -13 115 C-14.32 115 -15.64 115 -17 115 C-17 82.66 -17 50.32 -17 17 C-15.68 17 -14.36 17 -13 17 C-13 15.68 -13 14.36 -13 13 C-11.68 13 -10.36 13 -9 13 C-9 11.68 -9 10.36 -9 9 C-7.35 9 -5.7 9 -4 9 C-4 7.35 -4 5.7 -4 4 C-2.68 4 -1.36 4 0 4 C0 2.68 0 1.36 0 0 Z M19 36 C19 54.48 19 72.96 19 92 C28.57 92 38.14 92 48 92 C48 73.52 48 55.04 48 36 C38.43 36 28.86 36 19 36 Z " fill="#DDDDDD" transform="translate(845,83)"/>
<path d="M0 0 C27.72 0 55.44 0 84 0 C84 1.32 84 2.64 84 4 C85.65 4 87.3 4 89 4 C89 5.65 89 7.3 89 9 C90.32 9 91.64 9 93 9 C93 10.32 93 11.64 93 13 C94.32 13 95.64 13 97 13 C97 14.32 97 15.64 97 17 C98.65 17 100.3 17 102 17 C102 33.5 102 50 102 67 C100.35 67 98.7 67 97 67 C97 68.32 97 69.64 97 71 C95.68 71 94.36 71 93 71 C93 72.32 93 73.64 93 75 C91.68 75 90.36 75 89 75 C89 76.65 89 78.3 89 80 C87.35 80 85.7 80 84 80 C84 81.32 84 82.64 84 84 C68.16 84 52.32 84 36 84 C36 99.84 36 115.68 36 132 C24.12 132 12.24 132 0 132 C0 88.44 0 44.88 0 0 Z M36 30 C36 37.92 36 45.84 36 54 C45.9 54 55.8 54 66 54 C66 52.68 66 51.36 66 50 C67.32 50 68.64 50 70 50 C70 44.72 70 39.44 70 34 C68.68 34 67.36 34 66 34 C66 32.68 66 31.36 66 30 C56.1 30 46.2 30 36 30 Z " fill="#DDDDDD" transform="translate(276,83)"/>
<path d="M0 0 C33.33 0 66.66 0 101 0 C101 13.2 101 26.4 101 40 C79.55 40 58.1 40 36 40 C36 44.29 36 48.58 36 53 C52.17 53 68.34 53 85 53 C85 63.23 85 73.46 85 84 C68.83 84 52.66 84 36 84 C36 99.84 36 115.68 36 132 C24.12 132 12.24 132 0 132 C0 88.44 0 44.88 0 0 Z " fill="#DCDCDC" transform="translate(609,83)"/>
<path d="M0 0 C30.69 0 61.38 0 93 0 C93 13.2 93 26.4 93 40 C84.42 40 75.84 40 67 40 C67 70.36 67 100.72 67 132 C53.47 132 39.94 132 26 132 C26 101.64 26 71.28 26 40 C17.42 40 8.84 40 0 40 C0 26.8 0 13.6 0 0 Z " fill="#DDDDDD" transform="translate(1051,83)"/>
<path d="M0 0 C11.88 0 23.76 0 36 0 C36 5.94 36 11.88 36 18 C30.06 18 24.12 18 18 18 C18 23.94 18 29.88 18 36 C12.39 36 6.78 36 1 36 C1 41.28 1 46.56 1 52 C6.61 52 12.22 52 18 52 C18 57.94 18 63.88 18 70 C23.94 70 29.88 70 36 70 C36 75.94 36 81.88 36 88 C24.12 88 12.24 88 0 88 C0 82.39 0 76.78 0 71 C-5.94 71 -11.88 71 -18 71 C-18 65.06 -18 59.12 -18 53 C-23.61 53 -29.22 53 -35 53 C-35 47.06 -35 41.12 -35 35 C-29.39 35 -23.78 35 -18 35 C-18 29.06 -18 23.12 -18 17 C-12.06 17 -6.12 17 0 17 C0 11.39 0 5.78 0 0 Z " fill="#DCDCDC" transform="translate(1191,105)"/>
<path d="M0 0 C11.88 0 23.76 0 36 0 C36 5.61 36 11.22 36 17 C41.94 17 47.88 17 54 17 C54 22.94 54 28.88 54 35 C59.61 35 65.22 35 71 35 C71 40.94 71 46.88 71 53 C65.39 53 59.78 53 54 53 C54 58.94 54 64.88 54 71 C48.06 71 42.12 71 36 71 C36 76.61 36 82.22 36 88 C24.12 88 12.24 88 0 88 C0 82.06 0 76.12 0 70 C5.94 70 11.88 70 18 70 C18 64.06 18 58.12 18 52 C23.61 52 29.22 52 35 52 C35 46.72 35 41.44 35 36 C29.39 36 23.78 36 18 36 C18 30.06 18 24.12 18 18 C12.06 18 6.12 18 0 18 C0 12.06 0 6.12 0 0 Z " fill="#DCDCDC" transform="translate(83,105)"/>
<path d="M0 0 C2 0 2 0 4.09661865 1.76457214 C6.97325827 6.65437521 6.52549768 11.19254887 6.45410156 16.7668457 C6.45468567 17.95751144 6.45526978 19.14817719 6.45587158 20.37492371 C6.45356582 23.63099856 6.43353568 26.88638169 6.40557575 30.14231896 C6.38053424 33.548233 6.37821795 36.95416131 6.37347412 40.3601532 C6.36105234 46.80582332 6.32824183 53.25122137 6.28807616 59.6967718 C6.24333338 67.03649196 6.22136516 74.37622525 6.20129442 81.71604788 C6.15950826 96.81085006 6.08917202 111.90539779 6 127 C7.13117249 126.98889694 8.26234497 126.97779388 9.42779541 126.96635437 C20.08094918 126.86505577 30.73400542 126.79007172 41.38753128 126.74093914 C46.8648407 126.71483037 52.34176177 126.67940843 57.81884766 126.62280273 C63.1032468 126.5685294 68.38727209 126.53858911 73.67192841 126.52561378 C75.68942909 126.51636554 77.706909 126.49830594 79.72425079 126.47134972 C82.54741341 126.43512165 85.36902566 126.43005204 88.19238281 126.43237305 C89.02891891 126.41439667 89.86545502 126.39642029 90.7273407 126.37789917 C93.06427002 126.39872742 93.06427002 126.39872742 97 127 C98.32 128.65 99.64 130.3 101 132 C67.67 132 34.34 132 0 132 C0 88.44 0 44.88 0 0 Z " fill="#BBBBBB" transform="translate(385,83)"/>
<path d="M0 0 C6 5 6 5 6.68115234 8.3215332 C6.64973145 9.55218506 6.61831055 10.78283691 6.5859375 12.05078125 C6.57744781 12.70958786 6.56895813 13.36839447 6.56021118 14.04716492 C6.52680339 16.13732314 6.45157577 18.22352271 6.375 20.3125 C6.34488282 21.73497003 6.31751005 23.15750098 6.29296875 24.58007812 C6.23216351 28.05611079 6.11481474 31.52366486 6 35 C14.58 35 23.16 35 32 35 C32 65.36 32 95.72 32 127 C41.9 127 51.8 127 62 127 C63.98 129.475 63.98 129.475 66 132 C52.8 132 39.6 132 26 132 C26 101.64 26 71.28 26 40 C17.42 40 8.84 40 0 40 C0 26.8 0 13.6 0 0 Z " fill="#BBBBBB" transform="translate(1051,83)"/>
<path d="M0 0 C6 5 6 5 6.7215271 8.90412903 C6.73882782 10.45403292 6.72316642 12.00452415 6.68115234 13.55395508 C6.6820285 14.40324585 6.68290466 15.25253662 6.68380737 16.12756348 C6.67963776 18.92583222 6.63301755 21.72168305 6.5859375 24.51953125 C6.57474308 26.46293325 6.56620406 28.40635222 6.56021118 30.34977722 C6.53733221 35.45806858 6.47841675 40.56533186 6.4119873 45.67321777 C6.35054482 50.8881235 6.32319195 56.1031958 6.29296875 61.31835938 C6.22867283 71.54602395 6.12630437 81.77292639 6 92 C7.32 92 8.64 92 10 92 C10 93.65 10 95.3 10 97 C11.65 97 13.3 97 15 97 C15 98.32 15 99.64 15 101 C16.32 101 17.64 101 19 101 C19 102.65 19 104.3 19 106 C20.32 106 21.64 106 23 106 C23 107.32 23 108.64 23 110 C23.7052179 109.98889694 24.41043579 109.97779388 25.13702393 109.96635437 C31.7873522 109.86611414 38.4374693 109.79001646 45.08838272 109.74093914 C48.50765493 109.71485909 51.92630228 109.6794935 55.34521484 109.62280273 C59.27694178 109.55801773 63.20841689 109.5338061 67.140625 109.51171875 C68.36678528 109.48591232 69.59294556 109.4601059 70.85626221 109.43351746 C71.99714294 109.4331398 73.13802368 109.43276215 74.31347656 109.43237305 C75.31719299 109.42126999 76.32090942 109.41016693 77.3550415 109.39872742 C80 110 80 110 84 115 C62.22 115 40.44 115 18 115 C18 113.68 18 112.36 18 111 C16.68 111 15.36 111 14 111 C14 109.35 14 107.7 14 106 C12.35 106 10.7 106 9 106 C9 104.68 9 103.36 9 102 C7.68 102 6.36 102 5 102 C5 100.68 5 99.36 5 98 C3.35 98 1.7 98 0 98 C0 65.66 0 33.32 0 0 Z " fill="#BBBBBB" transform="translate(166,100)"/>
<path d="M0 0 C22.11 0 44.22 0 67 0 C67 1.32 67 2.64 67 4 C68.32 4 69.64 4 71 4 C71 5.65 71 7.3 71 9 C72.32 9 73.64 9 75 9 C75 10.32 75 11.64 75 13 C76.65 13 78.3 13 80 13 C80 14.32 80 15.64 80 17 C81.32 17 82.64 17 84 17 C84 49.34 84 81.68 84 115 C78.42973919 109.42973919 78.42973919 109.42973919 78.37789917 103.85676575 C78.39587555 103.06122787 78.41385193 102.26569 78.43237305 101.44604492 C78.43164291 100.59675415 78.43091278 99.74746338 78.43016052 98.87243652 C78.43363484 96.07445676 78.47248763 93.27815648 78.51171875 90.48046875 C78.52104745 88.53706268 78.52816329 86.59364482 78.53315735 84.65022278 C78.55222262 79.54207741 78.60131961 74.43464604 78.65667725 69.32678223 C78.70787974 64.11183328 78.73067355 58.89676864 78.75585938 53.68164062 C78.80943859 43.45411386 78.89474592 33.22711637 79 23 C77.35 23 75.7 23 74 23 C74 21.68 74 20.36 74 19 C72.68 19 71.36 19 70 19 C70 17.35 70 15.7 70 14 C68.68 14 67.36 14 66 14 C66 12.68 66 11.36 66 10 C64.35 10 62.7 10 61 10 C61 8.35 61 6.7 61 5 C60.2947821 5.01110306 59.58956421 5.02220612 58.86297607 5.03364563 C52.2126478 5.13388586 45.5625307 5.20998354 38.91161728 5.25906086 C35.49234507 5.28514091 32.07369772 5.3205065 28.65478516 5.37719727 C24.72305822 5.44198227 20.79158311 5.4661939 16.859375 5.48828125 C15.63321472 5.51408768 14.40705444 5.5398941 13.14373779 5.56648254 C11.43241669 5.56704903 11.43241669 5.56704903 9.68652344 5.56762695 C8.18094879 5.58428154 8.18094879 5.58428154 6.6449585 5.60127258 C4 5 4 5 0 0 Z " fill="#EDEDED" transform="translate(184,83)"/>
<path d="M0 0 C12.87 0 25.74 0 39 0 C39 43.56 39 87.12 39 132 C33 127 33 127 32.26171303 124.49505901 C32.27000916 123.16352905 32.27000916 123.16352905 32.2784729 121.80509949 C32.27022491 120.78011353 32.26197693 119.75512756 32.253479 118.69908142 C32.27505066 117.58561844 32.29662231 116.47215546 32.31884766 115.32495117 C32.31753342 113.55358292 32.31753342 113.55358292 32.31619263 111.74642944 C32.31965149 108.51686253 32.34969268 105.28886489 32.39163637 102.05961013 C32.42919984 98.68176228 32.43267307 95.30388203 32.43978882 91.92585754 C32.4584215 85.5331457 32.507636 79.1410511 32.56788576 72.74861079 C32.63500097 65.46939788 32.6679523 58.19015514 32.69805837 50.91070974 C32.76073733 35.94012951 32.8662405 20.97012655 33 6 C32.17798096 6.02094727 31.35596191 6.04189453 30.5090332 6.06347656 C26.77698036 6.14673309 23.04512306 6.19869247 19.3125 6.25 C18.01892578 6.28351563 16.72535156 6.31703125 15.39257812 6.3515625 C14.14541016 6.36445312 12.89824219 6.37734375 11.61328125 6.390625 C10.46641846 6.41157227 9.31955566 6.43251953 8.13793945 6.45410156 C4.34137773 5.9046886 2.67876835 4.69663308 0 2 C0 1.34 0 0.68 0 0 Z " fill="#EFEFEF" transform="translate(562,83)"/>
<path d="M0 0 C5.57026081 5.57026081 5.57026081 5.57026081 5.62210083 11.14323425 C5.60412445 11.93877213 5.58614807 12.73431 5.56762695 13.55395508 C5.56835709 14.40324585 5.56908722 15.25253662 5.56983948 16.12756348 C5.56636516 18.92554324 5.52751237 21.72184352 5.48828125 24.51953125 C5.47895255 26.46293732 5.47183671 28.40635518 5.46684265 30.34977722 C5.44777738 35.45792259 5.39868039 40.56535396 5.34332275 45.67321777 C5.29212026 50.88816672 5.26932645 56.10323136 5.24414062 61.31835938 C5.19056141 71.54588614 5.10525408 81.77288363 5 92 C6.65 92 8.3 92 10 92 C10 93.65 10 95.3 10 97 C11.32 97 12.64 97 14 97 C14 98.32 14 99.64 14 101 C15.32 101 16.64 101 18 101 C18 102.65 18 104.3 18 106 C19.32 106 20.64 106 22 106 C22 107.32 22 108.64 22 110 C22.7052179 109.98889694 23.41043579 109.97779388 24.13702393 109.96635437 C30.7873522 109.86611414 37.4374693 109.79001646 44.08838272 109.74093914 C47.50765493 109.71485909 50.92630228 109.6794935 54.34521484 109.62280273 C58.27694178 109.55801773 62.20841689 109.5338061 66.140625 109.51171875 C67.36678528 109.48591232 68.59294556 109.4601059 69.85626221 109.43351746 C70.99714294 109.4331398 72.13802368 109.43276215 73.31347656 109.43237305 C74.31719299 109.42126999 75.32090942 109.41016693 76.3550415 109.39872742 C79 110 79 110 83 115 C61.22 115 39.44 115 17 115 C17 113.68 17 112.36 17 111 C15.68 111 14.36 111 13 111 C13 109.35 13 107.7 13 106 C11.35 106 9.7 106 8 106 C8 104.68 8 103.36 8 102 C6.68 102 5.36 102 4 102 C4 100.68 4 99.36 4 98 C2.68 98 1.36 98 0 98 C0 65.66 0 33.32 0 0 Z " fill="#BABABA" transform="translate(828,100)"/>
<path d="M0 0 C6 5 6 5 6.73828697 7.52055836 C6.73275621 8.41561934 6.72722546 9.31068033 6.7215271 10.23286438 C6.72977509 11.2662645 6.73802307 12.29966461 6.746521 13.36437988 C6.72494934 14.4871936 6.70337769 15.61000732 6.68115234 16.7668457 C6.6820285 17.95751144 6.68290466 19.14817719 6.68380737 20.37492371 C6.68034836 23.63134399 6.65030576 26.88620822 6.60836363 30.14231896 C6.57080178 33.54819462 6.56732705 36.95410237 6.56021118 40.3601532 C6.54157804 46.80598653 6.49236287 53.25120776 6.43211424 59.6967718 C6.36500051 67.03644379 6.33204807 74.37614534 6.30194163 81.71604788 C6.23926161 96.81103938 6.13375749 111.90545842 6 127 C7.28632324 126.96072388 7.28632324 126.96072388 8.59863281 126.9206543 C11.78916189 126.83529403 14.97910807 126.77268487 18.17041016 126.7253418 C19.54983702 126.7002407 20.92913142 126.66615127 22.30810547 126.62280273 C24.29335872 126.56197125 26.27959359 126.53642063 28.265625 126.51171875 C30.05661621 126.47244263 30.05661621 126.47244263 31.88378906 126.43237305 C35 127 35 127 39 132 C26.13 132 13.26 132 0 132 C0 88.44 0 44.88 0 0 Z " fill="#BCBCBC" transform="translate(937,83)"/>
<path d="M0 0 C6 5 6 5 6.73828697 7.52055836 C6.73275621 8.41561934 6.72722546 9.31068033 6.7215271 10.23286438 C6.72977509 11.2662645 6.73802307 12.29966461 6.746521 13.36437988 C6.72494934 14.4871936 6.70337769 15.61000732 6.68115234 16.7668457 C6.6820285 17.95751144 6.68290466 19.14817719 6.68380737 20.37492371 C6.68034836 23.63134399 6.65030576 26.88620822 6.60836363 30.14231896 C6.57080178 33.54819462 6.56732705 36.95410237 6.56021118 40.3601532 C6.54157804 46.80598653 6.49236287 53.25120776 6.43211424 59.6967718 C6.36500051 67.03644379 6.33204807 74.37614534 6.30194163 81.71604788 C6.23926161 96.81103938 6.13375749 111.90545842 6 127 C6.73637695 126.97381592 7.47275391 126.94763184 8.23144531 126.9206543 C11.57074616 126.81666314 14.90970655 126.7516659 18.25 126.6875 C19.40886719 126.64560547 20.56773437 126.60371094 21.76171875 126.56054688 C22.87675781 126.54443359 23.99179687 126.52832031 25.140625 126.51171875 C26.68024902 126.47244263 26.68024902 126.47244263 28.25097656 126.43237305 C31 127 31 127 35 132 C23.45 132 11.9 132 0 132 C0 88.44 0 44.88 0 0 Z " fill="#BCBCBC" transform="translate(718,83)"/>
<path d="M0 0 C5 4 5 4 5.61523914 6.4131279 C5.61063018 7.31648502 5.60602121 8.21984215 5.60127258 9.15057373 C5.6081459 10.19101334 5.61501923 11.23145294 5.62210083 12.30342102 C5.60412445 13.43918076 5.58614807 14.57494049 5.56762695 15.74511719 C5.56835709 16.94539047 5.56908722 18.14566376 5.56983948 19.38230896 C5.56695384 22.66958339 5.54188944 25.95579206 5.50696969 29.24285412 C5.4757019 32.67945405 5.47277516 36.11607518 5.46684265 39.55279541 C5.45130528 46.0587772 5.41027884 52.56433863 5.3600952 59.07013535 C5.30419794 66.47752469 5.27671437 73.88493415 5.25161803 81.2924819 C5.19936242 96.52856467 5.11142288 111.76422812 5 127 C5.8878418 126.97381592 6.77568359 126.94763184 7.69042969 126.9206543 C10.99300405 126.8353025 14.29440275 126.77269348 17.59765625 126.7253418 C19.02557901 126.70023653 20.45337375 126.66614413 21.88085938 126.62280273 C23.93651918 126.56196322 25.99047753 126.53375449 28.046875 126.51171875 C29.90070801 126.47244263 29.90070801 126.47244263 31.79199219 126.43237305 C35 127 35 127 39 132 C26.13 132 13.26 132 0 132 C0 88.44 0 44.88 0 0 Z " fill="#B9B9B9" transform="translate(495,83)"/>
<path d="M0 0 C5 4 5 4 5.61523914 6.39751053 C5.61063018 7.29349331 5.60602121 8.18947609 5.60127258 9.11260986 C5.6081459 10.14463531 5.61501923 11.17666077 5.62210083 12.23995972 C5.60412445 13.36636871 5.58614807 14.49277771 5.56762695 15.65332031 C5.56835709 16.84384003 5.56908722 18.03435974 5.56983948 19.26095581 C5.56695394 22.52137515 5.54189045 25.78071982 5.50696969 29.04092503 C5.47570084 32.44949734 5.47277508 35.85809106 5.46684265 39.26678467 C5.45130559 45.71964418 5.41027958 52.17207984 5.3600952 58.62475276 C5.30419697 65.97168325 5.27671413 73.31863405 5.25161803 80.66572428 C5.19936315 95.77738563 5.11142414 110.88865042 5 126 C5.76666992 125.97381592 6.53333984 125.94763184 7.32324219 125.9206543 C10.79861949 125.81668777 14.27366983 125.75167276 17.75 125.6875 C18.9565625 125.64560547 20.163125 125.60371094 21.40625 125.56054688 C22.56640625 125.54443359 23.7265625 125.52832031 24.921875 125.51171875 C25.99018555 125.48553467 27.05849609 125.45935059 28.15917969 125.43237305 C31 126 31 126 35 131 C23.45 131 11.9 131 0 131 C0 87.77 0 44.54 0 0 Z " fill="#B9B9B9" transform="translate(609,84)"/>
<path d="M0 0 C5 4 5 4 5.61523914 6.39751053 C5.61063018 7.29349331 5.60602121 8.18947609 5.60127258 9.11260986 C5.6081459 10.14463531 5.61501923 11.17666077 5.62210083 12.23995972 C5.60412445 13.36636871 5.58614807 14.49277771 5.56762695 15.65332031 C5.56835709 16.84384003 5.56908722 18.03435974 5.56983948 19.26095581 C5.56695394 22.52137515 5.54189045 25.78071982 5.50696969 29.04092503 C5.47570084 32.44949734 5.47277508 35.85809106 5.46684265 39.26678467 C5.45130559 45.71964418 5.41027958 52.17207984 5.3600952 58.62475276 C5.30419697 65.97168325 5.27671413 73.31863405 5.25161803 80.66572428 C5.19936315 95.77738563 5.11142414 110.88865042 5 126 C5.76666992 125.97381592 6.53333984 125.94763184 7.32324219 125.9206543 C10.79861949 125.81668777 14.27366983 125.75167276 17.75 125.6875 C18.9565625 125.64560547 20.163125 125.60371094 21.40625 125.56054688 C22.56640625 125.54443359 23.7265625 125.52832031 24.921875 125.51171875 C25.99018555 125.48553467 27.05849609 125.45935059 28.15917969 125.43237305 C31 126 31 126 35 131 C23.45 131 11.9 131 0 131 C0 87.77 0 44.54 0 0 Z " fill="#B9B9B9" transform="translate(276,84)"/>
<path d="M0 0 C33.33 0 66.66 0 101 0 C101 13.2 101 26.4 101 40 C96 36 96 36 95.43237305 32.79199219 C95.45855713 31.55610352 95.48474121 30.32021484 95.51171875 29.046875 C95.51879349 28.38665344 95.52586823 27.72643188 95.53315735 27.04620361 C95.56105273 24.94629508 95.62376713 22.84909621 95.6875 20.75 C95.71258983 19.3229553 95.73540183 17.89586862 95.75585938 16.46875 C95.8108588 12.97829252 95.89709088 9.48941089 96 6 C94.30657219 6.0199855 94.30657219 6.0199855 92.57893372 6.04037476 C81.94084824 6.16199243 71.30290376 6.25194206 60.66428089 6.31087303 C55.19475652 6.34218888 49.72579323 6.38466717 44.2565918 6.45263672 C38.97865471 6.51781897 33.70125735 6.55370413 28.42294884 6.56926346 C26.4090392 6.58035176 24.39515918 6.60200507 22.38147926 6.63438034 C19.56071735 6.67792882 16.74218645 6.68393482 13.92114258 6.68115234 C13.08820175 6.702724 12.25526093 6.72429565 11.39707947 6.746521 C10.62451813 6.73827301 9.85195679 6.73002502 9.0559845 6.7215271 C8.38952817 6.72705786 7.72307184 6.73258862 7.03641987 6.73828697 C5 6 5 6 0 0 Z " fill="#E9E9E9" transform="translate(609,83)"/>
<path d="M0 0 C30.36 0 60.72 0 92 0 C92 13.2 92 26.4 92 40 C86 35 86 35 85.31884766 31.77026367 C85.365979 29.98712769 85.365979 29.98712769 85.4140625 28.16796875 C85.44306641 26.22954102 85.44306641 26.22954102 85.47265625 24.25195312 C85.52278099 22.89711097 85.57357058 21.54229326 85.625 20.1875 C85.65511878 18.81320906 85.68249128 17.43885501 85.70703125 16.06445312 C85.77769278 12.70803031 85.87632295 9.35481935 86 6 C84.49449333 6.0199855 84.49449333 6.0199855 82.95857239 6.04037476 C73.49779534 6.16202906 64.03717705 6.25195927 54.57579517 6.31087303 C49.71157535 6.34217994 44.84798715 6.38464074 39.98413086 6.45263672 C35.28973375 6.51785262 30.59594393 6.55371087 25.90112877 6.56926346 C24.11049526 6.58034587 22.31989483 6.60198801 20.52952003 6.63438034 C18.02000888 6.67797591 15.51300302 6.68393319 13.00317383 6.68115234 C11.89402367 6.71350983 11.89402367 6.71350983 10.76246643 6.746521 C8.67634583 6.7215271 8.67634583 6.7215271 5 6 C3.35 4.02 1.7 2.04 0 0 Z " fill="#E9E9E9" transform="translate(1052,83)"/>
<path d="M0 0 C13.2 0 26.4 0 40 0 C40 2.97 40 5.94 40 9 C41.32 9 42.64 9 44 9 C44 11.97 44 14.94 44 18 C45.32 18 46.64 18 48 18 C48 20.64 48 23.28 48 26 C49.65 26 51.3 26 53 26 C53 30.29 53 34.58 53 39 C54.32 39 55.64 39 57 39 C57 41.97 57 44.94 57 48 C58.32 48 59.64 48 61 48 C61 50.97 61 53.94 61 57 C61.763125 57.0825 62.52625 57.165 63.3125 57.25 C66 58 66 58 69 62 C64.71 62 60.42 62 56 62 C56 59.36 56 56.72 56 54 C54.68 53.67 53.36 53.34 52 53 C52 50.36 52 47.72 52 45 C50.35 45 48.7 45 47 45 C47 40.71 47 36.42 47 32 C45.68 32 44.36 32 43 32 C43 29.03 43 26.06 43 23 C41.35 23 39.7 23 38 23 C38 20.03 38 17.06 38 14 C36.68 14 35.36 14 34 14 C34 11.36 34 8.72 34 6 C33.14768799 6.0314209 32.29537598 6.0628418 31.41723633 6.09521484 C28.23975696 6.197777 25.06312361 6.27283585 21.88452148 6.32958984 C20.5118425 6.3596733 19.13935437 6.40055334 17.76733398 6.45263672 C15.78975379 6.52580073 13.81074291 6.55633084 11.83203125 6.5859375 C10.04889526 6.63306885 10.04889526 6.63306885 8.22973633 6.68115234 C5 6 5 6 0 0 Z " fill="#ECECEC" transform="translate(938,83)"/>
<path d="M0 0 C0 43.23 0 86.46 0 131 C-5 127 -5 127 -5.62641239 124.59804535 C-5.6269987 123.6998835 -5.62758501 122.80172165 -5.62818909 121.87634277 C-5.64717003 120.32435432 -5.64717003 120.32435432 -5.66653442 118.74101257 C-5.65484222 117.61153702 -5.64315002 116.48206146 -5.63110352 115.31835938 C-5.63825882 114.12451126 -5.64541412 112.93066315 -5.65278625 111.70063782 C-5.66679713 108.4296891 -5.65836503 105.15976398 -5.63869596 101.88887215 C-5.62230524 98.46476423 -5.63112291 95.04070778 -5.63621521 91.61657715 C-5.64073575 85.86648541 -5.62486926 80.11671901 -5.59692383 74.36669922 C-5.5648717 67.72047804 -5.56488752 61.07484361 -5.5821386 54.42858076 C-5.59800692 48.0330263 -5.5912683 41.63768679 -5.57420158 35.24214172 C-5.56733205 32.52128878 -5.5683624 29.8006082 -5.57574654 27.07975769 C-5.58118411 23.28001304 -5.56086782 19.4812711 -5.53344727 15.68164062 C-5.53997314 14.55216507 -5.54649902 13.42268951 -5.55322266 12.25898743 C-5.5404982 11.22432846 -5.52777374 10.18966949 -5.5146637 9.12365723 C-5.51185678 8.22549538 -5.50904985 7.32733353 -5.50615788 6.40195465 C-4.96021531 3.81120311 -3.12822879 0 0 0 Z " fill="#EFEFEF" transform="translate(1043,84)"/>
<path d="M0 0 C4.29 0 8.58 0 13 0 C13 2.64 13 5.28 13 8 C14.65 8 16.3 8 18 8 C18 12.29 18 16.58 18 21 C19.32 21 20.64 21 22 21 C22 23.97 22 26.94 22 30 C23.32 30 24.64 30 26 30 C26 32.97 26 35.94 26 39 C27.65 39 29.3 39 31 39 C31 41.97 31 44.94 31 48 C32.32 48 33.64 48 35 48 C35 49.32 35 50.64 35 52 C35.8878418 51.97381592 36.77568359 51.94763184 37.69042969 51.9206543 C40.99300405 51.8353025 44.29440275 51.77269348 47.59765625 51.7253418 C49.02557901 51.70023653 50.45337375 51.66614413 51.88085938 51.62280273 C53.93651918 51.56196322 55.99047753 51.53375449 58.046875 51.51171875 C59.90070801 51.47244263 59.90070801 51.47244263 61.79199219 51.43237305 C65 52 65 52 69 57 C56.13 57 43.26 57 30 57 C30 55.68 30 54.36 30 53 C28.35 53 26.7 53 25 53 C25 50.03 25 47.06 25 44 C23.68 44 22.36 44 21 44 C21 41.36 21 38.72 21 36 C19.35 36 17.7 36 16 36 C16 33.03 16 30.06 16 27 C14.68 27 13.36 27 12 27 C12 22.71 12 18.42 12 14 C10.68 14 9.36 14 8 14 C8 11.03 8 8.06 8 5 C7.236875 4.9175 6.47375 4.835 5.6875 4.75 C3 4 3 4 0 0 Z " fill="#BCBCBC" transform="translate(531,158)"/>
<path d="M0 0 C4.29 0 8.58 0 13 0 C13 2.64 13 5.28 13 8 C14.65 8 16.3 8 18 8 C18 12.62 18 17.24 18 22 C19.32 22 20.64 22 22 22 C22 24.64 22 27.28 22 30 C23.65 30 25.3 30 27 30 C27 32.97 27 35.94 27 39 C28.32 39 29.64 39 31 39 C31 41.97 31 44.94 31 48 C32.32 48 33.64 48 35 48 C35 49.32 35 50.64 35 52 C35.8878418 51.97381592 36.77568359 51.94763184 37.69042969 51.9206543 C40.99300405 51.8353025 44.29440275 51.77269348 47.59765625 51.7253418 C49.02557901 51.70023653 50.45337375 51.66614413 51.88085938 51.62280273 C53.93651918 51.56196322 55.99047753 51.53375449 58.046875 51.51171875 C59.90070801 51.47244263 59.90070801 51.47244263 61.79199219 51.43237305 C65 52 65 52 69 57 C56.13 57 43.26 57 30 57 C30 55.68 30 54.36 30 53 C28.35 53 26.7 53 25 53 C25 50.03 25 47.06 25 44 C23.68 44 22.36 44 21 44 C21 41.36 21 38.72 21 36 C19.68 36 18.36 36 17 36 C17 33.03 17 30.06 17 27 C15.35 27 13.7 27 12 27 C12 22.71 12 18.42 12 14 C10.68 14 9.36 14 8 14 C8 11.03 8 8.06 8 5 C7.236875 4.9175 6.47375 4.835 5.6875 4.75 C3 4 3 4 0 0 Z " fill="#BBBBBB" transform="translate(973,158)"/>
<path d="M0 0 C11.55 0 23.1 0 35 0 C35 5.61 35 11.22 35 17 C40.94 17 46.88 17 53 17 C53 22.94 53 28.88 53 35 C58.61 35 64.22 35 70 35 C70 40.94 70 46.88 70 53 C68.35 51.68 66.7 50.36 65 49 C65 46.03 65 43.06 65 40 C59.06 40 53.12 40 47 40 C47 34.39 47 28.78 47 23 C41.39 23 35.78 23 30 23 C30 17.06 30 11.12 30 5 C28.16953125 5.05800781 26.3390625 5.11601563 24.453125 5.17578125 C22.05210879 5.2226761 19.65106506 5.26817654 17.25 5.3125 C16.0434375 5.35439453 14.836875 5.39628906 13.59375 5.43945312 C12.43359375 5.45556641 11.2734375 5.47167969 10.078125 5.48828125 C9.00981445 5.51446533 7.94150391 5.54064941 6.84082031 5.56762695 C4 5 4 5 0 0 Z " fill="#ECECEC" transform="translate(84,105)"/>
<path d="M0 0 C1.65 1.32 3.3 2.64 5 4 C5 6.64 5 9.28 5 12 C10.94 12 16.88 12 23 12 C23 17.94 23 23.88 23 30 C28.61 30 34.22 30 40 30 C40 35.61 40 41.22 40 47 C41.83046875 46.94199219 43.6609375 46.88398438 45.546875 46.82421875 C47.94789121 46.7773239 50.34893494 46.73182346 52.75 46.6875 C53.9565625 46.64560547 55.163125 46.60371094 56.40625 46.56054688 C57.56640625 46.54443359 58.7265625 46.52832031 59.921875 46.51171875 C60.99018555 46.48553467 62.05849609 46.45935059 63.15917969 46.43237305 C66 47 66 47 70 52 C58.45 52 46.9 52 35 52 C35 46.39 35 40.78 35 35 C29.06 35 23.12 35 17 35 C17 29.06 17 23.12 17 17 C11.39 17 5.78 17 0 17 C0 11.39 0 5.78 0 0 Z " fill="#BBBBBB" transform="translate(1156,141)"/>
<path d="M0 0 C12.87 0 25.74 0 39 0 C39 2.97 39 5.94 39 9 C40.65 9 42.3 9 44 9 C44 11.97 44 14.94 44 18 C45.32 18 46.64 18 48 18 C48 20.64 48 23.28 48 26 C49.32 26 50.64 26 52 26 C52 30.29 52 34.58 52 39 C53.65 39 55.3 39 57 39 C57.29036649 42.38115651 57.44908891 45.62919149 57 49 C54.5 51.625 54.5 51.625 52 53 C51 52 51 52 50.9375 48.4375 C50.958125 47.303125 50.97875 46.16875 51 45 C49.68 45 48.36 45 47 45 C47 40.71 47 36.42 47 32 C45.68 32 44.36 32 43 32 C43 29.03 43 26.06 43 23 C41.35 23 39.7 23 38 23 C38 20.03 38 17.06 38 14 C36.68 14 35.36 14 34 14 C34 11.36 34 8.72 34 6 C33.14768799 6.0314209 32.29537598 6.0628418 31.41723633 6.09521484 C28.23975696 6.197777 25.06312361 6.27283585 21.88452148 6.32958984 C20.5118425 6.3596733 19.13935437 6.40055334 17.76733398 6.45263672 C15.78975379 6.52580073 13.81074291 6.55633084 11.83203125 6.5859375 C10.04889526 6.63306885 10.04889526 6.63306885 8.22973633 6.68115234 C5 6 5 6 0 0 Z " fill="#ECECEC" transform="translate(496,83)"/>
<path d="M0 0 C2.46800047 1.15173355 4.04783565 2.04783565 6 4 C6.18827993 6.92248382 6.2516874 9.74950822 6.22705078 12.67236328 C6.22734283 13.56998383 6.22763489 14.46760437 6.22793579 15.39242554 C6.22653903 18.36848515 6.21096156 21.34429645 6.1953125 24.3203125 C6.1915836 26.38011539 6.18873605 28.43992005 6.18673706 30.49972534 C6.1790909 35.9282112 6.15943399 41.3565905 6.1373291 46.78503418 C6.1168918 52.32151854 6.10773988 57.85802007 6.09765625 63.39453125 C6.07618902 74.26306772 6.04204126 85.13152501 6 96 C0.37783907 92.30738392 0.37783907 92.30738392 -0.55344772 89.08498192 C-0.7382371 86.7311664 -0.74228367 84.43930577 -0.68115234 82.07885742 C-0.6820285 81.19055237 -0.68290466 80.30224731 -0.68380737 79.38702393 C-0.67963633 76.45893567 -0.63300786 73.53315534 -0.5859375 70.60546875 C-0.57474363 68.57238517 -0.56620435 66.53928537 -0.56021118 64.50617981 C-0.53732804 59.16117483 -0.47840856 53.81715181 -0.4119873 48.47253418 C-0.35055406 43.01632979 -0.3231939 37.55996635 -0.29296875 32.10351562 C-0.22866539 21.40191287 -0.12629156 10.70103816 0 0 Z " fill="#EFEFEF" transform="translate(1112,119)"/>
<path d="M0 0 C27.39 0 54.78 0 83 0 C83 1.32 83 2.64 83 4 C84.65 4 86.3 4 88 4 C88.33663062 7.70293685 88.47736015 9.39534381 86.125 12.375 C84 14 84 14 82 14 C82 12.68 82 11.36 82 10 C80.68 10 79.36 10 78 10 C78 8.68 78 7.36 78 6 C76.64483025 6.0199855 76.64483025 6.0199855 75.26228333 6.04037476 C66.74331398 6.16065484 58.22463024 6.25197622 49.7050066 6.31087303 C45.32502296 6.34217106 40.94574157 6.38461433 36.56616211 6.45263672 C32.3385956 6.51788628 28.11170395 6.55371755 23.88367271 6.56926346 C22.27165795 6.58034 20.65967966 6.60197101 19.04795265 6.63438034 C16.78742664 6.67802333 14.52967914 6.6839316 12.26879883 6.68115234 C10.34019768 6.70113785 10.34019768 6.70113785 8.37263489 6.7215271 C5 6 5 6 0 0 Z " fill="#EAEAEA" transform="translate(719,83)"/>
<path d="M0 0 C12.87 0 25.74 0 39 0 C39 21.78 39 43.56 39 66 C33 61 33 61 32.2784729 58.27275085 C32.29179657 57.28901993 32.30512024 56.305289 32.31884766 55.29174805 C32.31930084 54.17096359 32.31975403 53.05017914 32.32022095 51.89543152 C32.35118866 50.6963063 32.38215637 49.49718109 32.4140625 48.26171875 C32.42255219 47.02581497 32.43104187 45.78991119 32.43978882 44.51655579 C32.4676495 41.24264089 32.52147746 37.97051847 32.5880127 34.69720459 C32.64957274 31.35234082 32.67631986 28.00739876 32.70703125 24.66210938 C32.77315243 18.10737417 32.87353366 11.55383361 33 5 C31.66038208 5.02356567 31.66038208 5.02356567 30.29370117 5.04760742 C26.97821244 5.09875439 23.66314325 5.13635812 20.34741211 5.16479492 C18.91277448 5.17987589 17.47818292 5.2003438 16.04370117 5.22631836 C13.98084141 5.26273437 11.91859142 5.27973243 9.85546875 5.29296875 C8.61434326 5.3086792 7.37321777 5.32438965 6.09448242 5.34057617 C3 5 3 5 1.0715332 3.60668945 C0 2 0 2 0 0 Z " fill="#BBBBBB" transform="translate(860,114)"/>
<path d="M0 0 C4 2 4 2 5 3 C5.09370624 4.77991924 5.11744271 6.56356739 5.11352539 8.34594727 C5.11344986 9.4870546 5.11337433 10.62816193 5.11329651 11.80384827 C5.10813522 13.0454924 5.10297394 14.28713654 5.09765625 15.56640625 C5.0962413 16.83016586 5.09482635 18.09392548 5.09336853 19.39598083 C5.08870582 22.76124889 5.0797148 26.1264499 5.06866455 29.49169922 C5.05844846 32.9234967 5.05387049 36.35530109 5.04882812 39.78710938 C5.0377738 46.52475824 5.0210171 53.26237525 5 60 C5.88260498 59.9685791 6.76520996 59.9371582 7.67456055 59.90478516 C10.96418915 59.80223442 14.25210953 59.72717752 17.54272461 59.67041016 C18.9638964 59.64032046 20.38488372 59.59943596 21.80541992 59.54736328 C23.85381575 59.47418066 25.8997499 59.4404729 27.94921875 59.4140625 C29.17987061 59.3826416 30.41052246 59.3512207 31.6784668 59.31884766 C35 60 35 60 40 66 C26.8 66 13.6 66 0 66 C0 44.22 0 22.44 0 0 Z " fill="#EFEFEF" transform="translate(197,115)"/>
<path d="M0 0 C0.33 0.99 0.66 1.98 1 3 C2.32 3 3.64 3 5 3 C5 35.01 5 67.02 5 100 C0 96 0 96 -0.60127258 92.21612549 C-0.61573773 90.66396731 -0.6025352 89.11140331 -0.56762695 87.55957031 C-0.56835709 86.71042557 -0.56908722 85.86128082 -0.56983948 84.98640442 C-0.56635928 82.1829921 -0.52747864 79.38124659 -0.48828125 76.578125 C-0.47895464 74.63328967 -0.47183781 72.68844259 -0.46684265 70.74359131 C-0.4477609 65.62721263 -0.3986497 60.51154479 -0.34332275 55.39544678 C-0.29215581 50.17388526 -0.26933405 44.95220876 -0.24414062 39.73046875 C-0.19053232 29.48666702 -0.10520504 19.24339264 0 9 C-1.32 9 -2.64 9 -4 9 C-4.25 6.75 -4.25 6.75 -4 4 C-2 1.6875 -2 1.6875 0 0 Z " fill="#EFEFEF" transform="translate(924,97)"/>
<path d="M0 0 C4 2 4 2 5 3 C5 7.29 5 11.58 5 16 C19.85 16 34.7 16 50 16 C50 25.24 50 34.48 50 44 C47.03 41.525 47.03 41.525 44 39 C44 33.39 44 27.78 44 22 C29.48 22 14.96 22 0 22 C0 14.74 0 7.48 0 0 Z " fill="#ECECEC" transform="translate(420,119)"/>
<path d="M0 0 C6 5 6 5 6.68115234 7.03637695 C6.634021 8.00256958 6.634021 8.00256958 6.5859375 8.98828125 C6.57095215 9.62548096 6.5559668 10.26268066 6.54052734 10.91918945 C6.48590332 11.70898193 6.4312793 12.49877441 6.375 13.3125 C6.25125 15.849375 6.1275 18.38625 6 21 C11.61 21 17.22 21 23 21 C23 26.94 23 32.88 23 39 C28.94 39 34.88 39 41 39 C41 44.94 41 50.88 41 57 C38.03 54.525 38.03 54.525 35 52 C35 49.36 35 46.72 35 44 C29.39 44 23.78 44 18 44 C18 38.39 18 32.78 18 27 C12.06 27 6.12 27 0 27 C0 18.09 0 9.18 0 0 Z " fill="#EDEDED" transform="translate(1186,136)"/>
<path d="M0 0 C1.65 1.32 3.3 2.64 5 4 C5 8.29 5 12.58 5 17 C21.17 17 37.34 17 54 17 C54 27.23 54 37.46 54 48 C53.34 48 52.68 48 52 48 C48 43 48 43 48 22 C32.16 22 16.32 22 0 22 C0 14.74 0 7.48 0 0 Z " fill="#EDEDED" transform="translate(640,119)"/>
<path d="M0 0 C12.87 0 25.74 0 39 0 C39 21.45 39 42.9 39 65 C35 63 35 63 34 62 C33.90629376 60.22008076 33.88255729 58.43643261 33.88647461 56.65405273 C33.88655014 55.5129454 33.88662567 54.37183807 33.88670349 53.19615173 C33.89186478 51.9545076 33.89702606 50.71286346 33.90234375 49.43359375 C33.9037587 48.16983414 33.90517365 46.90607452 33.90663147 45.60401917 C33.91129418 42.23875111 33.9202852 38.8735501 33.93133545 35.50830078 C33.94155154 32.0765033 33.94612951 28.64469891 33.95117188 25.21289062 C33.9622262 18.47524176 33.9789829 11.73762475 34 5 C33.1121582 5.02618408 32.22431641 5.05236816 31.30957031 5.0793457 C28.00699595 5.1646975 24.70559725 5.22730652 21.40234375 5.2746582 C19.97442099 5.29976347 18.54662625 5.33385587 17.11914062 5.37719727 C15.06348082 5.43803678 13.00952247 5.46624551 10.953125 5.48828125 C9.09929199 5.52755737 9.09929199 5.52755737 7.20800781 5.56762695 C4 5 4 5 0 0 Z " fill="#BABABA" transform="translate(198,114)"/>
<path d="M0 0 C1.98 1.65 3.96 3.3 6 5 C6 7.64 6 10.28 6 13 C11.61 13 17.22 13 23 13 C23 18.94 23 24.88 23 31 C28.94 31 34.88 31 41 31 C41 39.91 41 48.82 41 58 C35 53 35 53 34.31884766 50.87182617 C34.35026855 50.18580322 34.38168945 49.49978027 34.4140625 48.79296875 C34.43654053 47.77626099 34.43654053 47.77626099 34.45947266 46.73901367 C34.51409668 45.89701416 34.5687207 45.05501465 34.625 44.1875 C34.74875 41.485625 34.8725 38.78375 35 36 C29.39 36 23.78 36 18 36 C18 30.06 18 24.12 18 18 C12.06 18 6.12 18 0 18 C0 12.06 0 6.12 0 0 Z " fill="#BBBBBB" transform="translate(83,105)"/>
<path d="M0 0 C12.87 0 25.74 0 39 0 C39 9.9 39 19.8 39 30 C47.04821597 29.80256151 47.04821597 29.80256151 55.09472656 29.54956055 C56.60244629 29.53082886 56.60244629 29.53082886 58.140625 29.51171875 C59.68024902 29.47244263 59.68024902 29.47244263 61.25097656 29.43237305 C64 30 64 30 68 35 C56.78 35 45.56 35 34 35 C34 25.1 34 15.2 34 5 C24.30642421 5.19755274 24.30642421 5.19755274 14.61425781 5.45043945 C12.80199707 5.46917114 12.80199707 5.46917114 10.953125 5.48828125 C9.09929199 5.52755737 9.09929199 5.52755737 7.20800781 5.56762695 C4 5 4 5 0 0 Z " fill="#BBBBBB" transform="translate(750,180)"/>
<path d="M0 0 C0.33 0.99 0.66 1.98 1 3 C2.65 3 4.3 3 6 3 C6 4.65 6 6.3 6 8 C7.32 8 8.64 8 10 8 C10 28.46 10 48.92 10 70 C4 65 4 65 3.2784729 62.42460632 C3.29179657 61.51193497 3.30512024 60.59926361 3.31884766 59.65893555 C3.31930084 58.6182341 3.31975403 57.57753265 3.32022095 56.5052948 C3.35118866 55.3936647 3.38215637 54.28203461 3.4140625 53.13671875 C3.42255219 51.98959915 3.43104187 50.84247955 3.43978882 49.66059875 C3.47333694 46.00193808 3.5486267 42.34549289 3.625 38.6875 C3.65509742 36.20510998 3.6824736 33.72268538 3.70703125 31.24023438 C3.77313317 25.15940219 3.87349861 19.07985937 4 13 C2.68 13 1.36 13 0 13 C0 11.68 0 10.36 0 9 C-1.32 9 -2.64 9 -4 9 C-4.25 6.75 -4.25 6.75 -4 4 C-2 1.6875 -2 1.6875 0 0 Z " fill="#EEEEEE" transform="translate(810,93)"/>
<path d="M0 0 C22.11 0 44.22 0 67 0 C67 1.32 67 2.64 67 4 C68.32 4 69.64 4 71 4 C71 5.65 71 7.3 71 9 C72.65 9 74.3 9 76 9 C76.25 11.25 76.25 11.25 76 14 C74.125 16.3125 74.125 16.3125 72 18 C71.34 18 70.68 18 70 18 C70 16.68 70 15.36 70 14 C68.68 14 67.36 14 66 14 C66 12.68 66 11.36 66 10 C64.35 10 62.7 10 61 10 C61 8.35 61 6.7 61 5 C59.96429619 5.01665459 59.96429619 5.01665459 58.90766907 5.03364563 C51.72153661 5.14425947 44.53564594 5.2196765 37.34887695 5.2746582 C34.66661546 5.29697994 31.9849458 5.33176794 29.30297852 5.37719727 C25.44790745 5.43784525 21.5937423 5.46621127 17.73828125 5.48828125 C15.93959343 5.52699089 15.93959343 5.52699089 14.10456848 5.56648254 C12.98378403 5.5668602 11.86299957 5.56723785 10.70825195 5.56762695 C9.72452103 5.57873001 8.7407901 5.58983307 7.72724915 5.60127258 C5 5 5 5 0 0 Z " fill="#EBEBEB" transform="translate(845,83)"/>
<path d="M0 0 C6 5 6 5 6.7484436 7.73829651 C6.74718475 8.72772751 6.7459259 9.71715851 6.74462891 10.73657227 C6.76331528 12.42841393 6.76331528 12.42841393 6.78237915 14.1544342 C6.75474991 15.96711037 6.75474991 15.96711037 6.7265625 17.81640625 C6.72755951 19.06501938 6.72855652 20.31363251 6.72958374 21.6000824 C6.72490473 24.23814937 6.70865019 26.87299227 6.67236328 29.51049805 C6.62693797 32.88582249 6.62591181 36.25935772 6.63939857 39.63490391 C6.6476977 42.8622057 6.6237305 46.08919118 6.6015625 49.31640625 C6.60338531 50.52688126 6.60520813 51.73735626 6.60708618 52.98451233 C6.58802216 54.10925461 6.56895813 55.23399689 6.54931641 56.39282227 C6.54010162 57.38145767 6.53088684 58.37009308 6.52139282 59.38868713 C5.85924205 62.70496377 4.62257073 63.93077343 2 66 C1.34 66 0.68 66 0 66 C0 44.22 0 22.44 0 0 Z " fill="#EFEFEF" transform="translate(858,114)"/>
<path d="M0 0 C12.87 0 25.74 0 39 0 C39 0.99 39 1.98 39 3 C40.65 3 42.3 3 44 3 C44 11.91 44 20.82 44 30 C40 28 40 28 38 26 C37.85482256 23.0906442 37.81369204 20.280054 37.875 17.375 C37.88402344 16.57320312 37.89304687 15.77140625 37.90234375 14.9453125 C37.92593777 12.96341477 37.96180935 10.98167019 38 9 C36.68 9 35.36 9 34 9 C34 7.68 34 6.36 34 5 C32.61494263 5.02356567 32.61494263 5.02356567 31.2019043 5.04760742 C27.77460111 5.09874832 24.34770358 5.13635535 20.92016602 5.16479492 C19.43702801 5.17987768 17.95393456 5.20034689 16.47094727 5.22631836 C14.33859255 5.26272616 12.20682765 5.27973073 10.07421875 5.29296875 C8.79119873 5.3086792 7.50817871 5.32438965 6.1862793 5.34057617 C3 5 3 5 1.05786133 3.60668945 C0 2 0 2 0 0 Z " fill="#BDBDBD" transform="translate(308,108)"/>
<path d="M0 0 C11.55 0 23.1 0 35 0 C35 1.32 35 2.64 35 4 C36.32 4 37.64 4 39 4 C39 14.23 39 24.46 39 35 C34 31 34 31 33.43237305 28.61816406 C33.45855713 27.75932617 33.48474121 26.90048828 33.51171875 26.015625 C33.52783203 25.08105469 33.54394531 24.14648438 33.56054688 23.18359375 C33.62338867 21.73146484 33.62338867 21.73146484 33.6875 20.25 C33.71005859 19.26644531 33.73261719 18.28289062 33.75585938 17.26953125 C33.81471195 14.8448053 33.89686569 12.42318017 34 10 C32.68 10 31.36 10 30 10 C30 8.35 30 6.7 30 5 C29.19780029 5.01571045 28.39560059 5.0314209 27.5690918 5.04760742 C23.94196596 5.10988583 20.31495251 5.14896864 16.6875 5.1875 C14.79354492 5.22520508 14.79354492 5.22520508 12.86132812 5.26367188 C11.04858398 5.27817383 11.04858398 5.27817383 9.19921875 5.29296875 C7.52605591 5.31653442 7.52605591 5.31653442 5.8190918 5.34057617 C3 5 3 5 1.11254883 3.60668945 C0 2 0 2 0 0 Z " fill="#BBBBBB" transform="translate(750,114)"/>
<path d="M0 0 C12.87 0 25.74 0 39 0 C37.68 1.65 36.36 3.3 35 5 C34.40467648 7.53517899 34.40467648 7.53517899 34.48101807 10.23286438 C34.46014885 11.78296455 34.46014885 11.78296455 34.43885803 13.36437988 C34.44640358 15.04860046 34.44640358 15.04860046 34.45410156 16.7668457 C34.44376389 17.95751144 34.43342621 19.14817719 34.42277527 20.37492371 C34.39836919 23.63087564 34.39150968 26.88629369 34.39249516 30.14231896 C34.38936266 33.54834997 34.36373754 36.9542106 34.34051514 40.3601532 C34.29997712 46.80569049 34.27961969 53.25112667 34.26654124 59.6967718 C34.25066367 67.03662105 34.21224494 74.37629841 34.17194796 81.71604788 C34.08957923 96.81064162 34.0354683 111.90521772 34 127 C33.67 127 33.34 127 33 127 C33 87.07 33 47.14 33 6 C23.76 6 14.52 6 5 6 C3.35 4.68 1.7 3.36 0 2 C0 1.34 0 0.68 0 0 Z " fill="#E8E8E8" transform="translate(562,83)"/>
<path d="M0 0 C8.40577556 -0.11587396 16.81121724 -0.20470398 25.21759415 -0.25906086 C29.12109851 -0.28515031 33.02405631 -0.3205346 36.92724609 -0.37719727 C40.69443884 -0.43154313 44.46110608 -0.46142545 48.22866058 -0.47438622 C49.66563948 -0.48362174 51.10258975 -0.50165727 52.53934479 -0.52865028 C54.55231146 -0.56496318 56.56580747 -0.56704255 58.57910156 -0.56762695 C59.72493713 -0.57873001 60.87077271 -0.58983307 62.05133057 -0.60127258 C65 0 65 0 67.40130615 2.53547668 C68.19265961 3.75541573 68.19265961 3.75541573 69 5 C60.59422444 5.11587396 52.18878276 5.20470398 43.78240585 5.25906086 C39.87890149 5.28515031 35.97594369 5.3205346 32.07275391 5.37719727 C28.30556116 5.43154313 24.53889392 5.46142545 20.77133942 5.47438622 C19.33436052 5.48362174 17.89741025 5.50165727 16.46065521 5.52865028 C14.44768854 5.56496318 12.43419253 5.56704255 10.42089844 5.56762695 C9.27506287 5.57873001 8.12922729 5.58983307 6.94866943 5.60127258 C4 5 4 5 1.59869385 2.46452332 C1.07112488 1.65123062 0.54355591 0.83793793 0 0 Z " fill="#BDBDBD" transform="translate(640,118)"/>
<path d="M0 0 C5 4 5 4 5.56762695 7.20800781 C5.52835083 9.06184082 5.52835083 9.06184082 5.48828125 10.953125 C5.48120651 11.61334656 5.47413177 12.27356812 5.46684265 12.95379639 C5.43894727 15.05370492 5.37623287 17.15090379 5.3125 19.25 C5.28741017 20.6770447 5.26459817 22.10413138 5.24414062 23.53125 C5.1891412 27.02170748 5.10290912 30.51058911 5 34 C5.77190674 33.98428955 6.54381348 33.9685791 7.33911133 33.95239258 C10.83016662 33.89010393 14.32110509 33.85102827 17.8125 33.8125 C19.02744141 33.78736328 20.24238281 33.76222656 21.49414062 33.73632812 C23.23920898 33.72182617 23.23920898 33.72182617 25.01953125 33.70703125 C26.09307861 33.6913208 27.16662598 33.67561035 28.27270508 33.65942383 C31 34 31 34 32.8737793 35.39331055 C34 37 34 37 34 39 C22.78 39 11.56 39 0 39 C0 26.13 0 13.26 0 0 Z " fill="#EDEDED" transform="translate(749,115)"/>
<path d="M0 0 C2.46800047 1.15173355 4.04783565 2.04783565 6 4 C6.24050903 6.21463013 6.24050903 6.21463013 6.22705078 9.00048828 C6.22689972 10.04141632 6.22674866 11.08234436 6.22659302 12.15481567 C6.21627045 13.28192963 6.20594788 14.40904358 6.1953125 15.5703125 C6.19106766 17.29735916 6.19106766 17.29735916 6.18673706 19.05929565 C6.17551408 22.74796812 6.15040556 26.43640053 6.125 30.125 C6.11497294 32.62109025 6.10584662 35.1171843 6.09765625 37.61328125 C6.07556784 43.74226984 6.04206947 49.87111777 6 56 C3.53199953 54.84826645 1.95216435 53.95216435 0 52 C-0.24050903 49.78536987 -0.24050903 49.78536987 -0.22705078 46.99951172 C-0.22689972 45.95858368 -0.22674866 44.91765564 -0.22659302 43.84518433 C-0.21110916 42.1545134 -0.21110916 42.1545134 -0.1953125 40.4296875 C-0.1924826 39.27832306 -0.18965271 38.12695862 -0.18673706 36.94070435 C-0.17551408 33.25203188 -0.15040556 29.56359947 -0.125 25.875 C-0.11497294 23.37890975 -0.10584662 20.8828157 -0.09765625 18.38671875 C-0.07556784 12.25773016 -0.04206947 6.12888223 0 0 Z " fill="#EEEEEE" transform="translate(972,159)"/>
<path d="M0 0 C5 4 5 4 5.56762695 6.65722656 C5.54144287 7.64174805 5.51525879 8.62626953 5.48828125 9.640625 C5.47216797 10.71054688 5.45605469 11.78046875 5.43945312 12.8828125 C5.39755859 13.99398437 5.35566406 15.10515625 5.3125 16.25 C5.28994141 17.37664062 5.26738281 18.50328125 5.24414062 19.6640625 C5.18524254 22.44405232 5.10304201 25.22135332 5 28 C5.8878418 27.97381592 6.77568359 27.94763184 7.69042969 27.9206543 C10.99300405 27.8353025 14.29440275 27.77269348 17.59765625 27.7253418 C19.02557901 27.70023653 20.45337375 27.66614413 21.88085938 27.62280273 C23.93651918 27.56196322 25.99047753 27.53375449 28.046875 27.51171875 C29.90070801 27.47244263 29.90070801 27.47244263 31.79199219 27.43237305 C35 28 35 28 39 33 C26.13 33 13.26 33 0 33 C0 22.11 0 11.22 0 0 Z " fill="#EDEDED" transform="translate(307,109)"/>
<path d="M0 0 C0.33 0.99 0.66 1.98 1 3 C2.65 3 4.3 3 6 3 C6 19.5 6 36 6 53 C0 48 0 48 -0.7215271 45.9181366 C-0.70820343 45.23640884 -0.69487976 44.55468109 -0.68115234 43.85229492 C-0.68047256 42.68164742 -0.68047256 42.68164742 -0.67977905 41.48735046 C-0.63332748 40.24644402 -0.63332748 40.24644402 -0.5859375 38.98046875 C-0.57744781 38.12189774 -0.56895813 37.26332672 -0.56021118 36.3787384 C-0.52672797 33.64702769 -0.4514637 30.9183122 -0.375 28.1875 C-0.34489358 26.33142296 -0.31751895 24.47529947 -0.29296875 22.61914062 C-0.22695395 18.07827993 -0.12347181 13.53964704 0 9 C-1.32 9 -2.64 9 -4 9 C-4.25 6.75 -4.25 6.75 -4 4 C-2 1.6875 -2 1.6875 0 0 Z " fill="#EEEEEE" transform="translate(372,97)"/>
<path d="M0 0 C7.88423444 -0.11589516 15.76811253 -0.20471439 23.65298843 -0.25906086 C27.31437534 -0.28514591 30.97517916 -0.32052148 34.63623047 -0.37719727 C38.17000804 -0.43155986 41.70322514 -0.46142876 45.23738861 -0.47438622 C47.24058028 -0.48810967 49.24354668 -0.52713702 51.24639893 -0.56648254 C52.46736267 -0.5668602 53.68832642 -0.56723785 54.94628906 -0.56762695 C56.02106506 -0.57873001 57.09584106 -0.58983307 58.20318604 -0.60127258 C61.92728723 0.19935269 62.95482172 1.89180088 65 5 C57.11576556 5.11589516 49.23188747 5.20471439 41.34701157 5.25906086 C37.68562466 5.28514591 34.02482084 5.32052148 30.36376953 5.37719727 C26.82999196 5.43155986 23.29677486 5.46142876 19.76261139 5.47438622 C17.75941972 5.48810967 15.75645332 5.52713702 13.75360107 5.56648254 C12.53263733 5.5668602 11.31167358 5.56723785 10.05371094 5.56762695 C8.97893494 5.57873001 7.90415894 5.58983307 6.79681396 5.60127258 C3.07271277 4.80064731 2.04517828 3.10819912 0 0 Z " fill="#BDBDBD" transform="translate(421,118)"/>
<path d="M0 0 C2.46800047 1.15173355 4.04783565 2.04783565 6 4 C6.24050903 6.06277466 6.24050903 6.06277466 6.22705078 8.63330078 C6.22689972 9.59414581 6.22674866 10.55499084 6.22659302 11.54495239 C6.21627045 12.58457123 6.20594788 13.62419006 6.1953125 14.6953125 C6.1924826 15.75789276 6.18965271 16.82047302 6.18673706 17.91525269 C6.17551639 21.31861499 6.15040837 24.72171686 6.125 28.125 C6.11497264 30.42838162 6.10584637 32.73176736 6.09765625 35.03515625 C6.07557093 40.69019345 6.04207489 46.34507813 6 52 C3.41802533 50.408229 1.82352882 49.35617011 0 47 C-0.84804584 43.40837581 -0.69943029 39.90363065 -0.5859375 36.23046875 C-0.57744781 35.19432938 -0.56895813 34.15819 -0.56021118 33.09065247 C-0.52668398 29.78853396 -0.45140187 26.48887753 -0.375 23.1875 C-0.3448997 20.94599886 -0.31752402 18.70445936 -0.29296875 16.46289062 C-0.2268954 10.97442357 -0.12655366 5.48738767 0 0 Z " fill="#EEEEEE" transform="translate(639,163)"/>
<path d="M0 0 C2.37978024 1.62879076 3.54021391 2.56559831 5 5 C5.7252067 9.31553698 5.58054084 13.59188341 5.48828125 17.95703125 C5.47766914 19.84418098 5.47766914 19.84418098 5.46684265 21.76945496 C5.4436237 25.10249327 5.39876548 28.43379975 5.34332275 31.76635742 C5.29202734 35.17156055 5.26930691 38.57694314 5.24414062 41.98242188 C5.1890377 48.65542446 5.10538292 55.3276123 5 62 C0.17779582 58.79333797 0.17779582 58.79333797 -0.60127258 55.31707764 C-0.59016953 54.29559631 -0.57906647 53.27411499 -0.56762695 52.22167969 C-0.5672493 51.0607782 -0.56687164 49.89987671 -0.56648254 48.70379639 C-0.54067612 47.45576233 -0.51486969 46.20772827 -0.48828125 44.921875 C-0.48120651 43.64016418 -0.47413177 42.35845337 -0.46684265 41.03790283 C-0.44779234 37.63768384 -0.39871189 34.23854042 -0.34332275 30.83874512 C-0.29208578 27.36660309 -0.26931933 23.89428647 -0.24414062 20.421875 C-0.19058875 13.61414274 -0.10530171 6.80712307 0 0 Z " fill="#B9B9B9" transform="translate(1003,83)"/>
<path d="M0 0 C2.37978024 1.62879076 3.54021391 2.56559831 5 5 C5.7252067 9.31553698 5.58054084 13.59188341 5.48828125 17.95703125 C5.47766914 19.84418098 5.47766914 19.84418098 5.46684265 21.76945496 C5.4436237 25.10249327 5.39876548 28.43379975 5.34332275 31.76635742 C5.29202734 35.17156055 5.26930691 38.57694314 5.24414062 41.98242188 C5.1890377 48.65542446 5.10538292 55.3276123 5 62 C0.17779582 58.79333797 0.17779582 58.79333797 -0.60127258 55.31707764 C-0.59016953 54.29559631 -0.57906647 53.27411499 -0.56762695 52.22167969 C-0.5672493 51.0607782 -0.56687164 49.89987671 -0.56648254 48.70379639 C-0.54067612 47.45576233 -0.51486969 46.20772827 -0.48828125 44.921875 C-0.48120651 43.64016418 -0.47413177 42.35845337 -0.46684265 41.03790283 C-0.44779234 37.63768384 -0.39871189 34.23854042 -0.34332275 30.83874512 C-0.29208578 27.36660309 -0.26931933 23.89428647 -0.24414062 20.421875 C-0.19058875 13.61414274 -0.10530171 6.80712307 0 0 Z " fill="#B9B9B9" transform="translate(561,83)"/>
<path d="M0 0 C3.875 1.875 3.875 1.875 5 3 C5.09346915 4.65738443 5.11744977 6.31874644 5.11352539 7.97875977 C5.11344986 9.03978409 5.11337433 10.10080841 5.11329651 11.19398499 C5.10813522 12.348134 5.10297394 13.50228302 5.09765625 14.69140625 C5.0962413 15.86638168 5.09482635 17.04135712 5.09336853 18.25193787 C5.08774992 22.02215064 5.07519426 25.79230504 5.0625 29.5625 C5.0574874 32.11132727 5.05292408 34.66015547 5.04882812 37.20898438 C5.03777444 43.47267633 5.02101821 49.73633399 5 56 C2.53051758 54.73535156 2.53051758 54.73535156 0 52 C-0.73625427 48.08571132 -0.58002741 44.20475487 -0.48828125 40.234375 C-0.48120651 39.08584045 -0.47413177 37.93730591 -0.46684265 36.75396729 C-0.43885232 33.08531589 -0.37610052 29.41819017 -0.3125 25.75 C-0.28742334 23.26304287 -0.26460908 20.77606182 -0.24414062 18.2890625 C-0.18901025 12.19218772 -0.10533592 6.09620285 0 0 Z " fill="#EFEFEF" transform="translate(530,159)"/>
<path d="M0 0 C6.17461641 -0.14847404 12.34819105 -0.25727723 18.52416992 -0.32958984 C20.62428896 -0.35973742 22.72428234 -0.40066333 24.82397461 -0.45263672 C27.84520466 -0.52554078 30.86476873 -0.55947639 33.88671875 -0.5859375 C34.82335861 -0.61690521 35.75999847 -0.64787292 36.72502136 -0.67977905 C43.13739984 -0.68307932 43.13739984 -0.68307932 45.73721313 1.37567139 C47.13208008 3.03662109 47.13208008 3.03662109 49 6 C42.82538359 6.14847404 36.65180895 6.25727723 30.47583008 6.32958984 C28.37571104 6.35973742 26.27571766 6.40066333 24.17602539 6.45263672 C21.15479534 6.52554078 18.13523127 6.55947639 15.11328125 6.5859375 C14.17664139 6.61690521 13.24000153 6.64787292 12.27497864 6.67977905 C5.86260016 6.68307932 5.86260016 6.68307932 3.26278687 4.62432861 C1.86791992 2.96337891 1.86791992 2.96337891 0 0 Z " fill="#BEBEBE" transform="translate(420,157)"/>
<path d="M0 0 C3.875 1.875 3.875 1.875 5 3 C5.09319449 4.5348297 5.117458 6.07392082 5.11352539 7.61157227 C5.11341209 9.08298424 5.11341209 9.08298424 5.11329651 10.5841217 C5.10813522 11.6507756 5.10297394 12.7174295 5.09765625 13.81640625 C5.0962413 14.9025975 5.09482635 15.98878876 5.09336853 17.1078949 C5.08775048 20.59279075 5.07519492 24.07762342 5.0625 27.5625 C5.05748733 29.91861887 5.05292402 32.27473874 5.04882812 34.63085938 C5.03777519 40.42059464 5.02101951 46.21029281 5 52 C2.53051758 50.68066406 2.53051758 50.68066406 0 48 C-0.72937621 44.37568007 -0.5806423 40.79322029 -0.48828125 37.109375 C-0.48120651 36.04962463 -0.47413177 34.98987427 -0.46684265 33.89801025 C-0.43886336 30.51462084 -0.37611521 27.13288884 -0.3125 23.75 C-0.28742184 21.45575307 -0.26460784 19.1614802 -0.24414062 16.8671875 C-0.18902525 11.24422658 -0.10536309 5.62223169 0 0 Z " fill="#EFEFEF" transform="translate(307,163)"/>
<path d="M0 0 C6.92334988 -0.07595711 13.84659263 -0.12856051 20.77026367 -0.16479492 C23.12642431 -0.17989747 25.48255677 -0.20038091 27.83862305 -0.22631836 C31.22191312 -0.26263656 34.60483208 -0.27971167 37.98828125 -0.29296875 C39.57277824 -0.31619453 39.57277824 -0.31619453 41.18928528 -0.33988953 C42.66047066 -0.34022942 42.66047066 -0.34022942 44.16137695 -0.34057617 C45.45710381 -0.35056892 45.45710381 -0.35056892 46.77900696 -0.36076355 C49.48034668 0.07802437 50.37935309 0.82975586 52 3 C52 3.66 52 4.32 52 5 C45.23750813 5.12673206 38.47532217 5.21432235 31.71191406 5.2746582 C29.4110164 5.29980906 27.11019868 5.33393396 24.80957031 5.37719727 C21.50305467 5.43782147 18.19759479 5.46620441 14.890625 5.48828125 C13.3466806 5.52699089 13.3466806 5.52699089 11.77154541 5.56648254 C4.60307956 5.56930051 4.60307956 5.56930051 1.31933594 2.46948242 C0.88395508 1.65455322 0.44857422 0.83962402 0 0 Z " fill="#BDBDBD" transform="translate(640,162)"/>
<path d="M0 0 C6.62007209 -0.12674312 13.23983157 -0.21432681 19.86083984 -0.2746582 C22.11323743 -0.29980743 24.36555336 -0.33393118 26.61767578 -0.37719727 C29.854697 -0.437829 33.09063972 -0.46620592 36.328125 -0.48828125 C37.33554749 -0.51408768 38.34296997 -0.5398941 39.38092041 -0.56648254 C46.39999625 -0.56930051 46.39999625 -0.56930051 49.66699219 2.53051758 C50.10688477 3.34544678 50.54677734 4.16037598 51 5 C44.37992791 5.12674312 37.76016843 5.21432681 31.13916016 5.2746582 C28.88676257 5.29980743 26.63444664 5.33393118 24.38232422 5.37719727 C21.145303 5.437829 17.90936028 5.46620592 14.671875 5.48828125 C13.66445251 5.51408768 12.65703003 5.5398941 11.61907959 5.56648254 C4.60000375 5.56930051 4.60000375 5.56930051 1.33300781 2.46948242 C0.89311523 1.65455322 0.45322266 0.83962402 0 0 Z " fill="#BDBDBD" transform="translate(308,162)"/>
<path d="M0 0 C11.55 0 23.1 0 35 0 C35 5.94 35 11.88 35 18 C29 13 29 13 28.4140625 10.76171875 C28.609375 8.84114583 28.8046875 6.92057292 29 5 C28.26362305 5.02618408 27.52724609 5.05236816 26.76855469 5.0793457 C23.42925384 5.18333686 20.09029345 5.2483341 16.75 5.3125 C15.59113281 5.35439453 14.43226562 5.39628906 13.23828125 5.43945312 C12.12324219 5.45556641 11.00820312 5.47167969 9.859375 5.48828125 C8.31975098 5.52755737 8.31975098 5.52755737 6.74902344 5.56762695 C4 5 4 5 0 0 Z " fill="#ECECEC" transform="translate(1192,105)"/>
<path d="M0 0 C4 2 4 2 6 4 C6.26991906 6.68839385 6.08737357 9.29141936 6 12 C6.73637695 11.97381592 7.47275391 11.94763184 8.23144531 11.9206543 C11.57074616 11.81666314 14.90970655 11.7516659 18.25 11.6875 C19.40886719 11.64560547 20.56773438 11.60371094 21.76171875 11.56054688 C22.87675781 11.54443359 23.99179688 11.52832031 25.140625 11.51171875 C26.68024902 11.47244263 26.68024902 11.47244263 28.25097656 11.43237305 C31 12 31 12 35 17 C23.45 17 11.9 17 0 17 C0 11.39 0 5.78 0 0 Z " fill="#BCBCBC" transform="translate(83,176)"/>
<path d="M0 0 C1.36581777 -0.02153827 2.73149904 -0.0555936 4.09667969 -0.10253906 C6.0677411 -0.16970718 8.04013216 -0.19336289 10.01220703 -0.21606445 C11.19459961 -0.24112061 12.37699219 -0.26617676 13.59521484 -0.29199219 C16.80908203 0.4050293 16.80908203 0.4050293 21.80908203 6.4050293 C8.60908203 6.4050293 -4.59091797 6.4050293 -18.19091797 6.4050293 C-11.36114564 -0.42474303 -9.47669837 0.11235846 0 0 Z " fill="#E9E9E9" transform="translate(215.19091796875,174.594970703125)"/>
<path d="M0 0 C0 12.87 0 25.74 0 39 C-5 35 -5 35 -5.63110352 31.76367188 C-5.63037842 30.51134766 -5.62965332 29.25902344 -5.62890625 27.96875 C-5.63131821 27.29581909 -5.63373016 26.62288818 -5.63621521 25.92956543 C-5.63523833 24.51076345 -5.62188187 23.09192262 -5.59692383 21.67333984 C-5.56259765 19.50616522 -5.57626889 17.34306797 -5.59570312 15.17578125 C-5.5888043 13.79425354 -5.57913155 12.41273632 -5.56640625 11.03125 C-5.55552979 9.77892578 -5.54465332 8.52660156 -5.53344727 7.23632812 C-5.05664906 4.34367959 -3.7098199 0 0 0 Z " fill="#EFEFEF" transform="translate(487,176)"/>
<path d="M0 0 C0 12.87 0 25.74 0 39 C-5 35 -5 35 -5.63110352 31.76367188 C-5.63037842 30.51134766 -5.62965332 29.25902344 -5.62890625 27.96875 C-5.63131821 27.29581909 -5.63373016 26.62288818 -5.63621521 25.92956543 C-5.63523833 24.51076345 -5.62188187 23.09192262 -5.59692383 21.67333984 C-5.56259765 19.50616522 -5.57626889 17.34306797 -5.59570312 15.17578125 C-5.5888043 13.79425354 -5.57913155 12.41273632 -5.56640625 11.03125 C-5.55552979 9.77892578 -5.54465332 8.52660156 -5.53344727 7.23632812 C-5.05664906 4.34367959 -3.7098199 0 0 0 Z " fill="#F0F0F0" transform="translate(1144,84)"/>
<path d="M0 0 C0 12.87 0 25.74 0 39 C-5 35 -5 35 -5.63110352 31.76367188 C-5.63037842 30.51134766 -5.62965332 29.25902344 -5.62890625 27.96875 C-5.63131821 27.29581909 -5.63373016 26.62288818 -5.63621521 25.92956543 C-5.63523833 24.51076345 -5.62188187 23.09192262 -5.59692383 21.67333984 C-5.56259765 19.50616522 -5.57626889 17.34306797 -5.59570312 15.17578125 C-5.5888043 13.79425354 -5.57913155 12.41273632 -5.56640625 11.03125 C-5.55552979 9.77892578 -5.54465332 8.52660156 -5.53344727 7.23632812 C-5.05664906 4.34367959 -3.7098199 0 0 0 Z " fill="#EFEFEF" transform="translate(487,84)"/>
<path d="M0 0 C0 12.54 0 25.08 0 38 C-5 34 -5 34 -5.63110352 30.85546875 C-5.63037842 29.64503906 -5.62965332 28.43460938 -5.62890625 27.1875 C-5.63131821 26.53676514 -5.63373016 25.88603027 -5.63621521 25.21557617 C-5.63523852 23.84385058 -5.62188652 22.47208472 -5.59692383 21.10058594 C-5.56259495 19.00579409 -5.57626939 16.9152204 -5.59570312 14.8203125 C-5.58880427 13.48435712 -5.57913149 12.14841259 -5.56640625 10.8125 C-5.55552979 9.60207031 -5.54465332 8.39164063 -5.53344727 7.14453125 C-5.04810828 4.28358563 -3.64649396 0 0 0 Z " fill="#EFEFEF" transform="translate(710,85)"/>
<path d="M0 0 C3.875 1.875 3.875 1.875 5 3 C5.08790975 5.29151417 5.10694038 7.58572524 5.09765625 9.87890625 C5.0962413 10.5655687 5.09482635 11.25223114 5.09336853 11.95970154 C5.08775479 14.16067801 5.07520007 16.36155409 5.0625 18.5625 C5.05748676 20.05143083 5.05292355 21.54036324 5.04882812 23.02929688 C5.03778093 26.68623075 5.02050713 30.34310558 5 34 C2.53051758 32.43457031 2.53051758 32.43457031 0 30 C-0.56762695 26.79199219 -0.56762695 26.79199219 -0.48828125 23.046875 C-0.48120651 22.38665344 -0.47413177 21.72643188 -0.46684265 21.04620361 C-0.43894727 18.94629508 -0.37623287 16.84909621 -0.3125 14.75 C-0.28741017 13.3229553 -0.26459817 11.89586862 -0.24414062 10.46875 C-0.1891412 6.97829252 -0.10290912 3.48941089 0 0 Z " fill="#EFEFEF" transform="translate(749,181)"/>
<path d="M0 0 C4.24964127 -0.14513802 8.49864635 -0.23402037 12.75 -0.3125 C14.55984375 -0.3753418 14.55984375 -0.3753418 16.40625 -0.43945312 C17.56640625 -0.45556641 18.7265625 -0.47167969 19.921875 -0.48828125 C20.99018555 -0.51446533 22.05849609 -0.54064941 23.15917969 -0.56762695 C26 0 26 0 28.37988281 2.53051758 C28.91452148 3.34544678 29.44916016 4.16037598 30 5 C25.75035873 5.14513802 21.50135365 5.23402037 17.25 5.3125 C16.0434375 5.35439453 14.836875 5.39628906 13.59375 5.43945312 C12.43359375 5.45556641 11.2734375 5.47167969 10.078125 5.48828125 C9.00981445 5.51446533 7.94150391 5.54064941 6.84082031 5.56762695 C4 5 4 5 1.62011719 2.46948242 C0.81815918 1.24708862 0.81815918 1.24708862 0 0 Z " fill="#BDBDBD" transform="translate(1113,118)"/>
<path d="M0 0 C0.33 0.99 0.66 1.98 1 3 C2.65 3 4.3 3 6 3 C6 4.65 6 6.3 6 8 C7.32 8 8.64 8 10 8 C10.3125 10.25 10.3125 10.25 10 13 C7.5 15.3125 7.5 15.3125 5 17 C4.67 15.68 4.34 14.36 4 13 C2.68 13 1.36 13 0 13 C0 11.68 0 10.36 0 9 C-1.32 9 -2.64 9 -4 9 C-4.25 6.75 -4.25 6.75 -4 4 C-2 1.6875 -2 1.6875 0 0 Z " fill="#EDEDED" transform="translate(359,84)"/>
<path d="M0 0 C2.46800047 1.15173355 4.04783565 2.04783565 6 4 C6.22705078 5.87939453 6.22705078 5.87939453 6.1953125 8.1328125 C6.18886719 8.93847656 6.18242187 9.74414062 6.17578125 10.57421875 C6.15902344 11.41597656 6.14226562 12.25773438 6.125 13.125 C6.11597656 13.97449219 6.10695312 14.82398438 6.09765625 15.69921875 C6.07405647 17.79959884 6.03818483 19.89983444 6 22 C0.3152005 18.27727697 0.3152005 18.27727697 -0.49511719 14.99365234 C-0.58977776 12.69991475 -0.5247641 10.47812269 -0.375 8.1875 C-0.33439453 7.00510742 -0.33439453 7.00510742 -0.29296875 5.79882812 C-0.22263676 3.86469843 -0.11502458 1.93198696 0 0 Z " fill="#EDEDED" transform="translate(131,154)"/>
<path d="M0 0 C2.73156959 -0.16262928 5.45342122 -0.28110686 8.1875 -0.375 C8.95642578 -0.42527344 9.72535156 -0.47554687 10.51757812 -0.52734375 C16.17663452 -0.67307052 16.17663452 -0.67307052 18.66650391 1.36230469 C20.05078125 3.0234375 20.05078125 3.0234375 22 6 C19.2697611 6.1083667 16.54385457 6.18746694 13.8125 6.25 C13.04357422 6.28351563 12.27464844 6.31703125 11.48242188 6.3515625 C7.43881179 6.4209807 5.4771605 6.2957051 1.94921875 4.109375 C0 2 0 2 0 0 Z " fill="#EAEAEA" transform="translate(101,157)"/>
<path d="M0 0 C2.75105422 -0.10812003 5.49785087 -0.18734945 8.25 -0.25 C9.02730469 -0.28351563 9.80460937 -0.31703125 10.60546875 -0.3515625 C16.39313225 -0.45049692 16.39313225 -0.45049692 19.546875 1.890625 C21 4 21 4 21 6 C18.43493576 6.16276553 15.88024578 6.28113984 13.3125 6.375 C12.59126953 6.42527344 11.87003906 6.47554687 11.12695312 6.52734375 C5.80792587 6.67307052 5.80792587 6.67307052 3.36474609 4.63769531 C1.98046875 2.9765625 1.98046875 2.9765625 0 0 Z " fill="#E9E9E9" transform="translate(1174,122)"/>
<path d="M0 0 C1.65 1.32 3.3 2.64 5 4 C5 5.32 5 6.64 5 8 C6.65 8 8.3 8 10 8 C10.25 10.25 10.25 10.25 10 13 C8.125 15.3125 8.125 15.3125 6 17 C5.34 17 4.68 17 4 17 C4 15.68 4 14.36 4 13 C2.68 13 1.36 13 0 13 C0 8.71 0 4.42 0 0 Z " fill="#EEEEEE" transform="translate(806,163)"/>
<path d="M0 0 C2.48046875 1.421875 2.48046875 1.421875 5 4 C5.63389665 7.09971709 5.47234026 10.10237647 5.3125 13.25 C5.28994141 14.09046875 5.26738281 14.9309375 5.24414062 15.796875 C5.18537714 17.86534964 5.09569885 19.93290488 5 22 C2.51953125 20.578125 2.51953125 20.578125 0 18 C-0.63389665 14.90028291 -0.47234026 11.89762353 -0.3125 8.75 C-0.28994141 7.90953125 -0.26738281 7.0690625 -0.24414062 6.203125 C-0.18537714 4.13465036 -0.09569885 2.06709512 0 0 Z " fill="#B9B9B9" transform="translate(1173,122)"/>
<path d="M0 0 C3.875 1.875 3.875 1.875 5 3 C5.08651611 4.41570123 5.10704904 5.835595 5.09765625 7.25390625 C5.09443359 8.10791016 5.09121094 8.96191406 5.08789062 9.84179688 C5.07951172 10.73962891 5.07113281 11.63746094 5.0625 12.5625 C5.05798828 13.46419922 5.05347656 14.36589844 5.04882812 15.29492188 C5.03700225 17.53001314 5.0205222 19.76497437 5 22 C0.26266708 18.27727697 0.26266708 18.27727697 -0.41259766 14.99365234 C-0.49122262 12.70744144 -0.43694547 10.47155295 -0.3125 8.1875 C-0.28994141 7.39923828 -0.26738281 6.61097656 -0.24414062 5.79882812 C-0.18554161 3.86506071 -0.09586827 1.93227833 0 0 Z " fill="#EEEEEE" transform="translate(1204,119)"/>
<path d="M0 0 C2.48046875 1.421875 2.48046875 1.421875 5 4 C5.63389665 7.09971709 5.47234026 10.10237647 5.3125 13.25 C5.28994141 14.09046875 5.26738281 14.9309375 5.24414062 15.796875 C5.18537714 17.86534964 5.09569885 19.93290488 5 22 C2.51953125 20.578125 2.51953125 20.578125 0 18 C-0.63389665 14.90028291 -0.47234026 11.89762353 -0.3125 8.75 C-0.28994141 7.90953125 -0.26738281 7.0690625 -0.24414062 6.203125 C-0.18537714 4.13465036 -0.09569885 2.06709512 0 0 Z " fill="#B9B9B9" transform="translate(1191,105)"/>
<path d="M0 0 C3.875 1.875 3.875 1.875 5 3 C5.08631874 4.34267413 5.10706473 5.68974322 5.09765625 7.03515625 C5.09282227 8.24848633 5.09282227 8.24848633 5.08789062 9.48632812 C5.07951172 10.33646484 5.07113281 11.18660156 5.0625 12.0625 C5.05798828 12.91650391 5.05347656 13.77050781 5.04882812 14.65039062 C5.03700373 16.76695663 5.01906769 18.88348685 5 21 C2.51953125 19.546875 2.51953125 19.546875 0 17 C-0.6295563 14.06455404 -0.47339855 11.23528703 -0.3125 8.25 C-0.28994141 7.45722656 -0.26738281 6.66445312 -0.24414062 5.84765625 C-0.18540471 3.8976238 -0.09572654 1.94856688 0 0 Z " fill="#EEEEEE" transform="translate(114,172)"/>
<path d="M0 0 C4 2 4 2 5 3 C5.20511024 5.26500305 5.31412476 7.53904377 5.375 9.8125 C5.42398437 11.05644531 5.47296875 12.30039063 5.5234375 13.58203125 C5 17 5 17 0 21 C0 14.07 0 7.14 0 0 Z " fill="#EFEFEF" transform="translate(420,159)"/>
<path d="M0 0 C3.875 1.875 3.875 1.875 5 3 C5.08631874 4.34267413 5.10706473 5.68974322 5.09765625 7.03515625 C5.09282227 8.24848633 5.09282227 8.24848633 5.08789062 9.48632812 C5.07951172 10.33646484 5.07113281 11.18660156 5.0625 12.0625 C5.05798828 12.91650391 5.05347656 13.77050781 5.04882812 14.65039062 C5.03700373 16.76695663 5.01906769 18.88348685 5 21 C2.51953125 19.546875 2.51953125 19.546875 0 17 C-0.6295563 14.06455404 -0.47339855 11.23528703 -0.3125 8.25 C-0.28994141 7.45722656 -0.26738281 6.66445312 -0.24414062 5.84765625 C-0.18540471 3.8976238 -0.09572654 1.94856688 0 0 Z " fill="#BABABA" transform="translate(101,159)"/>
<path d="M0 0 C2.93804996 -0.08086376 5.87388075 -0.1404283 8.8125 -0.1875 C9.64587891 -0.21263672 10.47925781 -0.23777344 11.33789062 -0.26367188 C12.54155273 -0.27817383 12.54155273 -0.27817383 13.76953125 -0.29296875 C14.87711792 -0.31653442 14.87711792 -0.31653442 16.00708008 -0.34057617 C18.55727485 0.0952344 19.44175849 0.97376263 21 3 C21 3.66 21 4.32 21 5 C18.24835568 5.13517903 15.50335479 5.23415251 12.75 5.3125 C11.58404297 5.3753418 11.58404297 5.3753418 10.39453125 5.43945312 C8.15648863 5.48727455 6.19040326 5.46976923 4 5 C1.453125 2.48046875 1.453125 2.48046875 0 0 Z " fill="#E9E9E9" transform="translate(1156,140)"/>
<path d="M0 0 C2.77141717 -0.08089542 5.54047819 -0.14044062 8.3125 -0.1875 C9.09818359 -0.21263672 9.88386719 -0.23777344 10.69335938 -0.26367188 C11.45068359 -0.27333984 12.20800781 -0.28300781 12.98828125 -0.29296875 C14.03302612 -0.31653442 14.03302612 -0.31653442 15.09887695 -0.34057617 C17.58237578 0.10432955 18.47101992 1.03357086 20 3 C20 3.66 20 4.32 20 5 C17.22858283 5.08089542 14.45952181 5.14044062 11.6875 5.1875 C10.90181641 5.21263672 10.11613281 5.23777344 9.30664062 5.26367188 C8.54931641 5.27333984 7.79199219 5.28300781 7.01171875 5.29296875 C6.31522217 5.3086792 5.61872559 5.32438965 4.90112305 5.34057617 C2.41762422 4.89567045 1.52898008 3.96642914 0 2 C0 1.34 0 0.68 0 0 Z " fill="#BEBEBE" transform="translate(1188,136)"/>
<path d="M0 0 C2.91821463 -0.13510253 5.83017652 -0.2341305 8.75 -0.3125 C9.9875 -0.3753418 9.9875 -0.3753418 11.25 -0.43945312 C13.601744 -0.48686732 15.69402157 -0.47157594 18 0 C20.578125 2.51953125 20.578125 2.51953125 22 5 C19.26916098 5.13548815 16.54508193 5.23429855 13.8125 5.3125 C13.04357422 5.35439453 12.27464844 5.39628906 11.48242188 5.43945312 C7.03371827 5.53491887 5.52445124 5.43312555 1.94921875 2.48046875 C1.30597656 1.66191406 0.66273437 0.84335938 0 0 Z " fill="#EAEAEA" transform="translate(83,175)"/>
<path d="M0 0 C2.75164432 -0.13517903 5.49664521 -0.23415251 8.25 -0.3125 C9.02730469 -0.35439453 9.80460937 -0.39628906 10.60546875 -0.43945312 C12.84351137 -0.48727455 14.80959674 -0.46976923 17 0 C19.546875 2.51953125 19.546875 2.51953125 21 5 C18.24835568 5.13517903 15.50335479 5.23415251 12.75 5.3125 C11.58404297 5.3753418 11.58404297 5.3753418 10.39453125 5.43945312 C8.15648863 5.48727455 6.19040326 5.46976923 4 5 C1.453125 2.48046875 1.453125 2.48046875 0 0 Z " fill="#BDBDBD" transform="translate(115,171)"/>
<path d="M0 0 C2.75164432 -0.13517903 5.49664521 -0.23415251 8.25 -0.3125 C9.02730469 -0.35439453 9.80460938 -0.39628906 10.60546875 -0.43945312 C12.84351137 -0.48727455 14.80959674 -0.46976923 17 0 C19.546875 2.51953125 19.546875 2.51953125 21 5 C18.24835568 5.13517903 15.50335479 5.23415251 12.75 5.3125 C11.58404297 5.3753418 11.58404297 5.3753418 10.39453125 5.43945312 C8.15648863 5.48727455 6.19040326 5.46976923 4 5 C1.453125 2.48046875 1.453125 2.48046875 0 0 Z " fill="#BDBDBD" transform="translate(132,153)"/>
<path d="M0 0 C2.75164432 -0.13517903 5.49664521 -0.23415251 8.25 -0.3125 C9.02730469 -0.35439453 9.80460937 -0.39628906 10.60546875 -0.43945312 C12.84351137 -0.48727455 14.80959674 -0.46976923 17 0 C19.546875 2.51953125 19.546875 2.51953125 21 5 C18.24835568 5.13517903 15.50335479 5.23415251 12.75 5.3125 C11.58404297 5.3753418 11.58404297 5.3753418 10.39453125 5.43945312 C8.15648863 5.48727455 6.19040326 5.46976923 4 5 C1.453125 2.48046875 1.453125 2.48046875 0 0 Z " fill="#BEBEBE" transform="translate(1205,118)"/>
<path d="M0 0 C0 2.31 0 4.62 0 7 C0.78375 7.0825 1.5675 7.165 2.375 7.25 C3.24125 7.4975 4.1075 7.745 5 8 C5.66 9.32 6.32 10.64 7 12 C3.04 12 -0.92 12 -5 12 C-5.49108911 4.63366337 -5.49108911 4.63366337 -3.0625 1.5 C-1 0 -1 0 0 0 Z " fill="#EDEDED" transform="translate(557,133)"/>
<path d="M0 0 C2.46800047 1.15173355 4.04783565 2.04783565 6 4 C6.125 6.625 6.125 6.625 6 9 C1.3125 5.484375 1.3125 5.484375 0 4 C0 2.68 0 1.36 0 0 Z " fill="#ECECEC" transform="translate(258,193)"/>
<path d="M0 0 C4.6875 3.515625 4.6875 3.515625 6 5 C6 6.32 6 7.64 6 9 C3.53199953 7.84826645 1.95216435 6.95216435 0 5 C-0.125 2.375 -0.125 2.375 0 0 Z " fill="#ECECEC" transform="translate(810,158)"/>
<path d="M0 0 C2.46800047 1.15173355 4.04783565 2.04783565 6 4 C6.125 6.625 6.125 6.625 6 9 C1.3125 5.484375 1.3125 5.484375 0 4 C0 2.68 0 1.36 0 0 Z " fill="#EAEAEA" transform="translate(363,149)"/>
<path d="M0 0 C2.25 -0.25 2.25 -0.25 5 0 C7.3125 1.875 7.3125 1.875 9 4 C9 4.66 9 5.32 9 6 C5.32579134 5.69381595 4.21864487 5.24228216 1.6875 2.4375 C1.130625 1.633125 0.57375 0.82875 0 0 Z " fill="#E3E3E3" transform="translate(832,96)"/>
<path d="M0 0 C4.6875 3.515625 4.6875 3.515625 6 5 C6 6.32 6 7.64 6 9 C3.53199953 7.84826645 1.95216435 6.95216435 0 5 C-0.125 2.375 -0.125 2.375 0 0 Z " fill="#C0C0C0" transform="translate(175,92)"/>
<path d="M0 0 C2.78211944 0.37596209 4.5879284 0.67318459 6.8125 2.4375 C8 4 8 4 8 6 C5.21788056 5.62403791 3.4120716 5.32681541 1.1875 3.5625 C0 2 0 2 0 0 Z " fill="#C5C5C5" transform="translate(907,205)"/>
<path d="M0 0 C2.46800047 1.15173355 4.04783565 2.04783565 6 4 C6 5.32 6 6.64 6 8 C3.53199953 6.84826645 1.95216435 5.95216435 0 4 C0 2.68 0 1.36 0 0 Z " fill="#EAEAEA" transform="translate(915,198)"/>
<path d="M0 0 C2.78211944 0.37596209 4.5879284 0.67318459 6.8125 2.4375 C8 4 8 4 8 6 C5.21788056 5.62403791 3.4120716 5.32681541 1.1875 3.5625 C0 2 0 2 0 0 Z " fill="#E4E4E4" transform="translate(780,144)"/>
<path d="M0 0 C4.875 2.875 4.875 2.875 6 4 C6.04063832 5.66617115 6.042721 7.33388095 6 9 C1.3125 5.484375 1.3125 5.484375 0 4 C0 2.68 0 1.36 0 0 Z " fill="#C0C0C0" transform="translate(845,84)"/>
<path d="M0 0 C3.875 1.875 3.875 1.875 5 3 C5.04080783 4.99958364 5.04254356 7.00045254 5 9 C2.5 6.75 2.5 6.75 0 4 C0 2.68 0 1.36 0 0 Z " fill="#ECECEC" transform="translate(911,202)"/>
<path d="M0 0 C2.5 1.6875 2.5 1.6875 5 4 C5.3125 6.75 5.3125 6.75 5 9 C2.5 7.3125 2.5 7.3125 0 5 C-0.3125 2.25 -0.3125 2.25 0 0 Z " fill="#ECECEC" transform="translate(250,202)"/>
<path d="M0 0 C2.5 1.6875 2.5 1.6875 5 4 C5.3125 6.75 5.3125 6.75 5 9 C2.5 7.3125 2.5 7.3125 0 5 C-0.3125 2.25 -0.3125 2.25 0 0 Z " fill="#EDEDED" transform="translate(920,193)"/>
<path d="M0 0 C2.5 1.6875 2.5 1.6875 5 4 C5.3125 6.75 5.3125 6.75 5 9 C2.5 7.3125 2.5 7.3125 0 5 C-0.3125 2.25 -0.3125 2.25 0 0 Z " fill="#EBEBEB" transform="translate(355,158)"/>
<path d="M0 0 C3 1.6875 3 1.6875 6 4 C6.375 6.75 6.375 6.75 6 9 C1.3125 5.484375 1.3125 5.484375 0 4 C0 2.68 0 1.36 0 0 Z " fill="#EDEDED" transform="translate(359,154)"/>
<path d="M0 0 C2.5 1.6875 2.5 1.6875 5 4 C5.3125 6.75 5.3125 6.75 5 9 C2.5 7.3125 2.5 7.3125 0 5 C-0.3125 2.25 -0.3125 2.25 0 0 Z " fill="#BEBEBE" transform="translate(180,88)"/>
<path d="M0 0 C1.98 1.65 3.96 3.3 6 5 C5.67 6.32 5.34 7.64 5 9 C2.5 6.75 2.5 6.75 0 4 C0 2.68 0 1.36 0 0 Z " fill="#EDEDED" transform="translate(906,206)"/>
<path d="M0 0 C1.98 1.65 3.96 3.3 6 5 C5.67 6.32 5.34 7.64 5 9 C2.5 6.75 2.5 6.75 0 4 C0 2.68 0 1.36 0 0 Z " fill="#EEEEEE" transform="translate(245,206)"/>
<path d="M0 0 C3.67420866 0.30618405 4.78135513 0.75771784 7.3125 3.5625 C8.1478125 4.7690625 8.1478125 4.7690625 9 6 C5.32579134 5.69381595 4.21864487 5.24228216 1.6875 2.4375 C1.130625 1.633125 0.57375 0.82875 0 0 Z " fill="#C2C2C2" transform="translate(245,205)"/>
<path d="M0 0 C3.875 1.875 3.875 1.875 5 3 C5.04063832 4.66617115 5.042721 6.33388095 5 8 C2.5 6.25 2.5 6.25 0 4 C0 2.68 0 1.36 0 0 Z " fill="#EAEAEA" transform="translate(254,198)"/>
<path d="M0 0 C3.67420866 0.30618405 4.78135513 0.75771784 7.3125 3.5625 C8.1478125 4.7690625 8.1478125 4.7690625 9 6 C5.32579134 5.69381595 4.21864487 5.24228216 1.6875 2.4375 C1.130625 1.633125 0.57375 0.82875 0 0 Z " fill="#C3C3C3" transform="translate(920,192)"/>
<path d="M0 0 C3.67420866 0.30618405 4.78135513 0.75771784 7.3125 3.5625 C8.1478125 4.7690625 8.1478125 4.7690625 9 6 C5.32579134 5.69381595 4.21864487 5.24228216 1.6875 2.4375 C1.130625 1.633125 0.57375 0.82875 0 0 Z " fill="#C1C1C1" transform="translate(355,157)"/>
<path d="M0 0 C3.24208567 0.35049575 4.61527704 0.56221181 6.8125 3.0625 C7.204375 3.701875 7.59625 4.34125 8 5 C3.48279689 5.36625971 3.48279689 5.36625971 1.1875 3.625 C0 2 0 2 0 0 Z " fill="#C2C2C2" transform="translate(360,153)"/>
<path d="M0 0 C3.67420866 0.30618405 4.78135513 0.75771784 7.3125 3.5625 C8.1478125 4.7690625 8.1478125 4.7690625 9 6 C5.32579134 5.69381595 4.21864487 5.24228216 1.6875 2.4375 C1.130625 1.633125 0.57375 0.82875 0 0 Z " fill="#E7E7E7" transform="translate(171,96)"/>
<path d="M0 0 C1.98 1.65 3.96 3.3 6 5 C5.67 6.32 5.34 7.64 5 9 C2.5 6.75 2.5 6.75 0 4 C0 2.68 0 1.36 0 0 Z " fill="#BBBBBB" transform="translate(836,92)"/>
<path d="M0 0 C2.5 1.75 2.5 1.75 5 4 C5 5.32 5 6.64 5 8 C1.125 6.125 1.125 6.125 0 5 C-0.04063832 3.33382885 -0.042721 1.66611905 0 0 Z " fill="#BEBEBE" transform="translate(841,88)"/>
<path d="M0 0 C3.67420866 0.30618405 4.78135513 0.75771784 7.3125 3.5625 C8.1478125 4.7690625 8.1478125 4.7690625 9 6 C5.32579134 5.69381595 4.21864487 5.24228216 1.6875 2.4375 C1.130625 1.633125 0.57375 0.82875 0 0 Z " fill="#E9E9E9" transform="translate(841,87)"/>
<path d="M0 0 C2.78211944 0.37596209 4.5879284 0.67318459 6.8125 2.4375 C8 4 8 4 8 6 C4.74456771 5.65120368 3.98126893 4.97866739 1.75 2.4375 C1.1725 1.633125 0.595 0.82875 0 0 Z " fill="#C2C2C2" transform="translate(259,192)"/>
<path d="M0 0 C3.25543229 0.34879632 4.01873107 1.02133261 6.25 3.5625 C6.8275 4.366875 7.405 5.17125 8 6 C5.21788056 5.62403791 3.4120716 5.32681541 1.1875 3.5625 C0 2 0 2 0 0 Z " fill="#C3C3C3" transform="translate(811,157)"/>
<path d="M0 0 C2.78211944 0.37596209 4.5879284 0.67318459 6.8125 2.4375 C8 4 8 4 8 6 C4.74456771 5.65120368 3.98126893 4.97866739 1.75 2.4375 C1.1725 1.633125 0.595 0.82875 0 0 Z " fill="#C3C3C3" transform="translate(364,148)"/>
<path d="M0 0 C3.25543229 0.34879632 4.01873107 1.02133261 6.25 3.5625 C6.8275 4.366875 7.405 5.17125 8 6 C5.21788056 5.62403791 3.4120716 5.32681541 1.1875 3.5625 C0 2 0 2 0 0 Z " fill="#C1C1C1" transform="translate(369,144)"/>
<path d="M0 0 C2.78211944 0.37596209 4.5879284 0.67318459 6.8125 2.4375 C8 4 8 4 8 6 C4.74456771 5.65120368 3.98126893 4.97866739 1.75 2.4375 C1.1725 1.633125 0.595 0.82875 0 0 Z " fill="#E6E6E6" transform="translate(167,100)"/>
<path d="M0 0 C2.78211944 0.37596209 4.5879284 0.67318459 6.8125 2.4375 C8 4 8 4 8 6 C4.74456771 5.65120368 3.98126893 4.97866739 1.75 2.4375 C1.1725 1.633125 0.595 0.82875 0 0 Z " fill="#E9E9E9" transform="translate(180,87)"/>
<path d="M0 0 C3.24271506 0.5590888 4.93057424 1.4132178 7 4 C7 4.66 7 5.32 7 6 C3.75728494 5.4409112 2.06942576 4.5867822 0 2 C0 1.34 0 0.68 0 0 Z " fill="#E7E7E7" transform="translate(829,100)"/>
<path d="M0 0 C2.5 1.6875 2.5 1.6875 5 4 C5.3125 6.75 5.3125 6.75 5 9 C2.5 6.75 2.5 6.75 0 4 C0 2.68 0 1.36 0 0 Z " fill="#EFEFEF" transform="translate(368,145)"/>
<path d="M0 0 C2.5625 2.25 2.5625 2.25 5 5 C4.8125 7.3125 4.8125 7.3125 4 9 C0.06153846 5.67692308 0.06153846 5.67692308 -0.25 2.25 C-0.1675 1.5075 -0.085 0.765 0 0 Z " fill="#BEBEBE" transform="translate(342,133)"/>
<path d="M0 0 C3.24271506 0.5590888 4.93057424 1.4132178 7 4 C7 4.66 7 5.32 7 6 C2.32307692 4.52307692 2.32307692 4.52307692 0.6875 1.875 C0.460625 1.25625 0.23375 0.6375 0 0 Z " fill="#E6E6E6" transform="translate(343,133)"/>
<path d="M0 0 C3.24208567 0.35049575 4.61527704 0.56221181 6.8125 3.0625 C7.204375 3.701875 7.59625 4.34125 8 5 C4.75791433 4.64950425 3.38472296 4.43778819 1.1875 1.9375 C0.795625 1.298125 0.40375 0.65875 0 0 Z " fill="#BEBEBE" transform="translate(916,197)"/>
<path d="M0 0 C3.24208567 0.35049575 4.61527704 0.56221181 6.8125 3.0625 C7.204375 3.701875 7.59625 4.34125 8 5 C4.75791433 4.64950425 3.38472296 4.43778819 1.1875 1.9375 C0.795625 1.298125 0.40375 0.65875 0 0 Z " fill="#BFBFBF" transform="translate(255,197)"/>
<path d="M0 0 C3.24208567 0.35049575 4.61527704 0.56221181 6.8125 3.0625 C7.204375 3.701875 7.59625 4.34125 8 5 C4.75791433 4.64950425 3.38472296 4.43778819 1.1875 1.9375 C0.795625 1.298125 0.40375 0.65875 0 0 Z " fill="#BFBFBF" transform="translate(806,162)"/>
<path d="M0 0 C1.65 1.32 3.3 2.64 5 4 C4.67 5.32 4.34 6.64 4 8 C2 6.25 2 6.25 0 4 C0 2.68 0 1.36 0 0 Z " fill="#B9B9B9" transform="translate(780,146)"/>
<path d="M0 0 C1.65 1.32 3.3 2.64 5 4 C4.67 5.32 4.34 6.64 4 8 C2 6.25 2 6.25 0 4 C0 2.68 0 1.36 0 0 Z " fill="#BABABA" transform="translate(832,97)"/>
<path d="M0 0 C1.65 1.32 3.3 2.64 5 4 C4.67 5.32 4.34 6.64 4 8 C2 6.25 2 6.25 0 4 C0 2.68 0 1.36 0 0 Z " fill="#BABABA" transform="translate(171,97)"/>
<path d="M0 0 C3.24208567 0.35049575 4.61527704 0.56221181 6.8125 3.0625 C7.204375 3.701875 7.59625 4.34125 8 5 C4.75791433 4.64950425 3.38472296 4.43778819 1.1875 1.9375 C0.795625 1.298125 0.40375 0.65875 0 0 Z " fill="#E8E8E8" transform="translate(837,92)"/>
<path d="M0 0 C3.24208567 0.35049575 4.61527704 0.56221181 6.8125 3.0625 C7.204375 3.701875 7.59625 4.34125 8 5 C4.75791433 4.64950425 3.38472296 4.43778819 1.1875 1.9375 C0.795625 1.298125 0.40375 0.65875 0 0 Z " fill="#E9E9E9" transform="translate(176,92)"/>
<path d="M0 0 C1.65 1.32 3.3 2.64 5 4 C4.67 5.32 4.34 6.64 4 8 C2 6.25 2 6.25 0 4 C0 2.68 0 1.36 0 0 Z " fill="#B9B9B9" transform="translate(184,84)"/>
<path d="M0 0 C2.88575819 0.39803561 3.82189513 0.79009069 5.75 3.0625 C6.1625 3.701875 6.575 4.34125 7 5 C4.625 4.75 4.625 4.75 2 4 C0.6875 1.9375 0.6875 1.9375 0 0 Z " fill="#C1C1C1" transform="translate(251,201)"/>
</svg>
