<svg
  xmlns="http://www.w3.org/2000/svg"
  viewBox="0 0 1364 259"
>
  <path d="M0 0 C13.53 0 27.06 0 41 0 C41 2.97 41 5.94 41 9 C42.32 9 43.64 9 45 9 C45 11.97 45 14.94 45 18 C46.32 18 47.64 18 49 18 C49 20.97 49 23.94 49 27 C50.65 27 52.3 27 54 27 C54 31.29 54 35.58 54 40 C55.32 40 56.64 40 58 40 C58 42.64 58 45.28 58 48 C59.32 48 60.64 48 62 48 C62 50.97 62 53.94 62 57 C63.32 57 64.64 57 66 57 C66 38.19 66 19.38 66 0 C79.2 0 92.4 0 106 0 C106 43.89 106 87.78 106 133 C92.8 133 79.6 133 66 133 C66 131.35 66 129.7 66 128 C64.35 128 62.7 128 61 128 C61 125.03 61 122.06 61 119 C59.68 119 58.36 119 57 119 C57 116.36 57 113.72 57 111 C55.68 111 54.36 111 53 111 C53 108.03 53 105.06 53 102 C51.35 102 49.7 102 48 102 C48 97.71 48 93.42 48 89 C46.68 89 45.36 89 44 89 C44 86.03 44 83.06 44 80 C43.01 80 42.02 80 41 80 C41 97.49 41 114.98 41 133 C27.47 133 13.94 133 0 133 C0 89.11 0 45.22 0 0 Z " fill="#007bc3" transform="translate(937,79)"/>
  <path d="M0 0 C13.2 0 26.4 0 40 0 C40 2.97 40 5.94 40 9 C41.65 9 43.3 9 45 9 C45 11.97 45 14.94 45 18 C46.32 18 47.64 18 49 18 C49 20.97 49 23.94 49 27 C50.32 27 51.64 27 53 27 C53 31.29 53 35.58 53 40 C54.65 40 56.3 40 58 40 C58 42.64 58 45.28 58 48 C59.32 48 60.64 48 62 48 C62 50.97 62 53.94 62 57 C63.32 57 64.64 57 66 57 C66 38.19 66 19.38 66 0 C79.2 0 92.4 0 106 0 C106 43.89 106 87.78 106 133 C92.8 133 79.6 133 66 133 C66 131.35 66 129.7 66 128 C64.35 128 62.7 128 61 128 C61 125.03 61 122.06 61 119 C59.68 119 58.36 119 57 119 C57 116.36 57 113.72 57 111 C55.35 111 53.7 111 52 111 C52 108.03 52 105.06 52 102 C50.68 102 49.36 102 48 102 C48 97.71 48 93.42 48 89 C46.68 89 45.36 89 44 89 C44 86.03 44 83.06 44 80 C42.68 80 41.36 80 40 80 C40 97.49 40 114.98 40 133 C26.8 133 13.6 133 0 133 C0 89.11 0 45.22 0 0 Z " fill="#007ac1" transform="translate(495,79)"/>
  <path d="M0 0 C27.72 0 55.44 0 84 0 C84 1.65 84 3.3 84 5 C85.65 5 87.3 5 89 5 C89 6.32 89 7.64 89 9 C90.32 9 91.64 9 93 9 C93 10.32 93 11.64 93 13 C94.65 13 96.3 13 98 13 C98 14.65 98 16.3 98 18 C99.32 18 100.64 18 102 18 C102 38.46 102 58.92 102 80 C100.68 80 99.36 80 98 80 C98 81.65 98 83.3 98 85 C96.35 85 94.7 85 93 85 C93 85.99 93 86.98 93 88 C94.65 88 96.3 88 98 88 C98 89.32 98 90.64 98 92 C99.32 92 100.64 92 102 92 C102 105.53 102 119.06 102 133 C90.12 133 78.24 133 66 133 C66 122.77 66 112.54 66 102 C56.1 102 46.2 102 36 102 C36 112.23 36 122.46 36 133 C24.12 133 12.24 133 0 133 C0 89.11 0 45.22 0 0 Z M36 36 C36 45.9 36 55.8 36 66 C44.58 66 53.16 66 62 66 C62 64.68 62 63.36 62 62 C63.32 62 64.64 62 66 62 C66 55.07 66 48.14 66 41 C64.68 41 63.36 41 62 41 C62 39.35 62 37.7 62 36 C53.42 36 44.84 36 36 36 Z " fill="#007ac2" transform="translate(718,79)"/>
  <path d="M0 0 C33.66 0 67.32 0 102 0 C102 13.2 102 26.4 102 40 C81.54 40 61.08 40 40 40 C40 44.29 40 48.58 40 53 C54.85 53 69.7 53 85 53 C85 61.91 85 70.82 85 80 C70.15 80 55.3 80 40 80 C40 83.96 40 87.92 40 92 C60.46 92 80.92 92 102 92 C102 105.2 102 118.4 102 132 C68.34 132 34.68 132 0 132 C0 88.44 0 44.88 0 0 Z " fill="#007bc2" transform="translate(385,79)"/>
  <path d="M0 0 C22.11 0 44.22 0 67 0 C67 1.32 67 2.64 67 4 C68.32 4 69.64 4 71 4 C71 5.65 71 7.3 71 9 C72.32 9 73.64 9 75 9 C75 10.32 75 11.64 75 13 C76.65 13 78.3 13 80 13 C80 14.65 80 16.3 80 18 C81.32 18 82.64 18 84 18 C84 50.01 84 82.02 84 115 C82.68 115 81.36 115 80 115 C80 116.32 80 117.64 80 119 C78.35 119 76.7 119 75 119 C75 120.65 75 122.3 75 124 C73.68 124 72.36 124 71 124 C71 125.32 71 126.64 71 128 C69.68 128 68.36 128 67 128 C67 129.32 67 130.64 67 132 C44.89 132 22.78 132 0 132 C0 130.68 0 129.36 0 128 C-1.32 128 -2.64 128 -4 128 C-4 126.68 -4 125.36 -4 124 C-5.65 124 -7.3 124 -9 124 C-9 122.35 -9 120.7 -9 119 C-10.32 119 -11.64 119 -13 119 C-13 117.68 -13 116.36 -13 115 C-14.65 115 -16.3 115 -18 115 C-18 82.99 -18 50.98 -18 18 C-16.35 18 -14.7 18 -13 18 C-13 16.35 -13 14.7 -13 13 C-11.68 13 -10.36 13 -9 13 C-9 11.68 -9 10.36 -9 9 C-7.35 9 -5.7 9 -4 9 C-4 7.35 -4 5.7 -4 4 C-2.68 4 -1.36 4 0 4 C0 2.68 0 1.36 0 0 Z M19 36 C19 54.48 19 72.96 19 92 C28.57 92 38.14 92 48 92 C48 73.52 48 55.04 48 36 C38.43 36 28.86 36 19 36 Z " fill="#007bc3" transform="translate(184,79)"/>
  <path d="M0 0 C22.11 0 44.22 0 67 0 C67 1.32 67 2.64 67 4 C68.32 4 69.64 4 71 4 C71 5.65 71 7.3 71 9 C72.65 9 74.3 9 76 9 C76 10.32 76 11.64 76 13 C77.32 13 78.64 13 80 13 C80 14.65 80 16.3 80 18 C81.32 18 82.64 18 84 18 C84 50.01 84 82.02 84 115 C82.68 115 81.36 115 80 115 C80 116.32 80 117.64 80 119 C78.68 119 77.36 119 76 119 C76 120.65 76 122.3 76 124 C74.35 124 72.7 124 71 124 C71 125.32 71 126.64 71 128 C69.68 128 68.36 128 67 128 C67 129.32 67 130.64 67 132 C44.89 132 22.78 132 0 132 C0 130.68 0 129.36 0 128 C-1.32 128 -2.64 128 -4 128 C-4 126.68 -4 125.36 -4 124 C-5.65 124 -7.3 124 -9 124 C-9 122.35 -9 120.7 -9 119 C-10.32 119 -11.64 119 -13 119 C-13 117.68 -13 116.36 -13 115 C-14.32 115 -15.64 115 -17 115 C-17 82.99 -17 50.98 -17 18 C-15.68 18 -14.36 18 -13 18 C-13 16.35 -13 14.7 -13 13 C-11.68 13 -10.36 13 -9 13 C-9 11.68 -9 10.36 -9 9 C-7.35 9 -5.7 9 -4 9 C-4 7.35 -4 5.7 -4 4 C-2.68 4 -1.36 4 0 4 C0 2.68 0 1.36 0 0 Z M19 36 C19 54.48 19 72.96 19 92 C28.57 92 38.14 92 48 92 C48 73.52 48 55.04 48 36 C38.43 36 28.86 36 19 36 Z " fill="#007bc2" transform="translate(845,79)"/>
  <path d="M0 0 C27.72 0 55.44 0 84 0 C84 1.32 84 2.64 84 4 C85.65 4 87.3 4 89 4 C89 5.65 89 7.3 89 9 C90.32 9 91.64 9 93 9 C93 10.32 93 11.64 93 13 C94.32 13 95.64 13 97 13 C97 14.65 97 16.3 97 18 C98.65 18 100.3 18 102 18 C102 34.17 102 50.34 102 67 C100.35 67 98.7 67 97 67 C97 68.32 97 69.64 97 71 C95.68 71 94.36 71 93 71 C93 72.65 93 74.3 93 76 C91.68 76 90.36 76 89 76 C89 77.32 89 78.64 89 80 C87.35 80 85.7 80 84 80 C84 81.32 84 82.64 84 84 C68.16 84 52.32 84 36 84 C36 99.84 36 115.68 36 132 C24.12 132 12.24 132 0 132 C0 88.44 0 44.88 0 0 Z M36 30 C36 37.92 36 45.84 36 54 C45.9 54 55.8 54 66 54 C66 52.68 66 51.36 66 50 C67.32 50 68.64 50 70 50 C70 44.72 70 39.44 70 34 C68.68 34 67.36 34 66 34 C66 32.68 66 31.36 66 30 C56.1 30 46.2 30 36 30 Z " fill="#007bc2" transform="translate(276,79)"/>
  <path d="M0 0 C33.33 0 66.66 0 101 0 C101 13.53 101 27.06 101 41 C79.55 41 58.1 41 36 41 C36 44.96 36 48.92 36 53 C52.17 53 68.34 53 85 53 C85 63.23 85 73.46 85 84 C68.83 84 52.66 84 36 84 C36 99.84 36 115.68 36 132 C24.12 132 12.24 132 0 132 C0 88.44 0 44.88 0 0 Z " fill="#007ac1" transform="translate(609,79)"/>
  <path d="M0 0 C30.69 0 61.38 0 93 0 C93 13.53 93 27.06 93 41 C84.42 41 75.84 41 67 41 C67 71.36 67 101.72 67 133 C53.47 133 39.94 133 26 133 C26 102.64 26 72.28 26 41 C17.42 41 8.84 41 0 41 C0 27.47 0 13.94 0 0 Z " fill="#007ac1" transform="translate(1051,79)"/>
  <path d="M0 0 C11.88 0 23.76 0 36 0 C36 5.94 36 11.88 36 18 C30.06 18 24.12 18 18 18 C18 23.94 18 29.88 18 36 C12.39 36 6.78 36 1 36 C1 41.61 1 47.22 1 53 C6.61 53 12.22 53 18 53 C18 58.61 18 64.22 18 70 C23.94 70 29.88 70 36 70 C36 76.27 36 82.54 36 89 C24.12 89 12.24 89 0 89 C0 83.06 0 77.12 0 71 C-5.94 71 -11.88 71 -18 71 C-18 65.39 -18 59.78 -18 54 C-23.61 54 -29.22 54 -35 54 C-35 47.73 -35 41.46 -35 35 C-29.39 35 -23.78 35 -18 35 C-18 29.06 -18 23.12 -18 17 C-12.06 17 -6.12 17 0 17 C0 11.39 0 5.78 0 0 Z " fill="#0079c0" transform="translate(1191,101)"/>
  <path d="M0 0 C11.88 0 23.76 0 36 0 C36 5.61 36 11.22 36 17 C41.94 17 47.88 17 54 17 C54 22.94 54 28.88 54 35 C59.61 35 65.22 35 71 35 C71 41.27 71 47.54 71 54 C65.39 54 59.78 54 54 54 C54 59.61 54 65.22 54 71 C48.06 71 42.12 71 36 71 C36 76.94 36 82.88 36 89 C24.12 89 12.24 89 0 89 C0 82.73 0 76.46 0 70 C5.94 70 11.88 70 18 70 C18 64.39 18 58.78 18 53 C23.61 53 29.22 53 35 53 C35 47.39 35 41.78 35 36 C29.39 36 23.78 36 18 36 C18 30.06 18 24.12 18 18 C12.06 18 6.12 18 0 18 C0 12.06 0 6.12 0 0 Z " fill="#007ac1" transform="translate(83,101)"/>
  <path d="M0 0 C6 5 6 5 6.73828697 7.52055836 C6.73275621 8.41561934 6.72722546 9.31068033 6.7215271 10.23286438 C6.72977509 11.2662645 6.73802307 12.29966461 6.746521 13.36437988 C6.72494934 14.4871936 6.70337769 15.61000732 6.68115234 16.7668457 C6.6820285 17.95751144 6.68290466 19.14817719 6.68380737 20.37492371 C6.68034836 23.63134399 6.65030576 26.88620822 6.60836363 30.14231896 C6.57080178 33.54819462 6.56732705 36.95410237 6.56021118 40.3601532 C6.54157804 46.80598653 6.49236287 53.25120776 6.43211424 59.6967718 C6.36500051 67.03644379 6.33204807 74.37614534 6.30194163 81.71604788 C6.23926161 96.81103938 6.13375749 111.90545842 6 127 C7.13117249 126.98889694 8.26234497 126.97779388 9.42779541 126.96635437 C20.08094918 126.86505577 30.73400542 126.79007172 41.38753128 126.74093914 C46.8648407 126.71483037 52.34176177 126.67940843 57.81884766 126.62280273 C63.1032468 126.5685294 68.38727209 126.53858911 73.67192841 126.52561378 C75.68942909 126.51636554 77.706909 126.49830594 79.72425079 126.47134972 C82.54741341 126.43512165 85.36902566 126.43005204 88.19238281 126.43237305 C89.02891891 126.41439667 89.86545502 126.39642029 90.7273407 126.37789917 C93.06427002 126.39872742 93.06427002 126.39872742 97 127 C98.32 128.65 99.64 130.3 101 132 C67.67 132 34.34 132 0 132 C0 88.44 0 44.88 0 0 Z " fill="#0068a3" transform="translate(385,79)"/>
  <path d="M0 0 C6 5 6 5 6.68115234 8.3215332 C6.64973145 9.55218506 6.61831055 10.78283691 6.5859375 12.05078125 C6.57744781 12.70958786 6.56895813 13.36839447 6.56021118 14.04716492 C6.52680339 16.13732314 6.45157577 18.22352271 6.375 20.3125 C6.34488282 21.73497003 6.31751005 23.15750098 6.29296875 24.58007812 C6.23216351 28.05611079 6.11481474 31.52366486 6 35 C14.58 35 23.16 35 32 35 C32 65.36 32 95.72 32 127 C41.57 127 51.14 127 61 127 C62.65 128.98 64.3 130.96 66 133 C52.8 133 39.6 133 26 133 C26 102.64 26 72.28 26 41 C17.42 41 8.84 41 0 41 C0 27.47 0 13.94 0 0 Z " fill="#0068a4" transform="translate(1051,79)"/>
  <path d="M0 0 C4 2 4 2 6 4 C6.18813821 6.80149514 6.2517501 9.50336003 6.22705078 12.30517578 C6.22734283 13.16378204 6.22763489 14.02238831 6.22793579 14.90701294 C6.22653922 17.75321457 6.21096273 20.59915644 6.1953125 23.4453125 C6.19158353 25.41543434 6.18873601 27.38555802 6.18673706 29.35568237 C6.17909146 34.54743548 6.15943504 39.73907714 6.1373291 44.93078613 C6.1168906 50.2259775 6.10773962 55.52118683 6.09765625 60.81640625 C6.07619001 71.21098654 6.04204292 81.60548401 6 92 C7.32 92 8.64 92 10 92 C10 93.32 10 94.64 10 96 C11.65 96 13.3 96 15 96 C15 97.32 15 98.64 15 100 C16.32 100 17.64 100 19 100 C19 101.65 19 103.3 19 105 C20.32 105 21.64 105 23 105 C23 106.32 23 107.64 23 109 C23.69268982 108.98889694 24.38537964 108.97779388 25.09906006 108.96635437 C32.30126059 108.85583344 39.50322072 108.78036222 46.70605469 108.7253418 C49.39515032 108.70300037 52.08365794 108.66819407 54.77246094 108.62280273 C58.63493744 108.56222884 62.49651062 108.53380583 66.359375 108.51171875 C68.16580475 108.47300911 68.16580475 108.47300911 70.00872803 108.43351746 C71.69001801 108.43295097 71.69001801 108.43295097 73.40527344 108.43237305 C74.39122498 108.42126999 75.37717651 108.41016693 76.39300537 108.39872742 C79 109 79 109 83 114 C61.55 114 40.1 114 18 114 C18 112.68 18 111.36 18 110 C16.68 110 15.36 110 14 110 C14 108.68 14 107.36 14 106 C12.35 106 10.7 106 9 106 C9 104.35 9 102.7 9 101 C7.68 101 6.36 101 5 101 C5 99.68 5 98.36 5 97 C3.35 97 1.7 97 0 97 C0 64.99 0 32.98 0 0 Z " fill="#0068a3" transform="translate(166,97)"/>
  <path d="M0 0 C6 5 6 5 6.73828697 7.52055836 C6.73275621 8.41561934 6.72722546 9.31068033 6.7215271 10.23286438 C6.72977509 11.2662645 6.73802307 12.29966461 6.746521 13.36437988 C6.72494934 14.4871936 6.70337769 15.61000732 6.68115234 16.7668457 C6.6820285 17.95751144 6.68290466 19.14817719 6.68380737 20.37492371 C6.68034836 23.63134399 6.65030576 26.88620822 6.60836363 30.14231896 C6.57080178 33.54819462 6.56732705 36.95410237 6.56021118 40.3601532 C6.54157804 46.80598653 6.49236287 53.25120776 6.43211424 59.6967718 C6.36500051 67.03644379 6.33204807 74.37614534 6.30194163 81.71604788 C6.23926161 96.81103938 6.13375749 111.90545842 6 127 C6.85231201 126.9685791 7.70462402 126.9371582 8.58276367 126.90478516 C11.76024304 126.802223 14.93687639 126.72716415 18.11547852 126.67041016 C19.4881575 126.6403267 20.86064563 126.59944666 22.23266602 126.54736328 C24.21024621 126.47419927 26.18925709 126.44366916 28.16796875 126.4140625 C29.35672607 126.3826416 30.5454834 126.3512207 31.77026367 126.31884766 C35 127 35 127 40 133 C26.8 133 13.6 133 0 133 C0 89.11 0 45.22 0 0 Z " fill="#0068a4" transform="translate(937,79)"/>
  <path d="M0 0 C5 4 5 4 5.60127258 7.82183838 C5.61573991 9.39194118 5.60253054 10.9624451 5.56762695 12.53222656 C5.56835709 13.39112488 5.56908722 14.25002319 5.56983948 15.13494873 C5.56635903 17.97081905 5.52747699 20.80504204 5.48828125 23.640625 C5.47895474 25.60788068 5.47183786 27.57514798 5.46684265 29.54241943 C5.44776018 34.71797805 5.3986483 39.89283405 5.34332275 45.06811523 C5.2921574 50.35000097 5.26933439 55.63200033 5.24414062 60.9140625 C5.19053103 71.27635022 5.10520284 81.63811666 5 92 C6.32 92 7.64 92 9 92 C9 93.32 9 94.64 9 96 C10.65 96 12.3 96 14 96 C14 97.32 14 98.64 14 100 C15.32 100 16.64 100 18 100 C18 101.65 18 103.3 18 105 C19.65 105 21.3 105 23 105 C23 106.32 23 107.64 23 109 C23.67794113 108.98889694 24.35588226 108.97779388 25.05436707 108.96635437 C32.11073634 108.85573213 39.1668593 108.78032012 46.22387695 108.7253418 C48.85744227 108.70019843 51.49093782 108.66607916 54.12426758 108.62280273 C57.90984309 108.5621479 61.69449598 108.5337873 65.48046875 108.51171875 C67.2463459 108.47300911 67.2463459 108.47300911 69.04789734 108.43351746 C70.14866104 108.4331398 71.24942474 108.43276215 72.38354492 108.43237305 C73.34951096 108.42126999 74.31547699 108.41016693 75.31071472 108.39872742 C78 109 78 109 83 114 C61.22 114 39.44 114 17 114 C17 112.68 17 111.36 17 110 C15.68 110 14.36 110 13 110 C13 108.68 13 107.36 13 106 C11.35 106 9.7 106 8 106 C8 104.35 8 102.7 8 101 C6.68 101 5.36 101 4 101 C4 99.68 4 98.36 4 97 C2.68 97 1.36 97 0 97 C0 64.99 0 32.98 0 0 Z " fill="#0067a3" transform="translate(828,97)"/>
  <path d="M0 0 C6 5 6 5 6.73828697 7.52055836 C6.73275621 8.41561934 6.72722546 9.31068033 6.7215271 10.23286438 C6.72977509 11.2662645 6.73802307 12.29966461 6.746521 13.36437988 C6.72494934 14.4871936 6.70337769 15.61000732 6.68115234 16.7668457 C6.6820285 17.95751144 6.68290466 19.14817719 6.68380737 20.37492371 C6.68034836 23.63134399 6.65030576 26.88620822 6.60836363 30.14231896 C6.57080178 33.54819462 6.56732705 36.95410237 6.56021118 40.3601532 C6.54157804 46.80598653 6.49236287 53.25120776 6.43211424 59.6967718 C6.36500051 67.03644379 6.33204807 74.37614534 6.30194163 81.71604788 C6.23926161 96.81103938 6.13375749 111.90545842 6 127 C6.73114014 126.9685791 7.46228027 126.9371582 8.21557617 126.90478516 C11.53923402 126.77980191 14.86239762 126.70194452 18.1875 126.625 C19.33798828 126.57472656 20.48847656 126.52445312 21.67382812 126.47265625 C23.34155273 126.44365234 23.34155273 126.44365234 25.04296875 126.4140625 C26.06414795 126.3826416 27.08532715 126.3512207 28.13745117 126.31884766 C31 127 31 127 36 133 C24.12 133 12.24 133 0 133 C0 89.11 0 45.22 0 0 Z " fill="#0068a4" transform="translate(718,79)"/>
  <path d="M0 0 C13.2 0 26.4 0 40 0 C40 43.89 40 87.78 40 133 C34 127 34 127 33.87695217 124.97163296 C33.87787396 124.0728848 33.87879576 123.17413664 33.87974548 122.24815369 C33.87837082 121.22025223 33.87699615 120.19235077 33.87557983 119.13330078 C33.88097275 117.42750854 33.88097275 117.42750854 33.88647461 115.68725586 C33.88632858 114.49717422 33.88618256 113.30709259 33.8860321 112.08094788 C33.88661106 108.80836726 33.89164019 105.53582893 33.89860606 102.26325679 C33.90484033 98.84661335 33.90544346 95.42996917 33.90663147 92.01332092 C33.90974457 85.53930733 33.91795767 79.06531054 33.92798096 72.59130436 C33.93914275 65.2226208 33.94465271 57.85393645 33.94967639 50.48524654 C33.96014031 35.32348831 33.97773934 20.16174583 34 5 C33.1121582 5.02618408 32.22431641 5.05236816 31.30957031 5.0793457 C28.00699595 5.1646975 24.70559725 5.22730652 21.40234375 5.2746582 C19.97442099 5.29976347 18.54662625 5.33385587 17.11914062 5.37719727 C15.06348082 5.43803678 13.00952247 5.46624551 10.953125 5.48828125 C9.09929199 5.52755737 9.09929199 5.52755737 7.20800781 5.56762695 C4 5 4 5 0 0 Z " fill="#0083d0" transform="translate(561,79)"/>
  <path d="M0 0 C5 4 5 4 5.61523914 6.39751053 C5.61063018 7.29349331 5.60602121 8.18947609 5.60127258 9.11260986 C5.6081459 10.14463531 5.61501923 11.17666077 5.62210083 12.23995972 C5.60412445 13.36636871 5.58614807 14.49277771 5.56762695 15.65332031 C5.56835709 16.84384003 5.56908722 18.03435974 5.56983948 19.26095581 C5.56695394 22.52137515 5.54189045 25.78071982 5.50696969 29.04092503 C5.47570084 32.44949734 5.47277508 35.85809106 5.46684265 39.26678467 C5.45130559 45.71964418 5.41027958 52.17207984 5.3600952 58.62475276 C5.30419697 65.97168325 5.27671413 73.31863405 5.25161803 80.66572428 C5.19936315 95.77738563 5.11142414 110.88865042 5 126 C6.3317627 125.9685791 6.3317627 125.9685791 7.69042969 125.93652344 C10.99294455 125.86824323 14.2947067 125.8181513 17.59765625 125.78027344 C19.02551121 125.76019018 20.45328425 125.73291748 21.88085938 125.69824219 C23.93640368 125.64957331 25.99085855 125.62700033 28.046875 125.609375 C29.28276367 125.58842773 30.51865234 125.56748047 31.79199219 125.54589844 C35 126 35 126 37.43457031 127.89941406 C39 130 39 130 39 132 C26.13 132 13.26 132 0 132 C0 88.44 0 44.88 0 0 Z " fill="#0067a3" transform="translate(495,80)"/>
  <path d="M0 0 C5 4 5 4 5.61523914 6.39751053 C5.61063018 7.29349331 5.60602121 8.18947609 5.60127258 9.11260986 C5.6081459 10.14463531 5.61501923 11.17666077 5.62210083 12.23995972 C5.60412445 13.36636871 5.58614807 14.49277771 5.56762695 15.65332031 C5.56835709 16.84384003 5.56908722 18.03435974 5.56983948 19.26095581 C5.56695394 22.52137515 5.54189045 25.78071982 5.50696969 29.04092503 C5.47570084 32.44949734 5.47277508 35.85809106 5.46684265 39.26678467 C5.45130559 45.71964418 5.41027958 52.17207984 5.3600952 58.62475276 C5.30419697 65.97168325 5.27671413 73.31863405 5.25161803 80.66572428 C5.19936315 95.77738563 5.11142414 110.88865042 5 126 C5.76666992 125.97381592 6.53333984 125.94763184 7.32324219 125.9206543 C10.79861949 125.81668777 14.27366983 125.75167276 17.75 125.6875 C18.9565625 125.64560547 20.163125 125.60371094 21.40625 125.56054688 C22.56640625 125.54443359 23.7265625 125.52832031 24.921875 125.51171875 C25.99018555 125.48553467 27.05849609 125.45935059 28.15917969 125.43237305 C31 126 31 126 35 131 C23.45 131 11.9 131 0 131 C0 87.77 0 44.54 0 0 Z " fill="#0067a2" transform="translate(276,80)"/>
  <path d="M0 0 C5 4 5 4 5.61523914 6.39751053 C5.61063018 7.29349331 5.60602121 8.18947609 5.60127258 9.11260986 C5.6081459 10.14463531 5.61501923 11.17666077 5.62210083 12.23995972 C5.60412445 13.36636871 5.58614807 14.49277771 5.56762695 15.65332031 C5.56835709 16.84384003 5.56908722 18.03435974 5.56983948 19.26095581 C5.56695394 22.52137515 5.54189045 25.78071982 5.50696969 29.04092503 C5.47570084 32.44949734 5.47277508 35.85809106 5.46684265 39.26678467 C5.45130559 45.71964418 5.41027958 52.17207984 5.3600952 58.62475276 C5.30419697 65.97168325 5.27671413 73.31863405 5.25161803 80.66572428 C5.19936315 95.77738563 5.11142414 110.88865042 5 126 C5.73114014 125.97381592 6.46228027 125.94763184 7.21557617 125.9206543 C10.53933082 125.81649856 13.86274194 125.75161379 17.1875 125.6875 C18.33798828 125.64560547 19.48847656 125.60371094 20.67382812 125.56054688 C22.34155273 125.53637695 22.34155273 125.53637695 24.04296875 125.51171875 C25.57473755 125.47244263 25.57473755 125.47244263 27.13745117 125.43237305 C30 126 30 126 35 131 C23.45 131 11.9 131 0 131 C0 87.77 0 44.54 0 0 Z " fill="#0067a2" transform="translate(609,80)"/>
  <path d="M0 0 C4.29 0 8.58 0 13 0 C13 2.64 13 5.28 13 8 C14.65 8 16.3 8 18 8 C18 12.62 18 17.24 18 22 C19.32 22 20.64 22 22 22 C22 24.64 22 27.28 22 30 C23.32 30 24.64 30 26 30 C26 32.97 26 35.94 26 39 C27.65 39 29.3 39 31 39 C31 41.97 31 44.94 31 48 C32.32 48 33.64 48 35 48 C35 49.32 35 50.64 35 52 C35.8878418 51.97905273 36.77568359 51.95810547 37.69042969 51.93652344 C40.99294455 51.86824323 44.2947067 51.8181513 47.59765625 51.78027344 C49.02551121 51.76019018 50.45328425 51.73291748 51.88085938 51.69824219 C53.93640368 51.64957331 55.99085855 51.62700033 58.046875 51.609375 C59.90070801 51.5779541 59.90070801 51.5779541 61.79199219 51.54589844 C65 52 65 52 67.43457031 53.89941406 C69 56 69 56 69 58 C56.13 58 43.26 58 30 58 C30 56.35 30 54.7 30 53 C28.35 53 26.7 53 25 53 C25 50.03 25 47.06 25 44 C23.68 44 22.36 44 21 44 C21 41.36 21 38.72 21 36 C19.35 36 17.7 36 16 36 C16 33.03 16 30.06 16 27 C14.68 27 13.36 27 12 27 C12 22.71 12 18.42 12 14 C10.68 14 9.36 14 8 14 C8 11.03 8 8.06 8 5 C7.236875 5.061875 6.47375 5.12375 5.6875 5.1875 C3 5 3 5 1.1875 3.625 C0 2 0 2 0 0 Z " fill="#0068a4" transform="translate(531,154)"/>
  <path d="M0 0 C33.33 0 66.66 0 101 0 C101 13.2 101 26.4 101 40 C96 36 96 36 95.43237305 32.70019531 C95.45855713 31.42241211 95.48474121 30.14462891 95.51171875 28.828125 C95.51879349 28.1457074 95.52586823 27.46328979 95.53315735 26.76019287 C95.56105979 24.58899439 95.62377747 22.42041332 95.6875 20.25 C95.71258883 18.77477694 95.735401 17.29951329 95.75585938 15.82421875 C95.81086863 12.21530096 95.89710693 8.60790609 96 5 C94.85629944 5.01110306 93.71259888 5.02220612 92.53424072 5.03364563 C81.76335676 5.13494209 70.99256926 5.20992727 60.22131729 5.25906086 C54.68347595 5.28517016 49.1460187 5.32059311 43.60839844 5.37719727 C38.26564502 5.43146864 32.92326136 5.46141049 27.5802536 5.47438622 C25.54042488 5.4836348 23.50061671 5.50169506 21.46094513 5.52865028 C18.60665438 5.56487563 15.75389718 5.56994806 12.89941406 5.56762695 C11.6305838 5.59459152 11.6305838 5.59459152 10.33612061 5.62210083 C9.55651978 5.61522751 8.77691895 5.60835419 7.97369385 5.60127258 C7.29894138 5.60588155 6.62418892 5.61049051 5.92898941 5.61523914 C4 5 4 5 0 0 Z " fill="#0083ce" transform="translate(609,79)"/>
  <path d="M0 0 C4.29 0 8.58 0 13 0 C13 2.97 13 5.94 13 9 C14.65 9 16.3 9 18 9 C18 13.29 18 17.58 18 22 C19.32 22 20.64 22 22 22 C22 24.64 22 27.28 22 30 C23.65 30 25.3 30 27 30 C27 32.97 27 35.94 27 39 C28.32 39 29.64 39 31 39 C31 41.97 31 44.94 31 48 C32.32 48 33.64 48 35 48 C35 49.32 35 50.64 35 52 C35.8878418 51.97905273 36.77568359 51.95810547 37.69042969 51.93652344 C40.99294455 51.86824323 44.2947067 51.8181513 47.59765625 51.78027344 C49.02551121 51.76019018 50.45328425 51.73291748 51.88085938 51.69824219 C53.93640368 51.64957331 55.99085855 51.62700033 58.046875 51.609375 C59.90070801 51.5779541 59.90070801 51.5779541 61.79199219 51.54589844 C65 52 65 52 67.43457031 53.89941406 C69 56 69 56 69 58 C56.13 58 43.26 58 30 58 C30 56.35 30 54.7 30 53 C28.35 53 26.7 53 25 53 C25 50.03 25 47.06 25 44 C23.68 44 22.36 44 21 44 C21 41.36 21 38.72 21 36 C19.68 36 18.36 36 17 36 C17 33.03 17 30.06 17 27 C15.35 27 13.7 27 12 27 C12 22.71 12 18.42 12 14 C10.68 14 9.36 14 8 14 C8 11.03 8 8.06 8 5 C7.236875 4.9175 6.47375 4.835 5.6875 4.75 C3 4 3 4 0 0 Z " fill="#0068a4" transform="translate(973,154)"/>
  <path d="M0 0 C30.36 0 60.72 0 92 0 C92 13.53 92 27.06 92 41 C86 35 86 35 85.88647461 32.13256836 C85.89432983 30.25516968 85.89432983 30.25516968 85.90234375 28.33984375 C85.9037587 27.67537735 85.90517365 27.01091095 85.90663147 26.3263092 C85.91224482 24.19666101 85.92479946 22.06711661 85.9375 19.9375 C85.94251329 18.49674631 85.94707649 17.05599097 85.95117188 15.61523438 C85.96221855 12.07678898 85.97949208 8.53840461 86 5 C84.9815802 5.01110306 83.9631604 5.02220612 82.91387939 5.03364563 C73.32029847 5.13496589 63.72682596 5.20993851 54.13283157 5.25906086 C49.20030687 5.2851643 44.26821378 5.32057597 39.3359375 5.37719727 C34.57672632 5.43149044 29.81793048 5.4614149 25.05843353 5.47438622 C23.24188446 5.48363096 21.42535834 5.50168395 19.6089859 5.52865028 C17.06597121 5.5649059 14.52467651 5.56994698 11.98144531 5.56762695 C11.22906586 5.58560333 10.4766864 5.60357971 9.70150757 5.62210083 C7.59405518 5.60127258 7.59405518 5.60127258 4 5 C2.68 3.35 1.36 1.7 0 0 Z " fill="#0083ce" transform="translate(1052,79)"/>
  <path d="M0 0 C1.65 1.32 3.3 2.64 5 4 C5 6.64 5 9.28 5 12 C10.94 12 16.88 12 23 12 C23 17.94 23 23.88 23 30 C28.61 30 34.22 30 40 30 C40 35.61 40 41.22 40 47 C41.74667969 46.93039063 43.49335937 46.86078125 45.29296875 46.7890625 C47.59110736 46.73278155 49.88928758 46.67818178 52.1875 46.625 C53.33798828 46.57472656 54.48847656 46.52445313 55.67382812 46.47265625 C57.34155273 46.44365234 57.34155273 46.44365234 59.04296875 46.4140625 C60.06414795 46.3826416 61.08532715 46.3512207 62.13745117 46.31884766 C65 47 65 47 70 53 C58.45 53 46.9 53 35 53 C35 47.06 35 41.12 35 35 C29.06 35 23.12 35 17 35 C17 29.39 17 23.78 17 18 C11.39 18 5.78 18 0 18 C0 12.06 0 6.12 0 0 Z " fill="#0068a4" transform="translate(1156,137)"/>
  <path d="M0 0 C11.55 0 23.1 0 35 0 C35 5.61 35 11.22 35 17 C40.94 17 46.88 17 53 17 C53 22.94 53 28.88 53 35 C58.61 35 64.22 35 70 35 C70 40.94 70 46.88 70 53 C65 49 65 49 64.51171875 46.640625 C64.56972656 45.85171875 64.62773437 45.0628125 64.6875 44.25 C64.73261719 43.45078125 64.77773437 42.6515625 64.82421875 41.828125 C64.88222656 41.22484375 64.94023437 40.6215625 65 40 C63.78441406 40.01160156 62.56882813 40.02320313 61.31640625 40.03515625 C59.73177236 40.04453278 58.14713682 40.05363313 56.5625 40.0625 C55.35883789 40.07506836 55.35883789 40.07506836 54.13085938 40.08789062 C52.08704779 40.0965143 50.04316098 40.0522815 48 40 C47 39 47 39 46.90234375 35.40234375 C46.90808728 33.91402745 46.92110109 32.42573704 46.9375 30.9375 C46.958125 28.318125 46.97875 25.69875 47 23 C41.39 23 35.78 23 30 23 C30 17.06 30 11.12 30 5 C28.16953125 5.05800781 26.3390625 5.11601563 24.453125 5.17578125 C22.05210879 5.2226761 19.65106506 5.26817654 17.25 5.3125 C16.0434375 5.35439453 14.836875 5.39628906 13.59375 5.43945312 C12.43359375 5.45556641 11.2734375 5.47167969 10.078125 5.48828125 C9.00981445 5.51446533 7.94150391 5.54064941 6.84082031 5.56762695 C4 5 4 5 0 0 Z " fill="#0083cf" transform="translate(84,101)"/>
  <path d="M0 0 C2.46800047 1.15173355 4.04783565 2.04783565 6 4 C6.18831473 6.95274914 6.25167271 9.81102853 6.22705078 12.76416016 C6.22734283 13.67153427 6.22763489 14.57890839 6.22793579 15.51377869 C6.22653898 18.52230286 6.21096128 21.53058142 6.1953125 24.5390625 C6.19158362 26.62128565 6.18873606 28.70351055 6.18673706 30.78573608 C6.17909077 36.27340517 6.15943375 41.76096884 6.1373291 47.24859619 C6.11689209 52.84540379 6.10773994 58.44222837 6.09765625 64.0390625 C6.07618879 75.02608805 6.04204086 86.01303527 6 97 C0.37783907 93.31829071 0.37783907 93.31829071 -0.55344772 90.06900597 C-0.73830745 87.69011124 -0.74224577 85.37252778 -0.68115234 82.98706055 C-0.6820285 82.08900192 -0.68290466 81.1909433 -0.68380737 80.26567078 C-0.67963599 77.30512704 -0.63300558 74.34686528 -0.5859375 71.38671875 C-0.57474376 69.33121478 -0.56620441 67.27569478 -0.56021118 65.22016907 C-0.53732706 59.81598539 -0.47840663 54.41277277 -0.4119873 49.00897217 C-0.35055625 43.4924432 -0.32319436 37.97575697 -0.29296875 32.45898438 C-0.22866363 21.6388968 -0.12628854 10.81952922 0 0 Z " fill="#0084d1" transform="translate(1112,115)"/>
  <path d="M0 0 C13.2 0 26.4 0 40 0 C40 21.78 40 43.56 40 66 C36 64 36 64 34 62 C33.75949097 59.59555054 33.75949097 59.59555054 33.77294922 56.54052734 C33.77310028 55.39949554 33.77325134 54.25846375 33.77340698 53.08285522 C33.78372955 51.84637238 33.79405212 50.60988953 33.8046875 49.3359375 C33.8075174 48.07359283 33.81034729 46.81124817 33.81326294 45.51065063 C33.82257869 42.15353056 33.84055165 38.79668088 33.8626709 35.43963623 C33.8831245 32.01446878 33.8922636 28.58927341 33.90234375 25.1640625 C33.92443542 18.44263329 33.95793623 11.72133227 34 5 C33.1121582 5.02618408 32.22431641 5.05236816 31.30957031 5.0793457 C28.00699595 5.1646975 24.70559725 5.22730652 21.40234375 5.2746582 C19.97442099 5.29976347 18.54662625 5.33385587 17.11914062 5.37719727 C15.06348082 5.43803678 13.00952247 5.46624551 10.953125 5.48828125 C9.09929199 5.52755737 9.09929199 5.52755737 7.20800781 5.56762695 C4 5 4 5 0 0 Z " fill="#0068a4" transform="translate(198,110)"/>
  <path d="M0 0 C13.2 0 26.4 0 40 0 C40 21.78 40 43.56 40 66 C36 64 36 64 34 61 C33.75949097 58.51325989 33.75949097 58.51325989 33.77294922 55.51879883 C33.77310028 54.39786331 33.77325134 53.2769278 33.77340698 52.12202454 C33.78372955 50.91257675 33.79405212 49.70312897 33.8046875 48.45703125 C33.8075174 47.21829758 33.81034729 45.9795639 33.81326294 44.70329285 C33.82256814 41.41361913 33.84053209 38.12414137 33.8626709 34.83453369 C33.8831473 31.47630206 33.89226848 28.11804172 33.90234375 24.75976562 C33.92441729 18.17310027 33.95790478 11.58656617 34 5 C33.1121582 5.02618408 32.22431641 5.05236816 31.30957031 5.0793457 C28.00699595 5.1646975 24.70559725 5.22730652 21.40234375 5.2746582 C19.97442099 5.29976347 18.54662625 5.33385587 17.11914062 5.37719727 C15.06348082 5.43803678 13.00952247 5.46624551 10.953125 5.48828125 C9.09929199 5.52755737 9.09929199 5.52755737 7.20800781 5.56762695 C4 5 4 5 0 0 Z " fill="#0068a3" transform="translate(859,110)"/>
  <path d="M0 0 C6 5 6 5 6.7215271 7.72724915 C6.70820343 8.71098007 6.69487976 9.694711 6.68115234 10.70825195 C6.68069916 11.82903641 6.68024597 12.94982086 6.67977905 14.10456848 C6.64881134 15.3036937 6.61784363 16.50281891 6.5859375 17.73828125 C6.57744781 18.97418503 6.56895813 20.21008881 6.56021118 21.48344421 C6.5323505 24.75735911 6.47852254 28.02948153 6.4119873 31.30279541 C6.35042726 34.64765918 6.32368014 37.99260124 6.29296875 41.33789062 C6.22684757 47.89262583 6.12646634 54.44616639 6 61 C6.89307861 60.97381592 7.78615723 60.94763184 8.70629883 60.9206543 C12.02189231 60.83540666 15.33632119 60.77274412 18.65258789 60.7253418 C20.08734514 60.70020476 21.52197441 60.66608892 22.95629883 60.62280273 C25.0193637 60.56210335 27.08073615 60.53378647 29.14453125 60.51171875 C31.00621948 60.47244263 31.00621948 60.47244263 32.90551758 60.43237305 C33.92669678 60.61968994 34.94787598 60.80700684 36 61 C36.99 62.65 37.98 64.3 39 66 C26.13 66 13.26 66 0 66 C0 44.22 0 22.44 0 0 Z " fill="#0084d0" transform="translate(858,110)"/>
  <path d="M0 0 C12.87 0 25.74 0 39 0 C39 9.9 39 19.8 39 30 C47.00356272 29.76328211 47.00356272 29.76328211 55.00463867 29.45947266 C56.50861206 29.43699463 56.50861206 29.43699463 58.04296875 29.4140625 C59.57473755 29.36693115 59.57473755 29.36693115 61.13745117 29.31884766 C64 30 64 30 69 36 C57.45 36 45.9 36 34 36 C34 25.77 34 15.54 34 5 C23.93274065 5.11862407 23.93274065 5.11862407 13.8659668 5.27026367 C11.98905151 5.28150269 11.98905151 5.28150269 10.07421875 5.29296875 C8.79119873 5.3086792 7.50817871 5.32438965 6.1862793 5.34057617 C3 5 3 5 1.05786133 3.60668945 C0 2 0 2 0 0 Z " fill="#0068a4" transform="translate(750,176)"/>
  <path d="M0 0 C4 2 4 2 6 4 C6 8.29 6 12.58 6 17 C22.17 17 38.34 17 55 17 C55 27.23 55 37.46 55 48 C52.03 45.525 52.03 45.525 49 43 C49 36.07 49 29.14 49 22 C32.83 22 16.66 22 0 22 C0 14.74 0 7.48 0 0 Z " fill="#0083cf" transform="translate(639,115)"/>
  <path d="M0 0 C4 2 4 2 6 4 C6.14557157 6.91725418 6.18598967 9.71314805 6.125 12.625 C6.08375 15.38875 6.0425 18.1525 6 21 C11.61 21 17.22 21 23 21 C23 26.61 23 32.22 23 38 C28.94 38 34.88 38 41 38 C41 44.27 41 50.54 41 57 C35 52 35 52 34.4140625 49.54296875 C34.609375 47.36197917 34.8046875 45.18098958 35 43 C29.39 43 23.78 43 18 43 C18 37.39 18 31.78 18 26 C12.06 26 6.12 26 0 26 C0 17.42 0 8.84 0 0 Z " fill="#0083d0" transform="translate(1186,133)"/>
  <path d="M0 0 C1.98 1.65 3.96 3.3 6 5 C6 7.64 6 10.28 6 13 C11.61 13 17.22 13 23 13 C23 18.94 23 24.88 23 31 C28.94 31 34.88 31 41 31 C41 39.91 41 48.82 41 58 C35 53 35 53 34.31884766 50.87182617 C34.35026855 50.18580322 34.38168945 49.49978027 34.4140625 48.79296875 C34.43654053 47.77626099 34.43654053 47.77626099 34.45947266 46.73901367 C34.51409668 45.89701416 34.5687207 45.05501465 34.625 44.1875 C34.74875 41.485625 34.8725 38.78375 35 36 C29.39 36 23.78 36 18 36 C18 30.06 18 24.12 18 18 C12.06 18 6.12 18 0 18 C0 12.06 0 6.12 0 0 Z " fill="#0068a3" transform="translate(83,101)"/>
  <path d="M0 0 C1.65 1.32 3.3 2.64 5 4 C5 8.29 5 12.58 5 17 C19.85 17 34.7 17 50 17 C50 25.91 50 34.82 50 44 C47.03 41.525 47.03 41.525 44 39 C44 33.39 44 27.78 44 22 C29.48 22 14.96 22 0 22 C0 14.74 0 7.48 0 0 Z " fill="#0083cf" transform="translate(420,115)"/>
  <path d="M0 0 C8.38846538 -0.13914603 16.77644709 -0.24569272 25.16578197 -0.31087303 C29.06153876 -0.34216005 32.95650491 -0.38458134 36.85180664 -0.45263672 C40.61254429 -0.51792839 44.37252258 -0.55372583 48.13378334 -0.56926346 C49.56718208 -0.5803327 51.00054016 -0.60194985 52.43361473 -0.63438034 C63.70929484 -0.87935324 63.70929484 -0.87935324 67.01919556 1.37567139 C68.41918945 3.03662109 68.41918945 3.03662109 70 6 C61.61153462 6.13914603 53.22355291 6.24569272 44.83421803 6.31087303 C40.93846124 6.34216005 37.04349509 6.38458134 33.14819336 6.45263672 C29.38745571 6.51792839 25.62747742 6.55372583 21.86621666 6.56926346 C20.43281792 6.5803327 18.99945984 6.60194985 17.56638527 6.63438034 C6.29070516 6.87935324 6.29070516 6.87935324 2.98080444 4.62432861 C1.58081055 2.96337891 1.58081055 2.96337891 0 0 Z " fill="#0069a6" transform="translate(640,114)"/>
  <path d="M0 0 C13.2 0 26.4 0 40 0 C40 0.99 40 1.98 40 3 C41.65 3 43.3 3 45 3 C45 11.91 45 20.82 45 30 C41 28 41 28 39 26 C38.85482256 23.0906442 38.81369204 20.280054 38.875 17.375 C38.88402344 16.57320312 38.89304687 15.77140625 38.90234375 14.9453125 C38.92593777 12.96341477 38.96180935 10.98167019 39 9 C37.68 9 36.36 9 35 9 C35 7.68 35 6.36 35 5 C34.08186523 5.02618408 33.16373047 5.05236816 32.21777344 5.0793457 C28.8033882 5.16468373 25.39013939 5.22730074 21.97509766 5.2746582 C20.49867854 5.29976737 19.02238332 5.33386255 17.54638672 5.37719727 C15.4212386 5.438018 13.29773606 5.46624209 11.171875 5.48828125 C9.8940918 5.51446533 8.61630859 5.54064941 7.29980469 5.56762695 C4 5 4 5 0 0 Z " fill="#0069a5" transform="translate(307,104)"/>
  <path d="M0 0 C4 2 4 2 6 4 C6.22705078 6.43017578 6.22705078 6.43017578 6.1953125 9.4453125 C6.18564453 11.05986328 6.18564453 11.05986328 6.17578125 12.70703125 C6.15902344 13.83496094 6.14226562 14.96289062 6.125 16.125 C6.11597656 17.26066406 6.10695313 18.39632812 6.09765625 19.56640625 C6.07403098 22.37781299 6.04109013 25.18880298 6 28 C6.8878418 27.97381592 7.77568359 27.94763184 8.69042969 27.9206543 C11.99300405 27.8353025 15.29440275 27.77269348 18.59765625 27.7253418 C20.02557901 27.70023653 21.45337375 27.66614413 22.88085938 27.62280273 C24.93651918 27.56196322 26.99047753 27.53375449 29.046875 27.51171875 C30.90070801 27.47244263 30.90070801 27.47244263 32.79199219 27.43237305 C36 28 36 28 40 33 C26.8 33 13.6 33 0 33 C0 22.11 0 11.22 0 0 Z " fill="#0083cf" transform="translate(306,105)"/>
  <path d="M0 0 C11.88 0 23.76 0 36 0 C36 1.32 36 2.64 36 4 C37.32 4 38.64 4 40 4 C40 14.23 40 24.46 40 35 C35 31 35 31 34.43237305 28.61816406 C34.45855713 27.75932617 34.48474121 26.90048828 34.51171875 26.015625 C34.52783203 25.08105469 34.54394531 24.14648438 34.56054688 23.18359375 C34.62338867 21.73146484 34.62338867 21.73146484 34.6875 20.25 C34.71005859 19.26644531 34.73261719 18.28289062 34.75585938 17.26953125 C34.81471195 14.8448053 34.89686569 12.42318017 35 10 C33.68 10 32.36 10 31 10 C31 8.35 31 6.7 31 5 C30.20303711 5.02618408 29.40607422 5.05236816 28.58496094 5.0793457 C24.97350787 5.18328945 21.36236928 5.24832085 17.75 5.3125 C16.49574219 5.35439453 15.24148438 5.39628906 13.94921875 5.43945312 C12.14130859 5.46362305 12.14130859 5.46362305 10.296875 5.48828125 C8.63156738 5.52755737 8.63156738 5.52755737 6.93261719 5.56762695 C4 5 4 5 0 0 Z " fill="#0068a3" transform="translate(749,110)"/>
  <path d="M0 0 C5 4 5 4 5.56762695 7.20800781 C5.52835083 9.06184082 5.52835083 9.06184082 5.48828125 10.953125 C5.48120651 11.61334656 5.47413177 12.27356812 5.46684265 12.95379639 C5.43894727 15.05370492 5.37623287 17.15090379 5.3125 19.25 C5.28741017 20.6770447 5.26459817 22.10413138 5.24414062 23.53125 C5.1891412 27.02170748 5.10290912 30.51058911 5 34 C5.77190674 33.98428955 6.54381348 33.9685791 7.33911133 33.95239258 C10.83016662 33.89010393 14.32110509 33.85102827 17.8125 33.8125 C19.02744141 33.78736328 20.24238281 33.76222656 21.49414062 33.73632812 C23.23920898 33.72182617 23.23920898 33.72182617 25.01953125 33.70703125 C26.09307861 33.6913208 27.16662598 33.67561035 28.27270508 33.65942383 C31 34 31 34 32.8737793 35.39331055 C34 37 34 37 34 39 C22.78 39 11.56 39 0 39 C0 26.13 0 13.26 0 0 Z " fill="#0084d0" transform="translate(749,111)"/>
  <path d="M0 0 C2.46800047 1.15173355 4.04783565 2.04783565 6 4 C6.24050903 6.25259399 6.24050903 6.25259399 6.22705078 9.09228516 C6.22689972 10.15323395 6.22674866 11.21418274 6.22659302 12.30728149 C6.21627045 13.45626923 6.20594788 14.60525696 6.1953125 15.7890625 C6.1924826 16.96262299 6.18965271 18.13618347 6.18673706 19.3453064 C6.17551355 23.10530662 6.15040492 26.86507139 6.125 30.625 C6.11497301 33.1692674 6.10584668 35.71353852 6.09765625 38.2578125 C6.07556714 44.5052891 6.04206824 50.75262773 6 57 C3.33199681 55.41673859 1.82035279 54.44090741 0 52 C-0.85972277 48.04778977 -0.69815654 44.16498097 -0.5859375 40.13671875 C-0.57744781 38.98959915 -0.56895813 37.84247955 -0.56021118 36.66059875 C-0.52666306 33.00193808 -0.4513733 29.34549289 -0.375 25.6875 C-0.34490258 23.20510998 -0.3175264 20.72268538 -0.29296875 18.24023438 C-0.22686683 12.15940219 -0.12650139 6.07985937 0 0 Z " fill="#0084d1" transform="translate(972,155)"/>
  <path d="M0 0 C7.88423444 -0.11589516 15.76811253 -0.20471439 23.65298843 -0.25906086 C27.31437534 -0.28514591 30.97517916 -0.32052148 34.63623047 -0.37719727 C38.17000804 -0.43155986 41.70322514 -0.46142876 45.23738861 -0.47438622 C47.24058028 -0.48810967 49.24354668 -0.52713702 51.24639893 -0.56648254 C52.46736267 -0.5668602 53.68832642 -0.56723785 54.94628906 -0.56762695 C56.02106506 -0.57873001 57.09584106 -0.58983307 58.20318604 -0.60127258 C61.92728723 0.19935269 62.95482172 1.89180088 65 5 C56.96804958 5.06948318 48.93622455 5.12280239 40.90404797 5.15543652 C37.17444945 5.17109859 33.44505642 5.19234629 29.71557617 5.22631836 C26.11700226 5.25889319 22.51862611 5.27684894 18.91991615 5.28463173 C17.54635822 5.29017868 16.17281122 5.30101052 14.79933739 5.31719017 C12.87699293 5.33893676 10.95444985 5.34022517 9.03198242 5.34057617 C7.93722092 5.34723801 6.84245941 5.35389984 5.71452332 5.36076355 C3 5 3 5 1.1230011 3.60371399 C0 2 0 2 0 0 Z " fill="#0069a5" transform="translate(421,114)"/>
  <path d="M0 0 C1.98 0.99 1.98 0.99 4 2 C4.75 4.625 4.75 4.625 5 7 C6.65 7 8.3 7 10 7 C10 8.32 10 9.64 10 11 C11.32 11 12.64 11 14 11 C14 24.53 14 38.06 14 52 C9 48 9 48 8.34057617 44.79199219 C8.32486572 43.55610352 8.30915527 42.32021484 8.29296875 41.046875 C8.27784744 40.38665344 8.26272614 39.72643188 8.24714661 39.04620361 C8.204318 36.9471204 8.19543798 34.8494763 8.1875 32.75 C8.16435136 31.32287854 8.13898523 29.89579121 8.11132812 28.46875 C8.04852854 24.97919437 8.01615209 21.49011868 8 18 C6.68 17.67 5.36 17.34 4 17 C4 15.35 4 13.7 4 12 C2.68 12 1.36 12 0 12 C0 8.04 0 4.08 0 0 Z " fill="#0084d1" transform="translate(806,160)"/>
  <path d="M0 0 C4.82220418 3.21788792 4.82220418 3.21788792 5.60127258 6.6449585 C5.59016953 7.64867493 5.57906647 8.65239136 5.56762695 9.68652344 C5.5672493 10.82740417 5.56687164 11.96828491 5.56648254 13.14373779 C5.54067612 14.36989807 5.51486969 15.59605835 5.48828125 16.859375 C5.47766914 18.74864716 5.47766914 18.74864716 5.46684265 20.67608643 C5.44359876 24.01735356 5.39871812 27.35690324 5.34332275 30.69769287 C5.29208209 34.10950916 5.26931856 37.5215032 5.24414062 40.93359375 C5.1889944 47.62286982 5.10530735 54.31133577 5 61 C0.17779582 57.78211208 0.17779582 57.78211208 -0.60127258 54.3550415 C-0.59016953 53.35132507 -0.57906647 52.34760864 -0.56762695 51.31347656 C-0.5672493 50.17259583 -0.56687164 49.03171509 -0.56648254 47.85626221 C-0.54067612 46.63010193 -0.51486969 45.40394165 -0.48828125 44.140625 C-0.48120651 42.88111023 -0.47413177 41.62159546 -0.46684265 40.32391357 C-0.44359876 36.98264644 -0.39871812 33.64309676 -0.34332275 30.30230713 C-0.29208209 26.89049084 -0.26931856 23.4784968 -0.24414062 20.06640625 C-0.1889944 13.37713018 -0.10530735 6.68866423 0 0 Z " fill="#0067a2" transform="translate(1003,80)"/>
  <path d="M0 0 C4.82220418 3.21788792 4.82220418 3.21788792 5.60127258 6.6449585 C5.59016953 7.64867493 5.57906647 8.65239136 5.56762695 9.68652344 C5.5672493 10.82740417 5.56687164 11.96828491 5.56648254 13.14373779 C5.54067612 14.36989807 5.51486969 15.59605835 5.48828125 16.859375 C5.47766914 18.74864716 5.47766914 18.74864716 5.46684265 20.67608643 C5.44359876 24.01735356 5.39871812 27.35690324 5.34332275 30.69769287 C5.29208209 34.10950916 5.26931856 37.5215032 5.24414062 40.93359375 C5.1889944 47.62286982 5.10530735 54.31133577 5 61 C0.17779582 57.78211208 0.17779582 57.78211208 -0.60127258 54.3550415 C-0.59016953 53.35132507 -0.57906647 52.34760864 -0.56762695 51.31347656 C-0.5672493 50.17259583 -0.56687164 49.03171509 -0.56648254 47.85626221 C-0.54067612 46.63010193 -0.51486969 45.40394165 -0.48828125 44.140625 C-0.48120651 42.88111023 -0.47413177 41.62159546 -0.46684265 40.32391357 C-0.44359876 36.98264644 -0.39871812 33.64309676 -0.34332275 30.30230713 C-0.29208209 26.89049084 -0.26931856 23.4784968 -0.24414062 20.06640625 C-0.1889944 13.37713018 -0.10530735 6.68866423 0 0 Z " fill="#0067a2" transform="translate(561,80)"/>
  <path d="M0 0 C6.17461641 -0.14847404 12.34819105 -0.25727723 18.52416992 -0.32958984 C20.62428896 -0.35973742 22.72428234 -0.40066333 24.82397461 -0.45263672 C27.84520466 -0.52554078 30.86476873 -0.55947639 33.88671875 -0.5859375 C34.82335861 -0.61690521 35.75999847 -0.64787292 36.72502136 -0.67977905 C43.13739984 -0.68307932 43.13739984 -0.68307932 45.73721313 1.37567139 C47.13208008 3.03662109 47.13208008 3.03662109 49 6 C42.82538359 6.14847404 36.65180895 6.25727723 30.47583008 6.32958984 C28.37571104 6.35973742 26.27571766 6.40066333 24.17602539 6.45263672 C21.15479534 6.52554078 18.13523127 6.55947639 15.11328125 6.5859375 C14.17664139 6.61690521 13.24000153 6.64787292 12.27497864 6.67977905 C5.86260016 6.68307932 5.86260016 6.68307932 3.26278687 4.62432861 C1.86791992 2.96337891 1.86791992 2.96337891 0 0 Z " fill="#006aa7" transform="translate(420,153)"/>
  <path d="M0 0 C2.46948242 1.25097656 2.46948242 1.25097656 5 4 C5.73784782 7.98684698 5.5798913 11.94223559 5.48828125 15.984375 C5.47766914 17.74047089 5.47766914 17.74047089 5.46684265 19.53204346 C5.43884981 23.27201173 5.37609721 27.01048407 5.3125 30.75 C5.28742368 33.28513463 5.26460936 35.82029273 5.24414062 38.35546875 C5.18900684 44.57082307 5.10532977 50.78530467 5 57 C1.86804385 54.76970043 0.25224212 53.39149123 -0.44692993 49.53451538 C-0.57885635 46.3913976 -0.56129487 43.28183226 -0.48828125 40.13671875 C-0.48120651 38.98959915 -0.47413177 37.84247955 -0.46684265 36.66059875 C-0.43888813 33.00223162 -0.37614286 29.34540337 -0.3125 25.6875 C-0.28741872 23.20510025 -0.26460526 20.72267648 -0.24414062 18.24023438 C-0.18905778 12.15963254 -0.10541898 6.07992622 0 0 Z " fill="#0084d1" transform="translate(530,155)"/>
  <path d="M0 0 C6 5 6 5 6.375 8.8125 C6.25125 9.864375 6.1275 10.91625 6 12 C7.09671021 11.95286865 7.09671021 11.95286865 8.21557617 11.90478516 C11.53923402 11.77980191 14.86239762 11.70194452 18.1875 11.625 C19.33798828 11.57472656 20.48847656 11.52445313 21.67382812 11.47265625 C23.34155273 11.44365234 23.34155273 11.44365234 25.04296875 11.4140625 C26.06414795 11.3826416 27.08532715 11.3512207 28.13745117 11.31884766 C31 12 31 12 36 18 C24.12 18 12.24 18 0 18 C0 12.06 0 6.12 0 0 Z " fill="#0069a5" transform="translate(83,172)"/>
  <path d="M0 0 C6.90491147 -0.12672146 13.80952344 -0.21431806 20.71533203 -0.2746582 C23.06472988 -0.29981062 25.41404941 -0.33393663 27.76318359 -0.37719727 C31.13919383 -0.43781426 34.51417011 -0.46620295 37.890625 -0.48828125 C38.94179504 -0.51408768 39.99296509 -0.5398941 41.07598877 -0.56648254 C48.39384462 -0.56930051 48.39384462 -0.56930051 51.69433594 2.53051758 C52.34063965 3.75291138 52.34063965 3.75291138 53 5 C46.09508853 5.12672146 39.19047656 5.21431806 32.28466797 5.2746582 C29.93527012 5.29981062 27.58595059 5.33393663 25.23681641 5.37719727 C21.86080617 5.43781426 18.48582989 5.46620295 15.109375 5.48828125 C13.53261993 5.52699089 13.53261993 5.52699089 11.92401123 5.56648254 C4.60615538 5.56930051 4.60615538 5.56930051 1.30566406 2.46948242 C0.87479492 1.65455322 0.44392578 0.83962402 0 0 Z " fill="#0069a5" transform="translate(640,158)"/>
  <path d="M0 0 C2.46948242 1.31933594 2.46948242 1.31933594 5 4 C5.72937621 7.62431993 5.5806423 11.20677971 5.48828125 14.890625 C5.48120651 15.95037537 5.47413177 17.01012573 5.46684265 18.10198975 C5.43886336 21.48537916 5.37611521 24.86711116 5.3125 28.25 C5.28742184 30.54424693 5.26460784 32.8385198 5.24414062 35.1328125 C5.18902525 40.75577342 5.10536309 46.37776831 5 52 C2.53051758 50.68066406 2.53051758 50.68066406 0 48 C-0.72937621 44.37568007 -0.5806423 40.79322029 -0.48828125 37.109375 C-0.48120651 36.04962463 -0.47413177 34.98987427 -0.46684265 33.89801025 C-0.43886336 30.51462084 -0.37611521 27.13288884 -0.3125 23.75 C-0.28742184 21.45575307 -0.26460784 19.1614802 -0.24414062 16.8671875 C-0.18902525 11.24422658 -0.10536309 5.62223169 0 0 Z " fill="#0084d1" transform="translate(307,159)"/>
  <path d="M0 0 C3.875 1.875 3.875 1.875 5 3 C5.09311889 4.50418739 5.11746028 6.01271356 5.11352539 7.51977539 C5.11344986 8.48069595 5.11337433 9.44161652 5.11329651 10.43165588 C5.10813522 11.476436 5.10297394 12.52121613 5.09765625 13.59765625 C5.0962413 14.66165146 5.09482635 15.72564667 5.09336853 16.82188416 C5.08775064 20.23545083 5.07519511 23.648953 5.0625 27.0625 C5.05748731 29.37044176 5.052924 31.67838455 5.04882812 33.98632812 C5.0377754 39.65757426 5.02101987 45.32878253 5 51 C2.53051758 49.66699219 2.53051758 49.66699219 0 47 C-0.72751919 43.44809683 -0.58081631 39.94047715 -0.48828125 36.328125 C-0.48120651 35.29057068 -0.47413177 34.25301636 -0.46684265 33.184021 C-0.43886641 29.87194552 -0.37611929 26.56156401 -0.3125 23.25 C-0.28742143 21.00393067 -0.26460749 18.75783483 -0.24414062 16.51171875 C-0.1890294 11.00723508 -0.10537061 5.50373855 0 0 Z " fill="#0084d1" transform="translate(640,160)"/>
  <path d="M0 0 C6.62007209 -0.12674312 13.23983157 -0.21432681 19.86083984 -0.2746582 C22.11323743 -0.29980743 24.36555336 -0.33393118 26.61767578 -0.37719727 C29.854697 -0.437829 33.09063972 -0.46620592 36.328125 -0.48828125 C37.33554749 -0.51408768 38.34296997 -0.5398941 39.38092041 -0.56648254 C46.39999625 -0.56930051 46.39999625 -0.56930051 49.66699219 2.53051758 C50.10688477 3.34544678 50.54677734 4.16037598 51 5 C44.219067 5.07596188 37.4382434 5.1285625 30.65698242 5.16479492 C28.34932352 5.17989676 26.04169339 5.20037969 23.73413086 5.22631836 C20.42033801 5.26263975 17.10692408 5.27971236 13.79296875 5.29296875 C12.24128242 5.31619453 12.24128242 5.31619453 10.6582489 5.33988953 C9.6974794 5.34011612 8.7367099 5.34034271 7.74682617 5.34057617 C6.90077316 5.34723801 6.05472015 5.35389984 5.18302917 5.36076355 C2.5082618 4.91873621 1.61015659 4.14591583 0 2 C0 1.34 0 0.68 0 0 Z " fill="#0069a5" transform="translate(308,158)"/>
  <path d="M0 0 C11.88 0 23.76 0 36 0 C36 5.94 36 11.88 36 18 C32 16 32 16 30 14 C29.8046875 11.8359375 29.8046875 11.8359375 29.875 9.375 C29.89304687 8.55773437 29.91109375 7.74046875 29.9296875 6.8984375 C29.95289063 6.27195312 29.97609375 5.64546875 30 5 C29.23333008 5.02618408 28.46666016 5.05236816 27.67675781 5.0793457 C24.20138051 5.18331223 20.72633017 5.24832724 17.25 5.3125 C16.0434375 5.35439453 14.836875 5.39628906 13.59375 5.43945312 C12.43359375 5.45556641 11.2734375 5.47167969 10.078125 5.48828125 C9.00981445 5.51446533 7.94150391 5.54064941 6.84082031 5.56762695 C4 5 4 5 0 0 Z " fill="#0083ce" transform="translate(1191,101)"/>
  <path d="M0 0 C4.24977046 -0.11611395 8.49913337 -0.18722349 12.75 -0.25 C13.9565625 -0.28351563 15.163125 -0.31703125 16.40625 -0.3515625 C18.14648438 -0.37089844 18.14648438 -0.37089844 19.921875 -0.390625 C20.99018555 -0.41157227 22.05849609 -0.43251953 23.15917969 -0.45410156 C26.67834717 0.10843294 27.85095377 1.2136236 30 4 C30 4.66 30 5.32 30 6 C25.9380443 6.17456339 21.87705413 6.2809442 17.8125 6.375 C16.66201172 6.42527344 15.51152344 6.47554688 14.32617188 6.52734375 C5.94688237 6.67307052 5.94688237 6.67307052 3.08349609 4.63769531 C1.69921875 2.9765625 1.69921875 2.9765625 0 0 Z " fill="#006aa6" transform="translate(1113,114)"/>
  <path d="M0 0 C2.46948242 1.56542969 2.46948242 1.56542969 5 4 C5.56762695 7.20800781 5.56762695 7.20800781 5.48828125 10.953125 C5.48120651 11.61334656 5.47413177 12.27356812 5.46684265 12.95379639 C5.43894727 15.05370492 5.37623287 17.15090379 5.3125 19.25 C5.28741017 20.6770447 5.26459817 22.10413138 5.24414062 23.53125 C5.1891412 27.02170748 5.10290912 30.51058911 5 34 C2.53051758 32.43457031 2.53051758 32.43457031 0 30 C-0.56762695 26.79199219 -0.56762695 26.79199219 -0.48828125 23.046875 C-0.48120651 22.38665344 -0.47413177 21.72643188 -0.46684265 21.04620361 C-0.43894727 18.94629508 -0.37623287 16.84909621 -0.3125 14.75 C-0.28741017 13.3229553 -0.26459817 11.89586862 -0.24414062 10.46875 C-0.1891412 6.97829252 -0.10290912 3.48941089 0 0 Z " fill="#0084d1" transform="translate(749,177)"/>
  <path d="M0 0 C2.73156959 -0.16262928 5.45342122 -0.28110686 8.1875 -0.375 C8.95642578 -0.42527344 9.72535156 -0.47554687 10.51757812 -0.52734375 C16.17663452 -0.67307052 16.17663452 -0.67307052 18.66650391 1.36230469 C20.05078125 3.0234375 20.05078125 3.0234375 22 6 C19.26843041 6.16262928 16.54657878 6.28110686 13.8125 6.375 C13.04357422 6.42527344 12.27464844 6.47554687 11.48242188 6.52734375 C5.82336548 6.67307052 5.82336548 6.67307052 3.33349609 4.63769531 C1.94921875 2.9765625 1.94921875 2.9765625 0 0 Z " fill="#0069a6" transform="translate(132,149)"/>
  <path d="M0 0 C2.91889148 -0.16216064 5.82879225 -0.28091202 8.75 -0.375 C9.9875 -0.45041016 9.9875 -0.45041016 11.25 -0.52734375 C13.64221876 -0.58522001 15.67372905 -0.57087094 18 0 C20.578125 3.0234375 20.578125 3.0234375 22 6 C19.45651575 6.13593443 16.92038504 6.23448907 14.375 6.3125 C13.66214844 6.35439453 12.94929688 6.39628906 12.21484375 6.43945312 C8.11591293 6.5334653 5.70831852 6.18290113 2.4765625 3.54296875 C0 1 0 1 0 0 Z " fill="#0082cc" transform="translate(1173,118)"/>
  <path d="M0 0 C2.48046875 1.421875 2.48046875 1.421875 5 4 C5.63389665 7.09971709 5.47234026 10.10237647 5.3125 13.25 C5.28994141 14.09046875 5.26738281 14.9309375 5.24414062 15.796875 C5.18537714 17.86534964 5.09569885 19.93290488 5 22 C2.51953125 20.578125 2.51953125 20.578125 0 18 C-0.63389665 14.90028291 -0.47234026 11.89762353 -0.3125 8.75 C-0.28994141 7.90953125 -0.26738281 7.0690625 -0.24414062 6.203125 C-0.18537714 4.13465036 -0.09569885 2.06709512 0 0 Z " fill="#0084d1" transform="translate(1204,115)"/>
  <path d="M0 0 C3.875 1.875 3.875 1.875 5 3 C5.08631874 4.34267413 5.10706473 5.68974322 5.09765625 7.03515625 C5.09282227 8.24848633 5.09282227 8.24848633 5.08789062 9.48632812 C5.07951172 10.33646484 5.07113281 11.18660156 5.0625 12.0625 C5.05798828 12.91650391 5.05347656 13.77050781 5.04882812 14.65039062 C5.03700373 16.76695663 5.01906769 18.88348685 5 21 C2.51953125 19.546875 2.51953125 19.546875 0 17 C-0.6295563 14.06455404 -0.47339855 11.23528703 -0.3125 8.25 C-0.28994141 7.45722656 -0.26738281 6.66445312 -0.24414062 5.84765625 C-0.18540471 3.8976238 -0.09572654 1.94856688 0 0 Z " fill="#0084d0" transform="translate(114,168)"/>
  <path d="M0 0 C3.875 1.875 3.875 1.875 5 3 C5.08631874 4.34267413 5.10706473 5.68974322 5.09765625 7.03515625 C5.09282227 8.24848633 5.09282227 8.24848633 5.08789062 9.48632812 C5.07951172 10.33646484 5.07113281 11.18660156 5.0625 12.0625 C5.05798828 12.91650391 5.05347656 13.77050781 5.04882812 14.65039062 C5.03700373 16.76695663 5.01906769 18.88348685 5 21 C2.51953125 19.546875 2.51953125 19.546875 0 17 C-0.6295563 14.06455404 -0.47339855 11.23528703 -0.3125 8.25 C-0.28994141 7.45722656 -0.26738281 6.66445312 -0.24414062 5.84765625 C-0.18540471 3.8976238 -0.09572654 1.94856688 0 0 Z " fill="#0084d0" transform="translate(132,151)"/>
  <path d="M0 0 C2.48046875 1.453125 2.48046875 1.453125 5 4 C5.6295563 6.93544596 5.47339855 9.76471297 5.3125 12.75 C5.28994141 13.54277344 5.26738281 14.33554688 5.24414062 15.15234375 C5.18540471 17.1023762 5.09572654 19.05143312 5 21 C1.125 19.125 1.125 19.125 0 18 C-0.08631874 16.65732587 -0.10706473 15.31025678 -0.09765625 13.96484375 C-0.09443359 13.15595703 -0.09121094 12.34707031 -0.08789062 11.51367188 C-0.07951172 10.66353516 -0.07113281 9.81339844 -0.0625 8.9375 C-0.05798828 8.08349609 -0.05347656 7.22949219 -0.04882812 6.34960938 C-0.03700373 4.23304337 -0.01906769 2.11651315 0 0 Z " fill="#0067a2" transform="translate(1173,119)"/>
  <path d="M0 0 C2.48046875 1.453125 2.48046875 1.453125 5 4 C5.6295563 6.93544596 5.47339855 9.76471297 5.3125 12.75 C5.28994141 13.54277344 5.26738281 14.33554688 5.24414062 15.15234375 C5.18540471 17.1023762 5.09572654 19.05143312 5 21 C1.125 19.125 1.125 19.125 0 18 C-0.08631874 16.65732587 -0.10706473 15.31025678 -0.09765625 13.96484375 C-0.09443359 13.15595703 -0.09121094 12.34707031 -0.08789062 11.51367188 C-0.07951172 10.66353516 -0.07113281 9.81339844 -0.0625 8.9375 C-0.05798828 8.08349609 -0.05347656 7.22949219 -0.04882812 6.34960938 C-0.03700373 4.23304337 -0.01906769 2.11651315 0 0 Z " fill="#0067a2" transform="translate(1191,102)"/>
  <path d="M0 0 C2.48046875 0.92578125 2.48046875 0.92578125 5 3 C5.65475435 6.07075918 5.46946059 9.06519173 5.3125 12.1875 C5.28994141 13.03248047 5.26738281 13.87746094 5.24414062 14.74804688 C5.18524963 16.83278798 5.09556798 18.91661804 5 21 C2.51953125 19.546875 2.51953125 19.546875 0 17 C-0.6295563 14.06455404 -0.47339855 11.23528703 -0.3125 8.25 C-0.28994141 7.45722656 -0.26738281 6.66445312 -0.24414062 5.84765625 C-0.18540471 3.8976238 -0.09572654 1.94856688 0 0 Z " fill="#0067a2" transform="translate(101,155)"/>
  <path d="M0 0 C2.91821463 -0.13510253 5.83017652 -0.2341305 8.75 -0.3125 C9.9875 -0.3753418 9.9875 -0.3753418 11.25 -0.43945312 C13.601744 -0.48686732 15.69402157 -0.47157594 18 0 C20.578125 2.51953125 20.578125 2.51953125 22 5 C19.26916098 5.13548815 16.54508193 5.23429855 13.8125 5.3125 C13.04357422 5.35439453 12.27464844 5.39628906 11.48242188 5.43945312 C7.03371827 5.53491887 5.52445124 5.43312555 1.94921875 2.48046875 C1.30597656 1.66191406 0.66273437 0.84335938 0 0 Z " fill="#0082cd" transform="translate(101,154)"/>
  <path d="M0 0 C2.75164432 -0.13517903 5.49664521 -0.23415251 8.25 -0.3125 C9.02730469 -0.35439453 9.80460937 -0.39628906 10.60546875 -0.43945312 C12.84351137 -0.48727455 14.80959674 -0.46976923 17 0 C19.546875 2.51953125 19.546875 2.51953125 21 5 C18.43717006 5.33127062 15.8827496 5.6155144 13.3125 5.875 C12.59126953 5.97296875 11.87003906 6.0709375 11.12695312 6.171875 C5.80792587 6.65763091 5.80792587 6.65763091 3.36474609 4.66894531 C1.98046875 3.0078125 1.98046875 3.0078125 0 0 Z " fill="#0082cd" transform="translate(1156,136)"/>
  <path d="M0 0 C2.75164432 -0.13517903 5.49664521 -0.23415251 8.25 -0.3125 C9.02730469 -0.35439453 9.80460937 -0.39628906 10.60546875 -0.43945312 C12.84351137 -0.48727455 14.80959674 -0.46976923 17 0 C19.546875 2.51953125 19.546875 2.51953125 21 5 C18.24835568 5.13517903 15.50335479 5.23415251 12.75 5.3125 C11.58404297 5.3753418 11.58404297 5.3753418 10.39453125 5.43945312 C8.15648863 5.48727455 6.19040326 5.46976923 4 5 C1.453125 2.48046875 1.453125 2.48046875 0 0 Z " fill="#0069a5" transform="translate(115,167)"/>
  <path d="M0 0 C2.75164432 -0.13517903 5.49664521 -0.23415251 8.25 -0.3125 C9.02730469 -0.35439453 9.80460937 -0.39628906 10.60546875 -0.43945312 C12.84351137 -0.48727455 14.80959674 -0.46976923 17 0 C19.546875 2.51953125 19.546875 2.51953125 21 5 C18.24835568 5.13517903 15.50335479 5.23415251 12.75 5.3125 C11.58404297 5.3753418 11.58404297 5.3753418 10.39453125 5.43945312 C8.15648863 5.48727455 6.19040326 5.46976923 4 5 C1.453125 2.48046875 1.453125 2.48046875 0 0 Z " fill="#0069a5" transform="translate(1187,132)"/>
  <path d="M0 0 C2.5850867 -0.13526616 5.16308752 -0.23417653 7.75 -0.3125 C8.47960938 -0.35439453 9.20921875 -0.39628906 9.9609375 -0.43945312 C12.109375 -0.48828125 12.109375 -0.48828125 16 0 C18.515625 2.51953125 18.515625 2.51953125 20 5 C17.22858283 5.08089542 14.45952181 5.14044062 11.6875 5.1875 C10.90181641 5.21263672 10.11613281 5.23777344 9.30664062 5.26367188 C8.54931641 5.27333984 7.79199219 5.28300781 7.01171875 5.29296875 C6.31522217 5.3086792 5.61872559 5.32438965 4.90112305 5.34057617 C2.41762422 4.89567045 1.52898008 3.96642914 0 2 C0 1.34 0 0.68 0 0 Z " fill="#0069a5" transform="translate(1205,114)"/>
  <path d="M0 0 C4.22797927 3.08290155 4.22797927 3.08290155 6 5 C6.375 7.8125 6.375 7.8125 6 10 C1.77202073 6.91709845 1.77202073 6.91709845 0 5 C-0.375 2.1875 -0.375 2.1875 0 0 Z " fill="#0082ce" transform="translate(810,154)"/>
  <path d="M0 0 C2.1875 -0.375 2.1875 -0.375 5 0 C6.99022836 1.83961648 8.38989899 3.79186148 10 6 C7.8125 6.375 7.8125 6.375 5 6 C3.00977164 4.16038352 1.61010101 2.20813852 0 0 Z " fill="#006cac" transform="translate(359,149)"/>
  <path d="M0 0 C2.46800047 1.15173355 4.04783565 2.04783565 6 4 C6.125 6.625 6.125 6.625 6 9 C1.3125 5.484375 1.3125 5.484375 0 4 C0 2.68 0 1.36 0 0 Z " fill="#0082cd" transform="translate(915,194)"/>
  <path d="M0 0 C4.875 2.875 4.875 2.875 6 4 C6.04063832 5.66617115 6.042721 7.33388095 6 9 C1.3125 5.484375 1.3125 5.484375 0 4 C0 2.68 0 1.36 0 0 Z " fill="#0082ce" transform="translate(363,145)"/>
  <path d="M0 0 C4.6875 3.515625 4.6875 3.515625 6 5 C6 6.32 6 7.64 6 9 C2.83884224 7.63016497 2.0072908 7.0109362 0 4 C0 2.68 0 1.36 0 0 Z " fill="#006aa6" transform="translate(836,88)"/>
  <path d="M0 0 C2.5 1.6875 2.5 1.6875 5 4 C5.3125 6.75 5.3125 6.75 5 9 C2.5 7.3125 2.5 7.3125 0 5 C-0.3125 2.25 -0.3125 2.25 0 0 Z " fill="#0083cf" transform="translate(911,198)"/>
  <path d="M0 0 C2.5 1.6875 2.5 1.6875 5 4 C5.3125 6.75 5.3125 6.75 5 9 C2.5 7.3125 2.5 7.3125 0 5 C-0.3125 2.25 -0.3125 2.25 0 0 Z " fill="#0083cf" transform="translate(250,198)"/>
  <path d="M0 0 C2.5 1.6875 2.5 1.6875 5 4 C5.3125 6.75 5.3125 6.75 5 9 C2.5 7.3125 2.5 7.3125 0 5 C-0.3125 2.25 -0.3125 2.25 0 0 Z " fill="#0083cf" transform="translate(368,141)"/>
  <path d="M0 0 C3 1.75 3 1.75 6 4 C6 5.32 6 6.64 6 8 C3.53199953 6.84826645 1.95216435 5.95216435 0 4 C0 2.68 0 1.36 0 0 Z " fill="#006ba8" transform="translate(175,89)"/>
  <path d="M0 0 C3.67420866 0.30618405 4.78135513 0.75771784 7.3125 3.5625 C8.1478125 4.7690625 8.1478125 4.7690625 9 6 C5.32579134 5.69381595 4.21864487 5.24228216 1.6875 2.4375 C1.130625 1.633125 0.57375 0.82875 0 0 Z " fill="#006cab" transform="translate(250,197)"/>
  <path d="M0 0 C3.24208567 0.35049575 4.61527704 0.56221181 6.8125 3.0625 C7.204375 3.701875 7.59625 4.34125 8 5 C3.48279689 5.36625971 3.48279689 5.36625971 1.1875 3.625 C0 2 0 2 0 0 Z " fill="#006baa" transform="translate(255,193)"/>
  <path d="M0 0 C3.875 1.875 3.875 1.875 5 3 C5.04063832 4.66617115 5.042721 6.33388095 5 8 C2.5 6.25 2.5 6.25 0 4 C0 2.68 0 1.36 0 0 Z " fill="#0083d0" transform="translate(920,190)"/>
  <path d="M0 0 C3.67420866 0.30618405 4.78135513 0.75771784 7.3125 3.5625 C8.1478125 4.7690625 8.1478125 4.7690625 9 6 C5.32579134 5.69381595 4.21864487 5.24228216 1.6875 2.4375 C1.130625 1.633125 0.57375 0.82875 0 0 Z " fill="#006aa6" transform="translate(806,158)"/>
  <path d="M0 0 C3.875 1.875 3.875 1.875 5 3 C5.04063832 4.66617115 5.042721 6.33388095 5 8 C2.5 6.25 2.5 6.25 0 4 C0 2.68 0 1.36 0 0 Z " fill="#0083ce" transform="translate(355,155)"/>
  <path d="M0 0 C3.67420866 0.30618405 4.78135513 0.75771784 7.3125 3.5625 C8.1478125 4.7690625 8.1478125 4.7690625 9 6 C5.32579134 5.69381595 4.21864487 5.24228216 1.6875 2.4375 C1.130625 1.633125 0.57375 0.82875 0 0 Z " fill="#006caa" transform="translate(355,153)"/>
  <path d="M0 0 C1.98 1.65 3.96 3.3 6 5 C5.67 6.32 5.34 7.64 5 9 C2.5 6.75 2.5 6.75 0 4 C0 2.68 0 1.36 0 0 Z " fill="#0083d0" transform="translate(359,150)"/>
  <path d="M0 0 C1.98 1.65 3.96 3.3 6 5 C5.67 6.32 5.34 7.64 5 9 C2.5 6.75 2.5 6.75 0 4 C0 2.68 0 1.36 0 0 Z " fill="#0068a5" transform="translate(832,93)"/>
  <path d="M0 0 C3.875 1.875 3.875 1.875 5 3 C5.04063832 4.66617115 5.042721 6.33388095 5 8 C2.5 6.25 2.5 6.25 0 4 C0 2.68 0 1.36 0 0 Z " fill="#0069a6" transform="translate(841,85)"/>
  <path d="M0 0 C1.98 1.65 3.96 3.3 6 5 C5.67 6.32 5.34 7.64 5 9 C2.5 6.75 2.5 6.75 0 4 C0 2.68 0 1.36 0 0 Z " fill="#0069a5" transform="translate(845,80)"/>
  <path d="M0 0 C3.25543229 0.34879632 4.01873107 1.02133261 6.25 3.5625 C6.8275 4.366875 7.405 5.17125 8 6 C5.21788056 5.62403791 3.4120716 5.32681541 1.1875 3.5625 C0 2 0 2 0 0 Z " fill="#006baa" transform="translate(912,197)"/>
  <path d="M0 0 C3.25543229 0.34879632 4.01873107 1.02133261 6.25 3.5625 C6.8275 4.366875 7.405 5.17125 8 6 C5.21788056 5.62403791 3.4120716 5.32681541 1.1875 3.5625 C0 2 0 2 0 0 Z " fill="#006cab" transform="translate(369,140)"/>
  <path d="M0 0 C1.65 1.32 3.3 2.64 5 4 C4.67 5.32 4.34 6.64 4 8 C2 6.25 2 6.25 0 4 C0 2.68 0 1.36 0 0 Z " fill="#0084d1" transform="translate(907,203)"/>
  <path d="M0 0 C3.24208567 0.35049575 4.61527704 0.56221181 6.8125 3.0625 C7.204375 3.701875 7.59625 4.34125 8 5 C4.75791433 4.64950425 3.38472296 4.43778819 1.1875 1.9375 C0.795625 1.298125 0.40375 0.65875 0 0 Z " fill="#006aa7" transform="translate(907,202)"/>
  <path d="M0 0 C3.24208567 0.35049575 4.61527704 0.56221181 6.8125 3.0625 C7.204375 3.701875 7.59625 4.34125 8 5 C4.75791433 4.64950425 3.38472296 4.43778819 1.1875 1.9375 C0.795625 1.298125 0.40375 0.65875 0 0 Z " fill="#006aa6" transform="translate(246,202)"/>
  <path d="M0 0 C1.65 1.32 3.3 2.64 5 4 C4.67 5.32 4.34 6.64 4 8 C2 6.25 2 6.25 0 4 C0 2.68 0 1.36 0 0 Z " fill="#0084d1" transform="translate(254,194)"/>
  <path d="M0 0 C3.24208567 0.35049575 4.61527704 0.56221181 6.8125 3.0625 C7.204375 3.701875 7.59625 4.34125 8 5 C4.75791433 4.64950425 3.38472296 4.43778819 1.1875 1.9375 C0.795625 1.298125 0.40375 0.65875 0 0 Z " fill="#006aa7" transform="translate(916,193)"/>
  <path d="M0 0 C3.24208567 0.35049575 4.61527704 0.56221181 6.8125 3.0625 C7.204375 3.701875 7.59625 4.34125 8 5 C4.75791433 4.64950425 3.38472296 4.43778819 1.1875 1.9375 C0.795625 1.298125 0.40375 0.65875 0 0 Z " fill="#006aa7" transform="translate(811,154)"/>
  <path d="M0 0 C1.65 1.32 3.3 2.64 5 4 C4.67 5.32 4.34 6.64 4 8 C2 6.25 2 6.25 0 4 C0 2.68 0 1.36 0 0 Z " fill="#0068a3" transform="translate(780,142)"/>
  <path d="M0 0 C1.65 1.32 3.3 2.64 5 4 C4.67 5.32 4.34 6.64 4 8 C2 6.25 2 6.25 0 4 C0 2.68 0 1.36 0 0 Z " fill="#0068a4" transform="translate(342,130)"/>
  <path d="M0 0 C1.65 1.32 3.3 2.64 5 4 C4.67 5.32 4.34 6.64 4 8 C2 6.25 2 6.25 0 4 C0 2.68 0 1.36 0 0 Z " fill="#0068a4" transform="translate(171,93)"/>
  <path d="M0 0 C1.65 1.32 3.3 2.64 5 4 C4.67 5.32 4.34 6.64 4 8 C2 6.25 2 6.25 0 4 C0 2.68 0 1.36 0 0 Z " fill="#0068a4" transform="translate(180,85)"/>
  <path d="M0 0 C1.65 1.32 3.3 2.64 5 4 C4.67 5.32 4.34 6.64 4 8 C2 6.25 2 6.25 0 4 C0 2.68 0 1.36 0 0 Z " fill="#0068a3" transform="translate(184,80)"/>
  <path d="M0 0 C1.32 0 2.64 0 4 0 C6.25 3 6.25 3 8 6 C4.74456771 5.65120368 3.98126893 4.97866739 1.75 2.4375 C1.1725 1.633125 0.595 0.82875 0 0 Z " fill="#006aa8" transform="translate(259,188)"/>

</svg>
