<svg xmlns="http://www.w3.org/2000/svg" viewBox="0 0 800 800" xmlns:v="https://vecta.io/nano"><path d="M-53.200000762939-41.299999237061h906.5v946.200012207031h-906.5z" fill="#231815"/><path d="M417.5 491.2c0 61.7 50 111.7 111.7 111.7l59.7-20.4 3.4-8 4 5.1s4.4-2.5 4.9-3c24.3-20.5 39.7-51.1 39.7-85.4s-1.5-20.8-4.3-30.5H421.8c-2.8 9.7-4.3 19.9-4.3 30.5zm111.7-154.3c-111.7 0-107.7 46.4-134 115.2h268c-26.3-68.7-22.3-115.2-134-115.2zm-4 319.1c-3.2 2.3-8.3 7.4-17.5 16.4-26.3 25.8-18.8 25.7-13.9 30.9 5 5.1 5.6 13.6 31.9-12.2 15.6-15.3 19.6-19.3 18.4-21.9 2.3.1 4.8-.6 7.2-2.5 8.7-6.8 15.1-28.5 13.7-42.2l70-29.8c13.8-5.9 24.6-16.6 48.5-26.6l11.7-4.9 27.7-11.6c.4-.2.5-1 .4-2.2l22.8-9.6c1.3-.6-.5-4.7-1.7-4.1l-22.2 9.3c0-.2-.2-.5-.2-.7l24.4-10.3c1.3-.6-3-10.7-4.3-10.1l-4.2 1.8-1.4-3.3-5.7 2.4 1.4 3.3-15.2 6.4c-.6-.7-1.2-1-1.6-.8l-27.5 11.6-16.6 7-75.7 31.8-3.4-6.7s.5 3.7.9 7.8l-99.6 41.9c-1.4.6-3 1.4-4.5 2.3l-16.6.9s5.6 1.2 10.9 2.9c-16.7 12-38.7 35.5-53.9 47.2-23.8 29-37.8 16-37.8 16s-33.6 22-56.2 31.5c0 0 17.4 12.1 21.9 17.4 7.1 8.4 19.1 33.1 19.1 33.1l148.8-122.2.1.1zm10.4-8.8c2.5 5.6 6 10.5 10.2 10.6 0 0-5.5-6.7-7.9-12.5l19.2-15.8c3.7 5.8 0 25.3-7.7 31.3-8.2 6.4-15.2-3.4-20.1-7.6-.2-.1-.3-.3-.4-.4l6.8-5.6zm4.2 20.8c3.5 3.4 1.7 5.1-15.6 22.2-22.9 22.5-23 14.6-27.3 10.1s-11.3-3.8 11.6-26.3c10.9-10.7 15.6-15.3 18.5-16.3 3.5 3.4 7.9 8.2 12.8 10.4zm-105.2 1.5c19.3-14.9 21.8-21 43.1-36.3-6.6-2.1-13.8-3.6-13.8-3.6l21.5-2.7c2-1.2 4-2.2 5.8-3l14.6-6.2c-36.4-6-68.1-25.8-89.6-53.9C349.1 598.3 304 662.6 304 736.2l82.5-46.5s17.8 16.5 48.1-20.4zm237.8-87c-.4.2-.8.4-1.2.5l-101.8 43.7c1.8 17.5-.4 34.3-11.4 42.9-3.2 2.5-6.2 3.4-9.2 3.2 1.5 3.3-3.7 8.4-23.5 27.8-22.6 22.3-26.6 12.4-32.9 5.8s-9.8-7.8-7-14.1l-45.7 43.9h314.7c0-61.9-31.9-117.3-82-153.8z" fill="#fefffe" fill-rule="evenodd"/><path d="M594.2 94.8l-27.9 11.7c0-.3-.2-.6-.3-.9l30.8-12.9c1.7-.7-3.8-13.4-5.4-12.8-1.8.7-3.5 1.5-5.3 2.2l-1.8-4.2-7.2 3 1.8 4.2-19.2 8.1c-.8-.8-1.5-1.3-2.1-1.1L523 106.7l-20.9 8.8-95.2 40-4.3-8.5s.7 4.7 1.2 9.8l-125.3 52.7c-1.8.8-3.7 1.8-5.7 2.9l-20.9 1.1s7.1 1.6 13.7 3.6c-21.1 15.2-48.7 44.7-67.8 59.4-30 36.4-47.6 20.1-47.6 20.1s-42.3 27.7-70.7 39.7c0 0 21.9 15.2 27.6 21.9 8.9 10.6 24 41.7 24 41.7l187.2-153.7.2.2c-4.1 3-10.5 9.3-22 20.6-33.1 32.5-23.7 32.3-17.4 38.8s7 17.1 40.1-15.4c19.6-19.3 24.7-24.2 23.2-27.6 2.9.1 6-.7 9.1-3.2 10.9-8.6 19-35.8 17.2-53.2l88.1-37.5c17.3-7.4 31-20.9 61.1-33.5l14.7-6.2 34.8-14.6c.5-.2.7-1.2.5-2.7l28.7-12.1c1.7-.7-.6-5.9-2.2-5.2zM317 289.5c-28.8 28.3-28.9 18.3-34.4 12.7s-14.2-4.8 14.6-33.1c13.7-13.4 19.6-19.3 23.2-20.5 4.5 4.2 10 10.4 16.1 13.1 4.4 4.2 2.2 6.5-19.6 27.9zm31.8-37c-10.3 8-19.1-4.3-25.3-9.6l-.6-.6 8.5-7c3.2 7.1 7.5 13.2 12.9 13.4.1 0-6.9-8.5-10-15.8l24.2-19.8c4.6 7.3 0 31.8-9.7 39.4z" fill="#fff"/></svg>